<svg xmlns="http://www.w3.org/2000/svg" width="30.33" height="57.07" viewBox="0 0 30.33 57.07">
  <title>Asset 10Web</title>
  <g id="Layer_2" data-name="Layer 2">
    <g id="Sketch">
      <g>
        <path d="M14.08,14.66c.08,0,0,.14,0-.08l0-.22a5.61,5.61,0,0,1,0-.71A10.64,10.64,0,0,1,14.29,12,24,24,0,0,1,16,7.86,18.45,18.45,0,0,1,21.68,1c.51-.38,0-1.25-.51-.86a21.12,21.12,0,0,0-3.78,3.66,19.6,19.6,0,0,0-2.72,4.55,15.77,15.77,0,0,0-1.58,4.85c-.07.69-.29,2.31.72,2.47.63.09.91-.87.27-1Z" transform="translate(-0.03)" style="fill: #231f20"/>
        <g>
          <path d="M14.09,55.77c-.65-2.08-5.85-.34-6.6-.11s-1.23.47-1.84.6a16.72,16.72,0,0,1-2.18.43c-1.22-.08-1.23-1.34-1.61-2.33-1.31-3.42,1.27-5.5,3.53-7.76A9.39,9.39,0,0,0,8,43.27c.58-1.61-1-3.15-1-4.9,0-.66,0-1.33,0-2a13.42,13.42,0,0,1,.44-2.06c.13-.71,0-1.38.15-2.08.25-1,.58-1.1.09-2.11a5.4,5.4,0,0,1-.65-1.62,21.48,21.48,0,0,0-.87-2c-.42-1.31.2-2.57-.56-3.85a17.56,17.56,0,0,0-2.34-3.09c-1-1-3.18-2.38-2.88-4a4.63,4.63,0,0,1,3.35-2.66c1.71,0,3.24,1.68,4.8,2,3.58.67,6.92-.88,10.22-1.67,2.19-.53,4.28-1.65,6.54-1.67,1,0,5.09-.56,4.65,1.36-2.7.44-5.42,2.21-6.25,5a30.18,30.18,0,0,1-1,3.48,13.83,13.83,0,0,1-2.49,3.15c-1,1.18-1.21,2.5-1.88,3.89s-.46,2.7-.46,4.24a15.65,15.65,0,0,0,0,3.06c.17.79.51.76,1,1.34.62.79.85,1.66,1.53,2.43,1.91,2.15,4.59,2.92,7.07,4.19,3,1.51.58,5.23-1.52,6.51-1.24.75-2.6.05-3.78.88-.95.67-1.56,1.81-2.58,2.42-1.19.72-2.27.15-3.55.54s-.27,1.34-1,2.58c-.56.32-.89-.28-.88-.8" transform="translate(-0.03)" style="fill: #007d00"/>
          <path d="M14.45,55.67c-.7-2-3.75-1.25-5.24-.89-.89.22-1.77.49-2.64.8a18,18,0,0,1-2.07.56c-.59.14-1.3.38-1.7-.23a7.25,7.25,0,0,1-.65-1.85A4.25,4.25,0,0,1,2,51.64,8.38,8.38,0,0,1,4.54,48a22.53,22.53,0,0,0,3.3-3.54,3.53,3.53,0,0,0,.65-2.07,6.62,6.62,0,0,0-.61-2.09,8.61,8.61,0,0,1-.16-5.38c.25-.93,0-1.91.33-2.83a2.37,2.37,0,0,0,.14-1.73c-.14-.37-.34-.7-.5-1.06a11.19,11.19,0,0,1-.37-1.16,9.8,9.8,0,0,1-.92-2.54,9.64,9.64,0,0,0-.18-2.52,8.6,8.6,0,0,0-1.43-2.3A13.48,13.48,0,0,0,3.2,19c-.52-.48-1.08-.92-1.57-1.44a2.25,2.25,0,0,1-.85-1.89,3.08,3.08,0,0,1,1.14-1.46,3.39,3.39,0,0,1,1.78-.89A4.61,4.61,0,0,1,6,14.12a10.16,10.16,0,0,0,2,1,8.27,8.27,0,0,0,2.53.28,21.49,21.49,0,0,0,5.54-1.08c1.83-.54,3.67-1,5.47-1.62A15.39,15.39,0,0,1,24.33,12c.56-.08,1.12-.07,1.68-.1A8.17,8.17,0,0,1,29,12c.37.13.67.33.59.77l.26-.26a8.78,8.78,0,0,0-5.1,2.73,6.86,6.86,0,0,0-1.44,2.6,17.14,17.14,0,0,1-1.18,3.72,22,22,0,0,1-2.29,2.72,10,10,0,0,0-1.45,2.9,10.11,10.11,0,0,0-.94,3.22c-.05,1.14,0,2.28-.05,3.42a3.87,3.87,0,0,0,.44,2.76,10.76,10.76,0,0,1,.85.94c.34.51.57,1.07.9,1.58C20.8,41,22.93,42,24.86,42.87a11.7,11.7,0,0,1,2.91,1.47,2,2,0,0,1,.53,2.14c-.44,1.61-2,3.53-3.77,3.68-1.21.1-2.2.09-3.15,1s-1.65,2.18-3.05,2.33c-1,.1-2.44-.27-3.16.58a1.5,1.5,0,0,0-.28,1,3.94,3.94,0,0,1,0,.77c-.08.44-.37.51-.4,0s-.77-.48-.75,0c0,.68.65,1.71,1.45,1.12a1.65,1.65,0,0,0,.45-1.06c.05-.35-.09-.93.09-1.24.26-.46,1.21-.38,1.67-.38A5,5,0,0,0,19,54.07a6.11,6.11,0,0,0,2.51-2,3.19,3.19,0,0,1,1.38-1,11.61,11.61,0,0,1,1.87-.18,4.2,4.2,0,0,0,2.33-1.22c1.11-1,2.22-2.64,2-4.24-.23-2-2.61-2.61-4.16-3.32a17.07,17.07,0,0,1-3-1.65,8.1,8.1,0,0,1-1.41-1.27,10.35,10.35,0,0,1-1-1.66,4.88,4.88,0,0,0-.88-1.15,1.7,1.7,0,0,1-.56-1.32c-.05-1.17.11-2.33.09-3.5a8.62,8.62,0,0,1,.09-1.9,8.82,8.82,0,0,1,.63-1.76,11,11,0,0,1,1.72-3.37,12.17,12.17,0,0,0,2.36-3c.58-1.31.71-2.77,1.25-4.09a7.51,7.51,0,0,1,5.8-4.18.39.39,0,0,0,.27-.26c.42-2.27-3.13-1.93-4.46-1.86-.62,0-1.23,0-1.85.14a18.53,18.53,0,0,0-2.83.78c-1.91.65-3.87,1.15-5.8,1.71a15.77,15.77,0,0,1-6.05.85,6.34,6.34,0,0,1-2.62-1,8.75,8.75,0,0,0-2.17-1,3.73,3.73,0,0,0-3.46,1.26,2.46,2.46,0,0,0-.74,3.18c.73,1.29,2.12,2.09,3.09,3.18a15.75,15.75,0,0,1,1.81,2.48c.54.93.33,1.9.41,2.92a9.16,9.16,0,0,0,.9,2.54c.14.37.2.77.35,1.15s.37.73.53,1.11c.31.76-.22,1.46-.29,2.23a14.05,14.05,0,0,1-.09,1.72c-.09.42-.25.83-.33,1.26a11.73,11.73,0,0,0-.07,3,7.78,7.78,0,0,0,.67,2.25,3.11,3.11,0,0,1,.19,2.56,7.33,7.33,0,0,1-1.63,2.13C3.83,47.62.73,50,1.18,53.23a13.47,13.47,0,0,0,.62,2.21,2.31,2.31,0,0,0,.87,1.39A2.11,2.11,0,0,0,4.25,57a19.06,19.06,0,0,0,2.11-.51c1-.32,1.93-.67,2.93-.92a8.4,8.4,0,0,1,3.45-.33,1.19,1.19,0,0,1,1,.67c.16.45.88.26.72-.2Z" transform="translate(-0.03)" style="fill: #231f20"/>
        </g>
        <path d="M8.32,25a1.55,1.55,0,0,0,.2,1,3,3,0,0,0,.92.7,1.78,1.78,0,0,1,.71.62c.15.29-.06.61-.21.86-.32.53-.89,1.29-.57,1.95a2.68,2.68,0,0,0,.6.66,1.31,1.31,0,0,0,.86.49c.48,0,.48-.73,0-.75-.19,0-.42-.38-.55-.49s-.28-.23-.21-.52c.17-.64.74-1.1.86-1.76a1.53,1.53,0,0,0-.8-1.5c-.24-.17-.5-.31-.75-.47s-.32-.43-.31-.8a.38.38,0,0,0-.75,0Z" transform="translate(-0.03)" style="fill: #231f20"/>
        <path d="M9.63,38.63a2.82,2.82,0,0,0,.12,1,2.1,2.1,0,0,1,.22,1,5.14,5.14,0,0,0-.18,1.11,8.89,8.89,0,0,0,.24,1,3,3,0,0,1-.28,2,7.37,7.37,0,0,1-.65.9,8.19,8.19,0,0,0-.51,1,.37.37,0,0,0,.23.55l.1,0c.47.09.67-.64.2-.72l-.11,0,.23.55a8,8,0,0,1,.56-1,5.83,5.83,0,0,0,.66-1,3.7,3.7,0,0,0,.38-2,7.62,7.62,0,0,0-.23-1,2.76,2.76,0,0,1,.08-1.21c.13-.78-.31-1.39-.31-2.16a.38.38,0,0,0-.75,0Z" transform="translate(-0.03)" style="fill: #231f20"/>
        <path d="M19.4,41.66c0-.09-.07-.18-.11-.27l-.06-.13c0-.07,0,0,0,0l0-.07-.09-.26s0-.08,0,0,0,0,0,0,0,0,0,0,0,.07,0,0a1.61,1.61,0,0,0,.15-.81c0-.24-.13-.46-.18-.7a.38.38,0,0,0-.46-.27.39.39,0,0,0-.26.47,2,2,0,0,0,.09.33l.05.14a.17.17,0,0,0,0,.07s0,0,0,0v0a1.2,1.2,0,0,1,0,.19c0-.06,0,0,0,0s0,.07,0,.1,0,.09,0,0,0,0,0,0a.7.7,0,0,0-.08.2,1,1,0,0,0,.08.65c.05.11.1.22.14.33l.06.12c0,.08,0,0,0,0l0,0a.39.39,0,0,0,.46.26.37.37,0,0,0,.26-.46Z" transform="translate(-0.03)" style="fill: #231f20"/>
        <path d="M16.46,27a6.79,6.79,0,0,1,.11-1.8,5.51,5.51,0,0,1,.7-1.47c.31-.49.56-1,.83-1.52a5.93,5.93,0,0,1,1-1.35c.34-.35-.19-.88-.53-.53a6.47,6.47,0,0,0-1.1,1.4c-.15.28-.28.58-.42.86s-.35.57-.53.85A6,6,0,0,0,15.84,25,7.4,7.4,0,0,0,15.71,27a.38.38,0,0,0,.75,0Z" transform="translate(-0.03)" style="fill: #231f20"/>
      </g>
    </g>
  </g>
</svg>
