<svg xmlns="http://www.w3.org/2000/svg" width="80.01" height="68.65" viewBox="0 0 80.01 68.65">
  <title>Asset 6</title>
  <g id="Layer_2" data-name="Layer 2">
    <g id="Sketch">
      <g>
        <path d="M3.3,64c-1.1.23-1.54-.21-1.82-1.17a14.8,14.8,0,0,1-.63-3.48C.93,57,2.14,56,3.86,54.92c0-.85-1.26-2.12-1.6-3a11.34,11.34,0,0,1-.75-4.53c0-2.19.94-6.19,4-5.46-1.2-1-1.28-2.82-1.71-4.23-.56-1.81-1.66-3.43-1.69-5.38a4.8,4.8,0,0,1,2.17-3.89c2.08-1.67,2.67-1,2.64-3.82,0-3-.75-7.13,1.09-9.76,1.37-2,4.94-2.79,7.17-2.87a19.27,19.27,0,0,1,2.28,0c.7.05,1.91.75,2.48.45a15.64,15.64,0,0,1,2.87-5.51c1.93-2.54,5.62-3.66,8.49-4.51A9.79,9.79,0,0,1,40.6,4.5c1.06.92,2.88,2.41,3.33,3.75.62-2.44,6.22-4.4,8.18-5.06,4.13-1.4,10-4,14.21-1.85,2.91,1.52,5.46,5.1,5.44,8.43,0,1.66.08,4.93-1.5,6,.31.63,1,.34,1.67.38a4.79,4.79,0,0,1,3.68,1.39c2.45,2.38,4.68,5.7,3.72,9.22a11,11,0,0,1-3.19,5.17c-1.53,1.38-3.33,1.63-5.27,2.23a14.24,14.24,0,0,1-3.42.83c-1,.06-2.43-.49-3.3-.32-1.5.3-1.57,2.3-2.73,3.53a19.79,19.79,0,0,1-4,3.44c-3.51,2.07-8.13-.23-11.51-1.59,1.48,3.78,2.51,7.76-2.64,8.38-2,.24-5.23.54-7.13-.3-1.28-.56-2.07-2.15-3.53-2.38.08,1.66.65,2.63-.37,4.2a9.84,9.84,0,0,1-4.83,3.65,10.25,10.25,0,0,1-4.29.86,21.84,21.84,0,0,0-2.4-.46c-.29,2.09-.73,4.11-2.3,5.67-1,1-2.71,2.53-4.14,2.6,1.21,2.58-1.36,3.35-3.37,3.54s-3.27-.44-4.91.85c-1.42,1.12-2.72,2.28-4.37.79C.52,66.45-.42,64,2.11,64" transform="translate(-0.01 -0.01)" style="fill: #00a651"/>
        <path d="M3.17,63.52C2.18,63.7,2,63,1.81,62.15a11.07,11.07,0,0,1-.46-2.73,4.08,4.08,0,0,1,.83-2.52,5.5,5.5,0,0,1,.89-.85,8.19,8.19,0,0,0,1.14-.78c.5-.55-.26-1.63-.58-2.09a8.29,8.29,0,0,1-1.3-2.63,11.3,11.3,0,0,1-.05-5.33c.37-1.49,1.27-3.19,3.07-2.8.46.1.88-.48.49-.84-1-.86-1.12-2.15-1.41-3.33A36.87,36.87,0,0,0,3,34.45a4.84,4.84,0,0,1-.08-3.77A6.93,6.93,0,0,1,5.4,28.21,4.87,4.87,0,0,0,7,27a4,4,0,0,0,.42-2.29c0-2.47-.45-5,.1-7.43a5.1,5.1,0,0,1,1.61-2.9,8.3,8.3,0,0,1,3-1.42,13.82,13.82,0,0,1,3.25-.49,11.81,11.81,0,0,1,2.06,0c.56.08,1.08.35,1.63.46a1.39,1.39,0,0,0,1.21-.15c.18-.18.18-.49.25-.72a6.38,6.38,0,0,1,.3-.87,16.81,16.81,0,0,1,2-3.47,11.59,11.59,0,0,1,5.9-4,23,23,0,0,1,3.88-1.14,9.18,9.18,0,0,1,4.5.39,10.91,10.91,0,0,1,3.71,2.3,8.62,8.62,0,0,1,2.66,3.07.51.51,0,0,0,1,0,4.21,4.21,0,0,1,1.95-2.11,19.77,19.77,0,0,1,3.18-1.61C51.74,3.76,54,3,56.26,2.27,59,1.36,62.15.46,65,1.34A9.69,9.69,0,0,1,70.9,7.57a11.38,11.38,0,0,1,.32,4.15c-.06,1.17-.18,2.87-1.22,3.63a.51.51,0,0,0-.18.68c.43.69,1.06.66,1.79.63a5.84,5.84,0,0,1,2.31.33,6,6,0,0,1,2.1,1.7A14.1,14.1,0,0,1,77.79,21a7.23,7.23,0,0,1,1.09,5.53,10.27,10.27,0,0,1-3.09,5.05c-1.47,1.3-3.46,1.6-5.26,2.17a12.59,12.59,0,0,1-3.08.74,17.78,17.78,0,0,1-2.51-.33c-1.63-.16-2.36.92-3,2.25a12.24,12.24,0,0,1-4,4.26,7.07,7.07,0,0,1-6,1,39.18,39.18,0,0,1-5.9-2.12.5.5,0,0,0-.61.61c.71,1.82,2.13,5,.43,6.71-1,1-2.6,1.06-3.92,1.18a14.12,14.12,0,0,1-5-.18c-1.67-.46-2.48-2.28-4.21-2.62a.51.51,0,0,0-.64.48c.07,1.24.51,2.5-.13,3.66a8,8,0,0,1-2.92,2.84,13.32,13.32,0,0,1-3.89,1.53,6.14,6.14,0,0,1-2.45.12,9.21,9.21,0,0,0-2-.4.5.5,0,0,0-.48.36A9.63,9.63,0,0,1,18.36,59a12.38,12.38,0,0,1-1.85,1.69,4.59,4.59,0,0,1-2.22,1.06.51.51,0,0,0-.43.75,1.53,1.53,0,0,1-.3,2,4.43,4.43,0,0,1-1.93.71c-1.64.29-3.41-.23-5,.46s-3.14,3.14-4.89,1.19A2.86,2.86,0,0,1,1,65.36c-.08-.71.49-.85,1.1-.86a.5.5,0,0,0,0-1c-1.41,0-2.39.89-2,2.34a3.69,3.69,0,0,0,3,2.82c2,.1,3.06-2.15,5-2.32.94-.08,1.88.07,2.82,0a8.28,8.28,0,0,0,2.21-.46,3.1,3.1,0,0,0,1.74-1.37A2.84,2.84,0,0,0,14.73,62l-.44.75c1.81-.16,3.45-1.62,4.64-2.89a10.19,10.19,0,0,0,2.28-5.75l-.48.37c.82,0,1.58.4,2.4.46a8.3,8.3,0,0,0,2.43-.24,14.27,14.27,0,0,0,4.34-1.81,8.62,8.62,0,0,0,3-3.09c.7-1.34.3-2.64.22-4.07l-.63.49a4.57,4.57,0,0,1,2.11,1.39,5.05,5.05,0,0,0,2,1.2,14.48,14.48,0,0,0,5.41.23c1.51-.14,3.16-.27,4.36-1.3a3.82,3.82,0,0,0,1.22-3.13,14.31,14.31,0,0,0-1.22-4.71l-.61.61C49.16,41.9,53.2,44,56.87,42.48a14.76,14.76,0,0,0,4.9-3.92A8.4,8.4,0,0,0,63,36.49c.34-.69.72-1.35,1.58-1.34s1.78.36,2.69.35a10.51,10.51,0,0,0,3.08-.64c1.83-.58,3.86-.91,5.46-2,3.16-2.23,5.11-6.65,3.75-10.39a13.86,13.86,0,0,0-3.76-5.37,4.93,4.93,0,0,0-2.38-1.24,11.59,11.59,0,0,0-1.32-.15c-.35,0-1.23.19-1.43-.14l-.18.68A4.6,4.6,0,0,0,72.1,13a16.49,16.49,0,0,0,.12-3.91,10.88,10.88,0,0,0-5-7.78C64.38-.51,61-.11,57.89.72a81.11,81.11,0,0,0-8,2.74,22,22,0,0,0-4,2,5.22,5.22,0,0,0-2.42,2.7h1c-.68-1.81-2.51-3.26-4-4.41a10.42,10.42,0,0,0-6.21-2.19,17.18,17.18,0,0,0-6.13,1.41A13.26,13.26,0,0,0,22.88,6a16.14,16.14,0,0,0-2,2.84,11.71,11.71,0,0,0-1.45,3.44l.35-.35c-.56.22-1.33-.27-1.88-.4a9.73,9.73,0,0,0-2.64-.08,14.65,14.65,0,0,0-4,.69A7.52,7.52,0,0,0,7.8,14.27a7.57,7.57,0,0,0-1.49,4.08,30.39,30.39,0,0,0,0,4.77,21.68,21.68,0,0,1,0,2.28,1.93,1.93,0,0,1-.29,1.13,3.73,3.73,0,0,1-.92.65,12.07,12.07,0,0,0-1.63,1.21A5.24,5.24,0,0,0,1.59,32c-.11,2,1,3.75,1.63,5.6.53,1.61.58,3.44,1.91,4.65l.49-.83c-2.82-.61-4.16,2.13-4.49,4.48a12.7,12.7,0,0,0,.19,4.68,7.4,7.4,0,0,0,1,2.35c.37.54,1.07,1.26,1.09,2l.24-.43a7.62,7.62,0,0,0-2.46,2.16,5.08,5.08,0,0,0-.76,3.27,12.78,12.78,0,0,0,.72,3.34,1.87,1.87,0,0,0,2.34,1.22c.63-.11.36-1.08-.27-1Z" transform="translate(-0.01 -0.01)" style="fill: #231f20"/>
      </g>
    </g>
  </g>
</svg>
