<svg xmlns="http://www.w3.org/2000/svg" width="116.82" height="62.71" viewBox="0 0 116.82 62.71">
  <title>Asset 9Web</title>
  <g id="Layer_2" data-name="Layer 2">
    <g id="Sketch">
      <g>
        <g>
          <path d="M112,47.28a51.43,51.43,0,0,0-6.06-1,43.81,43.81,0,0,0-5.24-.28c-2.81,0-5.59.24-8.4.16-1.53,0-3.09,0-4.62-.16a16.57,16.57,0,0,1-7.17-2.22,39.24,39.24,0,0,1-4.92-3,36.14,36.14,0,0,1-3.46-3c.75-.42,1.47-.89,2.18-1.38a34.23,34.23,0,0,0,3.93-2.77,28.71,28.71,0,0,1,3.29-2.75c.43-.28.81-.68,1.26-.94.26-.15.53-.17.78-.34a4,4,0,0,0,1.23-1.07c.61-1.15-1.39-1-2-1a5.93,5.93,0,0,0-2.72.74c-.6.28-1.18.59-1.77.89a13.72,13.72,0,0,0-1.42.92c-.35.23-.75.37-1.09.6a8.39,8.39,0,0,1-.77.56c-.29.16-.66.24-.94.41a8.29,8.29,0,0,1-.68.48,7.85,7.85,0,0,0-1.4.68c-.27.19-.45.48-.73.66s-.61.26-.89.44a9.13,9.13,0,0,0-.95.8c-.24-.34-.49-.69-.71-1-.47-.73-1-1.38-1.52-2.08-.65-.92-1.25-1.89-1.87-2.83C64.12,27,63.26,25,62,23.16c-1.45-2.1-2.53-4.41-4.14-6.41a46.45,46.45,0,0,0-4.27-4.48,38.68,38.68,0,0,1-3.45-3.21A8.7,8.7,0,0,1,48.5,5.8c-.26-1,.08-2.43-.93-3.06a5.31,5.31,0,0,0-1.76-.4,9.86,9.86,0,0,1-2-.54c-.86-.35-1.56-1-2.41-1.32C41.1.37,41,.26,40.68.33s-.53.38-.9.41a.75.75,0,0,1-.17-.28v.77c0,.84.12,1.59.18,2.41A4.64,4.64,0,0,0,40.06,5c.18.35.24.2.62.26s.44.17.69.2c.6.08,1.07-.15,1.54.4a6.91,6.91,0,0,1,.68,1.36c.25.48.62.83.89,1.3a13.57,13.57,0,0,1,.74,1.35c.32.76.65,1.6.93,2.4A3.14,3.14,0,0,1,46,15.14a13.52,13.52,0,0,0-.85,2.31c-.36,1.1-.76,2.2-1.13,3.28a8.14,8.14,0,0,0-.35,1,7.94,7.94,0,0,1-.45,1.14c-.12.33-.22.66-.32,1a4.25,4.25,0,0,1-.4.83c-.14.28-.14.62-.29.91a5.38,5.38,0,0,0-.38.66c-.09.26-.26.58-.33.83s0,.58-.17.78c-.31-.12-.5-.93-.66-1.22s-.46-.62-.7-1c-.09-.13-.11-.36-.22-.47s-.38-.28-.51-.41c-.29-.27-.6-.46-.92-.71s-.71-.75-1.12-1a9.42,9.42,0,0,0-2.5-1c-.76-.21-1.47-.33-2.21-.48-.41-.09-.48-.17-.44.26,0,.16.14.35.15.53s0,.5,0,.76a13.65,13.65,0,0,1,.34,1.64,4.49,4.49,0,0,0,.13,1c.3,1.26.8,2.44,1.21,3.66.14.41.36.78.51,1.18s.28.94.51,1.41a4.31,4.31,0,0,1,.39,1.11,4.71,4.71,0,0,0,.58,1.3c.32.56.85,1.23.27,1.75-.93.82-1.49,1.93-2.39,2.78-.29.28-.67.48-.93.77a6.22,6.22,0,0,1-.51.64,11,11,0,0,1-1.16.67A12.07,12.07,0,0,1,27.75,43c-.54.15-1.06.42-1.59.62a29.05,29.05,0,0,1-3.29,1c-.56.14-1.17.28-1.72.37a13.22,13.22,0,0,0-1.7.51c-.74.21-1.51.2-2.26.36-1.07.23-2.17.34-3.26.47-.89.11-1.8.21-2.69.37a13.56,13.56,0,0,1-1.92.13,23.11,23.11,0,0,0-2.41.53,27.25,27.25,0,0,1-3.25.42,7,7,0,0,0-3.35.76c.1.66,1.14,1.13,1.58,1.49s1,1,1.57,1.41a5.33,5.33,0,0,0,2.32.78c.75.07,1.52-.08,2.28,0a5.77,5.77,0,0,0,2.41,0,18.77,18.77,0,0,1,2.86-.56c.52,0,1-.15,1.51-.24.71-.12,1.42-.11,2.13-.22,1.21-.19,2.48-.2,3.67-.46a46,46,0,0,0,6.88-1.68c1.16-.44,2.26-1,3.39-1.53a15.15,15.15,0,0,0,2.76-1.65,12.07,12.07,0,0,0,1.4-1.37c.65-.64,1.35-1.24,2-1.86a38.47,38.47,0,0,1-6.78,7,26.11,26.11,0,0,1-5.56,2.8,52.37,52.37,0,0,1-5.85,2c-1.11.33-2.53.6-3.36,1.47s-.6,1.31-.27,2.26a10.75,10.75,0,0,0,1.31,2.81,2.35,2.35,0,0,0,1.05.83,7.37,7.37,0,0,0,1,.56A4.79,4.79,0,0,0,21.42,62a46.41,46.41,0,0,1,6.08-1.22,23.49,23.49,0,0,0,5.84-2c.75-.37,1.57-.54,2.33-.91s1.49-.74,2.23-1.12c1.45-.74,2.75-1.75,4.18-2.49a30.86,30.86,0,0,0,2.84-1.65c.92-.62,1.84-1.27,2.77-1.86A14.53,14.53,0,0,0,51,48a19.08,19.08,0,0,0,2.66-3.84c.44-.93.86-1.88,1.27-2.83.12.11.25.2.42.34a5.08,5.08,0,0,0,1.44.93,6,6,0,0,0,3.38,0c.46-.12.86-.42,1.34-.52a13.26,13.26,0,0,0,1.71-.41L64.81,41a20.36,20.36,0,0,0,2.42-1l.18-.09c.3.25.61.5.94.74a31.07,31.07,0,0,0,4.37,2.6c1.2.58,2.46,1,3.69,1.53A13.24,13.24,0,0,0,80,45.88c2.91.32,5.8.82,8.74,1,4.23.26,8.47.36,12.7.53,1.74.07,3.48.21,5.21.39,1.41.14,2.91.16,4.31.44s2.64.74,3.94,1.1a5,5,0,0,1,1.62.56C115.47,48.27,113.76,47.74,112,47.28ZM44.37,32.1a5.84,5.84,0,0,1,.22-.82C44.51,31.56,44.44,31.84,44.37,32.1Zm19.89,5.5c-.55.35-1.06.73-1.63,1.08-.36.24-.77.34-1.15.55a6.89,6.89,0,0,1-1.34.56c-.37.11-.71.09-1.07.17a2.5,2.5,0,0,1-1.43.16,1.54,1.54,0,0,1-.84-.66c-.17-.26-.41-.51-.56-.78a1,1,0,0,1-.09-.21c.38-.85.77-1.7,1.19-2.53A15.51,15.51,0,0,0,58.19,33a19,19,0,0,0,.66-3.15A16.22,16.22,0,0,1,59,27.45a4.46,4.46,0,0,0,.09-1.1C59,28.06,60.2,29.76,61,31.21a49.85,49.85,0,0,0,4.08,6A3.84,3.84,0,0,0,64.26,37.6Z" style="fill: #007d00"/>
          <g>
            <path d="M112.05,47a46.06,46.06,0,0,0-8.1-1.22c-2.84-.19-5.66,0-8.5.05a64.21,64.21,0,0,1-8.32-.19,18.84,18.84,0,0,1-7.24-2.54,34.76,34.76,0,0,1-7.56-5.52l-.07.5c1.21-.7,2.35-1.51,3.52-2.26a22.84,22.84,0,0,0,3-2.31c1-.94,2.12-1.75,3.21-2.61a5.54,5.54,0,0,1,.87-.66c.26-.14.54-.2.79-.35a4.58,4.58,0,0,0,1.15-.9c.39-.46.52-1.14-.07-1.49a3.56,3.56,0,0,0-1.86-.24,7.41,7.41,0,0,0-3.21.87c-.59.29-1.19.58-1.76.9s-1.21.83-1.87,1.17a5,5,0,0,0-.82.53,4.17,4.17,0,0,1-1,.53,3.21,3.21,0,0,0-.67.4,4.53,4.53,0,0,1-1,.52,4,4,0,0,0-.78.44,9.58,9.58,0,0,1-.76.67c-.31.2-.67.29-1,.51s-.56.48-.84.73l.5.06A83,83,0,0,1,64,25.9c-.81-1.48-1.73-2.85-2.61-4.28s-1.66-2.86-2.62-4.21a43.68,43.68,0,0,0-7-7.17,9.31,9.31,0,0,1-2.79-4,8.86,8.86,0,0,1-.32-1.92,2.78,2.78,0,0,0-.48-1.5,2.39,2.39,0,0,0-1.72-.74,9.65,9.65,0,0,1-2.69-.67c-.82-.37-1.53-1-2.37-1.31A1.21,1.21,0,0,0,40.6,0c-.33.08-.57.34-.9.4l.3.08c0-.07,1-.43.93-.5-.59,0-1.64.15-1.64.45,0,.77,0,1.53.1,2.31s0,1.94.49,2.58c.18.23.34.22.6.25a11.21,11.21,0,0,0,1.43.23c.63,0,.88.38,1.12.93a6.73,6.73,0,0,0,.73,1.31,13,13,0,0,1,1.63,3.11c.4,1,.94,2.14.58,3.24-.17.51-.46,1-.64,1.47S45,17,44.78,17.57c-.38,1.14-.74,2.3-1.19,3.41s-.82,2.4-1.36,3.54a5.88,5.88,0,0,0-.23.71,8.69,8.69,0,0,1-.44.86,5.39,5.39,0,0,0-.31.75c-.09.25,0,.65-.19.86l.43-.11c-.29-.17-.36-.71-.49-1-.22-.47-.61-.82-.83-1.28-.41-.84-1.47-1.28-2.12-1.94-1.43-1.45-3.74-1.87-5.67-2.2-1-.17-.53.79-.48,1.33A8.4,8.4,0,0,0,32.12,24c.14.55.13,1.12.23,1.68a24.53,24.53,0,0,0,1.12,3.43c.16.45.34.88.54,1.32s.34,1.06.57,1.58.35,1,.55,1.59A12.29,12.29,0,0,0,35.89,35c.17.32.31.59,0,.93s-.42.41-.6.62c-.36.42-.67.86-1,1.29a6.7,6.7,0,0,1-1.18,1.2,10.37,10.37,0,0,0-1,1,6.92,6.92,0,0,1-1.23.74c-.5.33-1,.69-1.48,1a18.44,18.44,0,0,1-3.28,1.44,29.61,29.61,0,0,1-3.58,1.1c-.51.12-1,.22-1.54.31s-1.12.36-1.69.52a13.17,13.17,0,0,1-1.65.26c-.64.08-1.27.23-1.91.33-1.4.2-2.81.31-4.2.53a19.83,19.83,0,0,1-2.18.19,9.26,9.26,0,0,0-1.8.36,20.74,20.74,0,0,1-4.23.6,7.18,7.18,0,0,0-3.25.79.34.34,0,0,0-.14.36c.23,1,1.42,1.39,2.09,2a6.1,6.1,0,0,0,2.81,1.75,6.46,6.46,0,0,0,1.7.16c.75,0,1.46.06,2.2.11A17.05,17.05,0,0,0,12.69,52c2.91-.46,5.88-.57,8.76-1.16,1.45-.3,2.9-.55,4.32-.93a24.63,24.63,0,0,0,4-1.55,22.27,22.27,0,0,0,4.13-2.31,18.17,18.17,0,0,0,1.53-1.51c.61-.59,1.25-1.15,1.88-1.72l-.45-.44a46,46,0,0,1-5.36,5.8,16.75,16.75,0,0,1-3.31,2.3c-1.21.63-2.48,1.13-3.74,1.66s-2.61,1-3.94,1.4c-1.18.36-2.41.64-3.57,1.07a3.49,3.49,0,0,0-2.18,1.81c-.31.91.27,2,.6,2.85A5.11,5.11,0,0,0,17,61.8a4.06,4.06,0,0,0,3.1.85c.64-.12,1.26-.37,1.9-.54s1.43-.36,2.15-.49c1.4-.27,2.83-.43,4.22-.75a21.55,21.55,0,0,0,3.73-1.26c.62-.27,1.23-.58,1.86-.82s1.24-.42,1.83-.7c2.51-1.18,4.8-2.72,7.23-4.05,1.35-.73,2.59-1.61,3.86-2.46A23.92,23.92,0,0,0,50.42,49a18.7,18.7,0,0,0,2.69-3.32,27.45,27.45,0,0,0,2.06-4.22l-.49.07A5.77,5.77,0,0,0,57.26,43a6.42,6.42,0,0,0,3.22-.28,8.33,8.33,0,0,1,1.62-.54,11,11,0,0,0,2-.63c1.16-.47,2.35-.86,3.48-1.42l-.39,0a29.75,29.75,0,0,0,8.22,4.58,19.49,19.49,0,0,0,4.38,1.48c1.7.24,3.41.44,5.12.65,6.83.86,13.75.55,20.6,1.18a47.39,47.39,0,0,1,5.57.59c.91.19,1.8.48,2.69.75a10.26,10.26,0,0,1,2.58.84.33.33,0,0,0,.44-.44c-1.1-1.65-2.88-2.29-4.73-2.76a.32.32,0,0,0-.17.61c1.67.43,3.35,1,4.35,2.47l.43-.43a7,7,0,0,0-1.9-.65c-.83-.24-1.65-.51-2.48-.74a24.45,24.45,0,0,0-4.58-.67c-1.68-.12-3.35-.32-5-.42S99.22,47,97.5,47c-3.45-.12-6.92-.18-10.36-.51-1.65-.16-3.29-.39-4.93-.6a19.39,19.39,0,0,1-4.76-1c-3.46-1.37-6.93-2.78-9.82-5.18a.32.32,0,0,0-.38-.05c-1,.5-2.08.84-3.13,1.27a12,12,0,0,1-1.65.6,8.49,8.49,0,0,0-1.58.39,6.49,6.49,0,0,1-3,.59,4.72,4.72,0,0,1-2.76-1.39.31.31,0,0,0-.49.06A35.3,35.3,0,0,1,53,44.67a19.91,19.91,0,0,1-2.25,3.08,13.49,13.49,0,0,1-2.87,2.46c-1.1.73-2.18,1.47-3.28,2.19s-2.15,1.22-3.23,1.84-2.13,1.38-3.24,2A24.45,24.45,0,0,1,34.42,58c-1.2.42-2.33,1-3.52,1.47a49.31,49.31,0,0,1-7.52,1.7c-.62.13-1.23.27-1.83.45a9.24,9.24,0,0,1-2,.51,3.15,3.15,0,0,1-1.77-.61,2.83,2.83,0,0,1-1.21-1.14,9.47,9.47,0,0,1-1.24-3.1c-.2-1.2,1.27-1.84,2.19-2.13,2.38-.77,4.79-1.37,7.1-2.34a25.83,25.83,0,0,0,7-3.85,44.66,44.66,0,0,0,5.67-6.07.31.31,0,0,0-.45-.44C35.9,43.3,35,44.2,34,45.13a11.31,11.31,0,0,1-3.29,2.12A39.1,39.1,0,0,1,26.83,49a30.13,30.13,0,0,1-4,1,39.54,39.54,0,0,1-4.17.73c-1.31.12-2.65.22-3.95.43s-2.64.38-4,.7A6.84,6.84,0,0,1,9,52c-.66,0-1.3-.17-2-.15a5.15,5.15,0,0,1-3.78-1,18,18,0,0,0-1.38-1.24C1.42,49.3.75,49,.62,48.44l-.15.36a6.75,6.75,0,0,1,3.19-.72,22.29,22.29,0,0,0,3.54-.47c.54-.11,1.06-.3,1.6-.4s1.34-.07,2-.14c1.23-.13,2.44-.36,3.67-.5s2.42-.4,3.64-.54a9.53,9.53,0,0,0,1.51-.26,14.81,14.81,0,0,1,1.69-.5,28.21,28.21,0,0,0,3.29-.81c1.16-.36,2.27-.85,3.42-1.23a11.55,11.55,0,0,0,2.82-1.59,11.71,11.71,0,0,1,1.23-.73,3.77,3.77,0,0,0,1-1c.31-.35.74-.58,1.07-.91a11.15,11.15,0,0,0,1-1.18,13,13,0,0,1,1.13-1.33,1.23,1.23,0,0,0,.49-1,2.55,2.55,0,0,0-.44-1.06,6.79,6.79,0,0,1-.74-1.73c-.14-.5-.4-.94-.57-1.43a13.47,13.47,0,0,0-.52-1.38,27.49,27.49,0,0,1-1.24-3.43,7.32,7.32,0,0,1-.34-1.61,14,14,0,0,0-.32-1.69c-.06-.32,0-.65-.06-1a1.12,1.12,0,0,0-.12-.35l0-.23c-.22.08-.27.12-.14.14s.67.14.8.16l1,.21a7.27,7.27,0,0,1,3.4,1.46,15.31,15.31,0,0,0,1.23,1.06c.23.18.49.37.71.56a2.84,2.84,0,0,1,.42.66,7.93,7.93,0,0,1,.83,1.37,1.57,1.57,0,0,0,.58.86A.32.32,0,0,0,41.6,28a.9.9,0,0,0,.18-.44,3,3,0,0,1,.2-.88,14.69,14.69,0,0,0,.66-1.39c.15-.52.43-1,.59-1.48s.45-1.16.65-1.75c.38-1.06.75-2.14,1.12-3.21a32.22,32.22,0,0,1,1.27-3.57,3.6,3.6,0,0,0,.3-2.69A17.61,17.61,0,0,0,45.33,9.4c-.51-1-1.27-1.82-1.71-2.85-.33-.77-.74-1.33-1.64-1.35a3.19,3.19,0,0,1-.87-.1A4.69,4.69,0,0,1,40.42,5c-.35-.19-.3-1.21-.33-1.55-.09-1-.17-2-.17-3l-.58.16a1.24,1.24,0,0,0,.22.34.3.3,0,0,0,.3.08,3.13,3.13,0,0,0,.72-.33c.4-.17.82.11,1.17.31a19.47,19.47,0,0,0,2,1.09,10.14,10.14,0,0,0,2.18.57c.67.1,1.52,0,1.9.73a4.1,4.1,0,0,1,.3,1.7A6.14,6.14,0,0,0,48.57,7,9.67,9.67,0,0,0,51,10.43c1.19,1.09,2.43,2.12,3.59,3.25A33,33,0,0,1,58,17.4c.95,1.27,1.72,2.65,2.54,4s1.75,2.67,2.53,4.07c.89,1.6,1.81,3.16,2.81,4.69s2.17,3.17,3.29,4.72a.33.33,0,0,0,.5.07,6.23,6.23,0,0,1,1.5-1.05c.47-.23.74-.65,1.17-.92s1-.4,1.45-.7a5.17,5.17,0,0,1,.53-.39c.25-.13.54-.2.8-.33.46-.23.82-.61,1.29-.85s1.06-.67,1.6-1a15.52,15.52,0,0,1,3.38-1.64,6.71,6.71,0,0,1,2.32-.21c.2,0,.65,0,.8.17.27.32-.42.8-.64,1a5.61,5.61,0,0,1-1.11.59,10.74,10.74,0,0,0-1.41,1,27.44,27.44,0,0,0-2.72,2.22,23.2,23.2,0,0,1-3.16,2.42c-1.17.76-2.31,1.56-3.52,2.26a.32.32,0,0,0-.06.5,33.2,33.2,0,0,0,6.57,5,24.43,24.43,0,0,0,6.92,3,22.47,22.47,0,0,0,3.93.39c1.44,0,2.89.1,4.34.09,2.85,0,5.7-.24,8.55-.16a45.17,45.17,0,0,1,9.69,1.28A.32.32,0,0,0,112.05,47Z" style="fill: #231f20"/>
            <path d="M44.67,32.19a5.49,5.49,0,0,1,.22-.82l-.61-.17-.21.82a.31.31,0,1,0,.6.17c.08-.27.15-.55.22-.82a.37.37,0,0,0,0-.25.38.38,0,0,0-.19-.14.29.29,0,0,0-.24,0,.35.35,0,0,0-.15.19,4.7,4.7,0,0,0-.21.82.29.29,0,0,0,0,.24.32.32,0,0,0,.19.15.3.3,0,0,0,.38-.22Z" style="fill: #231f20"/>
            <path d="M64.1,37.33a12.37,12.37,0,0,1-4.85,2.28c-.37.06-.74.22-1.11.25-.62,0-.93-.38-1.26-.82a3.8,3.8,0,0,1-.29-.38c-.13-.25,0-.33.08-.58.19-.42.39-.85.59-1.27a12.14,12.14,0,0,0,.93-2.41c.22-.92.47-1.84.68-2.77a11.12,11.12,0,0,0,.32-2.5c0-.95.19-1.85.2-2.78a.32.32,0,0,0-.63,0c0,2,1.27,3.84,2.23,5.52a56.41,56.41,0,0,0,3.8,5.53l.18-.47a5.69,5.69,0,0,0-.87.4.31.31,0,0,0,.32.54,5.88,5.88,0,0,1,.72-.33.32.32,0,0,0,.19-.46c-1.25-1.7-2.53-3.38-3.61-5.19-.48-.83-1-1.68-1.41-2.52a6.17,6.17,0,0,1-.92-3h-.63c0,.78-.2,1.52-.21,2.31a12,12,0,0,1-.23,2.53c-.16.78-.39,1.53-.57,2.3A10.93,10.93,0,0,1,57,35.87c-.37.74-.72,1.5-1.06,2.26-.27.6.22,1,.57,1.49a1.88,1.88,0,0,0,1.36.87,2.58,2.58,0,0,0,.87-.12,10.59,10.59,0,0,1,1.1-.2,10.21,10.21,0,0,0,2.28-.9,14.84,14.84,0,0,0,2.28-1.4C64.76,37.65,64.44,37.1,64.1,37.33Z" style="fill: #231f20"/>
          </g>
        </g>
        <path d="M42.88,36.9c.63-1.56,1.13-3.18,1.75-4.76.28-.73.52-1.47.81-2.2s.66-1.46.9-2.22a4.26,4.26,0,0,1,.29-1,1.46,1.46,0,0,0,.33-.58,6.3,6.3,0,0,1,.21-1.05c.12-.34.21-.69.34-1A13.67,13.67,0,0,0,48.19,22a3.41,3.41,0,0,0,.05-1,3.9,3.9,0,0,1,.18-1.27,11.76,11.76,0,0,0,.46-2.56c0-.91-.05-1.82-.06-2.74a.32.32,0,0,0-.63,0c0,1,.11,2,0,3s-.5,2-.62,3a14.64,14.64,0,0,1,0,1.48,8.07,8.07,0,0,1-.41,1.35,11.23,11.23,0,0,0-.8,2.46,1.12,1.12,0,0,1-.2.62,1.48,1.48,0,0,0-.19.35c-.16.44-.22.9-.39,1.33-.36,1-.79,1.88-1.14,2.84-.69,2-1.38,4-2.16,5.9-.15.37.46.54.61.16Z" style="fill: #231f20"/>
        <path d="M55,18.32a8.86,8.86,0,0,1,1.66,2.32,4.74,4.74,0,0,1,.31,1.4c.07.52.27,1,.35,1.52s.68.23.61-.17-.3-1-.36-1.59a4.73,4.73,0,0,0-.37-1.48,9.2,9.2,0,0,0-1.76-2.44c-.27-.3-.72.14-.44.44Z" style="fill: #231f20"/>
        <path d="M41,2.71V2.59h-.63a5.21,5.21,0,0,0,0,.79,1,1,0,0,0,.45.69,2.38,2.38,0,0,0,.82.34,3.33,3.33,0,0,0,.89.1.31.31,0,0,0,.32-.31.33.33,0,0,0-.32-.32,2.48,2.48,0,0,1-.38,0h-.12l-.2,0-.36-.11-.07,0-.06,0-.15-.08,0,0-.06,0-.05,0c.06.06,0,0,0,0v0a.14.14,0,0,1,0-.06.29.29,0,0,1,0-.09c0-.06,0,.07,0,0,0-.22,0-.44,0-.66a.32.32,0,0,0-.63,0v.12a.31.31,0,0,0,.31.32A.33.33,0,0,0,41,2.71Z" style="fill: #231f20"/>
        <path d="M45.47,9.41h-.11l.22.54c.66-.76,1.84-.75,2.49-1.55A1.87,1.87,0,0,0,48.29,8a.73.73,0,0,1,.24-.31A1.63,1.63,0,0,0,49,7c.19-.49-.92-1-.92-1.55s.38-.4.37,0a3.5,3.5,0,0,1-.05,1.37,1.27,1.27,0,0,1-.22.33,3.61,3.61,0,0,0-.3.25c-.19.2-.22.49-.42.68a3.54,3.54,0,0,1-1.2.67,3,3,0,0,0-1.16.75c-.17.19-.07.57.22.54h.11c.4,0,.41-.67,0-.63Z" style="fill: #231f20"/>
        <path d="M36.12,36.66c.26-.29.85-.67,1-.91A14.73,14.73,0,0,1,38,34.56a13.64,13.64,0,0,0,1.59-2.12,7.26,7.26,0,0,0,.52-1.09c.13-.37.44-.58.6-.94.4-.85.55-1.78,1-2.61.19-.36-.35-.68-.54-.32-.46.85-.59,1.84-1,2.68-.18.33-.47.53-.6.9a6.82,6.82,0,0,1-.65,1.33c-.5.79-1.18,1.48-1.74,2.23-.28.37-.52.75-.81,1.1a1.39,1.39,0,0,0-.38.87c0,.14-.43.4,0,0Z" style="fill: #231f20"/>
        <path d="M69.1,34.73a1.57,1.57,0,0,0,.33.4c.06.07.12.15.18.21l.19.17a5.49,5.49,0,0,0,.71.81,4.19,4.19,0,0,1,.67.84c.1.14.23.25.34.38s.26.21.33.37a.33.33,0,0,0,.44.11.32.32,0,0,0,.11-.43,1.39,1.39,0,0,0-.35-.41c-.12-.11-.24-.24-.35-.36s-.2-.31-.31-.45a4.82,4.82,0,0,0-.35-.44,4.09,4.09,0,0,1-.7-.74c-.11-.15-.25-.26-.37-.4a1.48,1.48,0,0,1-.33-.38.32.32,0,0,0-.43-.12.33.33,0,0,0-.11.44Z" style="fill: #231f20"/>
        <path d="M64.67,37.11a.64.64,0,0,0,.3.48c.16.15.34.29.49.45s.14.18.22.25l.12.1c-.08-.07,0,0,0,.06s.13.07.13.09l0,0a.61.61,0,0,0,0,.12,1.31,1.31,0,0,0,.2.21c.28.3.5.67.8,1a1.37,1.37,0,0,1,.17.17c.06.09.11.18.17.26s.25.33.44.36a.32.32,0,0,0,.39-.22.31.31,0,0,0-.22-.38s0,0,0,0l-.06-.07a.76.76,0,0,1-.13-.17,2,2,0,0,0-.35-.41c-.14-.13-.23-.29-.36-.43s-.25-.3-.38-.45l-.15-.15c0,.06,0-.09,0-.1a.38.38,0,0,0-.14-.14,2,2,0,0,1-.29-.29,2.94,2.94,0,0,0-.4-.39l-.24-.21-.08-.07,0,0c0-.05,0,0,0,.08a.32.32,0,0,0-.63,0Z" style="fill: #231f20"/>
        <path d="M6.35,49.12A3.47,3.47,0,0,1,6.91,49H9a.32.32,0,0,0,0-.63H7.54c-.23,0-.46,0-.69,0a5.28,5.28,0,0,0-.67.13.32.32,0,0,0,.17.61Z" style="fill: #231f20"/>
      </g>
    </g>
  </g>
</svg>
