<svg xmlns="http://www.w3.org/2000/svg" width="61.5" height="59.36" viewBox="0 0 61.5 59.36">
  <title>Asset 13Web</title>
  <g id="Layer_2" data-name="Layer 2">
    <g id="Sketch">
      <g>
        <g>
          <path d="M40.4,10.17c-1,.22-2,.41-3.06.7a12.91,12.91,0,0,1-1.32.46c-.5.09-.94,0-1.47.13a16,16,0,0,1-3.53.43c-.65,0-1.18.31-1.85.32a6.73,6.73,0,0,0-1.62.22c-.56.12-1.11,0-1.66.09a6.3,6.3,0,0,1-1.58.27H20.42c-1.38,0-2.75,0-4.13,0a3.51,3.51,0,0,1-1-.27,6.28,6.28,0,0,0-1.3,0,13.22,13.22,0,0,1,0-1.78A4.46,4.46,0,0,1,14.23,9a11.27,11.27,0,0,1,3.22-4.71,16,16,0,0,1,4.74-3.18A11.68,11.68,0,0,1,26.82.42c1.57,0,3.15,0,4.72,0a11.76,11.76,0,0,1,2.06.3A6.89,6.89,0,0,1,36,1.9a8.45,8.45,0,0,1,3.38,3.81,10.74,10.74,0,0,1,1.06,4.46c0,1.91.51,5.23.51,7.15V20c0,1.32.27,2.5.28,3.78,0,.9.28,1.74.32,2.63a26.75,26.75,0,0,0,.21,3.1c.29,1.79.07,3.66.43,5.45a36.31,36.31,0,0,1,.52,7.07l-.17-.12.2.06c-.37.77-2.12,1.23-2.83,1.43s-1.75.3-2.6.55c-1.65.47-3.23,1-4.92,1.37a31.17,31.17,0,0,1-12.28.44,14.39,14.39,0,0,1-4.94-2,2.1,2.1,0,0,0,.57.48l-.59-.59a7.33,7.33,0,0,0,.31-3.22c0-1.55-.38-3.09-.53-4.63-.29-3.06-.52-6.17-.63-9.24-.07-2.05-.35-4.1-.32-6.16,0-1.2-.31-2.35-.3-3.55,0-.92-.44-3.84.39-4.52" style="fill: #007d00"/>
          <path d="M40.3,9.81a23.62,23.62,0,0,0-3.44.83,5.26,5.26,0,0,1-1.67.37,9.5,9.5,0,0,0-1.38.24c-1.09.21-2.22.13-3.31.33s-2,.33-3.05.49c-.55.08-1.11,0-1.66.09a9,9,0,0,1-1.72.25H16.78a4.05,4.05,0,0,1-1.29-.21,5,5,0,0,0-1.55-.08l.36.27a7.81,7.81,0,0,1,0-1.28,8.1,8.1,0,0,1,.12-1.47A9.05,9.05,0,0,1,15.8,6.69a15.47,15.47,0,0,1,4.71-4.33A10,10,0,0,1,23.68,1,17.77,17.77,0,0,1,27.32.79h4a6.85,6.85,0,0,1,3.34.71,13.78,13.78,0,0,1,2.56,1.78A9.06,9.06,0,0,1,39.06,6,10.21,10.21,0,0,1,40,9.63c.06.9.06,1.79.14,2.69.18,2,.39,4,.39,6A33.14,33.14,0,0,0,40.68,22c.12,1.1.14,2.2.32,3.3.22,1.31.13,2.65.31,4s.18,2.84.28,4.27.45,2.8.57,4.22.14,2.84.14,4.26l.56-.32-.17-.12-.29.69.2,0-.23-.55a2.69,2.69,0,0,1-1.56.94,13.78,13.78,0,0,1-1.91.51c-1.88.35-3.66,1-5.51,1.46A31.14,31.14,0,0,1,21,45.58a15.5,15.5,0,0,1-5.7-2.09c-.38-.23-.71.28-.45.59a3,3,0,0,0,.64.54c.36.26.75-.29.46-.58l-.59-.59.1.36a7,7,0,0,0,.32-3,28.8,28.8,0,0,0-.3-3.21c-.35-2.35-.51-4.73-.67-7.1s-.23-4.73-.4-7.09c-.09-1.17-.06-2.35-.13-3.52s-.26-2-.28-3.07c0-.68-.1-1.36-.11-2s-.11-1.67.39-2.14c.35-.33-.18-.86-.53-.53-.9.84-.63,2.61-.56,3.69.12,1.84.31,3.67.36,5.52,0,2.45.28,4.91.41,7.36s.3,4.78.54,7.17c.13,1.31.4,2.61.49,3.93a8.48,8.48,0,0,1-.26,3.82.37.37,0,0,0,.1.37l.59.59.45-.59a2.52,2.52,0,0,1-.49-.43l-.46.59a19.55,19.55,0,0,0,11.65,2.39,39.73,39.73,0,0,0,6.43-1c2-.47,4-1.21,6.08-1.6a12.73,12.73,0,0,0,2.27-.63A3,3,0,0,0,43,42.19a.38.38,0,0,0-.22-.55l-.2-.06c-.42-.12-.62.46-.29.69l.17.12a.39.39,0,0,0,.57-.33c0-1.34,0-2.69-.12-4s-.42-2.72-.56-4.1,0-2.7-.22-4-.17-2.52-.29-3.78c-.06-.62-.21-1.23-.27-1.85s-.06-1.33-.14-2a37.16,37.16,0,0,1-.17-4c0-2.13-.25-4.23-.42-6.35-.08-1,0-2.07-.18-3.09a11.6,11.6,0,0,0-1-3.35,9.51,9.51,0,0,0-1.94-2.76A14.24,14.24,0,0,0,35.08.91a7.1,7.1,0,0,0-3-.84c-1.4-.14-2.86,0-4.26,0A25.19,25.19,0,0,0,24,.2a9.79,9.79,0,0,0-3.31,1.18c-4,2.17-7.84,6.35-7.15,11.21a.4.4,0,0,0,.37.28,4.41,4.41,0,0,1,1.62.16,4.47,4.47,0,0,0,1.46.13h3.64c1.21,0,2.43,0,3.65,0A6,6,0,0,0,25.58,13a14.11,14.11,0,0,1,1.83-.15c1-.13,2.07-.27,3.09-.48s2.2-.15,3.29-.34a16.1,16.1,0,0,1,1.81-.26,4,4,0,0,0,1.28-.31,23.39,23.39,0,0,1,3.62-.91c.47-.1.27-.83-.2-.72Z" style="fill: #231f20"/>
        </g>
        <g>
          <path d="M27.28,16.29c-1,.22-2,.41-3.06.7a13.63,13.63,0,0,1-1.31.46c-.51.09-.95,0-1.47.13A16.17,16.17,0,0,1,17.9,18c-.65,0-1.18.31-1.85.32a6.8,6.8,0,0,0-1.62.22c-.55.12-1.11,0-1.66.09a6.3,6.3,0,0,1-1.58.27c-1.3,0-2.59,0-3.89,0s-2.75,0-4.12,0a3.66,3.66,0,0,1-1.06-.27,6.25,6.25,0,0,0-1.3,0,13.22,13.22,0,0,1,0-1.78,4.86,4.86,0,0,1,.29-1.74,11.29,11.29,0,0,1,3.23-4.71A15.94,15.94,0,0,1,9.07,7.2a11.7,11.7,0,0,1,4.64-.66h4.71a12,12,0,0,1,2.07.3c1,.16,1.43.69,2.35,1.18a8.45,8.45,0,0,1,3.38,3.81,10.74,10.74,0,0,1,1.06,4.46c0,1.91.51,5.23.51,7.15v2.71c0,1.32.27,2.5.29,3.78,0,.9.27,1.74.31,2.63a24.72,24.72,0,0,0,.22,3.1c.29,1.79.06,3.66.42,5.45a36.32,36.32,0,0,1,.53,7.07l-.17-.12.19.06c-.36.77-2.12,1.23-2.83,1.42s-1.74.31-2.6.56c-1.65.47-3.23,1-4.92,1.37A31.13,31.13,0,0,1,7,51.91a14.39,14.39,0,0,1-4.94-2,2.1,2.1,0,0,0,.57.48L2,49.83a7.49,7.49,0,0,0,.3-3.22c0-1.55-.38-3.09-.52-4.63-.3-3.06-.52-6.17-.63-9.24-.08-2.05-.36-4.11-.33-6.16,0-1.2-.31-2.35-.3-3.55,0-.92-.44-3.84.4-4.52" style="fill: #007d00"/>
          <path d="M27.18,15.93a23.8,23.8,0,0,0-3.43.83,5,5,0,0,1-1.67.36,10.94,10.94,0,0,0-1.39.25c-1.09.21-2.21.13-3.3.33s-2,.33-3.06.49c-.55.08-1.11,0-1.66.09a9,9,0,0,1-1.72.25H7.3c-1.21,0-2.43,0-3.64,0a4.05,4.05,0,0,1-1.29-.21,5,5,0,0,0-1.55-.08l.36.27a7.81,7.81,0,0,1,0-1.28,8.1,8.1,0,0,1,.12-1.47,9.26,9.26,0,0,1,1.38-2.95A15.59,15.59,0,0,1,7.39,8.48a9.92,9.92,0,0,1,3.18-1.34,17.63,17.63,0,0,1,3.63-.23h4a6.83,6.83,0,0,1,3.33.71,13,13,0,0,1,2.56,1.78,9.06,9.06,0,0,1,1.87,2.71,10.43,10.43,0,0,1,.95,3.63c.05.9.06,1.79.14,2.69.17,2,.38,4,.38,6a35.67,35.67,0,0,0,.15,3.73c.13,1.1.14,2.2.32,3.3.22,1.31.14,2.65.32,4s.17,2.84.28,4.27.44,2.8.56,4.22.14,2.84.14,4.26l.57-.32-.17-.12-.29.69.19,0-.22-.55a2.68,2.68,0,0,1-1.57.94,14,14,0,0,1-1.9.51c-1.88.35-3.67,1-5.52,1.46A31.13,31.13,0,0,1,7.9,51.7a15.5,15.5,0,0,1-5.7-2.09c-.38-.23-.71.28-.45.59a3.06,3.06,0,0,0,.65.54c.35.26.75-.29.45-.58l-.59-.59.1.36a7.17,7.17,0,0,0,.33-3,26.62,26.62,0,0,0-.31-3.21C2,41.38,1.87,39,1.72,36.63s-.24-4.73-.41-7.09c-.08-1.17-.06-2.35-.13-3.52S.92,24,.9,23c0-.68-.09-1.36-.11-2s-.11-1.67.39-2.14S1,17.91.65,18.24c-.89.84-.63,2.61-.56,3.69.12,1.84.32,3.67.36,5.52.06,2.45.29,4.91.41,7.36s.3,4.78.54,7.17c.13,1.31.4,2.61.5,3.93a8.77,8.77,0,0,1-.26,3.82.39.39,0,0,0,.09.37l.59.59.46-.59a2.58,2.58,0,0,1-.5-.43l-.45.59a19.51,19.51,0,0,0,11.64,2.39,39.73,39.73,0,0,0,6.43-.95c2.05-.47,4-1.21,6.09-1.6a12.87,12.87,0,0,0,2.26-.63,3,3,0,0,0,1.65-1.16.38.38,0,0,0-.22-.55l-.19-.06a.38.38,0,0,0-.29.69l.17.12a.38.38,0,0,0,.56-.33c0-1.34,0-2.69-.12-4s-.42-2.72-.55-4.1-.06-2.7-.23-4-.16-2.52-.29-3.78c-.06-.62-.21-1.23-.27-1.85s-.06-1.33-.13-2a37.17,37.17,0,0,1-.18-3.95c0-2.13-.24-4.23-.41-6.35-.09-1-.05-2.07-.19-3.09a11.6,11.6,0,0,0-1-3.35A9.51,9.51,0,0,0,24.6,8.88,13.91,13.91,0,0,0,22,7a7.1,7.1,0,0,0-3-.84c-1.39-.15-2.86,0-4.26,0a25.3,25.3,0,0,0-3.79.16A9.79,9.79,0,0,0,7.6,7.5C3.61,9.67-.23,13.85.46,18.71A.38.38,0,0,0,.82,19a4.28,4.28,0,0,1,1.63.16,4.41,4.41,0,0,0,1.45.13c1.22,0,2.43,0,3.64,0s2.44,0,3.65,0a6,6,0,0,0,1.27-.18A14.11,14.11,0,0,1,14.29,19c1-.13,2.08-.27,3.09-.48s2.21-.15,3.3-.34a15.46,15.46,0,0,1,1.81-.26,4,4,0,0,0,1.27-.31,23.68,23.68,0,0,1,3.62-.91c.47-.1.27-.83-.2-.72Z" style="fill: #231f20"/>
        </g>
        <g>
          <g>
            <path d="M24.24,49.66a5,5,0,0,1-.73-2.28,6.21,6.21,0,0,1,0-1.14c0-.54-.25-1-.26-1.54,0-.81.08-1.62.06-2.43,0-.51-.31-1-.29-1.49s.21-.53.27-.84,0-.8.11-1.19a52,52,0,0,1,2-6.06A13.84,13.84,0,0,1,26.69,30c.28-.42.58-.73.9-1.13.49-.62.78-1.39,1.3-2a24,24,0,0,1,2.48-2.56,16.94,16.94,0,0,1,3.2-2.48,10.1,10.1,0,0,0,1.71-1.41,8.37,8.37,0,0,1,1.48-.78,11.11,11.11,0,0,1,1.91-1.05,18.52,18.52,0,0,0,2.55-1A21.59,21.59,0,0,1,45.33,16c1.11-.32,2.19-.72,3.31-1,2-.49,4-1,6-1.31.6-.11,1.26.16,1.85.06a9.63,9.63,0,0,1,1.18-.28,5.35,5.35,0,0,0,1,0c.66-.14.92-.37,1.2.53.37,1.19.35,2.52.6,3.72a15.37,15.37,0,0,1,.43,3c0,1.07.25,2.1.23,3.19a14.72,14.72,0,0,1-.51,4.19c-.35,1.18-.54,2.38-.91,3.55S59,34.29,58.6,35.58a19.88,19.88,0,0,1-3.47,6.17,7.53,7.53,0,0,0-.74.84c-.14.24-.17.55-.32.78a12.86,12.86,0,0,1-1.46,1.39c-1,1-2.25,1.72-3.28,2.7a26.62,26.62,0,0,1-2.82,2.12,14.83,14.83,0,0,1-3.82,1.85,41.15,41.15,0,0,1-6,1.52,17.62,17.62,0,0,1-3.63,0l-3.52-.07a21.68,21.68,0,0,1-3.44-.34c-.38-.07-.89-.32-1.21-.18-.53.23-1,1.59-1.32,2-.53.74-1.24,1.29-1.73,2.07-.38.62-.71,1.26-1.15,1.84s-.79,1-1.42.33-.32-1,.19-1.72a28.77,28.77,0,0,0,2.31-3.05c.61-1.19,2.09-2.22,2.15-3.65Z" style="fill: #007d00"/>
            <path d="M24.57,49.47a5.64,5.64,0,0,1-.72-3.23c0-.52-.24-1-.27-1.54,0-.68.06-1.38.07-2.06a6.69,6.69,0,0,0-.23-1.41c-.12-.59.2-1.06.24-1.65a14.62,14.62,0,0,1,1-3.78c.42-1.17.85-2.34,1.31-3.49a12.42,12.42,0,0,1,1.9-3.17c.69-.87,1.13-1.87,1.88-2.7A32.52,32.52,0,0,1,32.27,24c.43-.39.87-.77,1.34-1.12s1-.62,1.51-1a10.37,10.37,0,0,0,1.11-1A6.38,6.38,0,0,1,37.76,20c.48-.23.91-.55,1.38-.81a11.4,11.4,0,0,1,1.71-.66,20.89,20.89,0,0,0,3-1.48,17.14,17.14,0,0,1,3.45-1.31c1.23-.39,2.48-.67,3.74-1l1.8-.4A12.05,12.05,0,0,1,55,14a10.72,10.72,0,0,0,1.6.08,4.64,4.64,0,0,0,.64-.17,3.94,3.94,0,0,1,1.08-.08c.26,0,.78-.23,1-.15s.41,1.15.46,1.46c.19,1.19.32,2.38.54,3.56s.25,2.55.38,3.82a16.76,16.76,0,0,1,0,3.61,32.94,32.94,0,0,1-.86,3.76c-.29,1.25-.68,2.48-1,3.72a20.4,20.4,0,0,1-3,6.63,14.4,14.4,0,0,1-1,1.32,3.92,3.92,0,0,0-.8,1,2.9,2.9,0,0,1-.79,1.16c-.44.38-.86.78-1.3,1.17-.85.75-1.82,1.36-2.66,2.12a29.57,29.57,0,0,1-2.9,2.21,20,20,0,0,1-6.59,2.66,22.66,22.66,0,0,1-3.63.73c-1.15.09-2.32-.07-3.48-.09s-2.59,0-3.87-.09c-.62,0-1.23-.1-1.83-.19s-1.09-.29-1.64-.34c-.76-.06-1.14.64-1.46,1.23-.16.32-.3.66-.49,1a13.21,13.21,0,0,1-1.15,1.33c-.78.88-1.2,2-2,2.89-.19.22-.31.28-.57.1a.55.55,0,0,1-.21-.79,10,10,0,0,1,1.08-1.44,20.3,20.3,0,0,0,1.78-2.44c.49-.8,1.21-1.43,1.65-2.25a4.75,4.75,0,0,0,.37-1.14,3.73,3.73,0,0,1,.26-.54c.22-.43-.43-.81-.65-.38-.35.67-.43,1.4-.85,2.05-.3.44-.65.83-1,1.25a12.75,12.75,0,0,0-.8,1.26c-.62,1-1.51,1.82-2.19,2.79a2.15,2.15,0,0,0-.54,1.1,1.58,1.58,0,0,0,.62,1.14c.74.66,1.34.12,1.83-.52A14.82,14.82,0,0,0,22,57a9.78,9.78,0,0,1,1.23-1.57,12,12,0,0,0,1.46-2.26c.14-.22.24-.43.5-.48a2,2,0,0,1,.79.15,14.81,14.81,0,0,0,2,.28c1.31.13,2.65.12,4,.15s2.58.16,3.86.12a18.67,18.67,0,0,0,3.7-.67,33.76,33.76,0,0,0,3.83-1.15,19.26,19.26,0,0,0,6.12-3.73c1-.85,2-1.56,3-2.41.39-.35.76-.71,1.15-1.05a3.21,3.21,0,0,0,.95-1.09,2.59,2.59,0,0,1,.39-.78c.14-.16.3-.31.45-.47a17.05,17.05,0,0,0,1.14-1.51,20.27,20.27,0,0,0,1.81-3.17,23.49,23.49,0,0,0,1.23-3.66c.37-1.37.77-2.71,1.09-4.09a27.46,27.46,0,0,0,.81-3.81,20,20,0,0,0-.07-3.95c-.13-1.29-.17-2.53-.42-3.81s-.28-2.68-.64-4c-.18-.67-.46-1.25-1.24-1.11-.51.09-1,.06-1.47.11a8.89,8.89,0,0,1-1.78.26,12.26,12.26,0,0,0-3.89.48c-1.39.31-2.79.6-4.16,1a22.06,22.06,0,0,0-3.57,1.21c-1.17.57-2.22,1.27-3.44,1.74-.54.21-1.11.35-1.64.6s-1,.62-1.54.9a10.51,10.51,0,0,0-1.48.79c-.48.36-.85.84-1.35,1.19s-1,.6-1.51,1-1,.81-1.49,1.24a30.13,30.13,0,0,0-2.69,2.61c-.8.91-1.28,2-2.06,2.93a10.81,10.81,0,0,0-1.73,3c-.5,1.26-1,2.54-1.42,3.82-.22.63-.43,1.26-.61,1.91a9.32,9.32,0,0,0-.23.91c-.08.39,0,.8-.11,1.19a3.26,3.26,0,0,0-.26,1.22,6,6,0,0,0,.2.84,4,4,0,0,1,.06,1.1,11.14,11.14,0,0,0,0,2c0,.26.11.51.16.76a5.65,5.65,0,0,1,.07,1.16,5.29,5.29,0,0,0,.83,2.93C24.21,50.22,24.86,49.85,24.57,49.47Z" style="fill: #231f20"/>
          </g>
          <path d="M26.71,49.88A56.38,56.38,0,0,1,32.1,43c1-1.14,1.84-2.4,2.79-3.58s1.83-2.32,2.83-3.4c1.92-2.09,4-4,6-6.07A74.28,74.28,0,0,1,50,24.1c1.28-1,2.5-2.11,3.7-3.23s2.58-2.13,3.9-3.14c.38-.29,0-.95-.38-.65-1.12.86-2.3,1.69-3.37,2.63s-2.12,2-3.26,2.93-2.28,2-3.42,3-2.1,2-3.16,2.95-1.94,2.07-3,3.05-2.12,2.08-3.15,3.15a86.41,86.41,0,0,0-5.82,7.12c-1,1.22-2.08,2.31-3,3.54s-2.08,2.63-3,4.06c-.26.41.39.78.65.38Z" style="fill: #231f20"/>
        </g>
      </g>
    </g>
  </g>
</svg>
