<svg id="Sketch" xmlns="http://www.w3.org/2000/svg" width="100mm" height="44.79mm" viewBox="0 0 283.46 126.98">
  <title>Biogas-left</title>
  <g>
    <g>
      <path d="M80.19,34.6c-1.88.41-3.8.77-5.71,1.32-.82.23-1.62.7-2.45.85s-1.77,0-2.75.25a30.94,30.94,0,0,1-6.59.8c-1.22.06-2.2.58-3.46.59a12.78,12.78,0,0,0-3,.41c-1,.22-2.08,0-3.1.17a11,11,0,0,1-3,.5c-2.42,0-4.84,0-7.26,0s-5.13,0-7.69,0a6.39,6.39,0,0,1-2-.5,11.56,11.56,0,0,0-2.43-.05,28.29,28.29,0,0,1,0-3.32,8.78,8.78,0,0,1,.56-3.26,20.94,20.94,0,0,1,6-8.79,29.84,29.84,0,0,1,8.84-5.93c2.76-1.16,5.65-1.23,8.64-1.23s5.87,0,8.81,0a22.62,22.62,0,0,1,3.85.56c1.9.3,2.67,1.28,4.39,2.2a15.65,15.65,0,0,1,6.31,7.12,19.85,19.85,0,0,1,2,8.31c0,3.58,1,9.77,1,13.35V53c0,2.46.5,4.66.53,7.05,0,1.68.52,3.25.6,4.92a48.34,48.34,0,0,0,.39,5.77c.54,3.34.13,6.84.8,10.18a67.57,67.57,0,0,1,1,13.19l-.31-.21.36.1c-.68,1.44-4,2.29-5.28,2.66-1.6.45-3.26.56-4.86,1-3.07.89-6,1.92-9.17,2.55-7.55,1.52-15.28,2.37-22.91.83A26.68,26.68,0,0,1,33,97.4a4,4,0,0,0,1.06.9L33,97.2c.84-1.8.6-3.93.57-6,0-2.88-.7-5.77-1-8.64-.55-5.71-1-11.51-1.17-17.24-.14-3.83-.67-7.67-.62-11.49,0-2.26-.57-4.4-.55-6.64,0-1.71-.82-7.16.74-8.44" style="fill: #007d00"/>
      <path d="M80.09,34.24c-1.75.38-3.51.72-5.23,1.18-.73.2-1.4.5-2.11.75a7.71,7.71,0,0,1-2.39.32,15,15,0,0,0-2.28.43,26.16,26.16,0,0,1-2.64.36,29.08,29.08,0,0,0-4.47.47c-1.46.35-3,.31-4.43.62a12.87,12.87,0,0,1-2.48.15,10.43,10.43,0,0,0-2.22.39,22.58,22.58,0,0,1-5.07.2H41.66c-2,0-4,0-6,0A4.18,4.18,0,0,1,34.33,39c-.31-.1-.6-.24-.91-.32a10,10,0,0,0-2.62-.08l.37.27a13.16,13.16,0,0,1,0-2.51,14.42,14.42,0,0,1,.25-2.86A17.54,17.54,0,0,1,33.94,28a23.44,23.44,0,0,1,4-4.48,35.21,35.21,0,0,1,4.81-3.71,19.68,19.68,0,0,1,5.8-2.56,30.6,30.6,0,0,1,6.89-.5c2.41,0,4.82,0,7.22,0a15.75,15.75,0,0,1,3.43.3,10.8,10.8,0,0,1,3,.81c.8.43,1.51,1,2.3,1.43A15,15,0,0,1,74,21.1,17.16,17.16,0,0,1,77.63,26a20.13,20.13,0,0,1,2.06,6.64c.22,1.78.15,3.59.29,5.37.3,3.66.78,7.29.78,11A66.88,66.88,0,0,0,81,56c.12,1.09.26,2.17.32,3.26a29.51,29.51,0,0,0,.3,3.25c.38,2.27.31,4.55.54,6.83.11,1.18.33,2.34.41,3.52s.1,2.39.13,3.58.1,2.25.25,3.37.41,2.31.58,3.47A62.3,62.3,0,0,1,84,90.5c0,1.2,0,2.41,0,3.62l.56-.32-.31-.22-.29.69.36.1-.22-.55c-.54,1-2,1.52-3,1.87a26.14,26.14,0,0,1-3.67,1A49.53,49.53,0,0,0,72,98c-1.74.53-3.48,1.07-5.25,1.5a73.19,73.19,0,0,1-11.39,1.81A47.66,47.66,0,0,1,43.81,101a28.61,28.61,0,0,1-10.58-3.91c-.31-.18-.75.21-.52.52a5.45,5.45,0,0,0,1.2,1c.35.25.75-.3.46-.59l-1.1-1.1.06.45A12.48,12.48,0,0,0,34,91.86a52.93,52.93,0,0,0-.61-6.29c-.65-4.42-.94-8.91-1.22-13.36s-.45-8.84-.76-13.26c-.08-1.1-.15-2.2-.18-3.3s0-2.15-.06-3.22c-.15-1.87-.45-3.71-.51-5.59,0-1.35-.19-2.69-.2-4,0-1.13-.11-3,.83-3.79.37-.32-.17-.85-.53-.53a4.16,4.16,0,0,0-1,2.83,26.5,26.5,0,0,0,.07,4.08c.09,1.4.08,2.8.25,4.19.12,1,.29,2.05.36,3.08s0,2.24.06,3.36c.07,2.2.28,4.4.43,6.6s.21,4.42.32,6.63q.34,6.72,1,13.42c.24,2.45.75,4.86.92,7.32.08,1.17.1,2.36.1,3.54A8.58,8.58,0,0,1,32.68,97a.39.39,0,0,0,.06.46l1.1,1.1.45-.59a4.29,4.29,0,0,1-.93-.77l-.51.51a28.37,28.37,0,0,0,9.55,3.76,46,46,0,0,0,11.71.68,77.34,77.34,0,0,0,11.63-1.64c3.8-.82,7.42-2.32,11.25-3a28.12,28.12,0,0,0,4.67-1.21c1.13-.42,2.56-1,3.14-2.11a.37.37,0,0,0-.22-.55l-.36-.11a.38.38,0,0,0-.29.69l.32.22a.38.38,0,0,0,.56-.33c0-2.49,0-5-.22-7.47-.09-1.19-.22-2.38-.39-3.56s-.48-2.53-.62-3.8c-.26-2.45-.14-4.92-.39-7.37-.12-1.2-.34-2.39-.41-3.6s-.07-2.38-.15-3.57-.34-2.25-.48-3.38S82,59,81.9,57.79s-.28-2.32-.35-3.49,0-2.47,0-3.7c0-2,0-4-.16-5.92s-.37-3.92-.55-5.89-.14-3.69-.29-5.53a20.85,20.85,0,0,0-1.7-6.54,18.44,18.44,0,0,0-3.36-5.22,13.71,13.71,0,0,0-2.26-2c-.85-.59-1.77-1.05-2.63-1.62a7.88,7.88,0,0,0-2.44-1.18A27.58,27.58,0,0,0,65,16.13,25.83,25.83,0,0,0,61.46,16H57.54a57.88,57.88,0,0,0-7.21.19,17.92,17.92,0,0,0-6.21,2,28.57,28.57,0,0,0-5,3.33,31.64,31.64,0,0,0-4.5,4.31,20.56,20.56,0,0,0-3.14,5.09,13.66,13.66,0,0,0-1,2.92,22.44,22.44,0,0,0-.16,2.72,12.63,12.63,0,0,0,0,2.46.38.38,0,0,0,.36.28,8.36,8.36,0,0,1,2.5.08,8.47,8.47,0,0,0,1.69.46c1.79.11,3.63,0,5.43,0h5.26c1.7,0,3.46.13,5.15,0a12,12,0,0,0,1.86-.37,14.6,14.6,0,0,1,2.8-.19,17.55,17.55,0,0,0,2-.34c.8-.14,1.6-.1,2.4-.21s1.36-.31,2-.44a19.89,19.89,0,0,1,2.55-.19,30.59,30.59,0,0,0,4.87-.72c.84-.19,1.69-.09,2.53-.21a14.64,14.64,0,0,0,2.47-.83A59,59,0,0,1,80.29,35c.47-.1.27-.82-.2-.72Z" style="fill: #231f20"/>
    </g>
    <g>
      <path d="M55.71,46c-1.88.41-3.8.77-5.71,1.32-.82.23-1.62.7-2.45.85s-1.76,0-2.75.25a30.94,30.94,0,0,1-6.59.8c-1.21.06-2.2.58-3.46.59a13.32,13.32,0,0,0-3,.41c-1,.22-2.08-.05-3.1.17a11,11,0,0,1-2.95.5c-2.42,0-4.84,0-7.26,0-2.57,0-5.13,0-7.69,0a6.39,6.39,0,0,1-2-.5,11.56,11.56,0,0,0-2.43,0,28.29,28.29,0,0,1,0-3.32,8.78,8.78,0,0,1,.56-3.26,21.09,21.09,0,0,1,6-8.79,29.62,29.62,0,0,1,8.84-5.92c2.76-1.17,5.65-1.24,8.64-1.24s5.88,0,8.81,0a22.62,22.62,0,0,1,3.85.56c1.9.3,2.68,1.29,4.4,2.2a15.69,15.69,0,0,1,6.3,7.12,19.85,19.85,0,0,1,2,8.31c0,3.58.95,9.77.95,13.35v5.06c0,2.46.5,4.66.53,7,0,1.68.52,3.25.6,4.92a48.34,48.34,0,0,0,.39,5.77c.54,3.34.13,6.84.8,10.18a67.57,67.57,0,0,1,1,13.19l-.32-.21.36.1c-.68,1.45-4,2.29-5.28,2.66-1.6.45-3.26.57-4.86,1-3.07.89-6,1.92-9.17,2.55-7.55,1.52-15.28,2.37-22.91.83a26.68,26.68,0,0,1-9.22-3.68,4,4,0,0,0,1.06.9l-1.1-1.1c.84-1.8.6-3.93.57-6,0-2.88-.7-5.77-1-8.64-.55-5.71-1-11.51-1.17-17.24-.14-3.83-.67-7.66-.62-11.49,0-2.26-.57-4.4-.54-6.64,0-1.71-.83-7.15.73-8.44" style="fill: #007d00"/>
      <path d="M55.61,45.66c-1.75.38-3.51.72-5.23,1.19-.73.19-1.4.49-2.11.74a7.15,7.15,0,0,1-2.39.32,15,15,0,0,0-2.28.43A25.77,25.77,0,0,1,41,48.7a29.22,29.22,0,0,0-4.47.47c-1.46.36-3,.31-4.43.62a12.87,12.87,0,0,1-2.48.15,10.43,10.43,0,0,0-2.22.39,22.58,22.58,0,0,1-5.07.2H17.18c-2,0-4,0-6,0a4,4,0,0,1-1.37-.14c-.31-.1-.6-.24-.91-.32A10,10,0,0,0,6.32,50l.37.27a13.16,13.16,0,0,1,0-2.51,14.48,14.48,0,0,1,.25-2.86,17.48,17.48,0,0,1,2.53-5.43,23.53,23.53,0,0,1,4-4.49,35.21,35.21,0,0,1,4.81-3.71,19.4,19.4,0,0,1,5.8-2.55A30.65,30.65,0,0,1,31,28.2c2.4,0,4.81,0,7.21,0a16.55,16.55,0,0,1,3.44.3,11.18,11.18,0,0,1,3,.81c.8.43,1.51,1,2.3,1.44a14.42,14.42,0,0,1,2.56,1.77,16.79,16.79,0,0,1,3.64,4.84A20.13,20.13,0,0,1,55.21,44c.22,1.78.15,3.59.29,5.37.3,3.66.78,7.29.78,11a66.88,66.88,0,0,0,.19,7.08c.12,1.09.26,2.17.32,3.26a29.51,29.51,0,0,0,.3,3.25c.38,2.28.31,4.55.54,6.83.11,1.18.33,2.34.41,3.53s.1,2.38.14,3.57a31.62,31.62,0,0,0,.24,3.37c.15,1.17.41,2.31.58,3.48a62,62,0,0,1,.54,7.21c0,1.21,0,2.42,0,3.62l.56-.32-.31-.22-.29.69.36.1-.22-.55c-.54,1-2,1.52-3,1.87a26.14,26.14,0,0,1-3.67,1,52.43,52.43,0,0,0-5.53,1.35c-1.74.54-3.48,1.07-5.25,1.51a73,73,0,0,1-11.39,1.8,47.68,47.68,0,0,1-11.51-.35,28.77,28.77,0,0,1-10.58-3.9c-.3-.19-.75.2-.52.51a5.68,5.68,0,0,0,1.2,1c.36.25.75-.3.46-.59l-1.1-1.1.06.45a12.48,12.48,0,0,0,.63-5.53A53.13,53.13,0,0,0,8.87,97c-.65-4.42-.94-8.91-1.22-13.36s-.45-8.84-.76-13.26q-.12-1.65-.18-3.3c0-1.07,0-2.15-.06-3.22-.15-1.87-.45-3.71-.5-5.59-.05-1.35-.2-2.69-.21-4,0-1.13-.11-3,.83-3.79.37-.32-.17-.85-.53-.53a4.16,4.16,0,0,0-1,2.83,26.47,26.47,0,0,0,.07,4.08c.09,1.4.08,2.8.25,4.2.13,1,.29,2,.36,3.07s0,2.24.06,3.36c.07,2.2.28,4.4.43,6.6s.21,4.42.32,6.63c.24,4.48.57,9,1,13.42.24,2.45.75,4.86.92,7.32.08,1.17.1,2.36.1,3.54a8.63,8.63,0,0,1-.57,3.49.38.38,0,0,0,.06.45l1.1,1.1.45-.59a4.29,4.29,0,0,1-.93-.77l-.51.51a28.69,28.69,0,0,0,9.55,3.77,46.89,46.89,0,0,0,11.71.68,78.67,78.67,0,0,0,11.63-1.65c3.8-.82,7.42-2.32,11.25-3a28.12,28.12,0,0,0,4.67-1.21c1.13-.42,2.56-1,3.15-2.11a.38.38,0,0,0-.23-.55l-.36-.1a.37.37,0,0,0-.29.68l.32.22a.38.38,0,0,0,.56-.33c0-2.49,0-5-.22-7.47-.09-1.19-.22-2.38-.39-3.56s-.48-2.52-.62-3.8c-.26-2.45-.14-4.92-.39-7.37-.12-1.2-.34-2.39-.41-3.6s-.07-2.38-.15-3.57-.34-2.25-.48-3.38-.13-2.39-.25-3.58-.28-2.32-.35-3.49,0-2.46,0-3.7c0-2,0-3.94-.16-5.92s-.37-3.92-.55-5.89-.14-3.69-.29-5.53a20.92,20.92,0,0,0-1.7-6.54A18.4,18.4,0,0,0,51,32.92a14.2,14.2,0,0,0-2.27-2c-.85-.59-1.77-1.05-2.63-1.62a7.94,7.94,0,0,0-2.43-1.18,28.17,28.17,0,0,0-3.15-.59A25.83,25.83,0,0,0,37,27.46H33.06a57.88,57.88,0,0,0-7.21.19,17.92,17.92,0,0,0-6.21,2,28.57,28.57,0,0,0-5,3.33,32.77,32.77,0,0,0-4.5,4.31A20.43,20.43,0,0,0,7,42.37a13.39,13.39,0,0,0-1,2.91A22.44,22.44,0,0,0,5.92,48a12.63,12.63,0,0,0,0,2.46.38.38,0,0,0,.36.28,8.79,8.79,0,0,1,2.51.08,8.2,8.2,0,0,0,1.68.46c1.79.11,3.63,0,5.43,0H21.2c1.7,0,3.46.13,5.15,0a12,12,0,0,0,1.86-.36,13.84,13.84,0,0,1,2.8-.2,15.36,15.36,0,0,0,2-.34c.8-.14,1.6-.1,2.4-.21s1.36-.31,2-.44A19.91,19.91,0,0,1,40,49.52a30.64,30.64,0,0,0,4.86-.72c.84-.19,1.69-.09,2.53-.21a14.64,14.64,0,0,0,2.47-.83,59,59,0,0,1,5.91-1.38c.47-.1.27-.82-.2-.72Z" style="fill: #231f20"/>
    </g>
    <g>
      <g>
        <path d="M50,108.3c-1-1.21-1-2.82-1.37-4.26a10.72,10.72,0,0,1-.06-2.12c0-1-.48-1.85-.5-2.87,0-1.51.16-3,.12-4.54,0-1-.58-1.85-.54-2.78,0-.64.38-1,.49-1.56.15-.75,0-1.51.21-2.24A94.87,94.87,0,0,1,52.2,76.64a25.42,25.42,0,0,1,2.4-5c.52-.8,1.1-1.36,1.68-2.11.92-1.16,1.47-2.6,2.43-3.78A42.61,42.61,0,0,1,63.35,61a31.38,31.38,0,0,1,6-4.64c1.33-.69,2-1.71,3.19-2.63a16.48,16.48,0,0,1,2.75-1.47,24.19,24.19,0,0,1,3.56-1.95,34.24,34.24,0,0,0,4.77-1.88c2-1,3.66-2.31,5.81-2.93s4.08-1.35,6.17-1.86c3.77-.92,7.51-1.79,11.26-2.46,1.11-.19,2.34.31,3.46.13a14,14,0,0,1,2.19-.53,11.18,11.18,0,0,0,1.83,0c1.23-.26,1.71-.7,2.24,1,.69,2.22.65,4.71,1.12,7a28.71,28.71,0,0,1,.8,5.65c0,2,.46,3.91.43,5.94a27.82,27.82,0,0,1-1,7.83c-.66,2.2-1,4.43-1.7,6.62-.75,2.41-1.28,4.89-2.08,7.3a36.92,36.92,0,0,1-6.49,11.52,13.34,13.34,0,0,0-1.38,1.57c-.26.43-.31,1-.6,1.44A23,23,0,0,1,103,99.15c-1.83,1.88-4.21,3.22-6.13,5a46,46,0,0,1-5.25,4,27,27,0,0,1-7.14,3.44,74.59,74.59,0,0,1-11.14,2.84c-2.13.41-4.6,0-6.76,0L60,114.3a39.9,39.9,0,0,1-6.41-.65c-.72-.12-1.67-.59-2.26-.33-1,.44-1.87,3-2.47,3.84-1,1.38-2.31,2.39-3.23,3.86-.71,1.15-1.33,2.35-2.15,3.43-1,1.23-1.46,1.9-2.65.62s-.59-1.83.36-3.22c1.36-2,3.24-3.56,4.32-5.69s3.88-4.14,4-6.82Z" style="fill: #007d00"/>
        <path d="M50.3,108a6.14,6.14,0,0,1-1-2.94c-.09-.52-.24-1.06-.28-1.58s0-1.06,0-1.59c0-1.06-.49-2-.5-3.11,0-1.23.12-2.46.13-3.7a5.94,5.94,0,0,0-.13-1.4,15.67,15.67,0,0,1-.4-1.64,2.75,2.75,0,0,1,.33-1.37,4.72,4.72,0,0,0,.24-1.54,14.7,14.7,0,0,1,.73-3.52c.34-1.14.73-2.27,1.13-3.4C51.3,80,52.1,77.83,53,75.67a22.77,22.77,0,0,1,1.51-3.15,22.81,22.81,0,0,1,2.06-2.74,25.92,25.92,0,0,0,1.63-2.61,17.63,17.63,0,0,1,2.14-2.73,66.9,66.9,0,0,1,4.89-4.64,31.92,31.92,0,0,1,2.66-2.14c.83-.58,1.77-1,2.57-1.61s1.42-1.33,2.18-1.95a14.89,14.89,0,0,1,2.83-1.54c1-.5,1.81-1.18,2.78-1.64s2.22-.78,3.31-1.21a53.41,53.41,0,0,0,5.64-2.88A15.82,15.82,0,0,1,90.3,45.6c1.14-.36,2.27-.74,3.42-1.09,2.33-.71,4.73-1.22,7.11-1.76,1.23-.27,2.47-.54,3.7-.78a12,12,0,0,1,3.51-.45,7.2,7.2,0,0,0,3,0,6.29,6.29,0,0,1,1.48-.37,16.07,16.07,0,0,0,1.7,0c.42,0,1.23-.47,1.61-.16a2.25,2.25,0,0,1,.46,1.06,16.85,16.85,0,0,1,.38,1.71c.18,1.14.27,2.29.42,3.43s.38,2.16.59,3.23c.46,2.4.47,4.82.73,7.24a31.32,31.32,0,0,1-.08,6.91,62.78,62.78,0,0,1-1.57,6.88c-.54,2.34-1.26,4.63-1.88,7A41.85,41.85,0,0,1,112.62,85a36.31,36.31,0,0,1-3.21,5.66,32.56,32.56,0,0,1-2,2.67,8.37,8.37,0,0,0-1.56,1.91,5.45,5.45,0,0,1-.65,1.41,8.47,8.47,0,0,1-1.14,1.1c-.79.67-1.51,1.39-2.28,2.06-1.62,1.42-3.45,2.56-5,4A48.67,48.67,0,0,1,91.23,108c-3.65,2.53-8.15,3.87-12.41,4.92-1.14.28-2.29.54-3.44.78a24.18,24.18,0,0,1-3.49.57c-2.29.13-4.62-.16-6.92-.2s-4.89,0-7.32-.22c-1.18-.09-2.36-.25-3.52-.44a8.89,8.89,0,0,0-2.62-.48c-1.34.2-2,2.18-2.51,3.21-.85,1.69-2.4,2.84-3.47,4.37-.64.92-1.14,1.93-1.75,2.87a15.9,15.9,0,0,1-1,1.41c-.23.27-.55.71-1,.61a2.34,2.34,0,0,1-1.18-1.2A1.1,1.1,0,0,1,40.8,123a21.89,21.89,0,0,1,1.83-2.47c.65-.77,1.33-1.51,1.94-2.31a24.9,24.9,0,0,0,1.52-2.4c.9-1.48,2.23-2.66,3.07-4.19a7.39,7.39,0,0,0,.7-2.16,6.77,6.77,0,0,1,.5-1c.22-.43-.42-.81-.65-.38a7.09,7.09,0,0,0-.58,1.13c-.11.41-.1.82-.24,1.23a6.05,6.05,0,0,1-.64,1.27c-1,1.54-2.31,2.8-3.18,4.41-1,1.9-2.65,3.37-3.93,5.09a6.57,6.57,0,0,0-1.36,2.26,2.36,2.36,0,0,0,.93,2,1.5,1.5,0,0,0,1.87.43,6.83,6.83,0,0,0,1.79-2.13c.65-1,1.17-2.08,1.87-3s1.48-1.67,2.21-2.51a9.41,9.41,0,0,0,1.33-2A10.41,10.41,0,0,1,51,114.06a1,1,0,0,1,1-.42c.53.08,1,.3,1.56.39,1.12.21,2.26.36,3.39.47,2.49.25,5,.22,7.52.27,1.25,0,2.49,0,3.74.11a35.08,35.08,0,0,0,3.55.11,23.93,23.93,0,0,0,3.46-.54c1.19-.24,2.37-.5,3.55-.79a59.29,59.29,0,0,0,7-2.14,26,26,0,0,0,5.73-2.85,48,48,0,0,0,5.61-4.21c1.65-1.54,3.58-2.74,5.27-4.24.82-.72,1.61-1.47,2.43-2.18a5.13,5.13,0,0,0,1.61-2.29,10.14,10.14,0,0,1,1.91-2.44c.66-.84,1.3-1.7,1.89-2.58a36,36,0,0,0,3.26-5.89A48.93,48.93,0,0,0,115.71,78c.65-2.41,1.36-4.78,1.92-7.21a49.41,49.41,0,0,0,1.49-7,35.94,35.94,0,0,0-.11-7.11c-.13-1.27-.12-2.55-.24-3.81a34.15,34.15,0,0,0-.6-3.62c-.46-2.25-.51-4.57-1-6.81a3.68,3.68,0,0,0-1-2.14,1.67,1.67,0,0,0-1.45-.07c-1,.26-2,0-3.07.24a13.83,13.83,0,0,1-1.56.43,6.93,6.93,0,0,1-1.64-.11,10.57,10.57,0,0,0-3.4.28c-1.28.25-2.55.52-3.82.8-2.47.54-5,1.07-7.37,1.79-1.22.36-2.43.77-3.64,1.15A17.88,17.88,0,0,0,87.07,46c-.95.5-1.86,1.09-2.81,1.6A26.79,26.79,0,0,1,81,49.11c-1.05.41-2.18.67-3.19,1.16s-1.94,1.22-3,1.74a14,14,0,0,0-2.71,1.49c-.81.66-1.49,1.48-2.34,2.08s-2,1.13-2.86,1.81-1.77,1.42-2.62,2.17a59.16,59.16,0,0,0-5,4.87,15.74,15.74,0,0,0-2,2.73,19.8,19.8,0,0,1-2,3,19.75,19.75,0,0,0-3.16,5.65c-.91,2.34-1.8,4.7-2.62,7.07-.41,1.16-.78,2.34-1.11,3.52a16.81,16.81,0,0,0-.41,1.7c-.1.56-.06,1.12-.12,1.67a9,9,0,0,1-.48,1.52,2.93,2.93,0,0,0,0,1.38c.11.52.32,1,.4,1.54a9.83,9.83,0,0,1,0,2,18.5,18.5,0,0,0,0,3.49c.08.51.24,1,.34,1.51a8.36,8.36,0,0,1,.08,1.8,14.4,14.4,0,0,0,.44,3,5.8,5.8,0,0,0,1.12,2.59C50.08,108.94,50.6,108.4,50.3,108Z" style="fill: #231f20"/>
      </g>
      <path d="M54.36,108.54a40.4,40.4,0,0,1,2.4-3.52c.85-1.07,1.69-2.15,2.53-3.22,1.67-2.11,3.46-4.11,5.22-6.14s3.32-4.34,5-6.46,3.54-4.5,5.48-6.6,3.8-4,5.81-5.94c1-1,2-1.89,2.93-2.91s1.93-1.9,2.85-2.89a13.35,13.35,0,0,1,1.21-1.28,17.47,17.47,0,0,0,1.4-1.32,33.84,33.84,0,0,1,3-2.89c2-1.71,3.9-3.56,6-5.24,1.17-1,2.37-1.91,3.51-2.91s2.25-2.08,3.37-3.12c2.23-2.08,4.75-3.86,7.16-5.73.38-.3-.16-.82-.53-.53l-3.23,2.53c-1.1.85-2.23,1.64-3.26,2.58-2,1.82-4,3.71-6.07,5.42-1,.82-2,1.64-3,2.49s-2,1.89-3,2.79S90.94,65.42,90,66.39s-1.76,1.87-2.74,2.72c-.45.4-.81.87-1.21,1.3s-1,1-1.48,1.48c-1,1-1.89,2-2.89,3-2,2-4,4-6,6a141.34,141.34,0,0,0-10.58,13c-1.83,2.4-4.05,4.48-5.88,6.88-.94,1.25-1.91,2.47-2.87,3.7s-1.77,2.47-2.6,3.77c-.26.41.39.78.65.37Z" style="fill: #231f20"/>
    </g>
  </g>
</svg>
