<svg id="Sketch" xmlns="http://www.w3.org/2000/svg" width="100mm" height="44.79mm" viewBox="0 0 283.46 126.98">
  <title>CO2-left</title>
  <g>
    <path d="M9.83,106.13c-1.53.32-2.15-.3-2.54-1.64a20.12,20.12,0,0,1-.88-4.84c.11-3.26,1.8-4.7,4.19-6.18.05-1.19-1.75-3-2.23-4.16a15.89,15.89,0,0,1-1-6.31c0-3.06,1.29-8.63,5.53-7.62-1.68-1.44-1.79-3.92-2.39-5.89C9.7,67,8.16,64.7,8.13,62c0-2.38,1.23-4,3-5.43,2.89-2.33,3.72-1.38,3.68-5.32-.05-4.23-1-10,1.51-13.6,1.91-2.74,6.89-3.9,10-4a30.47,30.47,0,0,1,3.17,0c1,.08,2.67,1.05,3.47.64.48-2.49,2.45-5.66,4-7.69,2.69-3.53,7.84-5.1,11.83-6.28a13.65,13.65,0,0,1,13,2.89c1.47,1.29,4,3.36,4.64,5.23.86-3.41,8.66-6.14,11.39-7.06,5.76-1.94,13.92-5.64,19.81-2.57,4,2.11,7.6,7.1,7.58,11.74,0,2.31.11,6.87-2.1,8.38.44.87,1.47.47,2.33.52,2.17.13,3.5.35,5.14,1.94,3.41,3.33,6.52,8,5.19,12.86a15.46,15.46,0,0,1-4.45,7.2c-2.14,1.92-4.64,2.27-7.35,3.11a19.93,19.93,0,0,1-4.76,1.15c-1.37.09-3.39-.68-4.61-.44-2.09.41-2.19,3.2-3.8,4.91A27.1,27.1,0,0,1,85.25,75c-4.89,2.88-11.32-.32-16-2.22,2.06,5.26,3.5,10.82-3.68,11.68-2.8.34-7.29.75-9.93-.41-1.79-.79-2.89-3-4.92-3.32.1,2.32.9,3.66-.53,5.84a13.58,13.58,0,0,1-6.72,5.09,14.06,14.06,0,0,1-6,1.2c-1.24-.08-2.23-.7-3.34-.64-.42,2.92-1,5.73-3.2,7.91-1.35,1.34-3.79,3.52-5.77,3.62,1.68,3.59-1.9,4.67-4.71,4.93s-4.56-.61-6.83,1.18c-2,1.56-3.81,3.19-6.09,1.11-1.57-1.41-2.89-4.87.64-4.82" style="fill: #007d00"/>
    <path d="M9.73,105.77a1.6,1.6,0,0,1-1.55-.3,3.6,3.6,0,0,1-.68-1.62,17,17,0,0,1-.71-3.93,6.08,6.08,0,0,1,1-3.66,10.12,10.12,0,0,1,2.8-2.37c.91-.6-.27-2.15-.68-2.76s-.72-1-1-1.52a8.86,8.86,0,0,1-.81-2.3,16,16,0,0,1,0-7.51c.58-2.24,2-4.65,4.66-4.06.34.08.66-.36.36-.62-1.34-1.21-1.62-3-2-4.71A45.26,45.26,0,0,0,9.2,65.23,7.22,7.22,0,0,1,9,59.72,9.42,9.42,0,0,1,12.4,56.1a8,8,0,0,0,2.22-1.63,5.52,5.52,0,0,0,.58-3.3c0-3.41-.61-6.9.16-10.26a7.39,7.39,0,0,1,2.32-4.14,11.48,11.48,0,0,1,4.22-2A19.06,19.06,0,0,1,26.34,34a24,24,0,0,1,3.06,0,14.5,14.5,0,0,1,2.21.61c.44.12,1.31.32,1.66-.11a2.92,2.92,0,0,0,.28-1A14.18,14.18,0,0,1,34,32.2a25.26,25.26,0,0,1,2.84-4.84c2.09-2.89,5.26-4.45,8.56-5.59a34.1,34.1,0,0,1,4.82-1.42,13.18,13.18,0,0,1,5.66.16A13.6,13.6,0,0,1,61,23a28.46,28.46,0,0,1,3.75,3.45,6.62,6.62,0,0,1,1.39,2.11.38.38,0,0,0,.72,0,6,6,0,0,1,2.76-3.05,26.65,26.65,0,0,1,4.51-2.31c3.09-1.29,6.32-2.36,9.49-3.41,3.9-1.28,8.4-2.54,12.46-1.23s7.15,5.09,8.35,9a16.69,16.69,0,0,1,.42,5.85c-.11,1.73-.31,4.13-1.86,5.24a.4.4,0,0,0-.13.52c.56,1,1.55.7,2.5.7a8.14,8.14,0,0,1,3.38.64,10.19,10.19,0,0,1,2.9,2.5A20,20,0,0,1,114,46.25a10.31,10.31,0,0,1,1.39,7.9,14.59,14.59,0,0,1-4.43,7.1c-2.1,1.84-4.95,2.27-7.53,3.09a16.18,16.18,0,0,1-4.39,1c-1.19,0-2.35-.39-3.54-.48a2.93,2.93,0,0,0-2.42.85,9.67,9.67,0,0,0-1.45,2.49,11.51,11.51,0,0,1-2.3,3A24.92,24.92,0,0,1,86,74.08a8.73,8.73,0,0,1-4.1,1.62,13.25,13.25,0,0,1-4.3-.33,55.11,55.11,0,0,1-8.24-3,.38.38,0,0,0-.46.46,23,23,0,0,1,1.59,5.43,4.9,4.9,0,0,1-1.12,4.29c-1.48,1.41-3.78,1.52-5.7,1.69a19.65,19.65,0,0,1-7-.28,7.16,7.16,0,0,1-2.93-1.89,5.9,5.9,0,0,0-2.9-1.75.38.38,0,0,0-.48.36c.1,1.81.71,3.58-.23,5.27A11.26,11.26,0,0,1,46,90a18.68,18.68,0,0,1-5.66,2.23,8.75,8.75,0,0,1-3.38.16,14.18,14.18,0,0,0-2.8-.56.37.37,0,0,0-.36.27c-.38,2.62-.94,5.33-2.75,7.36a17.88,17.88,0,0,1-2.62,2.38,6.55,6.55,0,0,1-3.24,1.51.39.39,0,0,0-.33.57,2.68,2.68,0,0,1,.08,2.56A3.53,3.53,0,0,1,23,107.77a16.72,16.72,0,0,1-5.68.53,6.34,6.34,0,0,0-2.59.43,17.45,17.45,0,0,0-2.86,2,3.31,3.31,0,0,1-2.87.75,4,4,0,0,1-2.07-1.78,3.29,3.29,0,0,1-.63-2.07c.12-.92,1.07-1.09,1.85-1.09a.38.38,0,0,0,0-.75,2.61,2.61,0,0,0-2.31.94,2.5,2.5,0,0,0-.16,2c.51,1.75,2.16,3.64,4.12,3.58A5.91,5.91,0,0,0,13,110.78a6.43,6.43,0,0,1,3.5-1.71c1.27-.1,2.55.08,3.82,0a11.83,11.83,0,0,0,3-.6,4.09,4.09,0,0,0,2.3-1.75,3.56,3.56,0,0,0-.17-3.16l-.32.56a6.77,6.77,0,0,0,3.31-1.39,19.42,19.42,0,0,0,2.94-2.56c2-2.16,2.67-5,3.08-7.85l-.36.28a22.65,22.65,0,0,1,3.12.62,10.74,10.74,0,0,0,3.48-.3,19.24,19.24,0,0,0,6-2.45,11.67,11.67,0,0,0,4.15-4.28c.91-1.79.34-3.57.24-5.46l-.47.36A6.18,6.18,0,0,1,53.52,83a7.26,7.26,0,0,0,2.58,1.65,19,19,0,0,0,7.44.41c2.06-.18,4.37-.32,6-1.67a5.1,5.1,0,0,0,1.69-4.28,20.26,20.26,0,0,0-1.69-6.42l-.46.46c4.6,1.86,10.18,4.76,15.2,2.73,2.59-1,4.73-3.25,6.62-5.25a11.18,11.18,0,0,0,1.79-2.89c.46-.94,1-2,2.17-2.1a17.49,17.49,0,0,1,3.51.45,11.12,11.12,0,0,0,4.19-.66c1.41-.44,2.83-.85,4.25-1.27a14,14,0,0,0,3.52-1.48,14.3,14.3,0,0,0,5.16-6.53,10.51,10.51,0,0,0,.27-7.89,19.14,19.14,0,0,0-5.23-7.38,6.42,6.42,0,0,0-3.24-1.58,12.46,12.46,0,0,0-2-.2c-.6,0-1.49.29-1.85-.33l-.14.51c1.41-1,1.87-2.81,2.09-4.45a22.27,22.27,0,0,0,.12-5.41,14.88,14.88,0,0,0-7-10.51c-3.91-2.39-8.67-1.72-12.87-.53-2.18.61-4.3,1.39-6.43,2.15-1.49.53-3,1-4.46,1.6a29.87,29.87,0,0,0-5.45,2.66c-1.33.85-2.79,2-3.23,3.58h.72a10.67,10.67,0,0,0-3.07-3.93,22.12,22.12,0,0,0-4.32-3.33A14.27,14.27,0,0,0,48.54,20c-3.32,1-6.79,2.05-9.59,4.16a14.75,14.75,0,0,0-3.37,3.76,21.42,21.42,0,0,0-2.67,5.16c-.09.26-.17.85-.33.93s-.91-.14-1.17-.22a9.06,9.06,0,0,0-2.23-.53,24.48,24.48,0,0,0-5.34.27c-2.91.49-6.35,1.58-8,4.22-1.92,3-1.68,7-1.5,10.38a23.31,23.31,0,0,1,0,4.94c-.18,1-.84,1.44-1.68,2a13.44,13.44,0,0,0-3.61,3.06,6.38,6.38,0,0,0-1.27,4.75,24,24,0,0,0,1.93,5.67c.64,1.66.81,3.47,1.48,5.12a5.52,5.52,0,0,0,1.38,2L13,75a3.88,3.88,0,0,0-3.46.74,6.71,6.71,0,0,0-1.93,3.18A13.12,13.12,0,0,0,7,82.77a17.69,17.69,0,0,0,.77,5.88A9.57,9.57,0,0,0,9,91.08a4.75,4.75,0,0,1,1.21,2.39l.19-.32A10.53,10.53,0,0,0,7.11,96a6.88,6.88,0,0,0-1.05,4.29,17.79,17.79,0,0,0,1,4.61,2.29,2.29,0,0,0,2.9,1.59c.47-.09.27-.81-.2-.72Z" style="fill: #231f20"/>
  </g>
</svg>
