<svg xmlns="http://www.w3.org/2000/svg" width="76.17" height="32.04" viewBox="0 0 76.17 32.04">
  <title>Asset 12Web</title>
  <g id="Layer_2" data-name="Layer 2">
    <g id="Sketch">
      <g>
        <path d="M23.53,9c-1.73,0-2-.42-3.7-.74a19.93,19.93,0,0,0-7.54.32c-2.89.63-4.54,1.51-5.87,4.2-.45.93-.79,1.89-1.24,2.82A6.83,6.83,0,0,0,4.67,19a8.36,8.36,0,0,0,0,1.8c.14.55.48.74.76,1.21s.22.81.48,1.18a4.7,4.7,0,0,0,1.74,1.27c1.48.83,3.3.5,5,.5a11,11,0,0,0,2.92-.07c.41-.12.74-.56,1.16-.7A15.26,15.26,0,0,1,18.46,24a33.55,33.55,0,0,1,5.85-.74,9.38,9.38,0,0,1,2.9,0A2.85,2.85,0,0,1,29,26.07a6.44,6.44,0,0,1-1.26,2.19c-.88,1.07-2.18.92-3.36,1.33A29.46,29.46,0,0,1,21,30.87a24.13,24.13,0,0,1-3.37.75,21.94,21.94,0,0,1-6-.43,15.55,15.55,0,0,1-5.72-2.6,37.45,37.45,0,0,1-2.83-2.52,7.34,7.34,0,0,1-1.87-3.58A17.53,17.53,0,0,1,2.15,9.36,9.35,9.35,0,0,1,4.74,6.13a16.46,16.46,0,0,1,2-1.64A21,21,0,0,1,9.39,3.7c1.12-.39,2.21-.46,3.31-.83a13.1,13.1,0,0,1,3.76-.76c.59,0,1.21.22,1.8.24a10,10,0,0,1,2.19.06,7.87,7.87,0,0,1,3,2c.89.76,1.65,1.23,1.68,2.5,0,.8-.85,2.32-1.63,2.09" style="fill: #007d00"/>
        <path d="M23.53,8.65a9.49,9.49,0,0,1-2.64-.5,13.21,13.21,0,0,0-3.19-.46,22.16,22.16,0,0,0-6.53.81,7.49,7.49,0,0,0-3.94,2.34A10.08,10.08,0,0,0,5.8,13.27,20.14,20.14,0,0,0,4.47,16.5a18.51,18.51,0,0,0-.21,3,4.2,4.2,0,0,0,0,1.37A3.52,3.52,0,0,0,5,22c.29.41.32.92.58,1.34a3.09,3.09,0,0,0,.93.87,6.59,6.59,0,0,0,2.65,1.07,22.16,22.16,0,0,0,3.26,0,13.53,13.53,0,0,0,3,0,4.13,4.13,0,0,0,1.12-.63,4.84,4.84,0,0,1,1.9-.26c1.25-.17,2.47-.47,3.72-.61s2.27-.14,3.41-.21a2.54,2.54,0,0,1,2.67,1.14c.61,1,.2,1.85-.4,2.73a3.31,3.31,0,0,1-1.06,1.11,4.64,4.64,0,0,1-1.37.42,14.3,14.3,0,0,0-2.85,1A22.3,22.3,0,0,1,19.09,31a16.25,16.25,0,0,1-7.53-.18,14.24,14.24,0,0,1-5.84-2.85,25.81,25.81,0,0,1-2.51-2.28A6.82,6.82,0,0,1,1.76,23c-1.35-4.22-1.5-9,.53-13A10.93,10.93,0,0,1,4,7.31,21.72,21.72,0,0,1,6.38,5.19,9.22,9.22,0,0,1,9.49,4.06c1.16-.37,2.37-.52,3.53-.89a10,10,0,0,1,3.67-.68c.6,0,1.18.24,1.79.24a7.79,7.79,0,0,1,1.87,0,6.83,6.83,0,0,1,2.71,1.8c.7.61,1.61,1.16,1.72,2.16,0,.52-.42,2.07-1.15,1.93-.48-.1-.68.63-.2.72,1.61.32,2.37-2.15,2-3.33a5.19,5.19,0,0,0-1.8-2,9.19,9.19,0,0,0-2.46-1.79c-1.19-.5-2.44-.18-3.67-.4a8.31,8.31,0,0,0-3.67.29c-.62.17-1.22.4-1.85.55s-1.32.27-2,.44-1.07.33-1.62.46a8.21,8.21,0,0,0-1.6.49,12.55,12.55,0,0,0-2.58,2,9.39,9.39,0,0,0-2,2.45A16,16,0,0,0,.1,15a19.11,19.11,0,0,0,.54,6.82,13.8,13.8,0,0,0,1.06,3,9.37,9.37,0,0,0,2.19,2.51,17.16,17.16,0,0,0,5.61,3.6A19.29,19.29,0,0,0,16.8,32a16.48,16.48,0,0,0,3.82-.69A28.69,28.69,0,0,0,24,30.11c.92-.37,1.94-.4,2.86-.8a4.59,4.59,0,0,0,2-2.07,2.66,2.66,0,0,0,.29-2.47,3.29,3.29,0,0,0-1.83-1.85,8.63,8.63,0,0,0-3-.06,26.3,26.3,0,0,0-3.86.39c-.68.11-1.36.27-2,.36a8.66,8.66,0,0,0-1.91.2c-.46.18-.78.59-1.26.71a6,6,0,0,1-1.89,0c-1.14-.06-2.27.08-3.42,0a5.8,5.8,0,0,1-3.22-1.14c-.55-.41-.62-.89-.88-1.47s-.75-.87-.85-1.44A9.4,9.4,0,0,1,5,19a16.86,16.86,0,0,1,.06-1.74,5.92,5.92,0,0,1,.61-1.82c.29-.65.54-1.31.83-2a8.47,8.47,0,0,1,1.62-2.5c1.35-1.36,3.32-1.81,5.15-2.14a16.55,16.55,0,0,1,7.54.13,9.38,9.38,0,0,0,2.68.48.38.38,0,0,0,0-.75Z" style="fill: #231f20"/>
      </g>
      <g>
        <g>
          <path d="M41.37,1.4h0Z" style="fill: #007d00"/>
          <path d="M41.37,1.78h.56a.39.39,0,0,0,.27-.11.41.41,0,0,0,.11-.26.39.39,0,0,0-.11-.27A.37.37,0,0,0,41.93,1h-.68a.39.39,0,0,0-.27.11.36.36,0,0,0-.11.26.39.39,0,0,0,.11.27.37.37,0,0,0,.27.11h.12a.39.39,0,0,0,.27-.11.44.44,0,0,0,.11-.27.43.43,0,0,0-.11-.26A.37.37,0,0,0,41.37,1h-.12v.75h.68V1h-.56a.38.38,0,0,0-.26.11A.36.36,0,0,0,41,1.4a.39.39,0,0,0,.11.27A.36.36,0,0,0,41.37,1.78Z" style="fill: #231f20"/>
        </g>
        <g>
          <path d="M49.16,5.78a12.86,12.86,0,0,0-3.51-3.54,6.66,6.66,0,0,0-4-.84,1,1,0,0,1-.23,0h-.53c-1,0-2.09,0-3.13,0-2.61,0-6.23,1-7.62,3.31a13.91,13.91,0,0,0-1.37,9.81,28.43,28.43,0,0,0,.63,3.61,6.67,6.67,0,0,1,.42,1.65,6.25,6.25,0,0,0,.64,1.88c.23.6.32,1.2.6,1.79s.73,1,1,1.59a6.13,6.13,0,0,0,1.09,1.87A16.05,16.05,0,0,0,35,28.36a8.87,8.87,0,0,0,7.79,1.47c2.86-.95,5.46-1.9,6.86-4.79,1.53-3.15,1.46-6.33,1.46-9.75C51.08,12.05,51.09,8.53,49.16,5.78ZM46.87,16.61a14,14,0,0,1-1.1,3.19c-.92,1.91-2.73,4.05-4.91,3.55-4.55-1-6.27-5.79-7-9.92-.38-2.18-.52-4,.6-6.09.84-1.56,3.77-.92,5.35-.92,1.94,0,2.74.45,4.5,1.25a5,5,0,0,1,2.31,2.49,8.68,8.68,0,0,1,.28,1.72,7.76,7.76,0,0,1,.47,1.21c.07.55-.42,1.14-.48,1.7S47,16,46.87,16.61Z" style="fill: #007d00"/>
          <g>
            <path d="M49.49,5.59a12.56,12.56,0,0,0-3.94-3.84A8.76,8.76,0,0,0,41.05,1v.75h.2a.38.38,0,0,0,0-.75c-2.44,0-4.9-.17-7.25.56a7.28,7.28,0,0,0-4.76,4A14.33,14.33,0,0,0,28.08,13a15,15,0,0,0,.28,1.63c.16.79.2,1.58.32,2.37a21.12,21.12,0,0,0,.57,2.07,14.6,14.6,0,0,0,.43,1.85,16.66,16.66,0,0,0,1.57,3.62c.73,1.06,1,2.23,2.07,3.08a11.47,11.47,0,0,0,6.76,2.94,9.36,9.36,0,0,0,3.47-.6,17.78,17.78,0,0,0,3.08-1.3,8.84,8.84,0,0,0,4.12-5.52c.87-3,.74-6.19.7-9.25,0-2.88-.29-5.86-2-8.3-.27-.39-.92,0-.65.38a12.63,12.63,0,0,1,1.84,6.9,52.12,52.12,0,0,1-.14,7.5c-.28,2.41-1,5-2.91,6.68a9.77,9.77,0,0,1-2.77,1.63,16.94,16.94,0,0,1-2.94,1A8.71,8.71,0,0,1,35.16,28a6.7,6.7,0,0,1-2.54-2.58A10.78,10.78,0,0,0,31.77,24a7,7,0,0,1-.85-2c-.16-.52-.42-1-.6-1.52s-.22-1.16-.37-1.73-.42-1.21-.53-1.86-.13-1.35-.25-2a20.69,20.69,0,0,1-.42-3.59,14.09,14.09,0,0,1,.5-3.6,8.42,8.42,0,0,1,1.67-3.47,7,7,0,0,1,2.79-1.75c2.43-.89,5-.69,7.54-.7V1h-.2a.38.38,0,0,0,0,.75,7.93,7.93,0,0,1,4.12.62A11.69,11.69,0,0,1,48.84,6C49.12,6.36,49.77,6,49.49,5.59Z" style="fill: #231f20"/>
            <path d="M46.51,16.51c-.46,2.55-2.49,7.29-5.81,6.42-2.84-.75-4.57-3.22-5.52-5.86a23.66,23.66,0,0,1-1-4.06,8,8,0,0,1,.61-5.48c.67-1.1,2.4-.89,3.49-.82a13.82,13.82,0,0,1,4.06.48c1.81.68,3.94,1.76,4.11,3.94a3.5,3.5,0,0,0,.23,1.2,1.58,1.58,0,0,1,.16,1.46,3.9,3.9,0,0,0-.32,1.12c0,.56.06,1.13,0,1.7s.69.47.75,0,0-1.06,0-1.59a10,10,0,0,1,.46-1.5,1.58,1.58,0,0,0-.11-1c-.09-.21-.21-.41-.29-.64a4.41,4.41,0,0,1-.15-1.09A4.43,4.43,0,0,0,46,8.51,6.08,6.08,0,0,0,43.65,7a9.36,9.36,0,0,0-2.22-.8C40.62,6,39.82,6.07,39,6c-1.34-.08-3-.35-4.19.41a3.52,3.52,0,0,0-1.23,1.93,7.73,7.73,0,0,0-.39,2.79,20.51,20.51,0,0,0,1,5.26c.9,3,2.58,5.86,5.6,7a4.09,4.09,0,0,0,2.71.24,5.13,5.13,0,0,0,2.22-1.54,11.47,11.47,0,0,0,2.53-5.4C47.32,16.24,46.59,16,46.51,16.51Z" style="fill: #231f20"/>
          </g>
        </g>
      </g>
      <g>
        <path d="M59.71,7.92c-3.4.08-1.76-5.17.2-6.46,2.5-1.64,6.17-1.18,8.79-.19,1.44.54,3.37.88,4.2,2.29s.54,3.78.09,5.23a11.52,11.52,0,0,1-3,4.6,11.18,11.18,0,0,0-1.85,1.92c-.28.47-.31,1-.64,1.45s-.89.86-1.27,1.32c-.71.87-3.28,3.58-1.26,4.12,1.47.39,3.72,0,5.27,0a11.93,11.93,0,0,1,4.42.71c3.28,1.28-1,3.6-2.57,4-2.24.55-4-.13-6.25-.11-.81,0-1.63,0-2.45,0-1.07,0-2,.35-3,.42-.79,0-1.92.18-2.53-.39A4,4,0,0,1,57,24.17c0-1.82,1.28-4,2.51-5.33,1.95-2.09,4.39-3.51,6.29-5.66a13,13,0,0,0,2.19-3c.43-.87,1.32-2,1.19-3a4.22,4.22,0,0,0-2.11-2.71c-.57-.26-1-.09-1.61-.21A13,13,0,0,0,64,3.74a4.52,4.52,0,0,0-3.18,1.7c-.52.69-.3,2.23-1.14,2.48-.1-.21.11.21,0,0" style="fill: #007d00"/>
        <path d="M59.71,7.55c-3,0-1.1-4.51.16-5.59C61.32.72,63.6.62,65.4.83a13.59,13.59,0,0,1,3,.71c.85.31,1.73.55,2.56.91a3.15,3.15,0,0,1,1.94,2,6.8,6.8,0,0,1,.06,3A10.25,10.25,0,0,1,70,12.83a13.55,13.55,0,0,0-2.19,2.29c-.26.44-.33,1-.62,1.4a15.16,15.16,0,0,1-1.24,1.3,8.53,8.53,0,0,0-2.06,3.06c-.44,1.67,1.48,1.86,2.68,1.86,2.15,0,4.23-.39,6.37,0a8.22,8.22,0,0,1,1.61.46c.3.12.76.31.89.63.21.5-.42,1-.75,1.27a7.11,7.11,0,0,1-4.16,1.56,29,29,0,0,1-3.36-.25c-1.25-.11-2.53-.07-3.79-.06-1.1,0-2.16.37-3.26.44s-2,.13-2.45-.95c-.79-2,.13-4.18,1.33-5.84a28.18,28.18,0,0,1,4.94-4.57,17.65,17.65,0,0,0,4.19-4.76,13.57,13.57,0,0,0,1.32-2.64,2.75,2.75,0,0,0-.5-2.42,4.27,4.27,0,0,0-1.78-1.59,5.11,5.11,0,0,0-1.45-.19c-.56-.07-1-.42-1.58-.49a4.23,4.23,0,0,0-3.79,2.24c-.2.47-.18,1.73-.72,1.94l.42.17,0-.06-.65.38.06.12c.21.43.86.05.64-.38l0-.06c-.21-.43-.86-.05-.64.38l0,.06.64-.38L60,7.67c-.22-.43-.87,0-.65.38l0,.06a.36.36,0,0,0,.42.17c.7-.27.87-.94,1-1.62A2.51,2.51,0,0,1,61.2,5.6a4.07,4.07,0,0,1,1.2-1,3.13,3.13,0,0,1,1.35-.51c.57,0,1,.34,1.59.46s1.13,0,1.65.23A3.79,3.79,0,0,1,68.23,6a2.53,2.53,0,0,1,.57,1.37,3.58,3.58,0,0,1-.64,1.74,20.92,20.92,0,0,1-1.78,2.85,37.91,37.91,0,0,1-5.25,4.88A13.22,13.22,0,0,0,57,22.05,5.89,5.89,0,0,0,56.67,25a3.13,3.13,0,0,0,1.06,2.27,3.92,3.92,0,0,0,2.53.34,13.64,13.64,0,0,0,1.68-.26,9.27,9.27,0,0,1,2-.16,36.77,36.77,0,0,1,3.93.12,14,14,0,0,0,3.48.11,7.88,7.88,0,0,0,3.92-1.79c1-.81,1.32-2,.09-2.76-1.78-1.1-4.34-1.13-6.36-1a19.49,19.49,0,0,1-3.33.1c-.3,0-.92-.06-1.1-.37s0-.61.12-.84A8.35,8.35,0,0,1,66,18.87,24.68,24.68,0,0,0,67.8,17c.3-.45.37-1,.64-1.45a6.49,6.49,0,0,1,1.34-1.43A15,15,0,0,0,72,11.53,9.68,9.68,0,0,0,73.8,5.79a4.73,4.73,0,0,0-.71-2.63,4.48,4.48,0,0,0-2-1.46A21.86,21.86,0,0,0,65.31.07a8.24,8.24,0,0,0-5.74,1.18,6,6,0,0,0-2,3.21c-.29,1.06-.41,2.46.47,3.28a2.33,2.33,0,0,0,1.66.56.38.38,0,0,0,0-.75Z" style="fill: #231f20"/>
      </g>
    </g>
  </g>
</svg>
