<?xml version="1.0" encoding="utf-8"?>
<!-- Generator: Adobe Illustrator 24.0.0, SVG Export Plug-In . SVG Version: 6.00 Build 0)  -->
<svg version="1.1" id="Layer_1" xmlns="http://www.w3.org/2000/svg" xmlns:xlink="http://www.w3.org/1999/xlink" x="0px" y="0px"
	 viewBox="0 0 841.9 595.3" style="enable-background:new 0 0 841.9 595.3;" xml:space="preserve">
<style type="text/css">
	.st0{fill:#007D00;}
</style>
<g>
	<path class="st0" d="M279.2,401.8c0-5.8,0.1-11.1,1.8-16.3c0.7-2,0.7-4.3,1.4-6.3c0.8-2.3,2-3.9,4.8-4.1c1.7-0.1,3.5-0.4,5.3-0.6
		c1.7-0.2,2.9,0.4,3.7,1.7c0.7,1.1,1.4,2.3,1.9,3.6c2.6,6.5,4.8,13.2,5.3,20.2c0.1,1,0.5,1.3,1.5,1.1c0.2,0,0.4-0.1,0.6-0.1
		c1.1-0.3,2.7,0.5,3.4-0.6c0.7-0.9,0-2.3-0.1-3.5c-1.2-9.9-2.5-19.8-4-29.7c-1.4-9.5-2.8-18.9-3.7-28.4c-0.5-5.3-0.5-10.6-0.7-15.9
		c-0.6-14.2-1.1-28.4-1.7-42.7c-0.3-8-0.6-16-1-23.9c-0.6-12.5-1.2-24.9-1.8-37.4c-0.2-5-0.4-10-0.7-15c-0.6-13.8-1.1-27.7-1.7-41.5
		c-0.2-3.7-0.4-7.5-0.6-11.2c-0.1-1.2-0.6-2-1.7-2.6c-2.7-1.4-4-4.2-6.2-6.2c-0.4-0.4-0.4-1-0.3-1.6c0.1-1.9,0.2-3.8,0.4-5.7
		c0.1-1.5,1.2-2.4,2.4-2.5c3.1-0.4,3.9-3,4.9-5.1c1.2-2.5,2-5.3,4.5-7.1c0.6-0.4,0.4-1,0.4-1.6c-0.1-2.7-0.6-5.4-0.5-8.1
		c0-0.8,0-1.5,0.1-2.3c0.2-1-0.1-2.6,1.2-2.8c1.5-0.2,3.3-1,4.5,0.8c0.5,0.8,1.3,0.6,2.1,0.6c6-0.1,12.1,0,18.1-0.2
		c6.1-0.3,12.3-0.1,18.4-0.2c1.4,0,2.9,0.1,3.9-1.4c0.5-0.7,1.3-0.5,1.8,0.2c0.5,0.9,1.3,1,2.2,1c11.5,0.1,22.9-0.6,34.4-0.8
		c1.4,0,2.9,0.1,3.9-1.5c0.4-0.7,1.4-0.5,1.8,0.1c0.7,1.1,1.7,1.1,2.9,1.1c9.5-0.4,19-0.8,28.5-1.2c2.5-0.1,5,0.1,7.5-0.3
		c0.5-0.1,1.1,0,1.3-0.5c0.7-1.2,1.8-1.2,2.9-1.2c2.2,0,2.8,0.3,3.3,2.4c0.6,2.2,1,4.4,1.5,6.7c0.3,1.7,1.2,2.3,2.9,2.4
		c3.3,0.1,6.5,0.4,9.8,1.1c3.3,0.6,6.7,0.6,10,1.1c6.8,1.1,13.3,3.1,19.9,5c3,0.9,5.9,1.8,8.7,3.2c0.7,0.4,1.4,0.1,2-0.2
		c2.9-1.1,6-1.1,9-1.3c0.6-0.1,1.3,0,1.5,0.7c0.3,0.7-0.2,1.1-0.6,1.5c-1.3,1.2-1,2.9-1.2,4.4c-0.1,0.5,0.5,0.7,0.9,0.8
		c1.6,0.7,2.7,1.9,3.8,3.2c2.1,2.4,4.1,4.9,4.9,8.1c0.2,0.9,0.9,1.1,1.7,1.4c5.9,1.9,11.9,3.8,17.8,5.8c2.6,0.9,3,1.6,3,4.3
		c0.1,4.3,0.2,8.7,0.5,13c0.1,1.5-0.5,2.2-1.8,2.6c-1.7,0.5-3.4,0.5-5.2,0.7c-3.4,0.3-6.8,0.5-10.2,0.7c-1,0.1-1.7,0.4-2.2,1.3
		c-0.4,0.9-0.9,1.9-1.5,2.7c-2.1,2.8-2.7,6.1-2.7,9.5c0,0.9-0.1,1.7-0.2,2.6c0,0.4-0.1,0.9-0.5,1c-2,0.3-1.5,1.9-1.6,3.2
		c-0.7,12.6-1.5,25.2-2.2,37.7c-0.3,5.1-0.5,10.2-0.7,15.3c-0.3,6.2,0,12.4-0.8,18.5c-1.7,13-1.5,26-2.2,39
		c-0.4,7.8-0.7,15.6-1,23.4c-0.5,11.8-0.9,23.7-1.3,35.5c-0.3,8.2-0.6,16.5-1,24.7c-0.4,10.7-0.9,21.5-1.3,32.2
		c-0.4,8.8-0.8,17.7-1.3,26.5c-0.3,6.2-0.5,12.4-1,18.5c-0.4,4.9-3.5,7.9-7.5,10.2c-2.6,1.4-5.4,2.2-8.3,2.7
		c-1.1,0.2-1.8,0.6-2.2,1.8c-0.8,2.3-3.1,2.7-4.7,0.8c-1-1.1-2-1.4-3.4-1.2c-6.7,0.8-13.4,1.5-20.1,2.2c-0.8,0.1-1.4,0.3-2,0.8
		c-1.1,1.1-2.7,1.2-4.1,1.4c-8.5,0.9-17.1,1.8-25.6,2.7c-3.8,0.4-7.6,0.8-11.3,1.2c-1.9,0.2-3.8,0.3-5.7-0.6c-1.4-0.7-3-0.3-4.5-0.1
		c-8.6,0.9-17.2,1.9-25.7,2.8c-1.1,0.1-1.7,0.5-1.7,1.6c0,0.7-0.2,1.5-1,1.7c-1,0.2-1.3-0.6-1.6-1.3c-0.6-1.3-1.5-1.8-3-1.7
		c-5.2,0.1-10.3-0.1-15.4-1.4c-4.4-1.1-8-3.5-11-6.9c-3.5-4-7-7.9-10.6-11.8c-0.9-1-1.5-2-1.8-3.4c-0.4-2.4-0.9-4.7-1.3-7
		c-0.2-1.2-0.6-2-1.8-2.5c-0.5-0.2-0.9-0.5-1.4-0.8c-1.7-0.9-2.7-2.3-2.9-4.3c-1.6-12-3.3-24-4-36.1c-0.1-1.4-0.6-1.9-2-1.8
		c-3.9,0.2-4.1,0.2-3.9,4.1c0.2,7.3-1.5,14.3-3.3,21.3c-0.3,1.1-0.7,2.1-1.4,2.9c-0.6,0.8-1.3,1.6-2.6,1.2c-0.9-0.3-1.5,0.7-2.4,0.7
		c-1.6,0.1-3.2-0.1-4.9,0.3c-0.8,0.2-1.5-0.3-2-0.9c-0.8-0.8-1.4-1.7-1.8-2.7c-2.8-6.6-4.9-13.3-5.7-20.5
		C279.6,412,279,406.8,279.2,401.8z"/>
</g>
<image style="overflow:visible;" width="1500" height="1500" xlink:href="../Prototypes/03_Biocontainer-Petition/Finals/Assets/260898_1.jpeg"  transform="matrix(1 0 0 1 914.4469 -392.2805)">
</image>
</svg>
