<svg id="Sketch" xmlns="http://www.w3.org/2000/svg" width="100mm" height="72.66mm" viewBox="0 0 283.46 205.95">
  <title>Grüncontainer-2</title>
  <g>
    <g>
      <path d="M127.6,41.28c0-.57,0-1.15,0-1.72,0-1.36-.31-2.93-1.39-3.79a11.74,11.74,0,0,0-4-2.16,11.77,11.77,0,0,1-2.53-.94c-.58-.34-1.24-.57-1.84-.87s-1-.41-1.12-1c0-.18,0-.36,0-.56s-.33-.36-.44-.54c-.63-1.08-1.31-2.46-2.5-3-.82-.39-2.36-.37-2.16-1.6.15-.94,1.6-2,.78-2.81a3.15,3.15,0,0,0-3.22-.48c-.78.21-1.56.42-2.34.61a3.72,3.72,0,0,1-.84.15A8.91,8.91,0,0,1,104.6,22c-.59-.24-1.14-.57-1.72-.83-2.64-1.19-5.46-1.57-8.18-2.28-1.64-.43-3.34-.54-5-.85-1.41-.26-2.89.1-4.32-.05-1.26-.13-3.49-.71-4.38-1.68-.34-.37-.26-.78-.4-1.25s-.31-1-.45-1.44c-.35-1.12-1.46-2.24-2.77-1.75-.55.21-.71.82-1.37.83s-1.37-.3-2.06-.31c-3-.05-5.94,0-8.91,0-1,0-1.78.24-2.73.29-.67,0-1.34-.06-2,0s-1.39.43-2.13.16c-.56-.21-.79-.76-1.32-1-.82-.38-1.05.11-1.52.66s-.55.42-1.33.26a18.58,18.58,0,0,0-3.5-.07c-.75,0-1.37.27-2.1.3s-1.24-.07-1.85,0c-1.31.18-2.67.42-3.95.67a12.72,12.72,0,0,1-2.62.14,7,7,0,0,1-2,0c-.59-.19-.85-.74-1.3-1.09s-.61-.25-1.12-.06a2.33,2.33,0,0,0-.69.38c-.17.14-.27.41-.49.5a4.35,4.35,0,0,1-1.61,0c-.53,0-1.08,0-1.61,0s-1.1.25-1.68.3c-.75.06-1.53,0-2.28,0a19,19,0,0,0-2,.26c-.74.09-1.49,0-2.24,0a15.1,15.1,0,0,0-2,.44c-1.48.3-3,.21-4.52.39s-2.2.72-3.06-.8c-1.81,0-2.13,2-1.68,3.33a2.83,2.83,0,0,1,.09,2.44,23.8,23.8,0,0,1-1.42,2,13.37,13.37,0,0,0-1,1.83,12.54,12.54,0,0,1-.75,2.37c-.51.85-1.12.69-1.83,1.14a2.53,2.53,0,0,0-1.18,1.82,6.07,6.07,0,0,0,1.67,4.56,4.31,4.31,0,0,1,1.18,1.66A6.16,6.16,0,0,1,9,37.81,17.73,17.73,0,0,0,9.3,40c.07.6-.07,1.19,0,1.8.06.3.19.56.23.86.13.94,0,1.86.2,2.8a13.71,13.71,0,0,1,.07,2.72,27.07,27.07,0,0,0,.06,4.68c.18,1,.11,2,.28,3s.08,2.14.28,3.16a38.86,38.86,0,0,1,.2,4.84c.06.85.3,1.65.3,2.53,0,.53,0,1.06,0,1.59,0,1.4.3,2.74.29,4.14a32.56,32.56,0,0,0,.21,4.94,59.17,59.17,0,0,1,.06,7.88v7.67c0,.82,0,1.64,0,2.46a16.2,16.2,0,0,0,.29,1.83,19.47,19.47,0,0,1,0,2.16,21.26,21.26,0,0,0,.26,2.64c.08.73,0,1.47,0,2.2s.26,1.51.29,2.29c.05,1.28,0,2.59,0,3.88a34.93,34.93,0,0,0,.06,5.51c.34,2.06,0,4.16.43,6.2a24.35,24.35,0,0,1,.07,4.83c0,1,.26,1.79.29,2.73a15,15,0,0,0,0,2.22,31.18,31.18,0,0,1,.54,4.83c0,1,.26,1.92.28,2.92a10.85,10.85,0,0,0,.21,2.22c.15.71.1,1.38.27,2.09s.2,1.47.42,2.19a20.65,20.65,0,0,1,.77,4.52,15.9,15.9,0,0,0,.34,2.16c.15.75.16,1.46.28,2.21.24,1.49.46,3,.67,4.47l-.38.08c-.31.05-1.06-.07-1.25.2a5,5,0,0,0-.2-1.59c-.08-.57-.3-1.08-.43-1.64-.23-1-.55-2.08-.87-3.08a12.18,12.18,0,0,1-.33-1.52,11.6,11.6,0,0,0-.82-2,10,10,0,0,0-1.4-2.64c-.38-.51-.47-.79-1.13-.85a2.77,2.77,0,0,0-1.25.1c-.4.15-.65.53-1,.69s-.69-.17-1.12-.08a2.49,2.49,0,0,0-1.61,2.06c-.14.77-.32,1.55-.47,2.33s-.15,1.5-.31,2.23A14.57,14.57,0,0,0,4.07,155c-.05.42-.16.8-.23,1.22s.07.88,0,1.32a25.89,25.89,0,0,0-.18,5.72,17.72,17.72,0,0,0,.28,2.92,23.59,23.59,0,0,0,.57,2.9c.28,1,.47,1.95.8,2.88s.66,1.78,1,2.66.47,1.84.76,2.73a10.19,10.19,0,0,0,.3,1.21c.26.46.49.18.86.08a5.35,5.35,0,0,1,1.13,0,7.21,7.21,0,0,0,.91-.25c.68-.12,1.19.09,1.81-.21l-.12-.12a3.33,3.33,0,0,0,.82-.54c.26-.29.29-1,.38-1.42.27-1.17.37-2.38.62-3.56.3-1.46.64-2.92,1-4.37.16-.65.28-1.32.44-2,.11-.41.33-.8.42-1.22.06-.26-.05-.64,0-.87.17-.5.73-.43,1.21-.58a6.58,6.58,0,0,0,.72-.32c.06.48.13.95.19,1.43.2,1.51.33,3,.48,4.48a19.25,19.25,0,0,0,.36,2.17,4.62,4.62,0,0,1,.23.85,8.28,8.28,0,0,0,0,1.11c.3,1.47.48,3,.79,4.45.23,1.12.45,2.21.62,3.33l0,.57c0,5.67,2.19,9.31,5.92,13.49,1.12,1.26,2.74,2,3.89,3.33.89,1,1.4,2,2.73,2.49,1,.37,1.83.91,2.81,1.24s1.89.37,2.82.66c.77.24,1.43.67,2.25.85.65.14,1.2.47,1.86.56a5,5,0,0,0,1.67.09c.48-.12.76-.61,1.28-.68a25.73,25.73,0,0,1,3.18-.26,16.11,16.11,0,0,0,3.92-.27c1.82-.42,3.71-.68,5.52-1.13,1.08-.26,2-.16,3.14-.33,2.74-.42,5.52-.63,8.28-.92a48.8,48.8,0,0,1,5.41-.14,35.4,35.4,0,0,0,6.65-.77,9.7,9.7,0,0,0,2.25-.62,6.39,6.39,0,0,1,1.32-.58c.37-.06.8,0,1.18,0,1.35-.12,2.73-.28,4.08-.47s3.06-.92,4.5-.78c.58.06,1.24.11,1.83.21s1.19.43,1.82.51a1.42,1.42,0,0,0,1.2-.27c.35-.36.1-.61.26-1s1-.54,1.53-.74a14,14,0,0,1,2.08-.77c.87-.21,2.45-.45,3.1-1.15a6.81,6.81,0,0,0,.91-1.68,12.49,12.49,0,0,0,.78-3.43c.53-3.64,1.39-7.17,1.36-10.86,0-8.16,0-16.33,0-24.49,0-7.69,0-15.37,0-23.05,0-3.6.41-7.19.54-10.79s0-7.06,0-10.59c0-2,0-3.93,0-5.9,0-1.15.21-2.28.26-3.43.12-2.55.3-5.1.3-7.65,0-2.9.54-5.8.58-8.7,0-1.48.29-2.92.26-4.4,0-2.66.63-5.19.84-7.81.15-1.93,1-3.74,1.48-5.61a24,24,0,0,0,.78-4c0-1.09,0-2.21,0-3.31s.3-2.52-.06-3.48l0,0c.94-.15,1-2,.94-2.63a7.5,7.5,0,0,1,1.11-4.13c.52-.77.61-1.27,1.51-1.64a6.93,6.93,0,0,1,1.69-.33c1.78-.29,3.5-.59,5.27-1,1.25-.28,2.36-.51,2.68-1.9C128,42.54,127.64,42,127.6,41.28Z" style="fill: #edf0f6"/>
      <path d="M127.85,41.28c0-1.84.22-4-1.19-5.46s-3.58-2.12-5.52-2.79A29.31,29.31,0,0,1,118,31.58a2.47,2.47,0,0,1-.58-.3c-1.29-1.15-.07-.36-.45-1.06-.21-.37-.51-.71-.74-1.09a8.3,8.3,0,0,0-1.67-2.23c-.61-.5-1.27-.49-1.93-.84-.85-.44-.61-1.32-.2-2a3,3,0,0,0,.45-1,1.28,1.28,0,0,0-.63-1.24c-1.63-1.21-3.87.06-5.57.36-1,.19-2-.45-3-.91A19.85,19.85,0,0,0,100.18,20a60.94,60.94,0,0,0-7.68-1.74c-1.13-.17-2.29-.41-3.44-.49-1.39-.11-2.77.18-4.16,0a8.81,8.81,0,0,1-3-1c-1.17-.69-1.15-2.14-1.6-3.31s-1.73-2.35-3.08-1.74c-.58.26-.62.52-1.35.61a8.09,8.09,0,0,1-2-.13c-1.46-.12-3,0-4.45,0l-4.21,0c-1.27,0-2.51.32-3.78.29-1.12,0-2.72.39-3.72-.17-.57-.32-.89-1-1.69-.8s-.83,1.19-1.74,1.1a26.1,26.1,0,0,0-3.43-.15c-1.32,0-2.6.23-3.92.28a24.38,24.38,0,0,0-3.61.54A20.79,20.79,0,0,1,39,13.6c-1,0-1.41-.58-2.14-1.12a1.21,1.21,0,0,0-.72-.31c-1,0-1.5,1-2.37,1.15-1.13.18-2.34-.11-3.5.09-1.44.25-2.87.07-4.31.27a38.44,38.44,0,0,0-4,.33,28.13,28.13,0,0,1-4.76.57c-1.34.11-2.65.78-3.51-.62a.24.24,0,0,0-.22-.12,2.19,2.19,0,0,0-2.11,2.3,7.78,7.78,0,0,0,.43,2.08c.33,1.49-.82,2.41-1.55,3.54a11,11,0,0,0-1.31,3.1,2.63,2.63,0,0,1-1.5,1.86,4.48,4.48,0,0,0-1,.56C5,28.47,5.29,30.48,6,32a9.58,9.58,0,0,0,1.71,2.34c1,1.15,1,2.53,1.12,4,.22,2.57.58,5.1.81,7.67a34.53,34.53,0,0,1,0,3.94,30.52,30.52,0,0,0,.21,3.83c.23,2.54.63,5.17.63,7.71a25,25,0,0,0,.15,3.35c.18,1.38.11,2.74.21,4.13.18,2.64.12,5.32.43,7.94a66.32,66.32,0,0,1,.09,8.1c0,2.89,0,5.77,0,8.66a18.53,18.53,0,0,0,.24,3c.23,1.39,0,2.83.18,4.23.15,1.21,0,2.42.18,3.62a38.25,38.25,0,0,1,.25,4.67c0,1.24-.07,2.49-.09,3.73,0,1.5.23,2.93.3,4.42.12,2.69.49,5.38.38,8.06-.06,1.52.25,3,.24,4.47a34.72,34.72,0,0,0,.38,4.18c.34,2.79.47,5.61.78,8.41a27.11,27.11,0,0,0,.7,3.89,32.52,32.52,0,0,1,.69,4.51c.32,2.82.86,5.65,1.25,8.47l.18-.31c-.56.11-1.2,0-1.68.31l.37.21c.1-2.08-.95-4.4-1.51-6.38A20.53,20.53,0,0,0,12,147.53c-.74-1.19-1.62-2.12-3.16-1.47a8.12,8.12,0,0,1-1,.51,4.55,4.55,0,0,1-1,.06,2,2,0,0,0-1.31.93c-1.15,1.67-.91,4.15-1.37,6.05a29.18,29.18,0,0,0-.82,6,35.66,35.66,0,0,0,2,13.23c.45,1.23.83,2.45,1.17,3.72.16.57.23,2,.78,2.32a.8.8,0,0,0,.38.1c.1,0,.18-.07.28-.08.38-.05.75-.11,1.13-.14s1-.23,1.49-.28a5.38,5.38,0,0,0,1.49-.18.26.26,0,0,0,.11-.42l-.12-.12-.05.4c1.07-.6,1.14-1.16,1.36-2.34.32-1.7.57-3.4,1-5.09.35-1.51.64-3.09,1.08-4.58a11,11,0,0,0,.42-1.22,4.92,4.92,0,0,1,0-.67c.22-.59,1.29-.7,1.83-.95l-.38-.22c.3,2.2.45,4.43.76,6.63.1.7.32,1.37.45,2.06.09.47,0,.95,0,1.41s.22,1.19.32,1.78A61.32,61.32,0,0,1,20,181.43a22.28,22.28,0,0,0,.66,5A22.31,22.31,0,0,0,25.83,195c1.33,1.47,3.13,2.39,4.4,3.93a7.83,7.83,0,0,0,1.69,1.71A20.34,20.34,0,0,0,34.83,202a12.57,12.57,0,0,0,2.49.68c1.07.22,2,.72,3,1,1.4.42,2.9,1.1,4.31.49,2.12-.92,4.3-.56,6.56-.78a56.7,56.7,0,0,0,6.44-1.24,70.9,70.9,0,0,1,7.42-.91c2.44-.26,4.88-.56,7.34-.59a47.31,47.31,0,0,0,6.52-.32c1-.15,2.06-.33,3.07-.53a16,16,0,0,0,2.55-.89,14.76,14.76,0,0,1,3.53-.4,30.07,30.07,0,0,0,3.14-.46,15.64,15.64,0,0,1,3.23-.63,10.81,10.81,0,0,1,3.25.55,2.6,2.6,0,0,0,1.8.09c.5-.22.44-.51.65-.91.5-.93,1.66-1.18,2.64-1.52.81-.29,1.66-.41,2.48-.66,3.48-1.09,3.32-6.16,3.83-9.11a51.61,51.61,0,0,0,.85-6.66c.1-2.48,0-5,0-7.45,0-9.84,0-19.68,0-29.52,0-4.9-.16-9.82.07-14.71s.55-9.7.51-14.59c0-2.35,0-4.69,0-7s.17-4.56.28-6.86.23-4.78.26-7.17.41-4.83.54-7.25c.12-2.26.21-4.52.32-6.78s.54-4.72.87-7,1.22-4.3,1.74-6.46A31,31,0,0,0,115,58c0-.57.53-3.19-.29-3.42v.48c1.12-.35,1.11-1.82,1.12-2.79a7.91,7.91,0,0,1,.88-3.76,7.47,7.47,0,0,1,.8-1.26,3.51,3.51,0,0,1,2.38-.91c2.16-.33,4.76-.51,6.78-1.41A2.35,2.35,0,0,0,128,43.66a4.42,4.42,0,0,0-.15-2.44c0-.32-.53-.19-.48.13.22,1.43.44,2.69-1.2,3.25a21.15,21.15,0,0,1-3,.67c-1.23.24-2.47.46-3.72.64a4,4,0,0,0-1.92.61,6.66,6.66,0,0,0-1.88,3.26,9.4,9.4,0,0,0-.32,2.42c0,.68.11,2.12-.76,2.39a.25.25,0,0,0,0,.48,56.07,56.07,0,0,1,0,5.63,22.84,22.84,0,0,1-1.36,6.82A46.61,46.61,0,0,0,111.44,80c-.19,4.4-.77,8.77-.84,13.18s-.53,8.87-.53,13.32.15,9.19,0,13.78-.51,9.13-.51,13.73q0,14.06,0,28.11c0,4.67,0,9.33,0,14A87.2,87.2,0,0,1,108,189.84a10.31,10.31,0,0,1-.85,2.92,3.11,3.11,0,0,1-2.31,1.89c-.8.22-1.59.36-2.37.65a14.25,14.25,0,0,0-2.24.82c-.4.24-.34.49-.55.83-.87,1.4-2,.42-3.27.23a11.88,11.88,0,0,0-4.89.37,26.17,26.17,0,0,1-3.42.54c-1,.11-2.06,0-3,.19a14.53,14.53,0,0,0-2.09.85,21.68,21.68,0,0,1-3.07.62,40.19,40.19,0,0,1-6.75.48,70.35,70.35,0,0,0-7.11.49c-2.22.22-4.43.55-6.66.72a51.68,51.68,0,0,0-6,1.13,67.9,67.9,0,0,1-6.83.59,4.41,4.41,0,0,0-1.79.4,3.59,3.59,0,0,1-3.15.07c-.88-.31-1.75-.59-2.61-.94a21.89,21.89,0,0,0-2.79-.7,10.55,10.55,0,0,1-5.52-3.24c-1.21-1.45-2.8-2.33-4.13-3.64a26.13,26.13,0,0,1-3.48-4.43A16.81,16.81,0,0,1,21,185.79a35.24,35.24,0,0,1-.53-4.8c-.24-2.05-.77-4.08-1.11-6.12-.16-1-.18-1.9-.29-2.85s-.42-1.75-.54-2.64c-.26-2.09-.43-4.18-.71-6.26a.26.26,0,0,0-.38-.22c-.65.31-1.81.3-2,1.12-.11.4,0,.79-.13,1.22s-.25.66-.35,1c-.19.73-.32,1.48-.51,2.21-.4,1.59-.8,3.2-1.07,4.83-.23,1.4-.14,3.7-1.53,4.48a.25.25,0,0,0,0,.39l.11.11.11-.41a10.19,10.19,0,0,1-1.74.2,8.91,8.91,0,0,1-1.29.24,10,10,0,0,1-1.07.16c-.56-.15-.49-.77-.6-1.21-.55-2.26-1.49-4.38-2.09-6.62a31.86,31.86,0,0,1-1.26-7c0-1.18-.08-2.36-.08-3.54s.22-2.17.28-3.26a21.55,21.55,0,0,1,.58-3.27c.26-1.19.36-2.42.6-3.62a7.33,7.33,0,0,1,.44-1.73c.44-.91,1-.73,1.87-1,.65-.17,1.58-.88,2.2-.86,1.39.06,2.12,1.91,2.57,3a17.14,17.14,0,0,1,1.1,3.08c.25,1.15.67,2.26,1,3.4a12.93,12.93,0,0,1,.72,3.61.26.26,0,0,0,.38.22c.35-.25,1.12-.17,1.56-.26.15,0,.19-.18.18-.3-.37-2.59-.73-5.19-1.16-7.77-.19-1.18-.21-2.39-.43-3.58s-.56-2.36-.76-3.55a64.3,64.3,0,0,1-.88-7.82c0-1.06-.13-2.11-.27-3.16-.1-.7-.27-1.41-.32-2.11s.07-1.49,0-2.24a26.62,26.62,0,0,1-.21-3.57,19.71,19.71,0,0,0-.11-3.6,41.54,41.54,0,0,1-.27-4.46c-.07-1.4-.32-2.77-.3-4.19a49.11,49.11,0,0,0,0-7.86,71.46,71.46,0,0,1-.41-7.88c0-1.09-.31-2.12-.32-3.23V89.74c0-2.76,0-5.52.09-8.28.07-2.61-.34-5.16-.37-7.76a38.6,38.6,0,0,0-.16-3.88c-.13-1.29,0-2.58-.13-3.87s-.31-2.26-.31-3.42A25,25,0,0,0,10.71,59c-.19-1.3-.26-2.65-.37-4S10,52.44,10,51.18s.06-2.46.09-3.68c0-1.39-.14-2.75-.22-4.14,0-.56-.17-1-.26-1.61s0-1.21-.08-1.82-.24-1.4-.29-2.12a9.8,9.8,0,0,0-.16-1.53c-.5-2.15-2.45-3.28-3-5.39-.48-1.79,0-3,1.66-3.79A2.29,2.29,0,0,0,9.1,25.78c.22-.51.27-1.07.44-1.6a9.36,9.36,0,0,1,1-2,15.06,15.06,0,0,0,1.62-2.45c.52-1.45-1.37-4.35.5-5.19.86-.38,1,.52,1.7.76a4,4,0,0,0,1.88-.13c1.29-.19,2.59-.14,3.88-.29a28.36,28.36,0,0,1,3.77-.57c1.13,0,2.18-.24,3.31-.28.68,0,1.37.07,2.05,0s1.27-.26,1.91-.31a26.82,26.82,0,0,0,3,0c.91-.18,1.18-1.27,2.22-.91.77.27,1.07,1,1.94,1.18A15.58,15.58,0,0,0,41.73,14c1.05-.08,2.09-.36,3.12-.53,1.36-.23,2.7-.15,4-.32a23.16,23.16,0,0,1,3.82-.3c.65,0,1.61.45,2.23.26a1.38,1.38,0,0,0,.57-.47,2.79,2.79,0,0,1,.42-.5c1-.57,1.12.25,1.63.57a2.32,2.32,0,0,0,1.74.37c1.21-.16,2.39-.07,3.6-.22a33.35,33.35,0,0,1,3.87-.23l4.21,0a38.51,38.51,0,0,1,4.56.3,1.79,1.79,0,0,0,1.38-.38c.84-.52,1.63-.72,2.4.11a5.2,5.2,0,0,1,.93,2.12c.21.7.21,1.38.77,1.91a5.52,5.52,0,0,0,2.13,1.08c2.25.73,4.43.23,6.71.56,2.57.38,5.06.9,7.59,1.47a36,36,0,0,1,7.27,2.54,3.44,3.44,0,0,0,1.48.48,23,23,0,0,0,3.34-.84,3,3,0,0,1,2.13.12c1.2.81.34,1.54,0,2.23a1.64,1.64,0,0,0-.23,1.42,1.75,1.75,0,0,0,1.18.84,4.67,4.67,0,0,1,2.81,2.18c.23.37.45.76.67,1.13s.3.85.53,1.29c.35.65,1.24.89,1.86,1.18A25.61,25.61,0,0,0,121,33.51a18.55,18.55,0,0,1,3.51,1.38,5.09,5.09,0,0,1,2.56,2.65,13,13,0,0,1,.27,3.74C127.36,41.6,127.86,41.6,127.85,41.28Z" style="fill: #231f20"/>
    </g>
    <g>
      <path d="M37.51,13.12h-.08a2.31,2.31,0,0,1,.36.93c.08.44.26.86.3,1.31a2.67,2.67,0,0,1-.4,1.45c-.17.32-.51,1-.95.88s-.5-.7-.59-1.07,0-1-.1-1.46A7.27,7.27,0,0,0,35.69,14a5.54,5.54,0,0,1-.33-.64c-.06-.22,0-.29,0-.5" style="fill: #edf0f6"/>
      <path d="M37.51,12.87h-.08a.25.25,0,0,0-.22.37,2,2,0,0,1,.33.82c.07.35.18.69.25,1a2.58,2.58,0,0,1-.46,1.86c-.09.16-.24.46-.44.5s-.35-.3-.4-.48a3.38,3.38,0,0,1-.14-.9,5,5,0,0,0-.09-1.1,5.44,5.44,0,0,0-.39-1.18,2.34,2.34,0,0,1-.27-.52c0-.16,0-.33,0-.5s-.53-.18-.48.14c0,.15-.05.3,0,.46a2.41,2.41,0,0,0,.27.56,4.52,4.52,0,0,1,.43,1.3c.09.44,0,.89.07,1.33a3.09,3.09,0,0,0,.27.91.84.84,0,0,0,.71.49,1,1,0,0,0,.71-.46,3.6,3.6,0,0,0,.77-2,5.46,5.46,0,0,0-.28-1.38A2.8,2.8,0,0,0,37.64,13l-.21.38h.08c.32,0,.31-.46,0-.5Z" style="fill: #231f20"/>
    </g>
    <g>
      <path d="M55.37,12.69c-.07.38.33.8.47,1.13A5.89,5.89,0,0,1,56.08,15c.07.44.24.85.29,1.29a1.37,1.37,0,0,0,.5,1.07c.45.25.67-.28.83-.64a2.9,2.9,0,0,0,.09-.72,4.15,4.15,0,0,0,.16-.63c0-.39,0-.8,0-1.19a3.39,3.39,0,0,0-.14-1.46" style="fill: #edf0f6"/>
      <path d="M55.12,12.69a1.49,1.49,0,0,0,.32.92,2.71,2.71,0,0,1,.35,1.14c.06.42.18.8.27,1.21a7.13,7.13,0,0,0,.22,1c.23.55.9.94,1.34.38A2,2,0,0,0,58,16.5c0-.16,0-.33,0-.5s.12-.36.15-.55a11.37,11.37,0,0,0,0-1.43,3.33,3.33,0,0,0-.15-1.4c-.12-.29-.6-.16-.48.13a2.36,2.36,0,0,1,.14,1c0,.37,0,.74,0,1.1a2.86,2.86,0,0,1,0,.51c0,.16-.09.3-.12.45a5,5,0,0,1-.14.86c-.06.13-.17.45-.34.45s-.38-.41-.42-.59-.09-.59-.16-.88a9.18,9.18,0,0,1-.23-1,3.2,3.2,0,0,0-.29-1.1c-.15-.27-.41-.55-.37-.87s-.46-.32-.5,0Z" style="fill: #231f20"/>
    </g>
    <g>
      <path d="M76.66,12.83l0-.09a11.81,11.81,0,0,1,1,1.45,5.32,5.32,0,0,1,.71,2.07,1,1,0,0,0,1.44.72c.72-.44.57-1.28.57-2" style="fill: #edf0f6"/>
      <path d="M76.9,12.9l0-.1-.42.11a10.77,10.77,0,0,1,1.1,1.73,4.71,4.71,0,0,1,.34.88c.09.31.12.62.19.92a1.23,1.23,0,0,0,1,.92,1.3,1.3,0,0,0,1.28-.67A3.34,3.34,0,0,0,80.63,15a.25.25,0,0,0-.5,0c0,.51.12,1.18-.22,1.6a.71.71,0,0,1-1.23-.13,8.17,8.17,0,0,1-.22-1,5.46,5.46,0,0,0-.36-1,11,11,0,0,0-1.23-1.92c-.12-.16-.36-.05-.42.11l0,.09c-.1.31.38.44.48.14Z" style="fill: #231f20"/>
    </g>
    <g>
      <path d="M11.79,17.12A2.15,2.15,0,0,0,12.36,19a1.13,1.13,0,0,0,1,.43.91.91,0,0,0,.87-.65,3.38,3.38,0,0,0,.12-1.27,7.21,7.21,0,0,0,0-1.23A7.22,7.22,0,0,0,14.06,15c-.05-.13-.2-.27-.24-.38a1.62,1.62,0,0,1,0-.54" style="fill: #edf0f6"/>
      <path d="M11.54,17.12a4.25,4.25,0,0,0,.1,1.18,2.08,2.08,0,0,0,.66,1,1.31,1.31,0,0,0,1,.4,1.27,1.27,0,0,0,.91-.35,1.7,1.7,0,0,0,.41-1.08c0-.49,0-1,0-1.5a5.29,5.29,0,0,0-.21-1.37,2,2,0,0,0-.22-.58.69.69,0,0,1-.17-.3c0-.12,0-.25,0-.36a.25.25,0,0,0-.5,0,1.72,1.72,0,0,0,0,.6,2.4,2.4,0,0,0,.23.38,3.58,3.58,0,0,1,.27,1.07,6.31,6.31,0,0,1,0,1.23A4.46,4.46,0,0,1,14,18.61a.71.71,0,0,1-.52.52.86.86,0,0,1-.85-.22,1.56,1.56,0,0,1-.55-.81,4,4,0,0,1-.07-1,.25.25,0,0,0-.5,0Z" style="fill: #231f20"/>
    </g>
    <g>
      <path d="M14.36,19.12a1.81,1.81,0,0,0,.93.14,13.47,13.47,0,0,0,1.42,0c.19,0,.32-.12.51-.16a4.34,4.34,0,0,1,.72,0h1.28c.41,0,.75-.14,1.15-.15s.92,0,1.38,0,1-.11,1.55-.15.9,0,1.35,0h3a11.94,11.94,0,0,0,2.68-.11,6.42,6.42,0,0,1,1,0,2.83,2.83,0,0,0,.52-.13,4.82,4.82,0,0,1,.66,0c.25,0,.45-.14.7-.15,1-.06,2-.29,3-.43.17,0,.32,0,.49-.07s.5,0,.76-.06a5,5,0,0,1,.75-.15c.2,0,.4,0,.6,0s.5-.14.78-.16.56,0,.83,0,.48,0,.72,0a6.07,6.07,0,0,0,.87-.13,8.93,8.93,0,0,1,1.37,0c.58,0,1.11-.13,1.68-.14s1.05,0,1.57,0,1.19.15,1.79.14H50a6.09,6.09,0,0,1,.74,0c.24,0,.46.14.71.15a14,14,0,0,0,3.48-.12,3.43,3.43,0,0,1,.64,0,3.11,3.11,0,0,0,.62-.14,4.42,4.42,0,0,1,.63,0,3.3,3.3,0,0,0,.86-.22,10.68,10.68,0,0,1,1.69-.2,5.77,5.77,0,0,1,.72-.16,7.31,7.31,0,0,0,1.14-.1,10.25,10.25,0,0,1,1.92,0,26.19,26.19,0,0,1,3.76,0,34.8,34.8,0,0,0,4.9.11,12.16,12.16,0,0,1,2.34.11c.63.12,1.25.25,1.88.39A14,14,0,0,0,78,17.4a5.64,5.64,0,0,0,.82.15,5.46,5.46,0,0,0,.88-.17v-.12" style="fill: #edf0f6"/>
      <path d="M14.29,19.36a5.81,5.81,0,0,0,2.42.16c1-.12,1.93-.09,2.9-.19,2.32-.22,4.65-.25,7-.25a51.31,51.31,0,0,0,5.95-.28c2.1-.25,4.17-.68,6.28-.85s4.43-.41,6.64-.44,4.27.18,6.39.31a20.12,20.12,0,0,0,5.58-.44,34.47,34.47,0,0,1,6.73-.61c2.61-.08,5.23.18,7.86.17a27.45,27.45,0,0,1,4.33.57,8.42,8.42,0,0,0,3.35.11.25.25,0,0,0,.18-.18v-.11c0-.32-.43-.45-.48-.14s-6.07-.74-6.68-.76c-1.14,0-2.27,0-3.41,0s-2.45-.21-3.68-.23a37.69,37.69,0,0,0-6,.27c-1.94.27-3.84.66-5.79.81a20.39,20.39,0,0,1-3.13-.17c-1.13-.09-2.26,0-3.4-.09a54.66,54.66,0,0,0-6.52.24C36.85,17.4,33,18.48,29,18.6c-1.31,0-2.63,0-4,0s-2.52.14-3.79.14-2.35.14-3.53.14-2.24.41-3.33,0c-.31-.11-.44.37-.14.48Z" style="fill: #231f20"/>
    </g>
    <g>
      <path d="M7.64,30c0,.26.7.71.89.82.61.35,1.22.66,1.83,1s1.12.66,1.71.93,1.26.72,1.9,1.07c1.23.68,2.4,1.6,3.68,2.21.6.29,1.11.71,1.7,1a21.63,21.63,0,0,1,2,1.07c.27.18.57.15.85.28s.57.3.86.43.57.27.85.43a9.11,9.11,0,0,0,1,.36,12.89,12.89,0,0,0,1.68.5,9.39,9.39,0,0,0,2.25,0c.71,0,1.35-.25,2.05-.29a29.33,29.33,0,0,0,3.25-.1,16.34,16.34,0,0,1,2.71,0h9c.51,0,1,0,1.54,0s1.24-.15,1.89-.15h1.57a10.16,10.16,0,0,0,1.56,0,5,5,0,0,1,1-.15h1.15a7.09,7.09,0,0,0,1.13-.11,9.6,9.6,0,0,1,1.61,0A13.05,13.05,0,0,0,60,39.15a8.56,8.56,0,0,1,1.24,0c.6,0,1.15-.15,1.76-.15a16.58,16.58,0,0,0,3,0,9.09,9.09,0,0,1,1.65-.11c.67,0,1.3-.11,2-.15a15.81,15.81,0,0,0,1.69-.11c.48-.08,1-.15,1.49-.18a47.23,47.23,0,0,0,6.16-.71c2-.35,4-.42,6-.68.58-.07,1.19-.14,1.77-.18.2,0,.42,0,.62,0,.72,0,1.42-.13,2.15-.15s1.53,0,2.29,0,1.6-.16,2.41-.15c2,0,4,0,5.94,0,.93,0,1.86,0,2.79,0s1.8-.15,2.73-.15h5.92a9,9,0,0,0,1.56,0,15.5,15.5,0,0,1,2.14-.29,4.21,4.21,0,0,0,.48-.12,5.8,5.8,0,0,1,1.18,0h4.14c.86,0,1.74.06,2.6,0,.35,0,.63-.13,1-.14s.77-.14.75-.58" style="fill: #edf0f6"/>
      <path d="M7.4,30c.32,1,2.19,1.61,3,2.07,1.77,1,3.54,2,5.25,3s3.57,2.07,5.38,3c.66.35,1.39.55,2.06.9a13.36,13.36,0,0,0,2.22.89,11.22,11.22,0,0,0,5.25.16c1.13-.15,2.27,0,3.4-.13a32,32,0,0,1,3.39-.07c2.29,0,4.58,0,6.87,0,2,0,4-.14,5.93-.14a51.19,51.19,0,0,0,5.25-.2c2.06-.21,4.16-.09,6.22-.25s4.11-.19,6.16-.27,3.92-.35,5.89-.48c4.45-.3,8.86-1.47,13.33-1.52s8.88-.3,13.33-.28c2.58,0,5.14-.14,7.72-.14,1.16,0,2.33,0,3.49,0a21.18,21.18,0,0,0,3.27-.25,50.77,50.77,0,0,1,6.87-.17c1,0,3.65.43,3.94-.91.07-.31-.41-.45-.48-.13-.23,1.06-5,.53-5.78.53a36.93,36.93,0,0,0-5.26.27,45.2,45.2,0,0,1-6,.16c-2.11,0-4.22.16-6.32.15s-4.39,0-6.58,0-4.41,0-6.55.2c-3.91.35-7.78.7-11.67,1.26-7.77,1.1-15.65,1-23.46,1.4-.79,0-1.54.17-2.35.15a20.44,20.44,0,0,0-2.71.06c-2,.19-4,.07-5.91.07s-4.18.05-6.27,0c-1.08,0-2.12.11-3.19.14a19.77,19.77,0,0,0-2.78.11,10.47,10.47,0,0,1-6.63-.89c-1.75-.85-3.5-1.59-5.17-2.6S14.82,34,13,32.92c-.94-.53-1.9-1-2.85-1.54-.55-.3-2-.8-2.23-1.47-.1-.31-.58-.17-.49.13Z" style="fill: #231f20"/>
    </g>
    <g>
      <path d="M8.79,35.84a5.55,5.55,0,0,0,1.34.71c.47.22.93.45,1.38.68,1,.52,2,1.09,3,1.64.53.3,1.15.56,1.66.9s1.1.52,1.61.85.94.4,1.38.65c.18.1.33.24.53.34s.54.41.85.57a16.13,16.13,0,0,1,1.43.88c.51.33,1.12.56,1.66.87s1,.44,1.41.64a9.39,9.39,0,0,0,1.65.82c.5.11,1,.34,1.49.48.34.09.63.22,1,.29a5.16,5.16,0,0,0,1.11.11c.76,0,1.52,0,2.28,0h2c.63,0,1.24.17,1.87.16s1.31-.16,2-.16h6.5c1.4,0,2.82.06,4.23,0,.53,0,1-.16,1.58-.16,1.1,0,2.2,0,3.3,0,1.52,0,3-.07,4.53-.14,1.68-.07,3.36-.3,5-.28a12.18,12.18,0,0,0,1.71-.12c.56-.07,1.13.05,1.69-.06,1.08-.2,2.19-.21,3.28-.36,2.05-.28,4.1-.44,6.15-.72,1.13-.15,2.29-.13,3.42-.28a33,33,0,0,1,3.84-.46c1,0,2.1-.23,3.14-.29.6,0,1.2-.13,1.8-.15s1.47-.15,2.21-.14c1.2,0,2.42.07,3.61,0,.7,0,1.37-.16,2.08-.15,1.43,0,2.86,0,4.29,0h6.56a21.87,21.87,0,0,0,2.29,0,14.58,14.58,0,0,1,1.76-.13,33.23,33.23,0,0,0,4.11-.26c.7-.08,1.41,0,2.11,0s1.28-.16,1.94-.15c.9,0,1.81,0,2.72,0a7.67,7.67,0,0,0,1-.15c.4,0,.85,0,1.26,0a5,5,0,0,0,1.79-.32c.29-.11.56-.19.86-.29s.49-.23.42-.54" style="fill: #edf0f6"/>
      <path d="M8.66,36.05a11.91,11.91,0,0,0,2,1.05c1,.47,1.88,1,2.81,1.51,1.57.89,3.15,1.82,4.79,2.56s3.05,1.91,4.66,2.71a33.7,33.7,0,0,0,4.55,2,15.68,15.68,0,0,0,5.24.59c1.07,0,2.1.06,3.15.13S38,46.51,39,46.52c2.19,0,4.38,0,6.56,0s4.35-.14,6.53-.14c4.23,0,8.51-.14,12.73-.49s8.67-1,13-1.33,8.61-1.14,13-1.19,8.68-.14,13-.14c2.38,0,4.73,0,7.11-.13s4.72-.14,7.06-.32c2.15-.17,4.34-.23,6.49-.26,1,0,3.22-.2,3.32-1.4,0-.32-.47-.32-.5,0s-1.17.63-1.45.71a5.6,5.6,0,0,1-1.58.18c-.91,0-1.78.16-2.69.16-1.89,0-3.78,0-5.67.13s-3.92.19-5.85.37-4.17.06-6.24.06-4.26,0-6.39,0-4,.19-6,.15c-4.06-.07-8.14.68-12.16,1.09-8.27.83-16.55,1.82-24.88,1.9-4.08,0-8.14.15-12.23.15s-8.1.22-12.15,0c-2-.11-3.84-1.17-5.64-2a55.18,55.18,0,0,1-5-2.89c-1.61-.94-3.36-1.69-5-2.61-1-.57-2.05-1.16-3.09-1.69a14.93,14.93,0,0,1-2.39-1.22c-.25-.19-.5.24-.25.43Z" style="fill: #231f20"/>
    </g>
    <g>
      <path d="M29.22,29a2.83,2.83,0,0,1,0-.58c0-.13.13-.14.16-.27a4.27,4.27,0,0,0,0-1c0-.7.42-1.92,1.29-1.87.44,0,.7.35,1.07.52l.78.31a9.9,9.9,0,0,0,1.3.33,4.39,4.39,0,0,0,1,.14A7.49,7.49,0,0,1,36,26.7a9.2,9.2,0,0,0,1.05,0h1.2a2.38,2.38,0,0,1,1.25.25,2.66,2.66,0,0,1,1.19.93c.26.4.47.83.7,1.25s.39.91.61,1.37a1.49,1.49,0,0,1,.24,1.05c-.29,0-.66-.29-1-.38a6.59,6.59,0,0,0-1.07-.32c-.68-.15-1.34-.35-2-.43a17.18,17.18,0,0,0-2.27-.29,6.49,6.49,0,0,0-1.08,0,3.36,3.36,0,0,1-.84.15c-.69,0-1.36.27-2,.29s-1.21.15-1.86.15c-.82,0-1-.73-1-1.44a2.11,2.11,0,0,1,.07-.79c.07-.2.21-.81.36-.92" style="fill: #edf0f6"/>
      <path d="M29.47,29a2.59,2.59,0,0,1,.16-.88,4.59,4.59,0,0,0,0-1c0-.54.23-1.44.83-1.6.41-.11.75.25,1.08.42a7.41,7.41,0,0,0,.92.38,8.54,8.54,0,0,0,2.13.47,22.37,22.37,0,0,0,2.45.15,5.29,5.29,0,0,1,2.5.3,3.88,3.88,0,0,1,1.57,1.9,5.14,5.14,0,0,1,.87,2.4l.25-.25a3.5,3.5,0,0,1-.85-.36,5.41,5.41,0,0,0-.89-.28,19.47,19.47,0,0,0-2-.45,11.31,11.31,0,0,0-3.79-.31,38.76,38.76,0,0,1-4,.53c-.38,0-.89.11-1.15-.25a1.48,1.48,0,0,1-.19-.83,2.66,2.66,0,0,1,.35-1.61c.22-.25-.14-.6-.35-.36A3.12,3.12,0,0,0,29,30.3a1.18,1.18,0,0,0,1.06.65,12.27,12.27,0,0,0,2.49-.22c.77-.13,1.53-.25,2.3-.36a9.65,9.65,0,0,1,2.78.21c.84.13,1.65.3,2.47.5a6,6,0,0,1,1.32.44,2.44,2.44,0,0,0,.77.27.25.25,0,0,0,.25-.25,4.77,4.77,0,0,0-.78-2.36A5.12,5.12,0,0,0,40.1,27a4,4,0,0,0-2.36-.55c-.48,0-1,0-1.46,0s-1.06-.14-1.59-.17a7.59,7.59,0,0,1-3-.83c-.55-.3-1.07-.69-1.69-.3a2.15,2.15,0,0,0-.85,1.5,7.64,7.64,0,0,0,0,1.07,3.68,3.68,0,0,1-.18.59A2.83,2.83,0,0,0,29,29c0,.32.52.32.5,0Z" style="fill: #231f20"/>
    </g>
    <g>
      <path d="M30.37,25.55c0-.12-.08-.46,0-.55s.41,0,.55,0,.35-.13.57-.15h.6a12.89,12.89,0,0,1,1.39,0,8,8,0,0,1,.87.26c.28.06.54,0,.82.06.44.09.89.24,1.32.36a11.6,11.6,0,0,1,1.28.36,8.42,8.42,0,0,1,1.44.56c.52.36.65,1.24,1.42,1.12" style="fill: #edf0f6"/>
      <path d="M30.62,25.55a.62.62,0,0,1,0-.23c0-.16-.12-.06.12-.1a4.84,4.84,0,0,0,.5-.06,6.45,6.45,0,0,1,1.59-.1,3.47,3.47,0,0,1,.85.05,6.18,6.18,0,0,0,.73.23c.21,0,.42,0,.64,0a6.33,6.33,0,0,1,1,.26c.49.15,1,.24,1.49.41a4.94,4.94,0,0,1,1.62.66c.5.45.66,1.16,1.47,1.09.32,0,.32-.53,0-.5-.5.05-.67-.41-.94-.74a2.19,2.19,0,0,0-1.12-.69c-.57-.18-1.12-.37-1.69-.51A12.22,12.22,0,0,0,35,24.88a3.66,3.66,0,0,1-.88-.12,3.14,3.14,0,0,0-.73-.19,14.75,14.75,0,0,0-1.76,0,5.88,5.88,0,0,0-.73.14c-.2,0-.4-.06-.58,0-.33.15-.25.51-.23.81s.51.32.5,0Z" style="fill: #231f20"/>
    </g>
    <g>
      <path d="M104.53,28.26a8.93,8.93,0,0,1,1-3,5.56,5.56,0,0,1,.37-.78,5.18,5.18,0,0,1,.4-.82,4.24,4.24,0,0,1,.83-.86c.15-.11.26-.29.43-.37s.29,0,.43-.17" style="fill: #edf0f6"/>
      <path d="M104.78,28.26a4.7,4.7,0,0,1,.49-1.82c.24-.55.44-1.13.72-1.66.14-.25.23-.52.36-.77a3,3,0,0,1,.54-.7c.19-.19.41-.34.59-.53s.46-.14.65-.34-.12-.59-.35-.36-.27.08-.38.13a1,1,0,0,0-.3.25c-.2.2-.43.35-.62.56a4,4,0,0,0-.54.69c-.16.29-.27.61-.42.9-.3.57-.51,1.18-.77,1.77a5.16,5.16,0,0,0-.47,1.88.25.25,0,0,0,.5,0Z" style="fill: #231f20"/>
    </g>
    <g>
      <path d="M106.1,24.69c.23,0,.45-.23.65-.27a4,4,0,0,1,.78,0h1.57a5.15,5.15,0,0,0,1.92-.24c.48-.18,1.36-.51,1.22-1.18" style="fill: #edf0f6"/>
      <path d="M106.16,24.93a4,4,0,0,1,.88-.29c.36,0,.73,0,1.09,0a14.84,14.84,0,0,0,2.21-.06c.85-.13,2.3-.59,2.14-1.68,0-.32-.52-.18-.48.13s-.49.66-.81.79a4.45,4.45,0,0,1-1.62.32c-.66,0-1.32,0-2,0a5.48,5.48,0,0,0-.81,0c-.27.05-.49.22-.75.29a.25.25,0,0,0,.13.48Z" style="fill: #231f20"/>
    </g>
    <g>
      <path d="M104.67,28.55a1.08,1.08,0,0,0,.11.46c0,.16,0,.36.06.51a2.08,2.08,0,0,0,.68.61,2,2,0,0,0,.59,0c.17-.06.28-.3.41-.44a6.29,6.29,0,0,1,1.23-1.14c.47-.26,1-.45,1.42-.71a11.18,11.18,0,0,1,1.57-.63,3.64,3.64,0,0,1,1.28-.38c.25,0,1.2-.12,1.29.15h-.21" style="fill: #edf0f6"/>
      <path d="M104.42,28.55c0,.25.11.47.13.72a.85.85,0,0,0,.15.48,1.77,1.77,0,0,0,.72.61c.9.31,1.33-.58,1.86-1.11a5.3,5.3,0,0,1,1.52-.94,17.36,17.36,0,0,1,1.71-.75,5.71,5.71,0,0,1,1.62-.48c.15,0,.88-.13,1,0l.22-.38h-.21c-.32,0-.32.48,0,.5h.21a.24.24,0,0,0,.21-.37c-.25-.47-1.14-.31-1.57-.27a5.84,5.84,0,0,0-1.57.49,10.07,10.07,0,0,0-1.48.62,12.56,12.56,0,0,0-1.5.78,6.82,6.82,0,0,0-1.05,1c-.15.18-.24.37-.48.39a.53.53,0,0,1-.43-.11.88.88,0,0,1-.39-.52,6.43,6.43,0,0,1-.13-.72c0-.32-.52-.32-.5,0Z" style="fill: #231f20"/>
    </g>
    <g>
      <path d="M106.1,30.12a3.3,3.3,0,0,1,.64.13,5.42,5.42,0,0,0,.57,0c.23,0,.41.14.65.15s.43,0,.64,0,.29-.11.49-.15a3.18,3.18,0,0,1,.69,0,3.79,3.79,0,0,0,.82-.13c.3-.05.6,0,.9,0,.51-.12,1-.31,1.53-.47a2.68,2.68,0,0,0,1.36-.93,1.07,1.07,0,0,0,0-1.43,1.21,1.21,0,0,0-.61-.47c-.29-.12-.55,0-.84-.12v-.12" style="fill: #edf0f6"/>
      <path d="M106.1,30.37c.32,0,.6.13.93.14a6.85,6.85,0,0,1,.79.13,3,3,0,0,0,.84,0c.23,0,.42-.15.65-.16s.5,0,.75,0a8.11,8.11,0,0,1,1-.12,5.91,5.91,0,0,0,1.7-.39c.87-.29,2.07-.83,2.17-1.89a1.5,1.5,0,0,0-.52-1.23c-.4-.38-.86-.32-1.36-.43l.17.17v-.12c0-.32-.53-.18-.48.13v.12a.25.25,0,0,0,.18.18c.42.09.88,0,1.2.37a1,1,0,0,1-.07,1.43,2.78,2.78,0,0,1-1.21.72,7.49,7.49,0,0,1-1.52.43c-.25,0-.49,0-.74,0s-.47.11-.72.12a3.56,3.56,0,0,0-1,.08,2.45,2.45,0,0,1-1.37-.06c-.23,0-.45,0-.67,0a5.1,5.1,0,0,0-.68-.13c-.32,0-.32.48,0,.5Z" style="fill: #231f20"/>
    </g>
    <path d="M29.08,30.94a.25.25,0,0,0,0-.5.25.25,0,0,0,0,.5Z" style="fill: #231f20"/>
    <g>
      <path d="M28.65,30.84c.22-.07.62.18.8.26a3.81,3.81,0,0,0,.91.44c.42.06.8.19,1.22.28s1.11.09,1.64.23a2.93,2.93,0,0,0,.72.07,4.27,4.27,0,0,1,.71.15c.22,0,.43,0,.65.07a3.33,3.33,0,0,0,.78.07h1.55a1.44,1.44,0,0,1,.59.11,3.21,3.21,0,0,0,.76,0,6.77,6.77,0,0,0,.78,0,5.17,5.17,0,0,1,.68-.16c.26,0,.52,0,.78,0a5.58,5.58,0,0,0,1-.13,5.12,5.12,0,0,1,.68,0c.25,0,.45-.13.71-.16a12.16,12.16,0,0,0,1.6-.06,2.92,2.92,0,0,1,.83-.07,3.34,3.34,0,0,0,.78-.11c.27-.06.54,0,.81-.05a5.81,5.81,0,0,1,1-.13H50.3c.7,0,1.37-.1,2.06-.13.49,0,.92-.16,1.41-.16h1a15.51,15.51,0,0,0,2.64-.22,22.56,22.56,0,0,1,2.85-.06c.44,0,.85-.14,1.29-.16s.9,0,1.35,0c.61,0,1.24,0,1.85,0a14.34,14.34,0,0,1,1.47-.14c.49,0,1,0,1.46,0s1-.16,1.59-.15a15.38,15.38,0,0,0,2.54-.11,13.62,13.62,0,0,1,1.43-.18c.4,0,.77-.12,1.17-.14s.68,0,1,0,.91-.15,1.38-.15c.88,0,1.72-.1,2.59-.14.36,0,.7-.14,1.06-.15.57,0,1.14,0,1.71,0a16.8,16.8,0,0,0,3-.07c.68-.12,1.36,0,2-.1a14.77,14.77,0,0,1,2.65-.25c.25,0,.5,0,.75,0s.6-.13.91-.15.42,0,.62,0,.63-.13,1-.16c1.32-.08,2.68,0,4,0,.78,0,1.52.14,2.3.14a7.78,7.78,0,0,1,1.8.22c1.21.27,2.48.28,3.71.49.22,0,.41.14.64.16.43,0,.87,0,1.3,0h.6a4.28,4.28,0,0,1,.73.13,4.16,4.16,0,0,0,1.94-.41" style="fill: #edf0f6"/>
      <path d="M28.65,31.09a7.6,7.6,0,0,1,1.65.69,9.57,9.57,0,0,0,1.69.35c1.22.19,2.47.42,3.69.52a39.69,39.69,0,0,0,7.23-.13c2.59-.29,5.19-.47,7.81-.59,2.85-.13,5.71-.58,8.56-.55,1.35,0,2.69-.16,4-.15s3,0,4.52-.15c2.51-.2,5-.44,7.55-.56,1.42-.07,2.91-.16,4.32-.33a38.27,38.27,0,0,1,4.15-.07c2.65-.05,5.3-.47,7.94-.61a43.06,43.06,0,0,1,9.76.3,38.51,38.51,0,0,0,4.39.58,10.83,10.83,0,0,0,4.21-.31c.3-.11.17-.59-.14-.49a11.1,11.1,0,0,1-4.07.3,37.55,37.55,0,0,1-4.71-.65,30.88,30.88,0,0,0-8.2-.37q-3.73.38-7.49.6c-1.44.08-2.83.11-4.27.1s-2.71.22-4.07.29c-2.6.12-5.17.55-7.77.58-1.3,0-2.7.06-4,.19-1.45.14-2.91,0-4.36.14-2.9.26-5.83.25-8.73.54-1.23.12-2.46.07-3.7.13s-2.58.31-3.87.39-2.77.24-4.16.32a13.77,13.77,0,0,1-2,.16c-.67-.06-1.26-.15-1.94-.15a29.2,29.2,0,0,1-4-.46,9.53,9.53,0,0,1-2.74-.65,3.18,3.18,0,0,0-1.22-.46c-.32,0-.32.47,0,.5Z" style="fill: #231f20"/>
    </g>
    <g>
      <path d="M50.08,22.4a28.22,28.22,0,0,0,3.14.44c.86,0,1.73,0,2.59,0h4.82c.4,0,.81,0,1.21,0s.63-.13,1-.16c.56,0,1.15.06,1.71,0,.34,0,.63-.14,1-.16s.64,0,1,0c.71,0,1.41-.14,2.13-.15a37.69,37.69,0,0,0,4.1-.41,16.49,16.49,0,0,1,1.85-.16,9.67,9.67,0,0,0,1.94,0c.65-.13,1.31-.18,2-.27s1.56-.31,2.34-.45,1.79-.2,2.7-.3a14.2,14.2,0,0,0,1.94-.4c.65-.17,1.31-.24,2-.42" style="fill: #edf0f6"/>
      <path d="M50,22.65c6.23,1,12.53.24,18.78,0,1.69-.07,3.34-.41,5-.53,1.49-.11,2.91-.1,4.41-.3a84.43,84.43,0,0,0,9.21-1.6c.31-.08.18-.56-.14-.49a31.72,31.72,0,0,1-4.74.91c-1.53.14-3,.51-4.53.71s-3,.16-4.45.28-3.18.46-4.79.52c-6.2.24-12.47,1-18.65,0-.31,0-.45.44-.13.49Z" style="fill: #231f20"/>
    </g>
    <g>
      <path d="M9.22,37.69c.23,0,.33.19.51.27s.51.16.74.3.39.36.6.51.62.39.93.58a11.42,11.42,0,0,0,1.49.73l1.73.85c.48.23,1,.47,1.43.73a8.84,8.84,0,0,1,.86.46c.11.08.18.2.3.29a7.45,7.45,0,0,1,.71.43,3.38,3.38,0,0,0,.59.54c.27.15.48.29.75.46a7.64,7.64,0,0,1,.79.58,5.64,5.64,0,0,0,.9.41,8.75,8.75,0,0,1,.78.58c.28.21.59.36.86.57a8.14,8.14,0,0,0,1.7,1,16.45,16.45,0,0,0,1.91.75l.7.17c.38.09.8,0,1.16.14a6.85,6.85,0,0,0,1.7.26c.69,0,1.34.11,2,.14.35,0,.65.14,1,.15a3.18,3.18,0,0,1,.62,0,9.24,9.24,0,0,0,1.16.1,14.62,14.62,0,0,1,1.59.26,9,9,0,0,0,1.56,0c.85,0,1.66.15,2.51.15a14.54,14.54,0,0,1,1.86.13c1,.12,2-.13,2.95,0a14.34,14.34,0,0,0,2.93,0c1.26,0,2.56.11,3.81,0,.58-.05,1.12-.16,1.71-.16A8.68,8.68,0,0,0,55.76,49c.7-.12,1.44-.06,2.16-.14s1.66-.1,2.48-.17c2.05-.17,4.1,0,6.15-.17.88-.07,1.74-.25,2.62-.27.55,0,1.11,0,1.67,0a18.79,18.79,0,0,0,3.52-.11,8.26,8.26,0,0,1,1.65,0c.93,0,1.83-.16,2.77-.14.5,0,1-.13,1.46-.16s1,0,1.42,0,.87-.13,1.32-.15,1.15,0,1.72,0,.87,0,1.31,0,1-.16,1.54-.15A13.87,13.87,0,0,0,89,47.4a17.9,17.9,0,0,0,1.79-.1c.54-.09,1.07,0,1.61-.14S93.44,47,94,47s1.32,0,2,0,1.35-.1,2-.14c.55,0,1.08-.15,1.64-.15h1.55c1,0,2,0,3,0,.72,0,1.42-.11,2.13-.15,1.28-.06,2.56-.1,3.84-.17s2.29-.17,3.43-.29a27.32,27.32,0,0,1,3.13-.25H119c.31,0,.62,0,.93,0h.29c.51,0,.63-.32.92-.73" style="fill: #edf0f6"/>
      <path d="M9.15,37.94a13.49,13.49,0,0,1,2.25,1.34,30.25,30.25,0,0,0,2.84,1.44,24.34,24.34,0,0,1,4.38,2.58c1.18.91,2.51,1.59,3.73,2.43a15.56,15.56,0,0,0,4.38,2.21,28,28,0,0,0,5.24.69c1.72.16,3.44.5,5.16.61,3.88.24,7.78.31,11.66.27,2.06,0,4.08,0,6.13-.15s4-.33,6-.45c2.18-.13,4.37,0,6.54-.23,2-.23,3.89,0,5.85-.15,3.94-.21,7.91-.61,11.86-.58,1.87,0,3.79-.23,5.64-.4s3.55-.28,5.36-.32c2.11-.06,4.2-.28,6.32-.29,2.33,0,4.65-.16,7-.27s4.85-.56,7.28-.58a31.08,31.08,0,0,0,3.48,0c.59-.07.82-.38,1.14-.85.18-.26-.25-.51-.43-.25-.65.93-2.55.59-3.52.59a30.18,30.18,0,0,0-3.14.17c-2.08.24-4.16.38-6.25.47-3.75.16-7.49.2-11.23.46-.87.07-1.74,0-2.61,0s-1.84.2-2.76.27c-1.79.14-3.59.37-5.37.46s-3.85,0-5.77.13-3.81.14-5.68.3-3.88,0-5.83.15-4,.3-6,.33c-3.87,0-7.73.71-11.59.7s-7.89,0-11.83-.27c-3.53-.28-7.13-.44-10.62-1a13.37,13.37,0,0,1-5.7-2.2c-1.4-1-2.92-1.74-4.24-2.81a22.68,22.68,0,0,0-4.52-2.58,21.31,21.31,0,0,1-2.77-1.43,11.43,11.43,0,0,0-2.22-1.3c-.3-.12-.42.37-.13.49Z" style="fill: #231f20"/>
    </g>
    <g>
      <path d="M27.36,49a6.74,6.74,0,0,1,1.54,3c.12.37.11.78.21,1.16s.22.75.3,1.14.06.86.13,1.29a9.51,9.51,0,0,0,.4,1.57" style="fill: #edf0f6"/>
      <path d="M27.19,49.16a6.71,6.71,0,0,1,1.62,3.74c.06.34.17.67.25,1a6.41,6.41,0,0,1,.18,1.23,8,8,0,0,0,.46,2.06c.1.31.58.18.48-.13a9.5,9.5,0,0,1-.47-2.36c-.06-.76-.35-1.47-.45-2.22a6.81,6.81,0,0,0-1.72-3.67.25.25,0,0,0-.35.35Z" style="fill: #231f20"/>
    </g>
    <g>
      <path d="M33.79,49.55A6.11,6.11,0,0,0,34,50.66,2.77,2.77,0,0,1,34,52a8.81,8.81,0,0,1-.22,1,9,9,0,0,0-.36,1" style="fill: #edf0f6"/>
      <path d="M33.54,49.55a11.63,11.63,0,0,1,.22,2.11,9.68,9.68,0,0,1-.25,1.19c-.11.36-.31.69-.39,1.07s.42.45.49.13.3-.75.4-1.15a11.2,11.2,0,0,0,.24-1.18,3.37,3.37,0,0,0,0-1A7.08,7.08,0,0,1,34,49.55a.25.25,0,0,0-.5,0Z" style="fill: #231f20"/>
    </g>
    <path d="M48.26,51.55V54a.25.25,0,0,0,.5,0V51.55a.25.25,0,0,0-.5,0Z" style="fill: #231f20"/>
    <g>
      <path d="M49.94,50.13a8.49,8.49,0,0,0-.61,1.71,8.75,8.75,0,0,0-.1,2.29" style="fill: #edf0f6"/>
      <path d="M49.73,50A8.16,8.16,0,0,0,49,52,10.29,10.29,0,0,0,49,54.13a.25.25,0,0,0,.5,0,9.73,9.73,0,0,1,0-2,7.73,7.73,0,0,1,.64-1.86c.14-.29-.29-.54-.43-.25Z" style="fill: #231f20"/>
    </g>
    <g>
      <path d="M74.38,49c0,.31-.14.57-.15.88s0,.87,0,1.3v2.11" style="fill: #edf0f6"/>
      <path d="M74.13,49c0,.33-.14.63-.15,1s0,.73,0,1.1c0,.74,0,1.48,0,2.23a.25.25,0,0,0,.5,0c0-.75,0-1.49,0-2.23,0-.36,0-.71,0-1.06s.12-.66.15-1-.48-.32-.5,0Z" style="fill: #231f20"/>
    </g>
    <g>
      <path d="M75.66,49A5.73,5.73,0,0,0,75,50.39,10.25,10.25,0,0,0,74.8,53" style="fill: #edf0f6"/>
      <path d="M75.45,48.86a5.76,5.76,0,0,0-.79,1.84A12.45,12.45,0,0,0,74.55,53a.25.25,0,0,0,.5,0,12.73,12.73,0,0,1,.09-2.14,3.8,3.8,0,0,1,.29-.94c.14-.27.3-.53.45-.79s-.28-.53-.43-.25Z" style="fill: #231f20"/>
    </g>
    <g>
      <path d="M99.24,47.84c-.08.81-.35,1.58-.43,2.4s-.14,1.33-.14,2" style="fill: #edf0f6"/>
      <path d="M99,47.84c-.08.73-.31,1.43-.4,2.16a17.21,17.21,0,0,0-.17,2.27.25.25,0,0,0,.5,0A15.94,15.94,0,0,1,99.09,50c.11-.72.32-1.42.4-2.14,0-.32-.47-.32-.5,0Z" style="fill: #231f20"/>
    </g>
    <g>
      <path d="M100.67,48c-.42.08-.54.8-.59,1.13s-.17.86-.24,1.3a4.06,4.06,0,0,0,.11,1.43" style="fill: #edf0f6"/>
      <path d="M100.6,47.74c-.6.14-.7.91-.78,1.41s-.2.91-.25,1.37a5,5,0,0,0,.14,1.39c.06.31.54.18.49-.14a4.81,4.81,0,0,1-.14-1.14c0-.4.15-.8.22-1.2a6,6,0,0,1,.14-.74c0-.17.12-.42.31-.47s.19-.55-.13-.48Z" style="fill: #231f20"/>
    </g>
    <g>
      <path d="M112.81,46.84a13.86,13.86,0,0,1-.25,2.4c-.06.42-.47,1.72,0,2" style="fill: #edf0f6"/>
      <path d="M112.56,46.84a12.79,12.79,0,0,1-.34,2.82c-.12.56-.35,1.41.18,1.82.26.2.51-.23.25-.43s-.07-.5-.06-.65.11-.58.17-.87a12.19,12.19,0,0,0,.3-2.69.25.25,0,0,0-.5,0Z" style="fill: #231f20"/>
    </g>
    <g>
      <path d="M114.53,46.55a3.64,3.64,0,0,0-.82,1.64,7.84,7.84,0,0,0-.47,2.08" style="fill: #edf0f6"/>
      <path d="M114.35,46.38a4.18,4.18,0,0,0-.89,1.77,8.66,8.66,0,0,0-.47,2.12c0,.32.51.32.5,0a7.13,7.13,0,0,1,.44-1.92,3.65,3.65,0,0,1,.78-1.62c.21-.24-.15-.6-.36-.35Z" style="fill: #231f20"/>
    </g>
    <g>
      <path d="M12.22,40.41a19.66,19.66,0,0,1,.85,2.7,6.59,6.59,0,0,1,.29,1.3,6,6,0,0,1,.14,1" style="fill: #edf0f6"/>
      <path d="M12,40.48A23.69,23.69,0,0,1,12.79,43c.1.41.24.81.31,1.23,0,.2,0,.4.07.6a2.27,2.27,0,0,1,.08.59c0,.32.49.32.5,0a2.05,2.05,0,0,0-.07-.6c0-.21-.06-.42-.09-.64-.06-.41-.2-.81-.3-1.22a22,22,0,0,0-.83-2.61c-.11-.3-.59-.17-.48.14Z" style="fill: #231f20"/>
    </g>
    <g>
      <path d="M13.5,42.41l.15,1" style="fill: #edf0f6"/>
      <path d="M13.26,42.48l.15,1a.23.23,0,0,0,.11.15.25.25,0,0,0,.19,0,.25.25,0,0,0,.18-.31l-.15-1a.23.23,0,0,0-.11-.15.25.25,0,0,0-.19,0,.25.25,0,0,0-.18.31Z" style="fill: #231f20"/>
    </g>
    <g>
      <path d="M17.08,43c.12.3.3.58.43.88a10.5,10.5,0,0,1,.42,1.65,18.64,18.64,0,0,1,.57,4.33" style="fill: #edf0f6"/>
      <path d="M16.86,43.11a8.71,8.71,0,0,1,.64,1.58c.13.53.23,1.07.34,1.6a15.72,15.72,0,0,1,.41,3.55.25.25,0,0,0,.5,0,16.3,16.3,0,0,0-.43-3.68c-.11-.57-.22-1.15-.37-1.72a9.53,9.53,0,0,0-.66-1.59c-.13-.29-.56,0-.43.26Z" style="fill: #231f20"/>
    </g>
    <g>
      <path d="M18.65,44c0,.66.13,1.27.15,1.92s0,1.48,0,2.23" style="fill: #edf0f6"/>
      <path d="M18.4,44c0,.67.13,1.33.15,2s0,1.43,0,2.15a.25.25,0,0,0,.5,0c0-.72,0-1.43,0-2.15s-.15-1.33-.15-2a.25.25,0,0,0-.5,0Z" style="fill: #231f20"/>
    </g>
    <g>
      <path d="M29.14,66c0,.71,0,1.43,0,2.15a17.39,17.39,0,0,0-.2,1.88" style="fill: #edf0f6"/>
      <path d="M28.89,66v2.15a16.87,16.87,0,0,0-.2,1.88c0,.32.54.32.5,0a16.87,16.87,0,0,1,.2-1.88V66a.25.25,0,0,0-.5,0Z" style="fill: #231f20"/>
    </g>
    <g>
      <path d="M28,86.51c-.06,1-.2,2-.19,3s0,1.75,0,2.62v6.46c0,.58,0,1.17,0,1.75a11.33,11.33,0,0,0,.2,1.3c0,.34,0,.7,0,1a13.15,13.15,0,0,1,.21,1.38c0,1.32,0,2.63,0,3.94v9.23" style="fill: #edf0f6"/>
      <path d="M27.73,86.51c-.17,2.47-.19,4.92-.19,7.4a56.45,56.45,0,0,0,.14,7.36,58,58,0,0,1,.25,7.46v8.5a.25.25,0,0,0,.5,0c0-5.18.22-10.44-.19-15.59a103.25,103.25,0,0,1,0-15.13c0-.32-.47-.32-.5,0Z" style="fill: #231f20"/>
    </g>
    <g>
      <path d="M32.78,77.68v1.49a10.07,10.07,0,0,1-.29,2,16.93,16.93,0,0,0,.1,3.26" style="fill: #edf0f6"/>
      <path d="M32.53,77.68c0,.58,0,1.16,0,1.74a14.36,14.36,0,0,1-.29,1.72,18.71,18.71,0,0,0,.1,3.26c0,.32.51.32.5,0A15.83,15.83,0,0,1,32.77,81,12.55,12.55,0,0,0,33,79.42c0-.58,0-1.16,0-1.74,0-.32-.49-.32-.5,0Z" style="fill: #231f20"/>
    </g>
    <g>
      <path d="M32.4,100.91c0,1.53-.19,3-.19,4.57,0,1.11.19,2.18.2,3.28,0,.72,0,1.44,0,2.16s-.27,1.67-.19,2.47" style="fill: #edf0f6"/>
      <path d="M32.15,100.91a49.53,49.53,0,0,0-.08,6.33c.09,1,.09,2.05.08,3.08s-.25,2.05-.19,3.07c0,.32.52.32.5,0-.06-1,.19-2,.19-3s0-2.13-.08-3.2a49.53,49.53,0,0,1,.08-6.33c0-.32-.49-.32-.5,0Z" style="fill: #231f20"/>
    </g>
    <g>
      <path d="M32.4,119.15c0,1.68,0,3.35,0,5,0,.8.16,1.53.2,2.32a23,23,0,0,1,0,3.42c-.05.52-.2,1-.2,1.52s0,.91,0,1.36c0,1.29-.2,2.56-.19,3.86a18.58,18.58,0,0,1-.15,3.42,19.56,19.56,0,0,0,0,3.67c0,1.29-.2,2.53-.19,3.82,0,2,0,4,0,6" style="fill: #edf0f6"/>
      <path d="M32.15,119.15c0,1.45,0,2.89,0,4.34s.22,2.84.26,4.28-.24,2.58-.26,3.89c0,1.5-.14,3-.18,4.5-.17,5.79-.39,11.56-.4,17.36a.25.25,0,0,0,.5,0c0-5.8.23-11.57.4-17.36,0-1.43.15-2.85.18-4.28s.28-2.57.26-3.9-.26-2.84-.26-4.26v-4.57a.25.25,0,0,0-.5,0Z" style="fill: #231f20"/>
    </g>
  </g>
</svg>
