<svg id="Sketch" xmlns="http://www.w3.org/2000/svg" width="100mm" height="100mm" viewBox="0 0 283.46 283.46">
  <title>Artboard 19 copy 2</title>
  <g>
    <g>
      <path d="M203.6,75c0-.57,0-1.15,0-1.73,0-1.36-.31-2.93-1.39-3.78a11.57,11.57,0,0,0-4-2.16,11.79,11.79,0,0,1-2.53-1c-.58-.33-1.24-.56-1.84-.87s-1-.4-1.12-1c-.05-.18,0-.36,0-.56s-.33-.36-.44-.54c-.63-1.07-1.31-2.46-2.5-3-.82-.39-2.36-.37-2.16-1.6.15-.93,1.6-2,.78-2.8a3.13,3.13,0,0,0-3.22-.48c-.78.21-1.56.42-2.34.61a4.38,4.38,0,0,1-.84.15,10,10,0,0,1-1.36-.57c-.59-.24-1.14-.58-1.72-.84-2.64-1.19-5.46-1.56-8.18-2.28-1.64-.43-3.34-.54-5-.84-1.41-.26-2.89.1-4.32,0-1.26-.13-3.49-.71-4.38-1.68-.34-.38-.26-.79-.4-1.26s-.3-1-.45-1.43c-.34-1.13-1.46-2.24-2.77-1.75-.55.21-.71.82-1.37.83s-1.37-.3-2.06-.31c-3-.06-5.94,0-8.91,0-1,0-1.78.23-2.73.29-.67,0-1.34-.07-2,0s-1.39.42-2.13.15c-.56-.2-.79-.75-1.32-1-.82-.38-1,.12-1.52.67s-.55.42-1.33.25a18.58,18.58,0,0,0-3.5-.06c-.75,0-1.37.27-2.1.29s-1.24-.06-1.85,0c-1.31.17-2.67.41-4,.67a13.46,13.46,0,0,1-2.62.14,7,7,0,0,1-2,0c-.59-.2-.85-.74-1.3-1.1s-.61-.25-1.12,0a2.13,2.13,0,0,0-.69.38c-.17.14-.27.4-.49.5a4.82,4.82,0,0,1-1.61,0c-.53,0-1.08,0-1.61,0s-1.1.26-1.68.3c-.75.06-1.53,0-2.28,0a19,19,0,0,0-2,.26c-.74.09-1.49,0-2.24,0a12.42,12.42,0,0,0-2,.44c-1.48.3-3,.21-4.52.39s-2.2.72-3.06-.81c-1.81,0-2.13,2-1.68,3.33a2.85,2.85,0,0,1,.09,2.45,23.64,23.64,0,0,1-1.42,2,12.92,12.92,0,0,0-1,1.84,12.54,12.54,0,0,1-.75,2.37c-.51.84-1.12.69-1.83,1.14a2.53,2.53,0,0,0-1.18,1.82,6.07,6.07,0,0,0,1.68,4.56A4.43,4.43,0,0,1,84.51,69a6.22,6.22,0,0,1,.5,2.54,17.24,17.24,0,0,0,.29,2.19c.07.61-.07,1.19,0,1.8.06.3.19.56.23.87.13.94,0,1.85.2,2.79a13.81,13.81,0,0,1,.07,2.73,26.94,26.94,0,0,0,.06,4.67c.18,1,.11,2,.28,3s.08,2.14.28,3.17a38.78,38.78,0,0,1,.2,4.84c.06.85.3,1.64.3,2.52,0,.53,0,1.06,0,1.59,0,1.4.3,2.74.29,4.14a32.69,32.69,0,0,0,.21,4.95,59.17,59.17,0,0,1,.06,7.88v7.67c0,.82,0,1.64,0,2.46a15.68,15.68,0,0,0,.29,1.82,19.46,19.46,0,0,1,0,2.16,21.07,21.07,0,0,0,.26,2.64c.08.73,0,1.47,0,2.2s.27,1.51.29,2.29c0,1.29,0,2.59,0,3.88a34.92,34.92,0,0,0,.06,5.51c.34,2.07,0,4.17.43,6.2a24.45,24.45,0,0,1,.07,4.84c0,.95.26,1.79.29,2.72a15,15,0,0,0,0,2.22,31.46,31.46,0,0,1,.54,4.83c0,1,.26,1.93.28,2.93a10.92,10.92,0,0,0,.21,2.22c.15.71.1,1.38.27,2.08s.2,1.48.42,2.19a20.85,20.85,0,0,1,.77,4.52,16.3,16.3,0,0,0,.34,2.17c.15.74.16,1.45.28,2.2.24,1.5.46,3,.67,4.48l-.38.08c-.31.05-1.06-.08-1.25.2a5.1,5.1,0,0,0-.2-1.6c-.08-.57-.3-1.08-.43-1.64-.23-1-.55-2.07-.87-3.08a11.45,11.45,0,0,1-.33-1.52,11.85,11.85,0,0,0-.82-2,10,10,0,0,0-1.4-2.64c-.38-.52-.47-.79-1.13-.86a2.92,2.92,0,0,0-1.25.11c-.4.15-.65.52-1,.69s-.69-.18-1.12-.09a2.52,2.52,0,0,0-1.61,2.06c-.14.78-.32,1.56-.47,2.34s-.15,1.5-.31,2.22a14.57,14.57,0,0,0-.35,1.45c0,.43-.16.81-.23,1.23s.07.87,0,1.31a25.93,25.93,0,0,0-.18,5.72,17.84,17.84,0,0,0,.28,2.93,24,24,0,0,0,.57,2.9c.28,1,.47,1.94.8,2.88s.66,1.78,1,2.66.47,1.84.76,2.73a10,10,0,0,0,.3,1.2c.26.47.49.19.86.09a4.76,4.76,0,0,1,1.13,0,7.17,7.17,0,0,0,.91-.24c.68-.12,1.19.09,1.81-.22l-.12-.11a3.33,3.33,0,0,0,.82-.54,4,4,0,0,0,.38-1.43c.27-1.17.37-2.37.62-3.55q.45-2.21,1-4.38c.16-.64.28-1.31.44-2,.11-.42.33-.8.42-1.22.06-.26,0-.64,0-.87.17-.51.73-.43,1.21-.59a6.51,6.51,0,0,0,.72-.31c.06.47.13,1,.19,1.42.2,1.51.33,3,.48,4.49a19.64,19.64,0,0,0,.36,2.17,4.22,4.22,0,0,1,.23.85,8.09,8.09,0,0,0,0,1.1c.3,1.48.48,3,.79,4.45.23,1.13.45,2.21.62,3.34l0,.57c0,5.66,2.19,9.31,5.92,13.49,1.12,1.26,2.74,2,3.89,3.33.89,1,1.4,2,2.73,2.48,1,.38,1.83.91,2.81,1.25s1.89.37,2.82.66a23.16,23.16,0,0,0,2.25.84c.65.14,1.2.48,1.86.57a5.27,5.27,0,0,0,1.67.09c.48-.13.76-.61,1.28-.68a24.06,24.06,0,0,1,3.18-.26,16.63,16.63,0,0,0,3.92-.27c1.82-.42,3.71-.68,5.52-1.13a30.11,30.11,0,0,1,3.14-.33c2.74-.42,5.52-.64,8.28-.93a51.36,51.36,0,0,1,5.41-.13,36.26,36.26,0,0,0,6.65-.78,8.81,8.81,0,0,0,2.25-.62,6.93,6.93,0,0,1,1.32-.57c.37-.06.8,0,1.18,0,1.35-.12,2.73-.27,4.08-.47s3.06-.91,4.5-.77c.58.06,1.24.1,1.83.2s1.19.44,1.82.52a1.46,1.46,0,0,0,1.2-.27c.35-.36.1-.61.26-1s1-.54,1.53-.75a13,13,0,0,1,2.08-.76c.87-.22,2.45-.46,3.1-1.16a6.57,6.57,0,0,0,.91-1.67,12.47,12.47,0,0,0,.78-3.44c.53-3.63,1.39-7.17,1.36-10.85-.05-8.17,0-16.33,0-24.5,0-7.68,0-15.36,0-23,0-3.61.41-7.19.54-10.8s0-7.06,0-10.58c0-2,0-3.94,0-5.9,0-1.16.2-2.29.25-3.44.12-2.54.3-5.1.3-7.64,0-2.9.54-5.81.58-8.71,0-1.47.29-2.91.26-4.4,0-2.65.63-5.19.84-7.81.15-1.93,1-3.73,1.48-5.6a24,24,0,0,0,.78-4c0-1.09,0-2.22,0-3.31s.3-2.53-.06-3.49h-.05c.94-.15,1-2,.94-2.64a7.52,7.52,0,0,1,1.11-4.13c.52-.76.61-1.26,1.51-1.63a6.49,6.49,0,0,1,1.69-.33c1.78-.29,3.5-.59,5.27-1,1.25-.29,2.36-.52,2.68-1.9C204,76.29,203.64,75.7,203.6,75Z" style="fill: #edf0f6"/>
      <path d="M203.85,75c0-1.85.22-4-1.19-5.46s-3.58-2.13-5.52-2.8A29.24,29.24,0,0,1,194,65.34a3.55,3.55,0,0,1-.58-.3c-1.29-1.15-.07-.37-.45-1.06-.21-.38-.51-.72-.74-1.09a8.35,8.35,0,0,0-1.67-2.24,9.37,9.37,0,0,0-1.93-.83c-.85-.44-.61-1.32-.2-2a2.82,2.82,0,0,0,.45-1,1.29,1.29,0,0,0-.63-1.25c-1.63-1.2-3.87.06-5.57.37-1,.19-2-.45-2.95-.91a19.13,19.13,0,0,0-3.51-1.35A64.65,64.65,0,0,0,168.5,52c-1.13-.16-2.29-.4-3.44-.49-1.39-.1-2.77.18-4.16,0a8.79,8.79,0,0,1-3-1c-1.17-.69-1.15-2.14-1.6-3.31s-1.73-2.36-3.08-1.75c-.58.26-.62.52-1.34.62a9.28,9.28,0,0,1-2-.13c-1.46-.12-3,0-4.45,0s-2.81,0-4.21,0-2.51.32-3.78.28c-1.12,0-2.72.39-3.72-.17-.57-.31-.89-1-1.69-.79s-.83,1.18-1.74,1.09a26.1,26.1,0,0,0-3.43-.15c-1.32,0-2.6.23-3.92.28a25.79,25.79,0,0,0-3.61.55,21.44,21.44,0,0,1-4.45.35c-1,0-1.41-.57-2.13-1.11a1.2,1.2,0,0,0-.73-.31c-1,0-1.5,1-2.37,1.15-1.13.18-2.34-.11-3.5.09-1.44.24-2.87.06-4.31.27s-2.7,0-4,.32a28.14,28.14,0,0,1-4.76.58c-1.34.1-2.65.77-3.51-.62a.25.25,0,0,0-.22-.13,2.17,2.17,0,0,0-2.1,2.3A7.47,7.47,0,0,0,87.72,52c.33,1.49-.82,2.41-1.55,3.54a10.94,10.94,0,0,0-1.31,3.09,2.63,2.63,0,0,1-1.5,1.86,4.92,4.92,0,0,0-1,.56c-1.37,1.19-1.07,3.2-.41,4.7a9.63,9.63,0,0,0,1.71,2.35c1,1.15,1,2.53,1.12,3.94.22,2.57.58,5.1.81,7.68a34.55,34.55,0,0,1,0,3.94,30.62,30.62,0,0,0,.21,3.83c.23,2.54.63,5.16.63,7.71a24.75,24.75,0,0,0,.15,3.34c.18,1.39.11,2.75.21,4.14.18,2.63.12,5.31.43,7.93a66.49,66.49,0,0,1,.09,8.11c0,2.88,0,5.77,0,8.65a18.65,18.65,0,0,0,.24,3c.23,1.39,0,2.82.18,4.23.15,1.21,0,2.41.18,3.61a38.35,38.35,0,0,1,.25,4.67c0,1.25-.07,2.49-.09,3.74,0,1.5.23,2.93.3,4.42.12,2.68.49,5.38.38,8.06-.06,1.52.25,3,.24,4.46a34.7,34.7,0,0,0,.38,4.19c.34,2.79.47,5.61.78,8.4a27,27,0,0,0,.7,3.9,32.61,32.61,0,0,1,.69,4.5c.32,2.83.86,5.65,1.25,8.48l.18-.31c-.56.11-1.2,0-1.68.3l.37.22c.1-2.09-1-4.4-1.51-6.38A20.2,20.2,0,0,0,88,181.29c-.74-1.19-1.62-2.13-3.16-1.48a8.18,8.18,0,0,1-1,.52,5.19,5.19,0,0,1-1,0,2,2,0,0,0-1.31.93c-1.15,1.68-.91,4.15-1.37,6.06a29.18,29.18,0,0,0-.82,6,35.61,35.61,0,0,0,2,13.22c.45,1.24.83,2.46,1.17,3.73.16.56.23,2,.78,2.31a.8.8,0,0,0,.38.11c.1,0,.18-.07.28-.09.38-.05.75-.1,1.13-.13s1-.24,1.49-.28a5.39,5.39,0,0,0,1.49-.19.25.25,0,0,0,.11-.41l-.12-.12,0,.39c1.07-.59,1.14-1.15,1.36-2.33.32-1.7.57-3.4.95-5.09.35-1.52.64-3.09,1.08-4.58a11,11,0,0,0,.42-1.22c0-.19,0-.53,0-.67.22-.59,1.29-.71,1.83-1l-.38-.21c.3,2.2.45,4.42.76,6.62.1.71.32,1.38.45,2.07.09.46,0,.94,0,1.41s.22,1.19.32,1.78A61.13,61.13,0,0,1,96,215.18a18.37,18.37,0,0,0,5.87,13.6c1.33,1.48,3.13,2.4,4.4,3.94a7.83,7.83,0,0,0,1.69,1.71,19.27,19.27,0,0,0,2.91,1.36,12.59,12.59,0,0,0,2.49.69c1.07.22,2,.72,3.05,1,1.4.42,2.9,1.11,4.31.49,2.12-.92,4.3-.56,6.56-.77a59,59,0,0,0,6.44-1.24,73.69,73.69,0,0,1,7.42-.92c2.44-.25,4.88-.56,7.34-.58a45.79,45.79,0,0,0,6.52-.33c1-.15,2.06-.32,3.07-.52a16.07,16.07,0,0,0,2.55-.9,15.28,15.28,0,0,1,3.53-.4,27.6,27.6,0,0,0,3.14-.45,15,15,0,0,1,3.23-.63,11.12,11.12,0,0,1,3.25.54,2.6,2.6,0,0,0,1.8.1c.5-.23.44-.51.65-.91.5-.94,1.66-1.19,2.64-1.53.81-.28,1.66-.4,2.48-.66,3.48-1.09,3.32-6.15,3.83-9.1A51.76,51.76,0,0,0,186,213c.1-2.47,0-5,0-7.44,0-9.84,0-19.68,0-29.53,0-4.89-.16-9.82.07-14.71s.55-9.7.51-14.58c0-2.35,0-4.7,0-7.05s.17-4.56.28-6.85.23-4.78.26-7.17.41-4.84.54-7.26c.12-2.26.21-4.52.32-6.77s.54-4.73.87-7,1.22-4.31,1.74-6.46a31,31,0,0,0,.45-6.39c0-.58.53-3.2-.29-3.42v.48c1.12-.36,1.11-1.82,1.12-2.79a7.88,7.88,0,0,1,.88-3.76,7.47,7.47,0,0,1,.8-1.26,3.51,3.51,0,0,1,2.38-.91c2.16-.33,4.76-.52,6.78-1.42A2.3,2.3,0,0,0,204,77.42a4.46,4.46,0,0,0-.15-2.45c-.05-.32-.53-.18-.48.13.22,1.44.44,2.69-1.2,3.26a21.15,21.15,0,0,1-3,.67c-1.23.24-2.47.45-3.72.64a4,4,0,0,0-1.92.6,6.71,6.71,0,0,0-1.88,3.26,9.46,9.46,0,0,0-.32,2.42c0,.68.11,2.12-.76,2.4a.25.25,0,0,0,0,.48,56.08,56.08,0,0,1,0,5.63,22.84,22.84,0,0,1-1.36,6.82,46.61,46.61,0,0,0-1.77,12.44c-.19,4.4-.77,8.77-.84,13.17s-.53,8.87-.53,13.32.15,9.2,0,13.79-.51,9.13-.51,13.73q0,14.06,0,28.11c0,4.66,0,9.33,0,14A87.07,87.07,0,0,1,184,223.59a10.37,10.37,0,0,1-.85,2.93,3.13,3.13,0,0,1-2.31,1.89c-.8.22-1.59.36-2.37.65a14.25,14.25,0,0,0-2.24.82c-.4.23-.34.49-.55.83-.87,1.39-2,.41-3.27.23a11.88,11.88,0,0,0-4.89.37,26.15,26.15,0,0,1-3.42.53c-1,.11-2.06,0-3,.19a15.83,15.83,0,0,0-2.09.86,23.19,23.19,0,0,1-3.07.62,40.19,40.19,0,0,1-6.75.48c-2.39,0-4.74.25-7.11.48-2.22.22-4.43.56-6.66.73a49.66,49.66,0,0,0-6,1.13,67.88,67.88,0,0,1-6.83.58,4.58,4.58,0,0,0-1.79.4,3.52,3.52,0,0,1-3.15.07c-.88-.3-1.75-.59-2.61-.93a19,19,0,0,0-2.79-.7,10.62,10.62,0,0,1-5.52-3.24c-1.21-1.45-2.8-2.33-4.13-3.65a25.67,25.67,0,0,1-3.48-4.42A16.93,16.93,0,0,1,97,219.55a35.56,35.56,0,0,1-.53-4.81c-.24-2.05-.77-4.08-1.11-6.12-.16-1-.18-1.9-.29-2.85s-.42-1.75-.54-2.64c-.26-2.08-.43-4.17-.71-6.25a.26.26,0,0,0-.38-.22c-.65.31-1.81.29-2.05,1.12-.11.39,0,.79-.13,1.21s-.25.67-.35,1c-.19.73-.32,1.47-.51,2.2-.4,1.6-.8,3.21-1.07,4.83-.23,1.41-.14,3.71-1.53,4.48a.25.25,0,0,0-.05.39l.11.12.11-.42a9.29,9.29,0,0,1-1.74.21,10.51,10.51,0,0,1-1.29.24,9.76,9.76,0,0,1-1.07.15c-.56-.15-.49-.76-.6-1.21-.55-2.25-1.49-4.37-2.09-6.61a32,32,0,0,1-1.26-7c0-1.18-.08-2.37-.08-3.54s.22-2.17.28-3.26a21.12,21.12,0,0,1,.58-3.27c.26-1.2.36-2.43.6-3.63A7.25,7.25,0,0,1,81.7,182c.44-.92,1-.73,1.87-1,.65-.17,1.58-.88,2.2-.86,1.39,0,2.12,1.9,2.57,3a16.87,16.87,0,0,1,1.1,3.08c.25,1.15.67,2.26,1,3.4a12.79,12.79,0,0,1,.72,3.61.25.25,0,0,0,.38.21c.35-.25,1.12-.16,1.56-.25.15,0,.19-.18.18-.31-.37-2.59-.73-5.18-1.16-7.76-.19-1.19-.21-2.4-.43-3.58s-.56-2.36-.76-3.56a66.11,66.11,0,0,1-.88-7.82c-.05-1.06-.13-2.1-.27-3.16-.1-.69-.27-1.4-.32-2.1s.07-1.5,0-2.25a26.47,26.47,0,0,1-.21-3.56,19.65,19.65,0,0,0-.11-3.6,41.54,41.54,0,0,1-.27-4.46c-.07-1.41-.32-2.78-.3-4.19a49.1,49.1,0,0,0,0-7.86,71.46,71.46,0,0,1-.41-7.88c0-1.1-.31-2.13-.32-3.24v-4.35c0-2.76,0-5.51.09-8.27.07-2.61-.34-5.16-.37-7.76a38.92,38.92,0,0,0-.16-3.89c-.13-1.29,0-2.57-.13-3.86s-.31-2.26-.31-3.43a25.12,25.12,0,0,0-.18-3.57c-.19-1.3-.26-2.65-.37-4S86,86.2,86,84.93s.06-2.45.09-3.67c0-1.39-.14-2.76-.22-4.14,0-.57-.17-1.05-.26-1.61s0-1.21-.08-1.82-.24-1.41-.29-2.13A9.93,9.93,0,0,0,85.1,70c-.5-2.15-2.44-3.27-3-5.38-.48-1.8,0-3,1.66-3.79a2.32,2.32,0,0,0,1.34-1.32c.22-.51.27-1.07.44-1.6a8.92,8.92,0,0,1,1-2,14.72,14.72,0,0,0,1.62-2.46c.52-1.45-1.37-4.34.5-5.18.86-.38,1,.52,1.7.76a4.14,4.14,0,0,0,1.88-.13c1.29-.2,2.59-.15,3.88-.29a28.38,28.38,0,0,1,3.77-.58c1.13,0,2.18-.23,3.31-.28.68,0,1.37.07,2,0s1.27-.25,1.91-.31a26.84,26.84,0,0,0,3,.05c.91-.19,1.18-1.28,2.22-.91.77.27,1.07,1,1.94,1.18a15.58,15.58,0,0,0,3.48-.06c1-.08,2.09-.35,3.12-.52,1.36-.23,2.7-.15,4-.33a25.56,25.56,0,0,1,3.82-.3c.65,0,1.61.45,2.23.26a1.31,1.31,0,0,0,.57-.47,3.71,3.71,0,0,1,.42-.5c1-.56,1.12.26,1.63.57a2.23,2.23,0,0,0,1.74.37c1.21-.15,2.39-.07,3.6-.21a33.36,33.36,0,0,1,3.87-.24l4.21,0a38.37,38.37,0,0,1,4.56.29,1.75,1.75,0,0,0,1.38-.37c.84-.52,1.63-.73,2.4.11a5.21,5.21,0,0,1,.93,2.11c.21.71.21,1.38.77,1.91a5.68,5.68,0,0,0,2.13,1.09c2.25.73,4.43.23,6.71.56,2.57.37,5.06.9,7.59,1.46a37.3,37.3,0,0,1,7.27,2.54,3.2,3.2,0,0,0,1.48.48,21.74,21.74,0,0,0,3.34-.83,3,3,0,0,1,2.13.11c1.21.81.34,1.54,0,2.24a1.64,1.64,0,0,0-.23,1.42,1.75,1.75,0,0,0,1.18.84,4.66,4.66,0,0,1,2.81,2.17c.23.38.45.76.67,1.14s.3.85.53,1.29c.35.64,1.24.89,1.86,1.17A25.68,25.68,0,0,0,197,67.27a17.9,17.9,0,0,1,3.51,1.38,5,5,0,0,1,2.56,2.65,13,13,0,0,1,.27,3.74C203.36,75.36,203.86,75.36,203.85,75Z" style="fill: #231f20"/>
    </g>
    <g>
      <path d="M113.51,46.87h-.08a2.36,2.36,0,0,1,.36.94c.08.43.26.86.3,1.3a2.7,2.7,0,0,1-.4,1.46c-.17.32-.51,1-1,.87s-.5-.7-.59-1.06,0-1-.1-1.47a7.16,7.16,0,0,0-.36-1.17,5.67,5.67,0,0,1-.33-.65c-.06-.21,0-.28,0-.49" style="fill: #edf0f6"/>
      <path d="M113.51,46.62h-.08a.26.26,0,0,0-.22.38,2,2,0,0,1,.33.82c.07.35.18.68.25,1a2.59,2.59,0,0,1-.46,1.86c-.09.15-.24.46-.44.5s-.35-.31-.4-.48a3.52,3.52,0,0,1-.14-.91,5.11,5.11,0,0,0-.09-1.1,5.44,5.44,0,0,0-.39-1.18,2,2,0,0,1-.27-.52c0-.15,0-.32,0-.49,0-.32-.53-.18-.48.13s0,.3,0,.46a2.3,2.3,0,0,0,.27.57,4.46,4.46,0,0,1,.43,1.29c.09.44,0,.9.07,1.34a3.28,3.28,0,0,0,.27.91.83.83,0,0,0,.71.48.94.94,0,0,0,.71-.45,3.63,3.63,0,0,0,.77-2,5.55,5.55,0,0,0-.28-1.38,2.75,2.75,0,0,0-.42-1.15l-.21.37h.08c.32,0,.31-.46,0-.5Z" style="fill: #231f20"/>
    </g>
    <g>
      <path d="M131.37,46.44c-.07.38.33.8.47,1.14a5.74,5.74,0,0,1,.24,1.15c.07.43.24.84.29,1.29s.14.87.5,1.06.67-.27.83-.63a3,3,0,0,0,.09-.72,4.85,4.85,0,0,0,.16-.63c0-.39,0-.8,0-1.2a3.42,3.42,0,0,0-.14-1.46" style="fill: #edf0f6"/>
      <path d="M131.12,46.44a1.52,1.52,0,0,0,.32.93,2.67,2.67,0,0,1,.35,1.14c.06.41.18.8.28,1.21a6,6,0,0,0,.21,1c.23.55.9.93,1.34.37a1.93,1.93,0,0,0,.38-.85c0-.17,0-.34,0-.5s.12-.36.15-.55a11.37,11.37,0,0,0,0-1.43,3.31,3.31,0,0,0-.15-1.4c-.12-.3-.6-.17-.48.13a2.34,2.34,0,0,1,.14,1c0,.37,0,.73,0,1.1a2.9,2.9,0,0,1,0,.51c0,.15-.09.3-.12.45a4.71,4.71,0,0,1-.14.85c-.06.13-.17.46-.34.46s-.38-.41-.42-.6-.09-.59-.16-.88a8.52,8.52,0,0,1-.23-1,3.2,3.2,0,0,0-.29-1.1c-.15-.27-.41-.55-.37-.88s-.46-.31-.5,0Z" style="fill: #231f20"/>
    </g>
    <g>
      <path d="M152.66,46.59l0-.1a13.56,13.56,0,0,1,1,1.45,5.36,5.36,0,0,1,.71,2.08.94.94,0,0,0,1.44.71c.72-.44.57-1.27.57-2" style="fill: #edf0f6"/>
      <path d="M152.9,46.65l0-.09-.42.11a10.68,10.68,0,0,1,1.1,1.72,4.8,4.8,0,0,1,.34.89c.09.3.12.61.19.92a1.21,1.21,0,0,0,1,.91,1.27,1.27,0,0,0,1.28-.66,3.35,3.35,0,0,0,.21-1.72.25.25,0,0,0-.5,0c0,.5.12,1.17-.22,1.6a.71.71,0,0,1-1.23-.14,7.75,7.75,0,0,1-.22-1,5.66,5.66,0,0,0-.36-1,11,11,0,0,0-1.23-1.92c-.12-.17-.36,0-.42.11l0,.09c-.1.3.38.44.48.13Z" style="fill: #231f20"/>
    </g>
    <g>
      <path d="M87.79,50.87a2.14,2.14,0,0,0,.57,1.86,1.08,1.08,0,0,0,1,.43.9.9,0,0,0,.87-.64,3.43,3.43,0,0,0,.12-1.28,7.09,7.09,0,0,0,0-1.22,7.57,7.57,0,0,0-.29-1.23c0-.13-.2-.26-.24-.38a1.62,1.62,0,0,1,0-.54" style="fill: #edf0f6"/>
      <path d="M87.54,50.87a4.22,4.22,0,0,0,.1,1.18,2.11,2.11,0,0,0,.66,1,1.38,1.38,0,0,0,1.89,0A1.75,1.75,0,0,0,90.6,52a15,15,0,0,0,0-1.5,5.28,5.28,0,0,0-.21-1.36,1.93,1.93,0,0,0-.22-.58.83.83,0,0,1-.17-.3c0-.12,0-.25,0-.37a.25.25,0,0,0-.5,0,1.8,1.8,0,0,0,0,.61,2.85,2.85,0,0,0,.23.37,3.57,3.57,0,0,1,.27,1.08,6.22,6.22,0,0,1,0,1.22A4.43,4.43,0,0,1,90,52.36a.7.7,0,0,1-.52.53.88.88,0,0,1-.85-.22,1.58,1.58,0,0,1-.55-.82,4,4,0,0,1-.07-1,.25.25,0,0,0-.5,0Z" style="fill: #231f20"/>
    </g>
    <g>
      <path d="M90.36,52.87a1.81,1.81,0,0,0,.93.15,11.21,11.21,0,0,0,1.42,0c.19,0,.32-.12.51-.15a3.47,3.47,0,0,1,.72,0h1.28c.41,0,.75-.13,1.15-.14h1.38c.54,0,1-.11,1.55-.15s.9,0,1.35,0h3a11.94,11.94,0,0,0,2.68-.11,5.35,5.35,0,0,1,1,0,2.83,2.83,0,0,0,.52-.14,4.85,4.85,0,0,1,.66,0c.25,0,.45-.14.7-.16a30.28,30.28,0,0,0,3-.43l.49-.06c.25,0,.5,0,.76-.06a5,5,0,0,1,.75-.16c.2,0,.4,0,.6,0s.5-.14.78-.15h1.55a4.15,4.15,0,0,0,.87-.13,10.43,10.43,0,0,1,1.37,0c.58,0,1.11-.13,1.68-.14s1,0,1.57,0,1.19.15,1.79.14H126c.24,0,.5,0,.74,0s.46.14.71.16a15,15,0,0,0,3.48-.12,4.57,4.57,0,0,1,.64,0,2.53,2.53,0,0,0,.62-.13,4.42,4.42,0,0,1,.63,0,3.3,3.3,0,0,0,.86-.22,12,12,0,0,1,1.69-.21,5.75,5.75,0,0,1,.72-.15,6.29,6.29,0,0,0,1.14-.11,11.18,11.18,0,0,1,1.92,0,27.73,27.73,0,0,1,3.76,0,33.36,33.36,0,0,0,4.9.11,12.16,12.16,0,0,1,2.34.12c.63.12,1.25.24,1.88.39a14,14,0,0,0,1.94.2,5.66,5.66,0,0,0,.82.16,4.59,4.59,0,0,0,.88-.18V51" style="fill: #edf0f6"/>
      <path d="M90.29,53.11a5.65,5.65,0,0,0,2.42.16c1-.11,1.93-.09,2.9-.18,2.32-.23,4.65-.25,7-.25a51.32,51.32,0,0,0,6-.29c2.1-.25,4.17-.67,6.28-.85s4.43-.41,6.64-.44,4.27.18,6.39.32a20.13,20.13,0,0,0,5.58-.45,35.25,35.25,0,0,1,6.73-.6c2.61-.08,5.24.18,7.86.16a28.69,28.69,0,0,1,4.33.58,8.24,8.24,0,0,0,3.35.1.24.24,0,0,0,.18-.17v-.12c0-.31-.43-.45-.48-.13s-6.07-.75-6.68-.76c-1.14,0-2.27,0-3.41,0s-2.45-.21-3.68-.23a37.69,37.69,0,0,0-6,.26c-1.94.28-3.84.66-5.79.81a20.39,20.39,0,0,1-3.13-.17c-1.13-.08-2.26,0-3.4-.08a52.63,52.63,0,0,0-6.52.23c-4,.11-7.82,1.19-11.76,1.31-1.32,0-2.64,0-4,0s-2.52.13-3.79.14-2.35.14-3.53.13-2.24.42-3.33,0c-.31-.11-.44.38-.14.48Z" style="fill: #231f20"/>
    </g>
    <g>
      <path d="M83.65,63.73c0,.27.69.71.88.83l1.83,1c.57.31,1.12.65,1.71.92s1.26.73,1.9,1.08c1.23.68,2.4,1.6,3.68,2.21.6.29,1.11.7,1.7,1a21.72,21.72,0,0,1,2,1.08c.27.18.57.15.85.27s.57.31.86.44a8.46,8.46,0,0,1,.85.43,9.07,9.07,0,0,0,1,.35,13,13,0,0,0,1.68.51,9.94,9.94,0,0,0,2.25,0c.71,0,1.35-.25,2-.29a29.33,29.33,0,0,0,3.25-.11,17.5,17.5,0,0,1,2.71,0h9c.51,0,1,0,1.54,0s1.24-.15,1.89-.15h1.57a9,9,0,0,0,1.56,0,5,5,0,0,1,1-.15c.38,0,.76,0,1.15,0a5.35,5.35,0,0,0,1.13-.11,10.8,10.8,0,0,1,1.61,0,13.05,13.05,0,0,0,2.58-.11,7.34,7.34,0,0,1,1.24,0c.6,0,1.15-.15,1.76-.14a17.55,17.55,0,0,0,3,0,9.09,9.09,0,0,1,1.65-.11c.67,0,1.3-.11,2-.15a13.57,13.57,0,0,0,1.69-.1,12.62,12.62,0,0,1,1.49-.18,47.23,47.23,0,0,0,6.16-.71c2-.36,4-.43,6-.68.58-.08,1.19-.14,1.77-.18a4.28,4.28,0,0,1,.62,0c.72,0,1.42-.14,2.15-.16s1.53,0,2.29,0,1.6-.16,2.41-.15c2,0,4,0,5.94,0,.93,0,1.86,0,2.79,0s1.8-.15,2.73-.15c1.45,0,2.91,0,4.37,0h1.55a9,9,0,0,0,1.56,0,17.19,17.19,0,0,1,2.14-.29,4.15,4.15,0,0,0,.48-.11,5.16,5.16,0,0,1,1.18,0h4.14c.86,0,1.74.05,2.6,0,.35,0,.63-.13,1-.14s.77-.14.75-.58" style="fill: #edf0f6"/>
      <path d="M83.4,63.8c.32,1,2.19,1.61,3,2.07,1.77,1,3.54,1.94,5.25,3S95.23,71,97,72c.66.35,1.39.55,2.06.89a14.33,14.33,0,0,0,2.22.9,11.22,11.22,0,0,0,5.25.15c1.13-.15,2.27,0,3.4-.13a32,32,0,0,1,3.39-.06h6.87c2,0,4-.14,5.93-.14a51.19,51.19,0,0,0,5.25-.2c2.06-.22,4.16-.1,6.22-.26s4.11-.18,6.16-.26,3.92-.35,5.89-.48c4.45-.31,8.86-1.47,13.33-1.53s8.88-.29,13.33-.27c2.58,0,5.14-.14,7.72-.14,1.16,0,2.33,0,3.49,0a22.49,22.49,0,0,0,3.27-.24,52.46,52.46,0,0,1,6.87-.18c1,0,3.65.43,3.94-.9.07-.32-.41-.45-.48-.14-.23,1.06-5,.54-5.78.54a38.46,38.46,0,0,0-5.26.26,45.2,45.2,0,0,1-6.05.17c-2.11,0-4.22.16-6.32.15h-6.58c-2.16,0-4.41,0-6.55.2-3.91.35-7.78.7-11.67,1.25-7.77,1.11-15.65,1-23.46,1.4a22.8,22.8,0,0,1-2.35.15,22.29,22.29,0,0,0-2.71.06,58.23,58.23,0,0,1-5.91.08c-2.09,0-4.18,0-6.27,0-1.08,0-2.12.12-3.19.15a19.77,19.77,0,0,0-2.78.1,10.46,10.46,0,0,1-6.63-.88c-1.75-.85-3.5-1.59-5.17-2.6s-3.65-2.22-5.5-3.27c-.94-.53-1.9-1-2.85-1.54-.55-.3-2-.8-2.23-1.47-.1-.31-.58-.18-.49.13Z" style="fill: #231f20"/>
    </g>
    <g>
      <path d="M84.79,69.59a5.58,5.58,0,0,0,1.34.72c.47.22.93.44,1.38.68,1,.52,2,1.09,3,1.63.53.31,1.15.57,1.66.9s1.1.53,1.61.86.94.39,1.38.64c.18.1.33.25.53.34s.54.41.85.58a16,16,0,0,1,1.43.87c.51.34,1.12.57,1.66.87a12.55,12.55,0,0,0,1.41.64,10.19,10.19,0,0,0,1.65.83c.5.11,1,.34,1.49.47.34.09.63.22,1,.3a5.15,5.15,0,0,0,1.11.1h2.28c.67,0,1.33,0,2,0s1.24.16,1.87.16,1.31-.16,2-.16h6.5c1.4,0,2.82.06,4.23,0,.53,0,1-.16,1.58-.15,1.1,0,2.2,0,3.3,0,1.52,0,3-.07,4.53-.14,1.68-.08,3.36-.3,5-.29a10.84,10.84,0,0,0,1.71-.11c.56-.07,1.13,0,1.69-.06,1.08-.2,2.19-.21,3.28-.36,2-.29,4.1-.44,6.15-.72,1.13-.16,2.29-.13,3.42-.28a31,31,0,0,1,3.84-.46c1,0,2.1-.24,3.14-.3.6,0,1.2-.12,1.8-.14s1.47-.15,2.21-.14c1.2,0,2.42.07,3.61,0,.7,0,1.37-.16,2.08-.16h10.85a19.44,19.44,0,0,0,2.29,0,16.94,16.94,0,0,1,1.76-.13,33.22,33.22,0,0,0,4.11-.25c.7-.08,1.41,0,2.11,0s1.28-.16,1.94-.15c.9,0,1.81,0,2.72,0,.34,0,.63-.12,1-.15a10.59,10.59,0,0,1,1.26,0,4.76,4.76,0,0,0,1.79-.32l.86-.28c.26-.08.49-.24.42-.54" style="fill: #edf0f6"/>
      <path d="M84.66,69.81a12.67,12.67,0,0,0,2,1c1,.47,1.88,1,2.81,1.51,1.57.88,3.15,1.81,4.79,2.56s3,1.9,4.66,2.71a34.93,34.93,0,0,0,4.55,2,15.43,15.43,0,0,0,5.24.59c1.07,0,2.1.06,3.15.13s2.06-.13,3.09-.13c2.19,0,4.38,0,6.56,0s4.35-.15,6.53-.15c4.23,0,8.51-.13,12.73-.49s8.67-1,13-1.32,8.61-1.14,13-1.19,8.68-.14,13-.14c2.38,0,4.73,0,7.11-.14s4.72-.13,7.06-.31c2.15-.17,4.34-.23,6.49-.27.95,0,3.22-.2,3.32-1.39,0-.32-.47-.32-.5,0s-1.17.63-1.45.7a6,6,0,0,1-1.58.19c-.91,0-1.78.15-2.69.16-1.89,0-3.78,0-5.67.13s-3.92.19-5.85.36-4.17.07-6.24.07h-6.39c-2,0-4,.18-6,.15-4.06-.07-8.14.68-12.16,1.08-8.27.84-16.55,1.83-24.88,1.91-4.08,0-8.14.14-12.23.14s-8.1.22-12.15,0c-2-.11-3.84-1.18-5.64-2a53,53,0,0,1-5-2.9c-1.61-.93-3.36-1.69-5-2.6-1-.57-2-1.16-3.09-1.69a15.8,15.8,0,0,1-2.39-1.22c-.25-.2-.5.24-.25.43Z" style="fill: #231f20"/>
    </g>
    <g>
      <path d="M105.22,62.73a2.81,2.81,0,0,1,0-.58c0-.13.13-.14.16-.27a4.19,4.19,0,0,0,0-1c0-.7.42-1.93,1.29-1.87.44,0,.7.35,1.07.51s.51.22.78.32a9.86,9.86,0,0,0,1.3.32,3.5,3.5,0,0,0,1,.14,8.9,8.9,0,0,1,1.17.15,7.36,7.36,0,0,0,1,0h1.2a2.38,2.38,0,0,1,1.25.25,2.57,2.57,0,0,1,1.19.92c.26.41.47.83.7,1.25s.39.91.61,1.37a1.5,1.5,0,0,1,.24,1.05c-.29,0-.66-.28-.95-.38a9.45,9.45,0,0,0-1.07-.32c-.68-.14-1.34-.34-2-.43a15.64,15.64,0,0,0-2.27-.28,6.49,6.49,0,0,0-1.08,0A4.61,4.61,0,0,1,110,64c-.69,0-1.36.27-2,.29s-1.21.15-1.86.14c-.82,0-1-.73-1-1.44a2.05,2.05,0,0,1,.07-.78c.07-.2.21-.82.36-.93" style="fill: #edf0f6"/>
      <path d="M105.47,62.73a2.53,2.53,0,0,1,.16-.87,4.59,4.59,0,0,0,0-1c0-.54.23-1.44.83-1.6.41-.11.75.25,1.08.42a7.41,7.41,0,0,0,.92.38,9,9,0,0,0,2.13.47c.83.06,1.62.16,2.45.15a5,5,0,0,1,2.5.3,3.9,3.9,0,0,1,1.57,1.89,5.14,5.14,0,0,1,.87,2.4l.25-.25a3.15,3.15,0,0,1-.85-.36,8.39,8.39,0,0,0-.89-.28c-.66-.17-1.33-.34-2-.45a11.56,11.56,0,0,0-3.79-.3,36.18,36.18,0,0,1-4,.52c-.38,0-.89.12-1.15-.24a1.5,1.5,0,0,1-.19-.83,2.69,2.69,0,0,1,.35-1.62c.22-.24-.14-.6-.35-.35a3.12,3.12,0,0,0-.31,2.93,1.17,1.17,0,0,0,1.06.64,12.26,12.26,0,0,0,2.49-.21c.77-.14,1.53-.26,2.3-.37a9.31,9.31,0,0,1,2.78.22c.84.13,1.65.3,2.47.49a6.6,6.6,0,0,1,1.32.44,2.22,2.22,0,0,0,.77.27c.15,0,.24-.12.25-.25a4.73,4.73,0,0,0-.78-2.35,5.06,5.06,0,0,0-1.58-2.19,4,4,0,0,0-2.36-.55c-.48,0-1,0-1.46,0s-1.06-.13-1.59-.17a7.75,7.75,0,0,1-3-.82c-.55-.3-1.07-.69-1.69-.3a2.15,2.15,0,0,0-.85,1.49,7.64,7.64,0,0,0,0,1.07,3.51,3.51,0,0,1-.18.6,2.74,2.74,0,0,0,0,.64c0,.32.52.33.5,0Z" style="fill: #231f20"/>
    </g>
    <g>
      <path d="M106.37,59.3c0-.12-.08-.45,0-.55s.41,0,.55,0a3.68,3.68,0,0,1,.57-.15c.2,0,.4,0,.6,0,.46,0,.94-.05,1.39,0a8,8,0,0,1,.87.27c.28,0,.54,0,.82.06a12.28,12.28,0,0,1,1.32.36,11.6,11.6,0,0,1,1.28.36,7,7,0,0,1,1.44.56c.52.36.65,1.24,1.42,1.11" style="fill: #edf0f6"/>
      <path d="M106.62,59.3a.6.6,0,0,1,0-.23c0-.16-.12,0,.12-.1a4.7,4.7,0,0,0,.5,0,6,6,0,0,1,1.59-.1,3,3,0,0,1,.85,0,6.18,6.18,0,0,0,.73.23c.21,0,.42,0,.64,0a5.46,5.46,0,0,1,1,.26c.49.15,1,.24,1.49.41a4.94,4.94,0,0,1,1.62.66c.5.45.66,1.16,1.47,1.08.32,0,.32-.53,0-.5-.5.05-.67-.4-.94-.74a2.24,2.24,0,0,0-1.12-.68c-.57-.18-1.11-.37-1.69-.52a12.19,12.19,0,0,0-1.87-.47,3.66,3.66,0,0,1-.88-.12,2.71,2.71,0,0,0-.73-.19,14.76,14.76,0,0,0-1.76,0,5.9,5.9,0,0,0-.73.15c-.2,0-.4-.06-.58,0s-.25.51-.23.8.51.33.5,0Z" style="fill: #231f20"/>
    </g>
    <g>
      <path d="M180.53,62a8.86,8.86,0,0,1,1-3,5.68,5.68,0,0,1,.37-.79,5.63,5.63,0,0,1,.4-.82,4.19,4.19,0,0,1,.83-.85c.15-.11.26-.3.43-.38s.29,0,.43-.16" style="fill: #edf0f6"/>
      <path d="M180.78,62a4.66,4.66,0,0,1,.49-1.82c.24-.55.44-1.13.72-1.66.14-.26.23-.53.36-.78a3.28,3.28,0,0,1,.54-.7c.19-.19.41-.34.59-.52s.46-.15.65-.35a.25.25,0,0,0-.35-.35c-.09.09-.27.07-.38.13a1.17,1.17,0,0,0-.3.24c-.2.2-.43.36-.62.56a4.08,4.08,0,0,0-.54.7c-.16.28-.27.6-.42.9-.3.56-.51,1.18-.77,1.77a5.11,5.11,0,0,0-.47,1.88c0,.32.49.32.5,0Z" style="fill: #231f20"/>
    </g>
    <g>
      <path d="M182.1,58.45c.23-.05.45-.23.65-.28a4.06,4.06,0,0,1,.78,0h1.57a5,5,0,0,0,1.92-.25c.48-.18,1.36-.5,1.22-1.18" style="fill: #edf0f6"/>
      <path d="M182.16,58.69c.31-.08.55-.29.88-.29s.73,0,1.09,0a14.84,14.84,0,0,0,2.21-.07c.85-.12,2.3-.58,2.14-1.67,0-.32-.52-.19-.48.13s-.49.66-.81.78a4.46,4.46,0,0,1-1.62.33c-.66,0-1.32,0-2,0a4.38,4.38,0,0,0-.81,0,6.83,6.83,0,0,0-.75.29c-.31.07-.18.56.13.48Z" style="fill: #231f20"/>
    </g>
    <g>
      <path d="M180.67,62.3a1.55,1.55,0,0,0,.11.47c.05.16,0,.36.06.51a2.17,2.17,0,0,0,.68.6,2,2,0,0,0,.59,0c.17-.06.28-.3.41-.44a6.34,6.34,0,0,1,1.23-1.15c.47-.25,1-.44,1.42-.71a11.18,11.18,0,0,1,1.57-.63,3.62,3.62,0,0,1,1.28-.37c.25,0,1.2-.12,1.29.15h-.21" style="fill: #edf0f6"/>
      <path d="M180.42,62.3c0,.25.11.48.13.73a.8.8,0,0,0,.15.47,1.7,1.7,0,0,0,.72.61c.9.32,1.33-.57,1.86-1.1a4.89,4.89,0,0,1,1.52-.94,17.43,17.43,0,0,1,1.71-.76,5.71,5.71,0,0,1,1.62-.48c.15,0,.88-.12,1,0l.22-.38h-.21c-.32,0-.32.49,0,.5h.21a.25.25,0,0,0,.21-.38c-.25-.47-1.14-.3-1.57-.27a6.22,6.22,0,0,0-1.57.49,11.34,11.34,0,0,0-1.48.63,12.56,12.56,0,0,0-1.5.78,6,6,0,0,0-1.05,1c-.15.18-.24.36-.48.39a.54.54,0,0,1-.43-.12.86.86,0,0,1-.39-.51,6.21,6.21,0,0,1-.13-.73c0-.31-.52-.32-.5,0Z" style="fill: #231f20"/>
    </g>
    <g>
      <path d="M182.1,63.88a2.28,2.28,0,0,1,.64.13c.19,0,.38,0,.57,0s.41.14.65.16.43,0,.64,0,.29-.1.49-.15a3.18,3.18,0,0,1,.69,0,4.52,4.52,0,0,0,.82-.13c.3,0,.6,0,.9,0,.51-.12,1-.3,1.53-.46a2.8,2.8,0,0,0,1.36-.93,1.07,1.07,0,0,0,0-1.43,1.11,1.11,0,0,0-.61-.47c-.29-.12-.55,0-.84-.13V60.3" style="fill: #edf0f6"/>
      <path d="M182.1,64.13c.32,0,.6.13.93.14a5.21,5.21,0,0,1,.79.13,3.37,3.37,0,0,0,.84,0c.23,0,.42-.16.65-.17s.5,0,.75,0a8.12,8.12,0,0,1,1-.13,5.6,5.6,0,0,0,1.7-.39c.87-.28,2.07-.83,2.17-1.88a1.52,1.52,0,0,0-.52-1.24c-.4-.37-.86-.32-1.36-.43l.18.18,0-.12c0-.32-.53-.18-.48.13v.12a.23.23,0,0,0,.18.17c.42.1.88,0,1.2.37a1,1,0,0,1-.07,1.44,2.76,2.76,0,0,1-1.21.71,7.49,7.49,0,0,1-1.52.43c-.25,0-.49,0-.74,0a5.71,5.71,0,0,1-.72.13,3,3,0,0,0-1,.08,2.65,2.65,0,0,1-1.37-.06c-.23,0-.45,0-.67,0s-.44-.11-.68-.12-.32.48,0,.5Z" style="fill: #231f20"/>
    </g>
    <path d="M105.08,64.7a.25.25,0,0,0,0-.5.25.25,0,0,0,0,.5Z" style="fill: #231f20"/>
    <g>
      <path d="M104.65,64.59c.22-.06.62.18.8.27a4.19,4.19,0,0,0,.91.43c.42.07.8.19,1.22.28s1.11.1,1.64.24a2.92,2.92,0,0,0,.72.06,4.29,4.29,0,0,1,.71.16c.22,0,.43,0,.65.06a3.33,3.33,0,0,0,.78.07c.52,0,1,0,1.55,0a1.87,1.87,0,0,1,.59.11,2.75,2.75,0,0,0,.76,0,6.77,6.77,0,0,0,.78,0c.24,0,.43-.14.68-.15h.78a4.24,4.24,0,0,0,1-.13c.22,0,.45,0,.68,0s.45-.12.71-.15a12.16,12.16,0,0,0,1.6-.06,2.93,2.93,0,0,1,.83-.08,2.88,2.88,0,0,0,.78-.11c.27-.05.54,0,.81,0a5.81,5.81,0,0,1,1-.13h1.64c.7,0,1.37-.1,2.06-.14.49,0,.92-.16,1.41-.15h1a15.5,15.5,0,0,0,2.64-.21,20.83,20.83,0,0,1,2.85-.07c.44,0,.85-.14,1.29-.15s.9,0,1.35,0c.61,0,1.24,0,1.85,0a14.33,14.33,0,0,1,1.47-.13c.49,0,1,0,1.46,0s1-.16,1.59-.16a15.38,15.38,0,0,0,2.54-.1,11.4,11.4,0,0,1,1.43-.18c.4,0,.77-.12,1.17-.15s.68,0,1,0,.91-.15,1.38-.16c.88,0,1.72-.09,2.59-.13.36,0,.7-.14,1.06-.16.57,0,1.14,0,1.71,0a16.8,16.8,0,0,0,3-.07c.68-.13,1.36,0,2-.1a15.76,15.76,0,0,1,2.65-.26c.25,0,.5,0,.75,0s.6-.14.91-.16.42,0,.62,0,.63-.13,1-.15c1.32-.09,2.68,0,4,0,.78,0,1.52.14,2.3.14a7.78,7.78,0,0,1,1.8.22c1.21.26,2.48.27,3.71.49a4.58,4.58,0,0,0,.64.15c.43,0,.87,0,1.3,0,.2,0,.4,0,.6,0a4.28,4.28,0,0,1,.73.13,4.29,4.29,0,0,0,1.94-.41" style="fill: #edf0f6"/>
      <path d="M104.65,64.84c.58,0,1.1.51,1.65.69a10.57,10.57,0,0,0,1.69.36c1.22.19,2.47.42,3.69.51a38,38,0,0,0,7.23-.13c2.59-.28,5.19-.46,7.81-.58,2.85-.13,5.71-.58,8.56-.56,1.35,0,2.69-.15,4.05-.14s3,0,4.52-.16c2.51-.19,5-.43,7.55-.55,1.42-.07,2.91-.16,4.32-.34s2.75,0,4.15-.07c2.65,0,5.3-.46,7.94-.61a43.64,43.64,0,0,1,9.76.31,36.37,36.37,0,0,0,4.39.57,10.64,10.64,0,0,0,4.21-.31c.3-.1.17-.58-.14-.48a10.88,10.88,0,0,1-4.07.29,37.55,37.55,0,0,1-4.71-.65,31.3,31.3,0,0,0-8.2-.37q-3.74.38-7.49.6c-1.44.09-2.83.11-4.27.11s-2.71.22-4.07.28c-2.6.12-5.17.56-7.77.59-1.3,0-2.7.06-4,.19s-2.91,0-4.36.13c-2.9.27-5.83.25-8.73.54-1.23.13-2.46.07-3.7.14s-2.58.31-3.87.39-2.77.23-4.16.32a12.53,12.53,0,0,1-2,.15c-.67-.06-1.26-.14-1.94-.15a27.75,27.75,0,0,1-4-.46,8.92,8.92,0,0,1-2.74-.65,3.35,3.35,0,0,0-1.22-.46c-.32,0-.32.47,0,.5Z" style="fill: #231f20"/>
    </g>
    <g>
      <path d="M126.08,56.16a30.74,30.74,0,0,0,3.14.43c.86,0,1.73,0,2.59,0h4.82c.4,0,.81,0,1.21,0s.63-.12,1-.15c.56,0,1.15.05,1.71,0,.34,0,.63-.14,1-.15s.64,0,1,0c.71,0,1.41-.15,2.13-.15a37.72,37.72,0,0,0,4.1-.42,16.47,16.47,0,0,1,1.85-.15,11.42,11.42,0,0,0,1.94,0c.65-.13,1.31-.19,2-.28s1.56-.3,2.34-.44,1.79-.21,2.7-.3a15.89,15.89,0,0,0,1.94-.4c.65-.17,1.31-.25,2-.43" style="fill: #edf0f6"/>
      <path d="M126,56.4c6.23,1,12.53.25,18.78,0,1.69-.07,3.34-.42,5-.54,1.49-.11,2.91-.09,4.41-.29A86.94,86.94,0,0,0,163.45,54a.25.25,0,0,0-.14-.48,31.7,31.7,0,0,1-4.74.9c-1.53.15-3,.51-4.53.71s-2.95.16-4.45.29-3.18.45-4.79.52c-6.2.24-12.47,1-18.65,0-.31-.05-.45.43-.13.48Z" style="fill: #231f20"/>
    </g>
    <g>
      <path d="M85.22,71.45c.23,0,.33.18.51.27a6.74,6.74,0,0,1,.74.3c.22.14.39.35.6.5s.62.39.93.59a11.42,11.42,0,0,0,1.49.73c.59.27,1.15.56,1.73.84s1,.47,1.43.74a8.77,8.77,0,0,1,.86.45c.11.08.18.21.3.3a7.34,7.34,0,0,1,.71.42,3,3,0,0,0,.59.54c.27.15.48.29.75.46a9.46,9.46,0,0,1,.79.58,5.68,5.68,0,0,0,.9.42,7.16,7.16,0,0,1,.78.58c.28.21.59.35.86.56a7.71,7.71,0,0,0,1.7,1,13.51,13.51,0,0,0,1.91.75c.24.07.46.13.7.18s.8,0,1.16.14a6.85,6.85,0,0,0,1.7.25c.69,0,1.34.12,2,.14.35,0,.65.15,1,.15s.41,0,.62,0a9.28,9.28,0,0,0,1.16.11,14.62,14.62,0,0,1,1.59.26,11.61,11.61,0,0,0,1.56,0c.85,0,1.66.14,2.51.14a14.54,14.54,0,0,1,1.86.13c1,.12,2-.13,3,0a14.34,14.34,0,0,0,2.93,0c1.26,0,2.56.12,3.81,0a16.21,16.21,0,0,1,1.71-.15,8.68,8.68,0,0,0,1.69-.11c.7-.12,1.44-.07,2.16-.14s1.66-.11,2.48-.18c2-.17,4.1,0,6.15-.17.88-.06,1.74-.24,2.62-.26h1.67a18,18,0,0,0,3.52-.11,8.26,8.26,0,0,1,1.65,0c.93,0,1.83-.16,2.77-.15.5,0,1-.13,1.46-.15s.95,0,1.42,0,.87-.14,1.32-.15,1.15,0,1.72,0,.87,0,1.31,0,1-.16,1.54-.15.93-.12,1.43-.15a17.9,17.9,0,0,0,1.79-.1c.54-.09,1.07-.06,1.61-.15s1.06-.15,1.57-.18,1.32,0,2,0,1.35-.1,2.05-.15,1.08-.14,1.64-.14h4.56c.72,0,1.42-.1,2.13-.14,1.28-.07,2.56-.11,3.84-.18s2.29-.16,3.43-.29a27.32,27.32,0,0,1,3.13-.25h3.48c.51,0,.63-.31.92-.72" style="fill: #edf0f6"/>
      <path d="M85.15,71.69A14.27,14.27,0,0,1,87.4,73a30.16,30.16,0,0,0,2.84,1.43,25,25,0,0,1,4.38,2.59c1.18.91,2.51,1.58,3.73,2.42a15.3,15.3,0,0,0,4.38,2.21,27.17,27.17,0,0,0,5.24.7c1.72.16,3.44.49,5.16.6,3.89.25,7.78.32,11.66.28,2.06,0,4.08,0,6.13-.16s4-.32,6-.44c2.18-.13,4.37,0,6.54-.23,2-.23,3.89,0,5.85-.15,3.94-.22,7.91-.61,11.86-.58,1.87,0,3.79-.23,5.64-.4s3.55-.28,5.36-.33c2.11,0,4.2-.28,6.32-.28,2.33,0,4.65-.17,7-.28s4.85-.56,7.28-.58a31.08,31.08,0,0,0,3.48,0c.59-.07.82-.38,1.14-.84.18-.27-.25-.52-.43-.26-.65.94-2.55.6-3.52.6a25.52,25.52,0,0,0-3.14.17q-3.12.35-6.25.46c-3.75.16-7.49.2-11.23.47-.87.06-1.74,0-2.61,0s-1.84.21-2.76.28c-1.79.14-3.59.37-5.37.46s-3.85,0-5.77.13-3.81.14-5.68.3-3.88,0-5.83.15-3.95.3-6,.32c-3.87,0-7.73.72-11.59.71s-7.89,0-11.83-.28c-3.53-.27-7.13-.44-10.62-1A13.51,13.51,0,0,1,99,79.32c-1.4-1-2.92-1.73-4.24-2.81a22.64,22.64,0,0,0-4.52-2.57,21.31,21.31,0,0,1-2.77-1.43,10.5,10.5,0,0,0-2.22-1.3c-.3-.12-.42.36-.13.48Z" style="fill: #231f20"/>
    </g>
    <g>
      <path d="M103.36,82.74a6.71,6.71,0,0,1,1.54,3c.12.38.11.78.21,1.16s.22.76.3,1.14.06.87.13,1.3a9.4,9.4,0,0,0,.4,1.56" style="fill: #edf0f6"/>
      <path d="M103.19,82.92a6.71,6.71,0,0,1,1.62,3.74c.06.34.17.67.25,1a6.41,6.41,0,0,1,.18,1.23A8.18,8.18,0,0,0,105.7,91c.1.3.58.17.48-.13a9.67,9.67,0,0,1-.47-2.37c-.06-.75-.35-1.46-.45-2.22a6.84,6.84,0,0,0-1.72-3.67c-.23-.23-.58.13-.35.36Z" style="fill: #231f20"/>
    </g>
    <g>
      <path d="M109.79,83.31a5.87,5.87,0,0,0,.18,1.1,2.81,2.81,0,0,1,0,1.32,8.65,8.65,0,0,1-.22,1,9.19,9.19,0,0,0-.36,1" style="fill: #edf0f6"/>
      <path d="M109.54,83.31a11.63,11.63,0,0,1,.22,2.11,9.52,9.52,0,0,1-.25,1.18c-.11.37-.31.7-.39,1.07s.42.45.49.14.3-.76.4-1.15.18-.79.24-1.18a3.36,3.36,0,0,0,0-1,7.08,7.08,0,0,1-.19-1.12.25.25,0,0,0-.5,0Z" style="fill: #231f20"/>
    </g>
    <path d="M124.26,85.31v2.43a.25.25,0,0,0,.5,0V85.31a.25.25,0,0,0-.5,0Z" style="fill: #231f20"/>
    <g>
      <path d="M125.94,83.88a8.8,8.8,0,0,0-.61,1.72,8.69,8.69,0,0,0-.1,2.28" style="fill: #edf0f6"/>
      <path d="M125.73,83.76a8,8,0,0,0-.69,2,10.2,10.2,0,0,0-.06,2.14.25.25,0,0,0,.5,0,9.65,9.65,0,0,1,0-2,7.73,7.73,0,0,1,.64-1.86c.14-.29-.29-.54-.43-.25Z" style="fill: #231f20"/>
    </g>
    <g>
      <path d="M150.38,82.74c0,.3-.14.57-.15.88s0,.86,0,1.29V87" style="fill: #edf0f6"/>
      <path d="M150.13,82.74c0,.32-.14.63-.15,1s0,.73,0,1.09c0,.75,0,1.49,0,2.24a.25.25,0,0,0,.5,0c0-.75,0-1.49,0-2.24,0-.35,0-.7,0-1.05s.12-.66.15-1-.48-.32-.5,0Z" style="fill: #231f20"/>
    </g>
    <g>
      <path d="M151.66,82.74a5.57,5.57,0,0,0-.68,1.41,10.18,10.18,0,0,0-.18,2.59" style="fill: #edf0f6"/>
      <path d="M151.45,82.61a5.72,5.72,0,0,0-.79,1.85,12.4,12.4,0,0,0-.11,2.28c0,.32.51.32.5,0a12.9,12.9,0,0,1,.09-2.15,3.72,3.72,0,0,1,.29-.93c.14-.28.3-.53.45-.8s-.28-.53-.43-.25Z" style="fill: #231f20"/>
    </g>
    <g>
      <path d="M175.24,81.6c-.08.81-.35,1.58-.43,2.4s-.14,1.33-.14,2" style="fill: #edf0f6"/>
      <path d="M175,81.6c-.08.72-.31,1.43-.4,2.15a17.34,17.34,0,0,0-.17,2.27.25.25,0,0,0,.5,0,15.9,15.9,0,0,1,.17-2.28c.11-.72.32-1.42.4-2.14,0-.32-.47-.32-.5,0Z" style="fill: #231f20"/>
    </g>
    <g>
      <path d="M176.67,81.74c-.42.08-.54.8-.59,1.13s-.17.86-.24,1.29A4.12,4.12,0,0,0,176,85.6" style="fill: #edf0f6"/>
      <path d="M176.6,81.5c-.6.14-.7.9-.78,1.41s-.2.9-.25,1.36a5,5,0,0,0,.14,1.39c.06.32.54.18.49-.13a5,5,0,0,1-.14-1.15,11.87,11.87,0,0,1,.22-1.19,6,6,0,0,1,.14-.74c.05-.17.12-.42.32-.47s.18-.56-.14-.48Z" style="fill: #231f20"/>
    </g>
    <g>
      <path d="M188.81,80.59a13.76,13.76,0,0,1-.25,2.4c-.06.43-.47,1.73,0,2" style="fill: #edf0f6"/>
      <path d="M188.56,80.59a12.88,12.88,0,0,1-.34,2.83c-.12.55-.35,1.41.18,1.82.26.2.51-.24.25-.43s-.07-.51-.06-.65c0-.3.11-.59.17-.88a12.19,12.19,0,0,0,.3-2.69.25.25,0,0,0-.5,0Z" style="fill: #231f20"/>
    </g>
    <g>
      <path d="M190.53,80.31a3.65,3.65,0,0,0-.82,1.63,8,8,0,0,0-.47,2.08" style="fill: #edf0f6"/>
      <path d="M190.35,80.13a4.28,4.28,0,0,0-.89,1.78A8.48,8.48,0,0,0,189,84a.25.25,0,0,0,.5,0,7.37,7.37,0,0,1,.44-1.91,3.65,3.65,0,0,1,.78-1.62c.21-.25-.15-.6-.36-.36Z" style="fill: #231f20"/>
    </g>
    <g>
      <path d="M88.22,74.16a20.24,20.24,0,0,1,.85,2.71,6.59,6.59,0,0,1,.29,1.3,5.87,5.87,0,0,1,.14,1" style="fill: #edf0f6"/>
      <path d="M88,74.23a24.64,24.64,0,0,1,.81,2.52c.1.4.24.81.31,1.22,0,.2,0,.4.07.6a2.41,2.41,0,0,1,.08.6c0,.32.49.32.5,0a2,2,0,0,0-.07-.6c0-.22-.06-.43-.09-.64a12.07,12.07,0,0,0-.3-1.22,22,22,0,0,0-.83-2.61c-.11-.3-.59-.17-.48.13Z" style="fill: #231f20"/>
    </g>
    <g>
      <path d="M89.5,76.17l.15,1" style="fill: #edf0f6"/>
      <path d="M89.26,76.23l.15,1a.21.21,0,0,0,.11.15.25.25,0,0,0,.19,0,.26.26,0,0,0,.15-.12.25.25,0,0,0,0-.19l-.15-1a.21.21,0,0,0-.11-.15.25.25,0,0,0-.19,0,.26.26,0,0,0-.15.12.25.25,0,0,0,0,.19Z" style="fill: #231f20"/>
    </g>
    <g>
      <path d="M93.08,76.74c.12.3.3.57.43.88a10.11,10.11,0,0,1,.42,1.64,18.72,18.72,0,0,1,.57,4.34" style="fill: #edf0f6"/>
      <path d="M92.86,76.86a9,9,0,0,1,.64,1.58c.13.53.23,1.07.34,1.61a15.72,15.72,0,0,1,.41,3.55.25.25,0,0,0,.5,0,16.3,16.3,0,0,0-.43-3.68c-.11-.58-.22-1.16-.37-1.73a9.1,9.1,0,0,0-.66-1.58c-.13-.29-.56,0-.43.25Z" style="fill: #231f20"/>
    </g>
    <g>
      <path d="M94.65,77.74c0,.65.13,1.27.15,1.91s0,1.49,0,2.23" style="fill: #edf0f6"/>
      <path d="M94.4,77.74c0,.67.13,1.33.15,2s0,1.43,0,2.14a.25.25,0,0,0,.5,0c0-.71,0-1.43,0-2.14s-.15-1.33-.15-2a.25.25,0,0,0-.5,0Z" style="fill: #231f20"/>
    </g>
    <g>
      <path d="M105.14,99.72c0,.72,0,1.44,0,2.15a17.94,17.94,0,0,0-.2,1.88" style="fill: #edf0f6"/>
      <path d="M104.89,99.72v2.15a17.39,17.39,0,0,0-.2,1.88c0,.32.54.32.5,0a17.39,17.39,0,0,1,.2-1.88V99.72a.25.25,0,0,0-.5,0Z" style="fill: #231f20"/>
    </g>
    <g>
      <path d="M104,120.27c-.06,1-.2,2-.19,3s0,1.75,0,2.63v6.45c0,.59,0,1.17,0,1.76a11.16,11.16,0,0,0,.2,1.29c0,.35,0,.7,0,1.05a12.76,12.76,0,0,1,.21,1.38c0,1.31,0,2.63,0,3.94V151" style="fill: #edf0f6"/>
      <path d="M103.73,120.27c-.17,2.47-.19,4.91-.19,7.39a56.42,56.42,0,0,0,.14,7.36,58.1,58.1,0,0,1,.25,7.47V151a.25.25,0,0,0,.5,0c0-5.18.22-10.44-.19-15.6a103.12,103.12,0,0,1,0-15.12c0-.32-.47-.32-.5,0Z" style="fill: #231f20"/>
    </g>
    <g>
      <path d="M108.78,111.43v1.5a10.19,10.19,0,0,1-.29,2,17,17,0,0,0,.1,3.26" style="fill: #edf0f6"/>
      <path d="M108.53,111.43c0,.58,0,1.17,0,1.75a14.71,14.71,0,0,1-.29,1.72,18.74,18.74,0,0,0,.1,3.26c0,.32.51.32.5,0a15.94,15.94,0,0,1-.07-3.38,12.4,12.4,0,0,0,.26-1.6c0-.58,0-1.17,0-1.75,0-.32-.49-.32-.5,0Z" style="fill: #231f20"/>
    </g>
    <g>
      <path d="M108.4,134.67c-.05,1.53-.19,3-.19,4.57,0,1.1.19,2.18.2,3.27,0,.72,0,1.44,0,2.16s-.27,1.68-.19,2.48" style="fill: #edf0f6"/>
      <path d="M108.15,134.67a49.4,49.4,0,0,0-.08,6.32c.09,1,.09,2,.08,3.08s-.25,2.06-.19,3.08c0,.32.52.32.5,0-.06-1,.19-2,.19-3s0-2.13-.08-3.2a49.4,49.4,0,0,1,.08-6.32c0-.32-.49-.32-.5,0Z" style="fill: #231f20"/>
    </g>
    <g>
      <path d="M108.4,152.91c0,1.67,0,3.34,0,5,0,.8.16,1.53.2,2.32a23,23,0,0,1,0,3.42,15,15,0,0,0-.2,1.52c0,.45,0,.9,0,1.35,0,1.3-.2,2.56-.19,3.86a18.69,18.69,0,0,1-.15,3.43,19.55,19.55,0,0,0,0,3.67c0,1.28-.2,2.53-.19,3.82,0,2,0,4,0,6" style="fill: #edf0f6"/>
      <path d="M108.15,152.91c0,1.44,0,2.89,0,4.33s.22,2.85.26,4.28-.24,2.59-.26,3.89c0,1.51-.14,3-.18,4.51-.17,5.78-.39,11.56-.4,17.36a.25.25,0,0,0,.5,0c0-5.81.23-11.58.4-17.36,0-1.43.15-2.85.18-4.28s.28-2.58.26-3.9-.26-2.84-.26-4.27v-4.56a.25.25,0,0,0-.5,0Z" style="fill: #231f20"/>
    </g>
  </g>
</svg>
