<svg xmlns="http://www.w3.org/2000/svg" width="35.98" height="40.1" viewBox="0 0 35.98 40.1">
  <title>Asset 11Web</title>
  <g id="Layer_2" data-name="Layer 2">
    <g id="Sketch">
      <g>
        <path d="M21.69,13a35.45,35.45,0,0,0-2.3-4.46A23.84,23.84,0,0,0,17,5.44,17.12,17.12,0,0,0,9.36.92a8.4,8.4,0,0,0-6.27.41C.58,2.83.45,6,.64,8.6A23.28,23.28,0,0,0,4.35,18.75a86.24,86.24,0,0,0,7.23,10.09q1.65,2,3.25,4.08c.89,1.15,1.7,2.35,2.59,3.49a14.2,14.2,0,0,0,2.49,3.06" style="fill: #007d00"/>
        <path d="M22,12.84a35.19,35.19,0,0,0-3.83-6.62,16.43,16.43,0,0,0-5-4.23C10,.24,4.81-1.31,1.83,1.7-.91,4.46,0,9.72,1,13c1.62,4.83,4.76,9.2,7.82,13.22,1.9,2.48,3.93,4.86,5.81,7.35q1.35,1.77,2.64,3.58a11.44,11.44,0,0,0,2.36,2.73c.42.32,1-.39.57-.74-1.63-1.43-2.81-3.58-4.09-5.32s-2.78-3.59-4.21-5.34a78.71,78.71,0,0,1-8-11.5C2,13.41.36,9,1.29,4.83c1.14-5,7-4.17,10.52-2.51a16.18,16.18,0,0,1,5.72,4.42,32.92,32.92,0,0,1,3.81,6.51c.23.47.93.05.7-.41Z" style="fill: #231f20"/>
      </g>
      <g>
        <path d="M20.8,13a4.11,4.11,0,0,1,1.13-2.88,15.12,15.12,0,0,1,4.74-3.78A10.31,10.31,0,0,1,32.27,5a3.16,3.16,0,0,1,1.93.76,4.13,4.13,0,0,1,1.16,2.5c.52,2.85-.78,5.81-2,8.27-1,1.85-1.9,3.69-3,5.43s-2.45,3.61-3.73,5.38c-2,2.77-4.28,5.49-5.78,8.59-.43.9-1.57,2.68-.7,3.68" style="fill: #007d00"/>
        <path d="M21.27,13c0-2.41,2.74-4.48,4.6-5.63s4.37-2.24,6.64-1.81c2.84.53,2.67,4.26,2.11,6.42a30.77,30.77,0,0,1-3,6.62,103.52,103.52,0,0,1-8,11.76,38.75,38.75,0,0,0-3.44,5.51c-.61,1.21-1.48,2.73-.53,4,.36.48,1.17.06.83-.48-.8-1.29,1.13-4,1.78-5.06,1-1.73,2.26-3.35,3.46-5a83.17,83.17,0,0,0,7.26-11c1.71-3.27,3.67-6.89,2.75-10.69S31,4.1,28,5.22a16,16,0,0,0-4.9,3C21.71,9.45,20.25,11,20.33,13a.47.47,0,0,0,.94,0Z" style="fill: #231f20"/>
      </g>
    </g>
  </g>
</svg>
