<svg id="Sketch" xmlns="http://www.w3.org/2000/svg" width="100mm" height="72.66mm" viewBox="0 0 283.46 205.95">
  <title>Mieter-2</title>
  <g>
    <g>
      <path d="M32.07,201c-.78.15.41.53,0,0a16.65,16.65,0,0,1-1.59-2.51,4.35,4.35,0,0,1-.48-2.35,2.61,2.61,0,0,1,.3-1,5.58,5.58,0,0,0,.36-1.39,12,12,0,0,1,1.2-2.6,12.91,12.91,0,0,1,1.83-2.75,65.68,65.68,0,0,1,4.85-4.88c.86-.85,1.22-1.13,1.18-2.37,0-.87-.81-1.82-.55-2.64.19-.6.89-.95,1.1-1.53s-.15-1-.38-1.56a8.5,8.5,0,0,1-.46-2.94,31,31,0,0,0-.07-6c-.16-.8-.25-1.58-.46-2.35a7.43,7.43,0,0,1-.06-1.7c0-.7-.24-1.32-.31-2-.08-.92,0-1.93,0-2.86a13.15,13.15,0,0,1,.28-1.76,6.9,6.9,0,0,0-.35-2.45,4,4,0,0,1-.22-1.32,3.63,3.63,0,0,0,0-1.14c-.21-.67-.89-1.19-1.08-1.87a6.37,6.37,0,0,1,0-1.69,15.55,15.55,0,0,0-.88-5.76c-.45-1.18-1.17-2.26-1.54-3.48-.21-.66-.26-1.37-.51-2a6,6,0,0,1-.6-2.58c0-1.15,0-2.3,0-3.45a12.94,12.94,0,0,0,0-1.76,14.49,14.49,0,0,0-.92-2.26,30.5,30.5,0,0,1-.8-3.43c-.1-.5-.24-1-.33-1.47s0-1.18-.38-1.75c-.59-.85-1.65-.58-2.59-.58a3.91,3.91,0,0,1-3.25-1.18,2.67,2.67,0,0,1-.71-3c.64-1.31,1.75-2.32,2.35-3.69,1.83-4.19,3.8-8.6,4.62-13.09a28.54,28.54,0,0,0,.21-4.54,36.67,36.67,0,0,1,.68-4.78c.27-1.71.55-3.44.78-5.15a31.85,31.85,0,0,0,0-4,29.77,29.77,0,0,0-.82-6,12.17,12.17,0,0,0-1.29-3.94c-.42.13-.88.49-1.31.48-.7,0-.76-.89-1.28-1.12s-1.15,0-1.62-.06l-2.14-.28c-.6-.09-1.08-.48-1.68-.58s-1.12-.2-1.71-.36C20,67.1,18.84,66.43,17.5,66a37,37,0,0,1-5.73-2.53,5.24,5.24,0,0,1-2.52-2.87,22,22,0,0,1-1.31-4.36c-.31-1.78-.94-3.54-1.25-5.35a41.8,41.8,0,0,0-1.85-7.22A26.3,26.3,0,0,1,4,39.27a35.49,35.49,0,0,1-.75-6.41c0-1.22,0-2.45,0-3.67A5.37,5.37,0,0,1,4.06,27a7.22,7.22,0,0,0,.35-2.85,19.79,19.79,0,0,0-.15-3.85,15.66,15.66,0,0,1-.14-3,2.94,2.94,0,0,1,1.64-3.07,22.77,22.77,0,0,1,2.79-.92c.75-.29,1.85-1.72,2.63-1.64s1.06.87,1.9.78c.59-.07.85-.36,1.36.17A2.79,2.79,0,0,1,15,14.52a21.16,21.16,0,0,1-1.62,8.15c-.88,2.29-2.92,4.43-2.81,6.94a27.22,27.22,0,0,0,.89,3.83c.24,1.26.6,2.49.83,3.75s.19,2.28.42,3.39c.32,1.49.16,3,.58,4.45a13.08,13.08,0,0,1,.53,2.56c.06.84.46,1.51.59,2.32a25.16,25.16,0,0,0,.65,3,4.83,4.83,0,0,0,.51,1.39c.44.6,1.68.73,2.41.91a23.21,23.21,0,0,0,2.47.56,11.89,11.89,0,0,1,1.78.16c1.53.38,3.16.52,4.65,1a6.15,6.15,0,0,0,1.84.54c.73,0,1.14-.56,1.69-.92a6,6,0,0,0,1.37-.94c.3-.35.46-.84.75-1.2,1.15-1.4,3-2.63,4.83-2.36,1,.14,1.74.18,2.2,1.12a13.8,13.8,0,0,0,.88,1.71,1.69,1.69,0,0,0,1.77.88c.72,0,1.45,0,2.17,0,1.26,0,2.52.25,3.79.3a6,6,0,0,1-1.39-.32,13.41,13.41,0,0,0-1.55,0,10.65,10.65,0,0,1-1.61-.31c-.78-.14-1.32,0-2-.6a6.37,6.37,0,0,1-1.49-3.06c-.27-.81-.44-1.3-1.33-1.37-.62,0-1.45.47-2,.31-.85-.24-.88-1.36-.76-2a8.38,8.38,0,0,1,1.26-2.56c.54-1.08-.21-2.53-.16-3.67a22.54,22.54,0,0,1,.9-4.54,11.54,11.54,0,0,0,.19-2.2A28,28,0,0,1,38.83,32a12.57,12.57,0,0,1,.9-2.74,6.44,6.44,0,0,0,.53-1.05c.24-.93,0-1.43.44-2.42a9.93,9.93,0,0,1,2.1-3.36c.57-.48,1.29-.62,1.85-1s.69-1.38,1.18-1.94A12,12,0,0,1,49,17.38,4.25,4.25,0,0,1,50.91,17c.91-.1,1.73-.46,2.67-.48a20.4,20.4,0,0,1,4.72.76c1.55.32,3.25,1,4.84.83,2.31-.28,4.2-.77,6.5-.18a53.1,53.1,0,0,1,6.47,1.84c2.26.91,4.84,2.91,5,5.57a12.68,12.68,0,0,1-.28,2.44,4.72,4.72,0,0,0-.2,1.51,7.76,7.76,0,0,0,.79,1.23c.31.55.72,1.23,1,1.81.56,1.24.08,2.71-.13,4a1.57,1.57,0,0,0,.14,1.21,11,11,0,0,1,.94,3.57,11.27,11.27,0,0,1,0,3.62,18.43,18.43,0,0,0-.4,2.22,9.08,9.08,0,0,1-.09,2.5,9.21,9.21,0,0,1-1.27,1.85,5.46,5.46,0,0,0-.93,2.14,1.54,1.54,0,0,1-.28.79c-.23.27-.78.25-1,.5s0,.31,0,.5A5.41,5.41,0,0,1,79,56.55c-.26.52-.38,1.39-1,1.65a6.82,6.82,0,0,0,2.52,1.86,5.35,5.35,0,0,1,2,2.06c.94,1.7.93,4.31.72,6.21-.09.8-.54,1.44-.58,2.23s0,1.74,0,2.6c0,1.6-.11,3.24,0,4.83A17.45,17.45,0,0,1,83,80.14c-.08,1-.33,2-.32,3.09,0,1.72,0,3.43,0,5.15A12.67,12.67,0,0,0,83,90.76c.22,1.37.18,2.86.38,4.26.25,1.81.51,3.66.89,5.45.31,1.43.4,2.92.81,4.31a43,43,0,0,1,1.11,7.13,54.3,54.3,0,0,1,.39,6.24c0,2.19-.37,4.37-.32,6.55a18.94,18.94,0,0,1-.33,2.9c-.13,1.07-.19,2.19-.41,3.23-.35,1.7,0,3.52-.77,5.18-.27.58-1,.94-1.57,1.28a2.54,2.54,0,0,0-1.06.9c-.23.36-.25.64-.63.92a18,18,0,0,1-1.81.91,8.59,8.59,0,0,1-4.29,1.15c-.9,0-1.36-.43-.82-1.24.76-1.14,1.46-1.53,1.4-2.91,0-.74,0-1.49,0-2.24,0-1.3-.44-2.27,0-3.57a12.55,12.55,0,0,1,1.33-2.82A20.11,20.11,0,0,0,78.88,126c.92-2,.52-4.36.21-6.46-.51-3.49-1.49-6.94-2.24-10.39-.33-1.56-.43-4-1.55-5.24,0,1.78,0,3.57,0,5.36s.46,3.72.6,5.58c.07.88.29,1.72.3,2.6a27,27,0,0,0,.06,3.92c.57,3.14.4,6.5-1.54,9.12-1.18,1.59-.94,4-.65,5.88.44,2.78-.91,5.57-1.19,8.31a48.41,48.41,0,0,1-1.33,6.93,18.28,18.28,0,0,0-.65,4.88c0,2.58.15,5.24,0,7.82-.09,1.29-.27,2.52-.27,3.82,0,1.48.2,2.83.31,4.28a26.64,26.64,0,0,1-.32,3.21c0,1.23,0,2.49,0,3.73a28.45,28.45,0,0,0-.05,3.06c.14,1.18,1.18,2,2,2.74a22.13,22.13,0,0,0,3.07,2.47A7.35,7.35,0,0,1,78,189.52a21.3,21.3,0,0,1,2.11,5.07,10,10,0,0,1,.57,2.59c0,.7-.9,1.39-1.26,1.74a28.07,28.07,0,0,1-2.51,2.24,5.88,5.88,0,0,1-3.67,1.2,7.69,7.69,0,0,1-3.17,0c-1.33-.54-2.84-2.46-3.55-3.61C65.55,197.19,65,195.54,64,194a29,29,0,0,1-2.06-4.58,38.59,38.59,0,0,1-1.85-4.75,13.48,13.48,0,0,1-.36-3.8,35,35,0,0,0-1.12-8.35c-.21-.92-.49-1.86-.61-2.79a25.35,25.35,0,0,1,.21-4.85c.08-1.61-.15-3.2-.22-4.81a33.38,33.38,0,0,0-.19-3.88,34.16,34.16,0,0,1-.72-6.2,28.22,28.22,0,0,0-.44-4.85,27.05,27.05,0,0,0-1.27-4.91c-.14-.4-1.07-3.74-1.42-3.58a23,23,0,0,1-.19,5.92,63.61,63.61,0,0,0-.21,8.17c0,2.81.08,5.64,0,8.46a53.17,53.17,0,0,1-.34,5.35c-.18,1.31-.44,2.6-.5,3.93-.11,2.42-.33,4.8-.32,7.23a17,17,0,0,0,.15,3.35c.61,2.83-2.29,4.14-3.1,6.59a13.18,13.18,0,0,1-.7,2.15c-.41.78-.95,1.5-1.39,2.27a57.57,57.57,0,0,0-3.5,7.25c-.49,1.27-1,2.54-1.53,3.8a4.36,4.36,0,0,1-2.2,2.37,6.37,6.37,0,0,1-6.27-.18A6,6,0,0,1,32.07,201c-.41-.67-.13.85,0,0Z" style="fill: #edf0f6"/>
      <path d="M32,200.78c-1,.29.09,1.12.37.57s-.8-1.45-1-1.81c-.84-1.35-1.43-2.73-.83-4.29a10.17,10.17,0,0,0,.38-1.44,8.08,8.08,0,0,1,.89-2,18.53,18.53,0,0,1,2.3-3.52c1.62-1.92,3.73-3.4,5.32-5.33a2.57,2.57,0,0,0,.56-1.83,5.2,5.2,0,0,0-.39-1.4,1.6,1.6,0,0,1-.1-1.32c.16-.35.51-.58.73-.88a1.58,1.58,0,0,0,.15-1.75,9.12,9.12,0,0,1-.67-4c0-1.25.15-2.5.1-3.75a26.61,26.61,0,0,0-.6-3.87,19.32,19.32,0,0,1-.12-2.14c-.07-.68-.27-1.33-.31-2a23.55,23.55,0,0,1,.3-4.2,8.2,8.2,0,0,0-.42-2.86c-.25-1.06,0-2-.61-3a3.28,3.28,0,0,1-.74-2c0-.7,0-1.38,0-2.08a15.1,15.1,0,0,0-.63-3.77,25.24,25.24,0,0,0-1.33-3,39.55,39.55,0,0,1-1.27-4,13.27,13.27,0,0,1-.27-4.08,10.71,10.71,0,0,0-.14-3.44c-.15-.4-.38-.78-.56-1.17a11.36,11.36,0,0,1-.66-2.2c-.3-1.34-.55-2.69-.76-4-.36-2.38-2.68-1.45-4.36-1.76A3.36,3.36,0,0,1,24.68,116c-.3-1.44,1.13-2.73,1.85-3.83a20.94,20.94,0,0,0,1.61-3.38c.55-1.28,1.09-2.57,1.59-3.88A28.67,28.67,0,0,0,32,96.12a48.26,48.26,0,0,1,.25-5c.25-1.59.55-3.18.8-4.77a34.28,34.28,0,0,0,.38-8.82c-.15-1.44-.45-2.87-.74-4.29a13.67,13.67,0,0,0-1.32-4,.25.25,0,0,0-.28-.12,4.83,4.83,0,0,1-.58.25,1.55,1.55,0,0,1-1.11-.08c-.09-.07-.14-.22-.21-.31a1.34,1.34,0,0,0-.68-.54,5.26,5.26,0,0,0-1.43,0,11.08,11.08,0,0,1-2.5-.35c-.6-.18-1.11-.45-1.73-.58a13.72,13.72,0,0,1-2.36-.64c-1.35-.52-2.69-1.07-4-1.58-2.41-.92-5.62-2-6.79-4.49C8.4,58.18,8,55.15,7.25,52.32c-.36-1.48-.56-3-.91-4.48S5.55,45,5.08,43.59a27.26,27.26,0,0,1-.83-4.21c-.26-1.57-.56-3.14-.69-4.73s-.06-3-.07-4.54a4.67,4.67,0,0,1,.44-2.33,6,6,0,0,0,.63-1.69c.49-2.76-.19-5.57-.19-8.33,0-1.3.07-2.46,1.28-3.22,1-.63,2.25-.6,3.27-1.18.84-.49,1.65-1.85,2.73-1.3a4.77,4.77,0,0,0,.92.55c.47.13.9-.1,1.35.05,1.37.45.83,3.4.69,4.52a21.92,21.92,0,0,1-1,4.14A20.33,20.33,0,0,1,11.9,25a12.45,12.45,0,0,0-1.41,3.11,6.31,6.31,0,0,0,.18,3.31c.38,1.36.69,2.73,1,4.11.67,2.86.72,5.8,1.19,8.69.11.67.32,1.31.47,2s.18,1.38.34,2,.38,1.13.49,1.72.26,1.46.43,2.18a5,5,0,0,0,1,2.52c.73.64,1.95.68,2.85.91,2.86.73,5.88.7,8.68,1.74,1,.37,1.81.67,2.74,0a8.64,8.64,0,0,0,2.31-1.78,7.21,7.21,0,0,1,3-2.87c1.09-.47,3.21-.69,4,.42.61.84.75,2.07,1.68,2.67s2.06.28,3,.27c1.45,0,2.88.22,4.33.3v-.5a13.32,13.32,0,0,1-1.39-.32c-.52-.07-1,0-1.55,0a13.67,13.67,0,0,1-1.55-.3,3.53,3.53,0,0,1-1.86-.54,5.2,5.2,0,0,1-1.32-2.67,3,3,0,0,0-.77-1.51A1.92,1.92,0,0,0,38,50.35c-.69.17-1.35.48-1.67-.5a2.83,2.83,0,0,1,.14-1.65c.29-.79,1-1.41,1.2-2.21a5.59,5.59,0,0,0-.16-2.57c-.39-2.3.86-4.44,1-6.7a21.71,21.71,0,0,1,1.17-6.64,9.33,9.33,0,0,0,1-2.42,7.43,7.43,0,0,1,.16-1.33,9.59,9.59,0,0,1,.75-1.67,5,5,0,0,1,2.06-2.4c.82-.42,1.45-.66,1.87-1.52a4.65,4.65,0,0,1,1.86-2.14,7.45,7.45,0,0,1,3-1.33c1-.11,2-.41,2.94-.5a12.66,12.66,0,0,1,4,.49c1.9.43,3.93,1.27,5.91,1.07,1.14-.11,2.27-.35,3.42-.43a11.86,11.86,0,0,1,3.7.42c3.63.9,9.43,1.87,10.49,6.25a7.31,7.31,0,0,1-.15,3.12,3.34,3.34,0,0,0-.16,1.74,14.29,14.29,0,0,0,1.21,1.95A4.85,4.85,0,0,1,82.27,35a4.68,4.68,0,0,0-.18,2.34,18.84,18.84,0,0,1,1,3.13,13.14,13.14,0,0,1,.11,4.15,14.69,14.69,0,0,0-.38,3.23,3.53,3.53,0,0,1-.33,1.92c-.27.49-.71.9-1,1.37a6.33,6.33,0,0,0-.6,1.08c-.25.59-.28,1.58-.84,2s-.72.24-.81,1-.58,2.42-1.25,2.82a.25.25,0,0,0,0,.39,6.4,6.4,0,0,0,1.92,1.55,5.81,5.81,0,0,1,2.6,2.45A10.2,10.2,0,0,1,83,68.31a23.6,23.6,0,0,0-.59,2.62c-.05,1.24,0,2.48,0,3.71a31.19,31.19,0,0,0,0,3.35,7.38,7.38,0,0,0,.21,1.14,6.2,6.2,0,0,1,0,2.31A49.63,49.63,0,0,0,82.43,88a17.6,17.6,0,0,0,.28,2.81c.19,1.28.18,2.57.32,3.85.25,2.2.69,4.36,1.08,6.53.19,1,.29,2.12.55,3.16s.58,2.3.76,3.49c.35,2.43.62,4.91.77,7.36a51.81,51.81,0,0,1-.15,6.94c-.07,1.1,0,2.19-.1,3.28s-.33,2.41-.46,3.61c-.11,1-.34,2.05-.42,3.08a11.49,11.49,0,0,1-.47,3.51c-.42,1-1.39,1.21-2.17,1.81s-.82,1.3-1.59,1.74A17.34,17.34,0,0,1,78,140.49a7.66,7.66,0,0,1-1.64.38c-.67.08-2,.27-1.48-.94.29-.65.92-1.08,1.18-1.77a8.87,8.87,0,0,0,.17-2.82c0-1-.27-2.09-.21-3.13a8,8,0,0,1,1.32-3.45A24.05,24.05,0,0,0,79.16,126a7.43,7.43,0,0,0,.54-2.84,33.2,33.2,0,0,0-1-7.07c-.53-2.48-1.24-4.93-1.69-7.43-.3-1.66-.38-3.56-1.53-4.9a.26.26,0,0,0-.43.18c0,1.72,0,3.44,0,5.17s.35,3.35.53,5a30.49,30.49,0,0,1,.35,4.47,32.77,32.77,0,0,0,.3,4.32,13,13,0,0,1-.27,4.35,9.11,9.11,0,0,1-.79,2.07c-.33.61-.8,1.14-1.09,1.77-1.14,2.51.09,5.28-.29,7.88-.22,1.52-.69,3-1,4.49s-.4,3.1-.71,4.64c-.62,3.07-1.5,6-1.44,9.13,0,1.68.08,3.36,0,5s-.22,3.2-.32,4.81a33.35,33.35,0,0,0,.24,4.79,44.93,44.93,0,0,1-.3,4.49c0,1.68,0,3.37,0,5a3.76,3.76,0,0,0,.93,2.8,21,21,0,0,0,2.92,2.66c1.11.84,2.59,1.5,3.46,2.59a14,14,0,0,1,2,4.31c.32,1,1.2,2.78.72,3.79A5.56,5.56,0,0,1,79,199c-.56.54-1.14,1.09-1.75,1.59a6.77,6.77,0,0,1-4.15,1.55c-1.54.13-2.82.31-4.07-.78a11.86,11.86,0,0,1-2.38-2.9c-.82-1.37-1.4-2.86-2.22-4.22a30.29,30.29,0,0,1-2-4.36c-.57-1.41-1.24-2.79-1.73-4.24a14.71,14.71,0,0,1-.66-4.89,38.34,38.34,0,0,0-1.34-9.1,14.8,14.8,0,0,1-.31-5.22,28,28,0,0,0,0-5c-.11-1.6,0-3.22-.22-4.82s-.59-3.25-.72-4.9-.05-3.19-.24-4.79a32.55,32.55,0,0,0-.78-4.26,40.29,40.29,0,0,0-1.72-5.36c-.12-.27-.3-.87-.69-.83a.25.25,0,0,0-.25.25c.3,2.87-.28,5.65-.39,8.51s0,5.81,0,8.7,0,5.71-.18,8.56c-.09,1.41-.31,2.8-.51,4.2s-.24,2.92-.33,4.39a37.36,37.36,0,0,0,0,8.12c.37,2.28-1.49,3.57-2.56,5.32a13.53,13.53,0,0,0-1,2.69,29.38,29.38,0,0,1-2.13,3.73,67.34,67.34,0,0,0-3.43,7.42c-.53,1.36-1,3.07-2,4.12A5.73,5.73,0,0,1,37.37,204a5.2,5.2,0,0,1-4-1.39c-.47-.51-.66-1.21-1.09-1.74-.12-.14-.19-.3-.4-.29a.25.25,0,0,0-.22.12.64.64,0,0,0,.17.78.27.27,0,0,0,.26,0,.56.56,0,0,0,.21-.42c.06-.31-.42-.45-.48-.13s.35.07.28,0-.18.31-.18.31a1.74,1.74,0,0,0,.21.37,7.8,7.8,0,0,0,.8,1.25,4.89,4.89,0,0,0,2.64,1.46,6.55,6.55,0,0,0,5.87-1.46,7.29,7.29,0,0,0,1.52-2.7c.61-1.49,1.16-3,1.81-4.48s1.29-2.75,2-4.09,1.51-2.4,2.15-3.65c.55-1.07.62-2.29,1.27-3.33.53-.83,1.23-1.54,1.78-2.35a4.3,4.3,0,0,0,.87-2.43c0-.63-.19-1.24-.23-1.87-.06-.8,0-1.62,0-2.42,0-6.1,1.12-12.08,1.2-18.17,0-3.45,0-6.89,0-10.34s.79-6.91.43-10.37l-.25.25c.29,0,1.4,4,1.56,4.54a30.09,30.09,0,0,1,1,4.61c.25,1.75.22,3.47.33,5.22.09,1.56.4,3.08.64,4.62.27,1.75.19,3.52.31,5.29a29,29,0,0,1,0,5.19,14,14,0,0,0,.16,4.65,44.21,44.21,0,0,1,1.49,10,13.82,13.82,0,0,0,.57,4.34c.48,1.51,1.18,2.94,1.78,4.41a82.15,82.15,0,0,0,4,8.23c1,1.75,2.59,4.28,4.72,4.64a12.55,12.55,0,0,0,3.61-.19,6.08,6.08,0,0,0,3.15-1.39,19.61,19.61,0,0,0,3.09-2.88,2.47,2.47,0,0,0,.3-2.44,33.49,33.49,0,0,0-1.27-3.9,8.42,8.42,0,0,0-1.94-3.32c-1-.88-2.25-1.51-3.3-2.33a12.46,12.46,0,0,1-3-3,4.29,4.29,0,0,1-.34-2.38c0-.89.07-1.77.06-2.66a32,32,0,0,1,.28-4.69,33.06,33.06,0,0,0-.26-4.86c0-1.59.19-3.16.28-4.74.2-3.5-.35-7.08.26-10.54.29-1.62.77-3.21,1.1-4.83s.47-3.1.73-4.65.76-3.08,1-4.65a14.7,14.7,0,0,0-.08-4,7,7,0,0,1,.61-4.39,12.7,12.7,0,0,0,1.7-3.61c.66-2.82-.15-5.51-.06-8.33.11-3.24-.77-6.41-.87-9.64,0-1.79,0-3.57,0-5.36l-.42.18c1.23,1.43,1.18,3.71,1.56,5.48.52,2.39,1.15,4.76,1.64,7.16a25.56,25.56,0,0,1,.84,7.06C79,126.33,76.94,128,76,130.23c-.82,2-.33,4-.34,6.05a4.34,4.34,0,0,1-.19,1.86,4.88,4.88,0,0,1-.66,1c-.33.43-.93,1-.73,1.67.42,1.3,3.18.47,4,.19a25.49,25.49,0,0,0,2.45-1.1,4.89,4.89,0,0,0,1.08-.58,4.09,4.09,0,0,0,.67-1c.49-.75,1.46-1,2.11-1.56a3.59,3.59,0,0,0,1-2.28c.16-1.08.11-2.18.28-3.26s.32-2.39.47-3.59c.31-2.43.38-4.85.55-7.29a42.85,42.85,0,0,0-.17-7.34,62,62,0,0,0-.93-7.06c-.51-2.32-1-4.63-1.4-7s-.62-5-.89-7.51A32.86,32.86,0,0,1,82.93,88c0-1.29,0-2.57,0-3.86s.29-2.67.32-4A6.43,6.43,0,0,0,83,78.69a10,10,0,0,1-.16-2.18c0-1.49.06-3,0-4.46a7.8,7.8,0,0,1,.1-2c.13-.57.39-1.08.48-1.67A11.31,11.31,0,0,0,83,62.48a5.87,5.87,0,0,0-1.77-2.3c-1-.77-2.16-1.12-3-2.16l0,.39c.64-.39.78-1.09,1-1.74a7.74,7.74,0,0,0,.36-1c.09-.31,0-.77.3-1s.52-.14.72-.35a2.69,2.69,0,0,0,.41-1.2,9.55,9.55,0,0,1,1.7-2.91,3.63,3.63,0,0,0,.56-2.41A27.72,27.72,0,0,1,83.74,44a14.18,14.18,0,0,0-.95-6.28,2.52,2.52,0,0,1-.22-1.66c.09-.52.21-1,.29-1.56a4.4,4.4,0,0,0-.35-2.58,15.28,15.28,0,0,0-.79-1.43c-.25-.4-.73-.83-.84-1.29-.19-.74.31-1.93.41-2.67.6-4.32-3.58-6.66-7.12-7.72a24.12,24.12,0,0,0-7-1.44,28.33,28.33,0,0,0-3.43.38,10.06,10.06,0,0,1-4.15-.43c-2.12-.56-4.6-1.37-6.81-1-.56.1-1.09.27-1.65.37s-1.06.06-1.57.19a9.75,9.75,0,0,0-2.8,1.47A4.16,4.16,0,0,0,45.23,20a2.7,2.7,0,0,1-1.08,1.43,9.06,9.06,0,0,0-1.5.82,6.53,6.53,0,0,0-1.56,2.15,7.14,7.14,0,0,0-.94,2.51,4.93,4.93,0,0,1-.51,2,12.6,12.6,0,0,0-.52,1.19,18.73,18.73,0,0,0-.85,3.55c-.18,1.12-.21,2.24-.3,3.38-.1,1.35-.64,2.65-.87,4a9,9,0,0,0,.08,3.27,3,3,0,0,1-.36,2.28,10.77,10.77,0,0,0-.71,1.24c-.57,1.3-.46,3.61,1.5,3.17.69-.15,1.5-.56,2,.18a5.41,5.41,0,0,1,.56,1.58,4.48,4.48,0,0,0,1.53,2.52,7.55,7.55,0,0,0,2.79.7,7.78,7.78,0,0,0,1.67,0c.7,0,1.31.3,2,.34.32,0,.32-.48,0-.5-1.39-.08-2.76-.31-4.15-.3-.68,0-1.39.06-2.07,0-.86-.08-1.23-.58-1.62-1.31s-.62-1.65-1.46-2.06a4.94,4.94,0,0,0-2.74-.31,5.87,5.87,0,0,0-2.74,1.36,7.3,7.3,0,0,0-1,1c-.46.61-.66,1.24-1.34,1.68a13,13,0,0,0-1.17.76,2,2,0,0,1-2.3.24,24.85,24.85,0,0,0-3.91-1c-.59-.11-1.17-.28-1.76-.36-.81-.11-1.61-.1-2.42-.29-.62-.14-1.23-.31-1.85-.45s-1.54-.23-1.93-.9a10.78,10.78,0,0,1-.9-3.46,16.08,16.08,0,0,0-.44-1.82,19.86,19.86,0,0,1-.41-2.15,36.56,36.56,0,0,1-.72-3.92c-.11-1.48-.37-2.94-.53-4.42-.28-2.64-1.22-5.12-1.73-7.7-.55-2.76,1.36-4.84,2.43-7.19a20.84,20.84,0,0,0,1.85-7.44c.08-1.33.21-4-1.78-3.8a2,2,0,0,1-1.55-.45,1.51,1.51,0,0,0-.8-.25c-.74,0-1.35.71-1.88,1.14-1.52,1.22-4,.85-5,2.81a5.6,5.6,0,0,0-.35,2.6c0,1.49.3,2.93.31,4.41A17.19,17.19,0,0,1,4,26.27a19.24,19.24,0,0,1-.84,1.92A4.8,4.8,0,0,0,3,29.92a50.78,50.78,0,0,0,.56,8.36c.24,1.36.39,2.75.68,4.1s.85,2.69,1.23,4c.75,2.7,1.19,5.47,1.88,8.19C8,57.1,8.23,60,9.8,62.1c1.3,1.75,3.74,2.6,5.68,3.39,1.33.54,2.68,1,4,1.55.51.21,1,.42,1.53.59.76.25,1.57.3,2.34.54a10.39,10.39,0,0,0,1.74.56c.61.09,1.24.21,1.85.24.79,0,1.29-.18,1.92.49.21.23.33.5.64.62a1.36,1.36,0,0,0,.93-.07c.23-.05.39-.27.66-.17s.4.88.49,1.12a28.7,28.7,0,0,1,1,4.22,28.15,28.15,0,0,1,.34,8.88c-.4,2.83-1.09,5.67-1.32,8.52-.12,1.41,0,2.83-.12,4.24a22.28,22.28,0,0,1-1,4.41,75.13,75.13,0,0,1-3.19,8.3,17,17,0,0,1-1.91,3.41,4.29,4.29,0,0,0-1.22,2.91A3.9,3.9,0,0,0,28,119c1.38.07,3-.44,3.21,1.48a34.49,34.49,0,0,0,.75,3.88,13.2,13.2,0,0,0,.56,2,13.91,13.91,0,0,1,.75,1.68,6.67,6.67,0,0,1,0,1.84c0,.74,0,1.48,0,2.22a9.71,9.71,0,0,0,.37,3.44c.44,1.23.63,2.51,1.16,3.7a22.67,22.67,0,0,1,1.54,3.71,17.28,17.28,0,0,1,.44,4.7,3.78,3.78,0,0,0,.79,2.65,3.49,3.49,0,0,1,.4,2,12.2,12.2,0,0,0,.38,1.67,5.19,5.19,0,0,1,.09,2.32,10.46,10.46,0,0,0-.19,1.59,21.14,21.14,0,0,0,.25,3.89c.1.68,0,1.36.07,2s.28,1.34.4,2a20.54,20.54,0,0,1,.27,4.29,20.52,20.52,0,0,0,0,3.84,6.66,6.66,0,0,0,.37,1.51,4.23,4.23,0,0,1,.27.57c.29,1-.07,1.11-.55,1.68A1.82,1.82,0,0,0,39,179.6a5.81,5.81,0,0,1,.47,1.83,2.4,2.4,0,0,1-.9,1.7,64.12,64.12,0,0,0-5.52,5.66,22.69,22.69,0,0,0-2,3.35A23.38,23.38,0,0,0,30,195.32a4.09,4.09,0,0,0,.15,3c.19.44,1.46,3.14,2,3A.25.25,0,0,0,32,200.78Z" style="fill: #231f20"/>
    </g>
    <g>
      <path d="M31.78,69.13l-.13.18c.3.89.87-.37,1-.56.25-.37.64-.59.9-.93A5.73,5.73,0,0,0,34,66.71,7.26,7.26,0,0,0,35.3,63.2a10.58,10.58,0,0,0-.38-4.2c-.14-.34-.28-.71-.44-1a4.67,4.67,0,0,0-.67-.93,2.38,2.38,0,0,0-1.55-1.15l0-.17" style="fill: #edf0f6"/>
      <path d="M31.6,69l-.13.17a.23.23,0,0,0-.06.24c.52,1.28,1.24-.3,1.66-.73a4.45,4.45,0,0,0,.81-.87c.23-.41.34-.88.56-1.3a9.63,9.63,0,0,0,1-2.3,12.62,12.62,0,0,0,.13-2.68,7.07,7.07,0,0,0-.43-2.58,8.13,8.13,0,0,0-1.25-2.18,2.52,2.52,0,0,0-1.64-1.1l.24.19,0-.18c-.06-.31-.55-.18-.48.13L32,56a.24.24,0,0,0,.24.18c.69.09,1.08.71,1.48,1.21a6.62,6.62,0,0,1,1,1.93,10.68,10.68,0,0,1,.29,4.14c-.07,1.34-.93,2.31-1.38,3.52a2.39,2.39,0,0,1-.61,1,6,6,0,0,0-.51.5c-.09.11-.58,1-.66.77l-.06.24.13-.17c.19-.25-.16-.61-.36-.35Z" style="fill: #231f20"/>
    </g>
    <g>
      <path d="M30.68,119.11c1.06.16,3.07.62,3.47,1.8a19.74,19.74,0,0,0,.93,2.49,21.65,21.65,0,0,0,1.43,2.53c.54.8,1.07,1.53,2.08,1.55a7.55,7.55,0,0,0,1.78-.12A12.29,12.29,0,0,1,42,127a23.62,23.62,0,0,1,2.79,0c.47,0,.88.18,1.33.23s1.18-.08,1.77,0a2.43,2.43,0,0,1,1.14.44c.65.42.68.88,1.16,1.43.19.23.47.33.67.55s.18.45.37.63a2.18,2.18,0,0,0,1.45.49,7.16,7.16,0,0,0,2.07-.17,9.69,9.69,0,0,1,1.38-.29A3.8,3.8,0,0,0,58,130a5.15,5.15,0,0,1,1.38-.54,14.47,14.47,0,0,0,1.44-.51,8.15,8.15,0,0,1,.93-.15,4.64,4.64,0,0,1,1.54-.24c1,.07,2,.46,3.06.45a8.83,8.83,0,0,0,2.93-.49,5.84,5.84,0,0,0,1.49-.66,4.56,4.56,0,0,1,1.33-.78,3.56,3.56,0,0,0,2.37-1.59,11.83,11.83,0,0,0,.81-2.55c.27-.87.92-2,.78-2.88v.15" style="fill: #edf0f6"/>
      <path d="M30.61,119.35a8.34,8.34,0,0,1,2,.54,3,3,0,0,1,1,.6,3.31,3.31,0,0,1,.6,1.32,17.18,17.18,0,0,0,1.29,2.91A10.38,10.38,0,0,0,37,127c1.38,1.42,3.4.43,5,.26a11.44,11.44,0,0,1,3.2.09,6.71,6.71,0,0,0,1.26.18,4.69,4.69,0,0,1,1.83.09,2.35,2.35,0,0,1,1.15,1,3.2,3.2,0,0,0,.65.85,2.6,2.6,0,0,1,.63.65,2.3,2.3,0,0,0,.23.37,2,2,0,0,0,1,.5,6.83,6.83,0,0,0,2.81-.15,7.89,7.89,0,0,1,1.53-.26,4.72,4.72,0,0,0,1.24-.14c.42-.14.79-.41,1.21-.56s1-.29,1.49-.47a6.83,6.83,0,0,1,1.35-.33,7.36,7.36,0,0,1,1.56-.25c1.07.05,2.09.46,3.17.45a9.81,9.81,0,0,0,3.08-.57A5.9,5.9,0,0,0,71,128a5.15,5.15,0,0,1,1.44-.78,3.89,3.89,0,0,0,2-1.3,9.14,9.14,0,0,0,1-2.94,7.45,7.45,0,0,0,.79-2.94c0-.31-.5-.33-.5,0v.15a.25.25,0,0,0,.5,0v-.15h-.5a6.39,6.39,0,0,1-.71,2.65,12,12,0,0,1-.95,2.82,4.24,4.24,0,0,1-2.31,1.38,4.82,4.82,0,0,0-1,.56,5.07,5.07,0,0,1-1.37.7,9.14,9.14,0,0,1-3.27.59c-1,0-2-.43-3.06-.45a4.13,4.13,0,0,0-1.11.15c-.47.12-1,.13-1.42.28a22.63,22.63,0,0,0-2.43.87,3.47,3.47,0,0,1-1.5.44,7.34,7.34,0,0,0-1.24.12,8.73,8.73,0,0,1-3.25.32,1.4,1.4,0,0,1-.75-.34,2.38,2.38,0,0,1-.35-.54c-.25-.37-.69-.54-1-.92a3.5,3.5,0,0,0-1.57-1.52c-.88-.37-1.8,0-2.71-.2a16.59,16.59,0,0,0-2.73-.24,11,11,0,0,0-2.74.37,3.23,3.23,0,0,1-3-.45,11.22,11.22,0,0,1-1.77-2.78,13.12,13.12,0,0,1-.75-1.67c-.18-.49-.3-1-.51-1.51-.59-1.26-2.36-1.62-3.59-1.83-.32,0-.45.43-.14.49Z" style="fill: #231f20"/>
    </g>
    <g>
      <path d="M82.63,70.46a30.52,30.52,0,0,1-1.42,3.08,2.42,2.42,0,0,1-1.23.82,5.27,5.27,0,0,0-1.42,1.06,19.42,19.42,0,0,0-1.66,1.2,5.24,5.24,0,0,1-.61.49c-.33.29-.23.41-.28.85s-.18.65-.21,1a9.55,9.55,0,0,1-.1,1.19c-.14.71,0,1.42-.13,2.11-.25,1.42-.64,2.83-.86,4.26a17.14,17.14,0,0,0-.22,2.86,12.42,12.42,0,0,1,0,2.66,10.11,10.11,0,0,0,.22,4.34,5.67,5.67,0,0,1-.12,2.21c-.15.8-.06,1.59-.25,2.39a11.16,11.16,0,0,0-.24,2.52c0,.67.17,1.28.21,2,0,.49.21.94.24,1.43a5.19,5.19,0,0,0,.1,1.12c.15.61.45,1.25.55,1.87" style="fill: #edf0f6"/>
      <path d="M82.42,70.33c-.3.64-.55,1.31-.84,2A3,3,0,0,1,80.32,74a6.19,6.19,0,0,0-1.41.82c-.56.47-1.13.85-1.71,1.27a6.84,6.84,0,0,0-1.2,1c-.31.37-.23.9-.34,1.34-.35,1.39-.15,2.87-.42,4.27s-.69,3-.88,4.52a18.13,18.13,0,0,0-.12,2.08,20.47,20.47,0,0,1,0,2.35,15.38,15.38,0,0,0-.23,2,12.94,12.94,0,0,0,.27,2.23,6.16,6.16,0,0,1,0,2.42c-.14.79-.11,1.59-.24,2.38a17.51,17.51,0,0,0-.29,2.16,15.92,15.92,0,0,0,.18,2.39c.08.81.2,1.62.3,2.44s.47,1.5.62,2.27c.06.31.54.18.48-.14-.14-.7-.47-1.35-.58-2.05-.06-.36,0-.72-.08-1.08s-.15-.69-.2-1a12.9,12.9,0,0,1-.06-4.25,17.78,17.78,0,0,0,.23-2.06c.06-.75.29-1.5.28-2.26a13.61,13.61,0,0,0-.3-1.88,9.05,9.05,0,0,1-.11-2.44,13.43,13.43,0,0,0,.21-2c0-.74-.06-1.48,0-2.23A27.49,27.49,0,0,1,75.47,84,31.62,31.62,0,0,0,76,79.64c0-.6.18-1.17.26-1.77a.89.89,0,0,1,.45-.77c.29-.21.52-.48.81-.68A18.2,18.2,0,0,0,79,75.32a12.58,12.58,0,0,1,1.82-1.1,3.22,3.22,0,0,0,1.07-1.49c.32-.71.59-1.44.92-2.15.13-.29-.3-.54-.43-.25Z" style="fill: #231f20"/>
    </g>
    <g>
      <path d="M48.73,55.93c-.72-.2-.86,1.08-.88,1.54,0,.76-.22,1.41-.22,2.19A10.75,10.75,0,0,0,48,62.31a5.89,5.89,0,0,0,.39,1.09c.23.52.24,1.05.42,1.55a7.77,7.77,0,0,0,.73,1.1c.28.44.45.92.77,1.34.67.84.81,1.91,1.43,2.74a5.06,5.06,0,0,1,.6,1.21,12.61,12.61,0,0,0,1.07,1.48,5.49,5.49,0,0,0,.87,1.39,5.46,5.46,0,0,0,1.38.87,7.42,7.42,0,0,0,1.25.43c.48.16.84.58,1.33.68a5,5,0,0,0,2.65-.51,8.1,8.1,0,0,0,2.32-1.79,13.08,13.08,0,0,0,1.19-1.06,13.64,13.64,0,0,0,1.5-2,5.3,5.3,0,0,0,.7-2.57c0-1,.16-1.76.21-2.7A10,10,0,0,1,67,64.52c.09-.49.14-1,.22-1.49s.28-1,.39-1.55.38-.89.51-1.37.07-1.08.19-1.54c.18-.72.64-.25,1.17-.2a4.54,4.54,0,0,0,1.71-.46,5.52,5.52,0,0,0,.67-.27c.23-.15.39-.47.64-.58A5.26,5.26,0,0,1,74.44,57c.55.12.77.63,1.26.88s1,.15,1.44.39c.18.1.26.32.43.41s.71.09.66.54" style="fill: #edf0f6"/>
      <path d="M48.8,55.69c-.58-.1-.9.3-1,.82A12.87,12.87,0,0,0,47.42,59a9.82,9.82,0,0,0,.27,3.28c.12.5.34.94.5,1.42a9.65,9.65,0,0,0,.46,1.59c.22.39.53.71.75,1.09s.63,1,.93,1.55a11.15,11.15,0,0,1,.6,1.32c.22.49.52.9.78,1.36a12.74,12.74,0,0,0,.65,1.34,11.16,11.16,0,0,1,.89,1.19A5.26,5.26,0,0,0,54,74.3a4.51,4.51,0,0,0,1.32.91,11,11,0,0,0,1.39.51c.48.16.86.54,1.35.69A4.25,4.25,0,0,0,60.69,76a7.56,7.56,0,0,0,2.43-1.73c.36-.35.77-.64,1.13-1a14.1,14.1,0,0,0,1.08-1.24,6.46,6.46,0,0,0,1.36-2.67A7.71,7.71,0,0,0,66.82,68c0-.63.12-1.26.17-1.89s.21-1.19.3-1.8a16.07,16.07,0,0,1,.32-1.84,12.52,12.52,0,0,1,.5-1.61,4.18,4.18,0,0,0,.35-1.39c0-.24,0-.92.3-1,.13,0,.44.14.59.17a2.64,2.64,0,0,0,1.24-.2A11.9,11.9,0,0,0,71.77,58c.45-.2.66-.68,1.17-.74a4.72,4.72,0,0,1,1.3,0c.54.09.77.53,1.19.8s1,.2,1.48.44c.22.11.32.31.53.44s.54.11.54.32.51.32.5,0a.6.6,0,0,0-.29-.57,1.85,1.85,0,0,0-.33-.12c-.24-.1-.34-.3-.54-.44a2.83,2.83,0,0,0-1.11-.31c-.52-.11-.77-.47-1.17-.76a2.82,2.82,0,0,0-1.81-.33,2.24,2.24,0,0,0-.82.13c-.41.18-.6.59-1,.75s-.67.26-1,.37A2.3,2.3,0,0,1,69,58c-.67-.16-.88.34-1,.93a6.27,6.27,0,0,1-.25,1.5A14.26,14.26,0,0,0,67.23,62c-.3,1.07-.44,2.17-.65,3.25a20.13,20.13,0,0,0-.27,3.2A5.44,5.44,0,0,1,65,71.63c-.32.4-.65.81-1,1.18s-.81.69-1.2,1.06a7.33,7.33,0,0,1-2.7,1.82,4.68,4.68,0,0,1-1.43.3c-.64,0-1-.37-1.54-.63s-1-.28-1.43-.49a4.4,4.4,0,0,1-1.48-1c-.33-.4-.49-.91-.78-1.33a14.14,14.14,0,0,1-.88-1.16c-.21-.39-.32-.82-.56-1.2a10.57,10.57,0,0,1-.8-1.48,7.24,7.24,0,0,0-.69-1.36c-.35-.49-.58-1-.92-1.54a3.85,3.85,0,0,1-.76-1.46c-.14-.6-.37-1.13-.56-1.72a9.11,9.11,0,0,1-.37-3.81c.05-.36.08-2.75.73-2.64.31,0,.45-.43.13-.48Z" style="fill: #231f20"/>
    </g>
    <path d="M39.71,147.75a.25.25,0,0,0,0-.5.25.25,0,0,0,0,.5Z" style="fill: #231f20"/>
    <g>
      <path d="M39.71,147.5c-.35.85-.17,1.14.44,1.72s1.11,1,1.65,1.45,1.34,1.65,2.22,1.89c.48.13,2-.1,2.07.67" style="fill: #edf0f6"/>
      <path d="M39.47,147.44a1.61,1.61,0,0,0-.13,1.12,2.42,2.42,0,0,0,.71.91c.76.71,1.57,1.34,2.28,2.1a3.15,3.15,0,0,0,1.91,1.27c.41,0,1.51-.1,1.61.45.06.32.54.19.48-.13-.12-.64-.87-.74-1.4-.78a7.19,7.19,0,0,1-.81,0,2.32,2.32,0,0,1-1-.7c-.32-.31-.6-.66-.91-1s-.77-.67-1.15-1a7.1,7.1,0,0,1-1-1,1,1,0,0,1,0-1.09c.11-.3-.37-.43-.48-.13Z" style="fill: #231f20"/>
    </g>
    <g>
      <path d="M40.81,153.89h-.14c.32-.06,1.23.57,1.51.76.72.52.91.74,1.71.35" style="fill: #edf0f6"/>
      <path d="M40.81,153.64h-.14l.06.49c-.06,0,0,0,0,0h0l.16.06c.15.06.28.14.42.21s.46.29.68.45a3,3,0,0,0,.9.54,1.52,1.52,0,0,0,1.06-.2c.3-.13,0-.57-.25-.43a.9.9,0,0,1-.81.1,6.9,6.9,0,0,1-.79-.54,7.54,7.54,0,0,0-.77-.47,1.32,1.32,0,0,0-.79-.22c-.29,0-.2.48.07.49h.14c.32,0,.32-.49,0-.5Z" style="fill: #231f20"/>
    </g>
    <g>
      <path d="M38.17,137.82c.47,1,1.52,1,2.41.71a4.89,4.89,0,0,1,2.43.39" style="fill: #edf0f6"/>
      <path d="M38,137.94a1.91,1.91,0,0,0,2,1,5.69,5.69,0,0,1,1.35-.18,14.89,14.89,0,0,1,1.62.44c.31.07.45-.41.13-.48-.48-.12-1-.32-1.44-.41a3.28,3.28,0,0,0-1.36.07,1.57,1.57,0,0,1-1.89-.65c-.15-.29-.58,0-.43.25Z" style="fill: #231f20"/>
    </g>
    <g>
      <path d="M65.68,157.63c.2-1,2.08-1.28,2.6-2.09a5.15,5.15,0,0,0,.59-1.66,4.87,4.87,0,0,1,.77-2.19" style="fill: #edf0f6"/>
      <path d="M65.92,157.7c.12-.53.7-.79,1.13-1a4,4,0,0,0,1.32-.85,4.48,4.48,0,0,0,.75-2,4.56,4.56,0,0,1,.7-2c.21-.24-.14-.59-.35-.35a4.27,4.27,0,0,0-.78,2,4.11,4.11,0,0,1-.75,2.05c-.73.74-2.23.84-2.5,2-.07.32.41.45.48.14Z" style="fill: #231f20"/>
    </g>
    <g>
      <path d="M62.16,158.51c-.32.68-.16.56.44.93a2.63,2.63,0,0,0,1.76.61" style="fill: #edf0f6"/>
      <path d="M61.94,158.38c-.1.24-.28.55-.14.81a1.24,1.24,0,0,0,.54.38c.3.17.58.38.9.53a2.15,2.15,0,0,0,1.12.2.25.25,0,0,0,.25-.25.25.25,0,0,0-.25-.25,1.72,1.72,0,0,1-.87-.13c-.28-.13-.53-.31-.79-.46l-.32-.18-.11-.06h0l0,0h0v0c0,.07,0,0,0,0s0,.05,0,0a1.44,1.44,0,0,1,.13-.31.28.28,0,0,0-.09-.35.27.27,0,0,0-.35.09Z" style="fill: #231f20"/>
    </g>
    <g>
      <path d="M39.49,182.06c0,.33.29.47.44.71s.23.57.38.84A4.18,4.18,0,0,0,41.46,185c.48.31,1.15.27,1.64.58s.62.92,1.11,1.21c.85.49,2.18-.11,3-.32a1.65,1.65,0,0,0,1.33-.89,1.26,1.26,0,0,1,.29-.42c.21-.17.59,0,.53-.45" style="fill: #edf0f6"/>
      <path d="M39.24,182.06a1,1,0,0,0,.27.61,3.24,3.24,0,0,1,.51.93,4.27,4.27,0,0,0,1.16,1.5c.54.42,1.25.33,1.8.69s.67,1.07,1.34,1.32a3,3,0,0,0,1.76,0,18,18,0,0,0,1.77-.52c.55-.21.72-.57,1-1s.78-.18.76-.82a.25.25,0,0,0-.5,0c0,.18-.18.11-.34.2a1,1,0,0,0-.35.37,1.59,1.59,0,0,1-1.07.89c-.88.24-2.41,1-3.21.27-.36-.33-.51-.81-.94-1.08s-1-.26-1.52-.51a3.06,3.06,0,0,1-1.13-1.26c-.14-.26-.22-.55-.36-.81s-.46-.48-.48-.72-.54-.32-.5,0Z" style="fill: #231f20"/>
    </g>
    <g>
      <path d="M60,184.49c.36-.11,1.13.51,1.49.61a14.82,14.82,0,0,0,1.6.5,6.36,6.36,0,0,0,1.41.19c.59-.06,1.1-.52,1.66-.65a5.28,5.28,0,0,0,1.49-.47c.68-.41.7-1.16,1.14-1.72a3.63,3.63,0,0,1,.68-.62,4.48,4.48,0,0,0,.48-.5c.3-.28,1.26-.23,1.06-.87" style="fill: #edf0f6"/>
      <path d="M60,184.73c.41-.06,1,.47,1.35.61a14.69,14.69,0,0,0,2.13.6,2.61,2.61,0,0,0,1.7-.12,5.75,5.75,0,0,1,1-.44,10.47,10.47,0,0,0,1.1-.29,2,2,0,0,0,1.17-1,8.34,8.34,0,0,1,.38-.8,3.94,3.94,0,0,1,.83-.8,2.6,2.6,0,0,1,.57-.53c.18-.09.38-.11.56-.2a.69.69,0,0,0,.41-.83c-.07-.32-.55-.18-.49.13s-.71.43-.92.58a4.37,4.37,0,0,0-.42.44c-.22.21-.48.36-.68.58a8.07,8.07,0,0,0-.78,1.37c-.39.63-1.12.72-1.78.88s-1,.53-1.58.64a4.62,4.62,0,0,1-2.07-.32,9.39,9.39,0,0,1-1.54-.63,1.71,1.71,0,0,0-1.06-.33c-.32,0-.18.53.14.49Z" style="fill: #231f20"/>
    </g>
    <g>
      <path d="M49.73,56a3.06,3.06,0,0,1-.45-.88c-.12-.27-.2-.59-.33-.89a5.91,5.91,0,0,1-.55-2.36V48.15c0-.15,0-.3,0-.44s-.12-.43-.14-.66a1,1,0,0,1-.89.52c-.42-.07-.72-.62-.92-.93a3.62,3.62,0,0,1-.38-.58,4.77,4.77,0,0,1-.06-.67A8.71,8.71,0,0,1,45.9,44a7.46,7.46,0,0,1-.08-2.21,1.55,1.55,0,0,1,.74-.89c.56-.29.72.1,1.16.41.27-.27.05-1.17.13-1.54.12-.65.24-1.3.4-1.95s.37-1.16.55-1.73a9.61,9.61,0,0,1,.45-.91,12.4,12.4,0,0,1,.58-1.29A9.71,9.71,0,0,1,50.5,33a4.41,4.41,0,0,1,.73-.93c.31-.25.62-.51,1-.74s.74-.34,1.07-.57.37-.5.57-.71a7.91,7.91,0,0,1,1.05-.74,2.69,2.69,0,0,1,1-.51A3.46,3.46,0,0,1,57,28.57a7.42,7.42,0,0,1,1.15.28A7.9,7.9,0,0,1,59,29a10.32,10.32,0,0,0,2.42.18c.63,0,1.24.16,1.86.15a9.76,9.76,0,0,1,2.09.3,4.18,4.18,0,0,1,.49,0,3.32,3.32,0,0,1,.51.23,1.89,1.89,0,0,1,.89.59c.19.23.42.41.58.65s.41.72.66,1.06c.45.58.94,1.12,1.37,1.71a17.94,17.94,0,0,1,1.07,1.86A10.86,10.86,0,0,1,72.05,39c.14.68.19,1.39.37,2.06a1.15,1.15,0,0,1,0,.91,5.72,5.72,0,0,0-.5,2.08,3,3,0,0,1-.11,1.15c-.07.2-.42.71-.11.85a4.75,4.75,0,0,0,.76-.5.8.8,0,0,1,.35-.28c.39,0,.5.56.59.81a4.85,4.85,0,0,1,.17,1,9.57,9.57,0,0,1,.2,1.41c0,1.76-1,3.12-2,4.53-.29.44-.34.6-.89.59-.37,0-.46-.16-.77-.31-.07-.14-.16-.17-.28-.1s-.29.36-.42.55a5.88,5.88,0,0,0-.5.92,17.46,17.46,0,0,1-1.23,1.85,11.67,11.67,0,0,1-1.24,1.63,5.61,5.61,0,0,1-1.3.76,4.66,4.66,0,0,1-1.13.47c-.86.23-1.77.14-2.62.4a25.94,25.94,0,0,1-2.76.56,6.38,6.38,0,0,1-1,0,5.62,5.62,0,0,0-1,.14,3.46,3.46,0,0,1-3.43-1.24,9.51,9.51,0,0,0-.95-1.15c-.37-.36-.77-.62-1.16-1s-.33-.51-.56-.78a7.13,7.13,0,0,0-.75-.58" style="fill: #edf0f6"/>
      <path d="M49.9,55.77a7.93,7.93,0,0,1-.81-1.89,6.6,6.6,0,0,1-.44-2.52A25.6,25.6,0,0,0,48.5,47c0-.23-.34-.21-.46-.06-.62.89-1.17-.11-1.53-.62a4.18,4.18,0,0,1-.36-2,19.69,19.69,0,0,1-.16-2c0-.4.32-1.11.81-1.17.29,0,.58.29.79.46s.27,0,.34-.09a2,2,0,0,0,.16-1.24,8.39,8.39,0,0,1,.35-2.1,10.83,10.83,0,0,1,.79-2.35,19.11,19.11,0,0,1,.94-1.93,8.28,8.28,0,0,1,1.47-1.75,6.11,6.11,0,0,1,.94-.66,6,6,0,0,0,.86-.47,6.56,6.56,0,0,0,.57-.71,5.4,5.4,0,0,1,.92-.64,4,4,0,0,1,2-.8,7.48,7.48,0,0,1,1.2.29l1.08.19a14.15,14.15,0,0,0,2.16.12c.79,0,1.61.1,2.4.17.39,0,.78.13,1.17.2a6.77,6.77,0,0,1,1.09.21c1.38.56,2,2,2.86,3.11a13.84,13.84,0,0,1,2.42,4.17,13.67,13.67,0,0,1,.59,2.45c.07.47.15.92.25,1.38a2.27,2.27,0,0,1-.2,1.38,5.89,5.89,0,0,0-.27,1.1,5.36,5.36,0,0,1-.13,1.55c-.14.35-.42.77,0,1.06a.26.26,0,0,0,.31,0,3.87,3.87,0,0,0,.61-.38c.2-.16.35-.41.57-.15s.27,1.1.34,1.54a5.72,5.72,0,0,1,.07,2.18,6.4,6.4,0,0,1-.69,1.67c-.28.5-.6,1-.91,1.45-.13.18-.24.42-.39.59a.74.74,0,0,1-1,0c-.22-.14-.35-.33-.64-.22s-.71.89-.88,1.22a23.76,23.76,0,0,1-2,3.07,5.42,5.42,0,0,1-3.26,2c-.62.12-1.25.11-1.87.23s-1.26.32-1.9.44a11.68,11.68,0,0,1-1.95.24c-.61,0-1.19.17-1.8.19a3.41,3.41,0,0,1-1.87-.45A5.94,5.94,0,0,1,53,58.41c-.47-.56-1.07-.92-1.59-1.43-.24-.23-.35-.53-.57-.78a7,7,0,0,0-.74-.58c-.25-.19-.61.16-.35.36a4.17,4.17,0,0,1,.82.69,4.6,4.6,0,0,0,.49.67,18.4,18.4,0,0,1,1.72,1.59A5.48,5.48,0,0,0,54,60.24a3.62,3.62,0,0,0,1.56.53,7.53,7.53,0,0,0,1.83-.13c.4,0,.81,0,1.22,0s.69-.12,1-.18c.72-.12,1.41-.29,2.12-.46s1.62-.13,2.41-.34a5.92,5.92,0,0,0,3.09-1.95c.39-.51.74-1.05,1.11-1.57s.8-1.36,1.23-2.05a2.14,2.14,0,0,1,.32-.5c.27-.22-.07-.09.15,0s.41.27.64.32a1.09,1.09,0,0,0,1.09-.28,11,11,0,0,0,.89-1.33,10.61,10.61,0,0,0,1-1.71A5,5,0,0,0,74,48.25,11.46,11.46,0,0,0,73.66,46c-.1-.35-.24-.85-.65-1a.55.55,0,0,0-.49.12,7.85,7.85,0,0,1-.93.67l.31,0c-.12-.09.21-.69.24-.83a4.7,4.7,0,0,0,0-1,4.7,4.7,0,0,1,.27-1.4,3.7,3.7,0,0,0,.32-1.06,3.86,3.86,0,0,0-.17-.82c-.11-.46-.16-.92-.24-1.38A12.63,12.63,0,0,0,71.78,37a14.25,14.25,0,0,0-2.29-4c-.23-.28-.47-.55-.69-.84S68.31,31.36,68,31a3.87,3.87,0,0,0-1.26-1.19A11.76,11.76,0,0,0,62.57,29a30.52,30.52,0,0,1-5-.58c-1.31-.36-2.6.43-3.63,1.18a3,3,0,0,0-.48.47,2.44,2.44,0,0,1-1,.81,5.71,5.71,0,0,0-1.74,1.3,13.52,13.52,0,0,0-2.35,4.27,22.89,22.89,0,0,0-.73,2.82,4.13,4.13,0,0,0-.11.86c0,.32.12.77-.08,1.05l.34-.09c-.29-.22-.56-.55-1-.54a1.5,1.5,0,0,0-1,.64,2,2,0,0,0-.35,1.38c0,.7.12,1.41.18,2.12a5.46,5.46,0,0,0,.17,1.46,5,5,0,0,0,.75,1.13,1.09,1.09,0,0,0,1.88-.13L48,47.12c.3,1.69,0,3.43.15,5.14a8.26,8.26,0,0,0,.61,2.17,6,6,0,0,0,.77,1.69c.2.26.55-.1.35-.35Z" style="fill: #231f20"/>
    </g>
    <g>
      <path d="M65.61,58.89c0,.19-.23.32-.29.51a2.86,2.86,0,0,0-.15,1c0,.61-.13,1.16-.14,1.76" style="fill: #edf0f6"/>
      <path d="M65.37,58.82a.79.79,0,0,1-.18.29,1.3,1.3,0,0,0-.15.34,3.82,3.82,0,0,0-.12.89c0,.6-.13,1.19-.14,1.79,0,.32.49.32.5,0,0-.58.14-1.15.14-1.73a2.85,2.85,0,0,1,.11-.82c.06-.23.26-.39.33-.62a.26.26,0,0,0-.49-.14Z" style="fill: #231f20"/>
    </g>
    <g>
      <path d="M50.46,56.54a4.16,4.16,0,0,0-.18.88c-.12.46-.19.91-.27,1.38a7.7,7.7,0,0,1-.3,1c-.08.23-.07.45-.13.68s-.2.36-.15.58" style="fill: #edf0f6"/>
      <path d="M50.24,56.41a6.73,6.73,0,0,0-.24,1.1c-.1.42-.16.85-.24,1.27s-.27.8-.34,1.21a3,3,0,0,1-.13.59,1.16,1.16,0,0,0-.11.52c0,.31.54.32.5,0a1,1,0,0,1,.12-.45,3.78,3.78,0,0,0,.1-.57c.09-.4.26-.77.34-1.17s.13-.76.21-1.14a3.89,3.89,0,0,0,.12-.55,1.8,1.8,0,0,1,.11-.56c.12-.29-.31-.54-.44-.25Z" style="fill: #231f20"/>
    </g>
    <g>
      <path d="M48.11,56.24a4.11,4.11,0,0,0,.94-.16c.27-.07.65-.35,1-.28" style="fill: #edf0f6"/>
      <path d="M48.11,56.49a4.2,4.2,0,0,0,1-.18l.43-.18a1,1,0,0,1,.21-.07l.05,0H50a.25.25,0,1,0,.14-.48,1.14,1.14,0,0,0-.55,0l-.26.11-.11.05s-.05,0,0,0h0a3.62,3.62,0,0,1-.47.13,2.16,2.16,0,0,1-.51.06c-.32,0-.33.51,0,.5Z" style="fill: #231f20"/>
    </g>
    <g>
      <path d="M67.67,57.27a.45.45,0,0,0-.28,0c.17.34.71,1.52,1.29,1.42l0-.12" style="fill: #edf0f6"/>
      <path d="M67.74,57a.64.64,0,0,0-.47.06c-.13,0-.14.23-.09.34a6.33,6.33,0,0,0,.36.68,2.27,2.27,0,0,0,.66.75.81.81,0,0,0,.55.11.26.26,0,0,0,.17-.18l0-.13a.25.25,0,0,0-.49-.13l0,.13.17-.18h-.09s0,0,0,0l-.08,0,0,0s0,0,0,0l0,0,0,0-.15-.16,0,0h0a.61.61,0,0,1-.07-.1L68,57.85c-.08-.12-.14-.24-.21-.36l-.15-.32-.09.35h0s.06,0,0,0h0a.25.25,0,1,0,.13-.48Z" style="fill: #231f20"/>
    </g>
    <g>
      <path d="M41.19,46.68c-.1-.79.66-1.19,1.11-1.69s.58-1.2,1.1-1.7" style="fill: #edf0f6"/>
      <path d="M41.44,46.68c-.07-.65.54-1,.94-1.41s.67-1.29,1.2-1.8c.23-.22-.13-.58-.36-.35-.56.54-.72,1.35-1.29,1.89s-1.07.92-1,1.67a.27.27,0,0,0,.25.25c.13,0,.27-.12.25-.25Z" style="fill: #231f20"/>
    </g>
    <g>
      <path d="M40.75,39.47c.27,0,.47.18.74.12s.33-.23.47-.41.27-.28.38-.44.19-.66.47-.91a10.71,10.71,0,0,1,1.17-.6,5.49,5.49,0,0,1,1.46-.44l0-.12" style="fill: #edf0f6"/>
      <path d="M40.68,39.71a2.2,2.2,0,0,0,.8.13.8.8,0,0,0,.52-.3c.15-.19.32-.37.47-.56a2,2,0,0,0,.3-.61c.19-.53.74-.6,1.18-.83a2.5,2.5,0,0,1,.73-.32A7.51,7.51,0,0,0,45.5,37a.24.24,0,0,0,.18-.17l0-.12c.06-.31-.42-.45-.48-.13l0,.12.17-.18a7,7,0,0,0-1.44.42,6.45,6.45,0,0,0-1.32.71,1.31,1.31,0,0,0-.32.56,1.66,1.66,0,0,1-.34.57,3.71,3.71,0,0,1-.39.48c-.21.16-.51,0-.74-.06s-.45.43-.14.48Z" style="fill: #231f20"/>
    </g>
    <g>
      <path d="M42.07,32.11a7.84,7.84,0,0,0,2-.59,3.88,3.88,0,0,1,.45-.14c.23,0,.38.12.58.12a1.58,1.58,0,0,0,1-.42" style="fill: #edf0f6"/>
      <path d="M42.07,32.36a7.14,7.14,0,0,0,2.06-.59,1.39,1.39,0,0,1,.48-.14,4.21,4.21,0,0,0,.51.12,1.85,1.85,0,0,0,1.05-.45c.26-.19,0-.62-.25-.43s-.59.46-.94.36a1.2,1.2,0,0,0-.5-.09,3,3,0,0,0-.49.14,6.46,6.46,0,0,1-1.92.58c-.32,0-.32.51,0,.5Z" style="fill: #231f20"/>
    </g>
    <g>
      <path d="M46.05,25.79a2.76,2.76,0,0,0,1.08-.23l.49-.06a3.79,3.79,0,0,1,.64-.17c.28,0,.63.37.88.5a3.77,3.77,0,0,0,1.17.4" style="fill: #edf0f6"/>
      <path d="M46,26a2.73,2.73,0,0,0,1.13-.2c.2-.06.4-.06.6-.1s.33-.13.49-.15a.63.63,0,0,1,.38.17c.15.1.28.21.43.29a3.89,3.89,0,0,0,1.24.43c.31.05.45-.43.13-.48a3.34,3.34,0,0,1-1.18-.42c-.29-.17-.56-.47-.92-.49a1.23,1.23,0,0,0-.46.1,3.15,3.15,0,0,1-.55.11,2,2,0,0,0-.54.14,1.46,1.46,0,0,1-.62.12c-.31-.06-.45.43-.13.48Z" style="fill: #231f20"/>
    </g>
    <g>
      <path d="M54,21.81a3.53,3.53,0,0,1,.47,1.07c.3.67.81.6,1.37.93s.44.7.37,1.16c0,.19-.36.77,0,.82" style="fill: #edf0f6"/>
      <path d="M53.81,22a1.73,1.73,0,0,1,.31.69,2,2,0,0,0,.35.68c.3.35.76.42,1.15.63a.84.84,0,0,1,.29,1.08c-.11.32-.27.86.22,1,.32.06.45-.42.14-.48-.11,0,0,0,0,0s0-.05,0-.07a2.67,2.67,0,0,0,.09-.26,1.84,1.84,0,0,0,.1-.52,1.2,1.2,0,0,0-.6-1.19c-.35-.18-.82-.24-1.07-.56a2.32,2.32,0,0,1-.28-.67,1.72,1.72,0,0,0-.36-.68c-.22-.24-.57.11-.36.35Z" style="fill: #231f20"/>
    </g>
    <g>
      <path d="M63.85,26.37a2.85,2.85,0,0,1-.29-1.18,8,8,0,0,0-.29-1c-.09-.51.2-.63.58-.88s1.05-.61,1-1" style="fill: #edf0f6"/>
      <path d="M64.07,26.25a2.78,2.78,0,0,1-.22-.69c-.05-.23,0-.48-.1-.71s-.43-.79-.08-1.07.56-.35.82-.54.63-.46.64-.84a.25.25,0,0,0-.5,0c0,.1-.18.24-.26.31a4.73,4.73,0,0,1-.46.32,2.2,2.2,0,0,0-.82.66c-.23.45.06.9.18,1.32.07.24.06.5.11.74a3.89,3.89,0,0,0,.25.75.26.26,0,0,0,.35.09.27.27,0,0,0,.09-.34Z" style="fill: #231f20"/>
    </g>
    <g>
      <path d="M68.12,26.82a4.23,4.23,0,0,1,2.08-1.65A11.69,11.69,0,0,1,73,23.87" style="fill: #edf0f6"/>
      <path d="M68.33,26.94a4.42,4.42,0,0,1,2.1-1.61A11.08,11.08,0,0,1,73,24.11c.31-.05.18-.54-.14-.48a12.41,12.41,0,0,0-2.79,1.3,4.68,4.68,0,0,0-2.21,1.76.25.25,0,0,0,.43.25Z" style="fill: #231f20"/>
    </g>
    <g>
      <path d="M71.5,31.23c.74-.75,1.91-2.06,3.09-1.29a1.27,1.27,0,0,1,.47.58,1.71,1.71,0,0,0,.56.71c.4.31.7.59,1.18.29" style="fill: #edf0f6"/>
      <path d="M71.68,31.41c.65-.67,1.75-1.95,2.78-1.26a1.61,1.61,0,0,1,.46.64,1.92,1.92,0,0,0,.46.56c.47.4.94.72,1.54.39a.25.25,0,0,0-.25-.43c-.34.18-.57,0-.84-.23a1.87,1.87,0,0,1-.51-.61,1.66,1.66,0,0,0-1.23-1c-1.14-.19-2,.85-2.77,1.57-.22.23.13.59.36.36Z" style="fill: #231f20"/>
    </g>
    <g>
      <path d="M75,36.38a7.11,7.11,0,0,0,1.59.78,12.28,12.28,0,0,1,1.2.28,5.23,5.23,0,0,0,1.06.29c.25.05,1.05.23,1,.56" style="fill: #edf0f6"/>
      <path d="M74.9,36.6a10.39,10.39,0,0,0,1.28.67c.5.2,1,.22,1.53.4A11.53,11.53,0,0,0,79,38c.11,0,.68.15.68.29,0,.32.48.32.5,0,0-.74-1.32-.8-1.8-.94-.27-.07-.52-.19-.79-.25s-.58-.1-.87-.18a6.75,6.75,0,0,1-1.52-.76.26.26,0,0,0-.26.44Z" style="fill: #231f20"/>
    </g>
    <g>
      <path d="M76.35,42.26a1.17,1.17,0,0,0,.32.88,14.28,14.28,0,0,0,1.08,1.12c.31.26.67.36,1,.65s.26.34.44.42.31,0,.44.17" style="fill: #edf0f6"/>
      <path d="M76.1,42.26a1.54,1.54,0,0,0,.41,1.07,11.92,11.92,0,0,0,1,1,2.85,2.85,0,0,0,.53.38,2.26,2.26,0,0,1,.52.35,2.27,2.27,0,0,0,.41.41.73.73,0,0,0,.29.11c.08,0,.12,0,.17.07.22.24.57-.11.36-.36a.74.74,0,0,0-.47-.2c-.15,0-.25-.21-.35-.32a5.53,5.53,0,0,0-1-.68,7.67,7.67,0,0,1-.94-.95,2,2,0,0,1-.33-.43,1,1,0,0,1-.1-.48c0-.32-.49-.32-.5,0Z" style="fill: #231f20"/>
    </g>
    <g>
      <path d="M76.65,49.91a2,2,0,0,1,.74,1.22c0,.31-.11.7,0,1s.78.3,1.13.3a1.51,1.51,0,0,1,.9.29" style="fill: #edf0f6"/>
      <path d="M76.47,50.09a2,2,0,0,1,.66,1c.09.45-.17.93.15,1.33a1.14,1.14,0,0,0,1,.29,1.74,1.74,0,0,1,.51,0,2,2,0,0,1,.52.24c.28.14.54-.29.25-.44a4.23,4.23,0,0,0-.57-.27,1.56,1.56,0,0,0-.57,0,2.69,2.69,0,0,1-.49,0,.34.34,0,0,1-.3-.14,1.15,1.15,0,0,1,0-.61,1.64,1.64,0,0,0-.07-.66,2.72,2.72,0,0,0-.74-1c-.23-.23-.59.13-.36.35Z" style="fill: #231f20"/>
    </g>
  </g>
</svg>
