<svg id="Sketch" xmlns="http://www.w3.org/2000/svg" width="100mm" height="100mm" viewBox="0 0 283.46 283.46">
  <title>Artboard 19 copy-left</title>
  <g>
    <g>
      <path d="M30.58,230c-.74.14.39.51,0,0a15.68,15.68,0,0,1-1.5-2.38,4,4,0,0,1-.46-2.23,2.37,2.37,0,0,1,.29-1,5.55,5.55,0,0,0,.33-1.32,12.56,12.56,0,0,1,1.14-2.47A12.24,12.24,0,0,1,32.12,218a60.89,60.89,0,0,1,4.6-4.63c.81-.8,1.15-1.06,1.12-2.24,0-.82-.77-1.73-.52-2.5.18-.57.84-.91,1-1.46s-.15-.95-.36-1.48a7.87,7.87,0,0,1-.44-2.78,29.4,29.4,0,0,0-.06-5.71c-.15-.76-.24-1.51-.44-2.23a6.68,6.68,0,0,1-.05-1.61c0-.67-.24-1.26-.3-1.91-.08-.87,0-1.82,0-2.7A11.63,11.63,0,0,1,37,187.1a6.69,6.69,0,0,0-.34-2.33,3.85,3.85,0,0,1-.21-1.25,3.26,3.26,0,0,0,0-1.08c-.2-.64-.85-1.12-1-1.78a5.63,5.63,0,0,1,0-1.59,15,15,0,0,0-.84-5.46c-.42-1.13-1.11-2.16-1.47-3.3-.19-.63-.24-1.31-.48-1.92a5.79,5.79,0,0,1-.57-2.45c0-1.09,0-2.19,0-3.28A11.52,11.52,0,0,0,32,161a14.55,14.55,0,0,0-.87-2.14,25.71,25.71,0,0,1-.76-3.26c-.1-.47-.23-.93-.32-1.4s0-1.11-.36-1.65c-.56-.81-1.57-.55-2.46-.55a3.74,3.74,0,0,1-3.08-1.12,2.55,2.55,0,0,1-.67-2.8c.6-1.24,1.66-2.2,2.23-3.5,1.73-4,3.6-8.16,4.38-12.41a26.89,26.89,0,0,0,.2-4.31,34.78,34.78,0,0,1,.64-4.53c.26-1.62.52-3.27.74-4.89a30.4,30.4,0,0,0,0-3.82,27.44,27.44,0,0,0-.78-5.69,11.36,11.36,0,0,0-1.22-3.73c-.4.12-.83.46-1.25.45-.65,0-.71-.84-1.21-1.07s-1.08,0-1.53,0c-.68-.09-1.37-.17-2-.27s-1-.45-1.59-.55a14.55,14.55,0,0,1-1.62-.34c-1.3-.38-2.44-1-3.7-1.44a34.2,34.2,0,0,1-5.44-2.4,5,5,0,0,1-2.39-2.72A20.31,20.31,0,0,1,7.7,92.67C7.41,91,6.8,89.32,6.51,87.6a38.35,38.35,0,0,0-1.75-6.84,23.91,23.91,0,0,1-.82-4.16,33.63,33.63,0,0,1-.71-6.08c0-1.16,0-2.32,0-3.48A5.18,5.18,0,0,1,4,64.91a6.83,6.83,0,0,0,.33-2.7,19.33,19.33,0,0,0-.14-3.65,15.77,15.77,0,0,1-.14-2.84,2.81,2.81,0,0,1,1.56-2.91,21.61,21.61,0,0,1,2.65-.87C9,51.67,10,50.3,10.77,50.38s1,.83,1.8.74c.56-.06.81-.34,1.29.16a2.7,2.7,0,0,1,.54,1.84,19.8,19.8,0,0,1-1.54,7.74C12,63,10.1,65.05,10.2,67.44A27.6,27.6,0,0,0,11,71.07c.23,1.19.57,2.36.79,3.56s.18,2.16.4,3.21c.3,1.41.15,2.81.55,4.22a12.64,12.64,0,0,1,.5,2.43c.06.8.44,1.43.56,2.2a25.09,25.09,0,0,0,.62,2.86,4.57,4.57,0,0,0,.48,1.31c.42.57,1.59.7,2.29.86a20.87,20.87,0,0,0,2.34.54,12.06,12.06,0,0,1,1.69.15c1.45.36,3,.49,4.41,1a6.11,6.11,0,0,0,1.74.52c.69,0,1.08-.54,1.61-.88a5.26,5.26,0,0,0,1.3-.89c.29-.33.43-.8.71-1.13,1.08-1.34,2.83-2.5,4.57-2.24.91.13,1.66.17,2.1,1.06a12.37,12.37,0,0,0,.83,1.62,1.63,1.63,0,0,0,1.68.84l2,0c1.2,0,2.4.24,3.6.29a5.88,5.88,0,0,1-1.32-.3,12,12,0,0,0-1.47,0A10.06,10.06,0,0,1,41.54,92c-.74-.13-1.25,0-1.87-.57a6,6,0,0,1-1.4-2.9c-.26-.76-.42-1.23-1.27-1.3-.59,0-1.38.45-1.9.3-.8-.24-.82-1.3-.71-1.94a7.54,7.54,0,0,1,1.19-2.43c.52-1-.2-2.4-.15-3.48a21.68,21.68,0,0,1,.85-4.3,11.2,11.2,0,0,0,.18-2.09A25.27,25.27,0,0,1,37,69.72a12.56,12.56,0,0,1,.85-2.6,5.13,5.13,0,0,0,.51-1c.22-.89,0-1.36.41-2.3a9.47,9.47,0,0,1,2-3.18c.54-.46,1.22-.59,1.76-1s.64-1.31,1.11-1.84a11.23,11.23,0,0,1,3-2,4.08,4.08,0,0,1,1.83-.39c.87-.1,1.64-.44,2.53-.46a19.94,19.94,0,0,1,4.48.72c1.47.31,3.08,1,4.59.8,2.19-.27,4-.74,6.16-.18a49.51,49.51,0,0,1,6.14,1.75c2.14.86,4.59,2.76,4.75,5.28a11.47,11.47,0,0,1-.27,2.32,4.76,4.76,0,0,0-.19,1.43,7.53,7.53,0,0,0,.76,1.17c.29.52.68,1.16.93,1.71.53,1.18.07,2.57-.13,3.78a1.42,1.42,0,0,0,.14,1.15,10.37,10.37,0,0,1,.89,3.38,11,11,0,0,1,0,3.44,15,15,0,0,0-.38,2.11,8.54,8.54,0,0,1-.09,2.37A9,9,0,0,1,77.58,88a5.48,5.48,0,0,0-.88,2,1.5,1.5,0,0,1-.26.75c-.22.25-.75.24-.9.47s0,.3,0,.48A4.71,4.71,0,0,1,75.09,93c-.24.5-.36,1.32-.91,1.57a6.39,6.39,0,0,0,2.39,1.76,5.18,5.18,0,0,1,1.87,2c.89,1.61.88,4.09.68,5.89-.09.76-.51,1.36-.55,2.12s0,1.65,0,2.46c0,1.52-.1,3.07,0,4.58a15.7,15.7,0,0,1,.31,2c-.07,1-.31,1.9-.3,2.93q0,2.44,0,4.89a12.11,12.11,0,0,0,.25,2.25c.22,1.31.18,2.71.37,4,.24,1.72.48,3.47.84,5.17.3,1.36.38,2.77.77,4.09a40.62,40.62,0,0,1,1,6.76,51.13,51.13,0,0,1,.37,5.92c0,2.08-.35,4.14-.3,6.21a19.45,19.45,0,0,1-.31,2.75c-.13,1-.18,2.07-.39,3.06-.33,1.61,0,3.35-.74,4.91-.25.56-1,.9-1.48,1.22a2.56,2.56,0,0,0-1,.85c-.22.34-.23.62-.6.88a16.07,16.07,0,0,1-1.71.86,8.09,8.09,0,0,1-4.07,1.09c-.86,0-1.29-.41-.78-1.18.72-1.08,1.38-1.45,1.33-2.75,0-.71,0-1.42,0-2.13,0-1.23-.41-2.15,0-3.38a12.17,12.17,0,0,1,1.26-2.68A18.1,18.1,0,0,0,75,158.83c.88-1.9.5-4.13.21-6.12-.49-3.31-1.42-6.58-2.12-9.86-.32-1.48-.42-3.84-1.48-5,0,1.7,0,3.39,0,5.09s.43,3.53.57,5.29c.07.83.28,1.63.29,2.46a24.29,24.29,0,0,0,0,3.72c.54,3,.38,6.17-1.46,8.65-1.12,1.51-.89,3.79-.61,5.58.41,2.63-.87,5.29-1.13,7.88A46.17,46.17,0,0,1,68,183.12a18.12,18.12,0,0,0-.62,4.63c0,2.45.15,5,0,7.42-.09,1.22-.26,2.39-.26,3.62,0,1.41.2,2.68.3,4.06a25.66,25.66,0,0,1-.31,3c0,1.18,0,2.37,0,3.54a25.72,25.72,0,0,0,0,2.91c.13,1.12,1.12,1.85,1.86,2.6a20.5,20.5,0,0,0,2.91,2.33,7.23,7.23,0,0,1,2.25,1.83,19.92,19.92,0,0,1,2,4.81,8.85,8.85,0,0,1,.55,2.45c0,.67-.86,1.32-1.2,1.65a25.2,25.2,0,0,1-2.38,2.12,5.49,5.49,0,0,1-3.48,1.14,7.22,7.22,0,0,1-3,0c-1.27-.51-2.7-2.34-3.37-3.42-.89-1.45-1.45-3-2.37-4.44a27.77,27.77,0,0,1-2-4.34,36.73,36.73,0,0,1-1.75-4.5,13.3,13.3,0,0,1-.35-3.61A32.89,32.89,0,0,0,55.75,203c-.19-.87-.46-1.76-.58-2.65a24.3,24.3,0,0,1,.2-4.59c.08-1.53-.14-3-.2-4.57a30.14,30.14,0,0,0-.19-3.68,32.31,32.31,0,0,1-.68-5.88,26.32,26.32,0,0,0-.42-4.6,25,25,0,0,0-1.2-4.65c-.13-.38-1-3.55-1.34-3.4a22.52,22.52,0,0,1-.18,5.62,60.54,60.54,0,0,0-.21,7.74c0,2.67.08,5.35,0,8a50.75,50.75,0,0,1-.32,5.08c-.16,1.24-.41,2.46-.47,3.72-.1,2.29-.32,4.55-.3,6.86a15.25,15.25,0,0,0,.14,3.17c.58,2.69-2.17,3.93-2.94,6.26a14.7,14.7,0,0,1-.66,2c-.4.73-.91,1.41-1.32,2.15a55,55,0,0,0-3.33,6.87q-.69,1.82-1.44,3.6a4.16,4.16,0,0,1-2.09,2.26,6,6,0,0,1-6-.18A5.67,5.67,0,0,1,30.58,230c-.38-.63-.12.81,0,0Z" style="fill: #edf0f6"/>
      <path d="M30.52,229.76c-1,.28.08,1.11.36.56s-.76-1.38-1-1.72c-.79-1.27-1.38-2.6-.79-4.06a8.24,8.24,0,0,0,.36-1.38,8.49,8.49,0,0,1,.84-1.87,18.52,18.52,0,0,1,2.18-3.35c1.54-1.82,3.55-3.21,5-5.05a2.39,2.39,0,0,0,.54-1.74,5.25,5.25,0,0,0-.38-1.34,1.57,1.57,0,0,1-.09-1.24,5.42,5.42,0,0,1,.7-.82,1.51,1.51,0,0,0,.13-1.68,8.75,8.75,0,0,1-.63-3.76c0-1.18.14-2.37.09-3.55a23.88,23.88,0,0,0-.57-3.68c-.13-.69,0-1.34-.11-2s-.25-1.26-.29-1.91a22,22,0,0,1,.29-4,7.88,7.88,0,0,0-.41-2.72c-.23-1,0-1.91-.57-2.81a3,3,0,0,1-.7-1.93c0-.66,0-1.31,0-2a14.5,14.5,0,0,0-.6-3.58,26.1,26.1,0,0,0-1.26-2.86,36.28,36.28,0,0,1-1.21-3.79,12.49,12.49,0,0,1-.25-3.86,9.94,9.94,0,0,0-.14-3.27c-.14-.39-.36-.74-.53-1.11a11.12,11.12,0,0,1-.62-2.09c-.29-1.27-.53-2.54-.72-3.83-.34-2.26-2.55-1.38-4.15-1.68a3.16,3.16,0,0,1-2.48-2.3c-.29-1.36,1.07-2.58,1.75-3.62a19.54,19.54,0,0,0,1.52-3.2c.53-1.22,1-2.45,1.51-3.68a27,27,0,0,0,2.14-8.35,43.2,43.2,0,0,1,.24-4.69c.23-1.51.52-3,.75-4.53a32.14,32.14,0,0,0,.36-8.37,39.58,39.58,0,0,0-.7-4.06,13,13,0,0,0-1.25-3.8.24.24,0,0,0-.28-.11c-.17.06-.38.19-.55.23a1.47,1.47,0,0,1-1-.07,1.81,1.81,0,0,1-.19-.29,1.25,1.25,0,0,0-.66-.52,4.76,4.76,0,0,0-1.36,0,10.92,10.92,0,0,1-2.36-.33c-.58-.17-1.06-.43-1.65-.55a13.13,13.13,0,0,1-2.23-.61c-1.29-.49-2.56-1-3.84-1.5-2.29-.86-5.33-1.88-6.43-4.25S7.72,91.66,7.06,89c-.35-1.4-.54-2.84-.87-4.25S5.45,82,5,80.69a25.84,25.84,0,0,1-.79-4c-.25-1.49-.53-3-.66-4.48s0-2.87-.06-4.31a4.5,4.5,0,0,1,.41-2.2,5.6,5.6,0,0,0,.6-1.61c.47-2.62-.17-5.28-.18-7.9,0-1.23.07-2.32,1.21-3,1-.6,2.14-.57,3.1-1.12.8-.46,1.57-1.76,2.58-1.23a4.77,4.77,0,0,0,.87.52c.45.12.86-.1,1.29,0,1.28.43.78,3.23.64,4.27a20.29,20.29,0,0,1-.95,3.93,20.27,20.27,0,0,1-1.61,3.51,11.58,11.58,0,0,0-1.35,3,6.13,6.13,0,0,0,.17,3.15c.37,1.29.66,2.59,1,3.9.64,2.71.68,5.5,1.13,8.24.1.63.31,1.24.45,1.86s.16,1.31.32,1.95.35,1.07.46,1.63.25,1.38.41,2.07A4.7,4.7,0,0,0,15,91.22a6.46,6.46,0,0,0,2.71.87c2.7.69,5.57.66,8.22,1.65.95.35,1.73.64,2.62,0a8.48,8.48,0,0,0,2.19-1.7,6.74,6.74,0,0,1,2.86-2.71c1-.45,3-.66,3.8.4.58.79.72,2,1.6,2.53s2,.27,2.8.26c1.38,0,2.73.21,4.11.28v-.5c-.47,0-.86-.24-1.32-.3s-1,0-1.47,0a12.13,12.13,0,0,1-1.46-.28,3.34,3.34,0,0,1-1.76-.51,4.94,4.94,0,0,1-1.25-2.52,2.94,2.94,0,0,0-.73-1.45,1.86,1.86,0,0,0-1.66-.17c-.65.16-1.26.45-1.56-.47a2.53,2.53,0,0,1,.13-1.56c.28-.75.9-1.33,1.14-2.1a5.33,5.33,0,0,0-.16-2.44c-.37-2.18.82-4.2.92-6.35a20.11,20.11,0,0,1,1.11-6.29,8.87,8.87,0,0,0,.9-2.3,7.73,7.73,0,0,1,.15-1.26,10.17,10.17,0,0,1,.71-1.58,4.83,4.83,0,0,1,2-2.27A3.23,3.23,0,0,0,43.28,59,4.42,4.42,0,0,1,45,57a7.21,7.21,0,0,1,2.86-1.27c.94-.09,1.85-.38,2.79-.47a11.92,11.92,0,0,1,3.75.47c1.81.41,3.73,1.2,5.61,1,1.08-.11,2.15-.34,3.24-.41a11.24,11.24,0,0,1,3.51.39c3.44.85,8.93,1.78,9.94,5.93a6.81,6.81,0,0,1-.15,2.94,3.37,3.37,0,0,0-.15,1.66,13.22,13.22,0,0,0,1.15,1.85,4.6,4.6,0,0,1,.59,3.43A4.55,4.55,0,0,0,78,74.77a19.18,19.18,0,0,1,.9,3,12.34,12.34,0,0,1,.1,3.93,14.46,14.46,0,0,0-.36,3.07,3.15,3.15,0,0,1-.31,1.81c-.26.47-.67.85-1,1.3a5.71,5.71,0,0,0-.58,1c-.23.56-.26,1.5-.78,1.85s-.69.23-.78.94-.55,2.3-1.18,2.67a.27.27,0,0,0,0,.4,5.91,5.91,0,0,0,1.83,1.46,5.55,5.55,0,0,1,2.45,2.32,9.58,9.58,0,0,1,.58,5.63,23,23,0,0,0-.56,2.49c0,1.17,0,2.35,0,3.52a30.47,30.47,0,0,0,0,3.17,7.9,7.9,0,0,0,.2,1.08,6,6,0,0,1,0,2.19,48.08,48.08,0,0,0-.15,6.24,18.16,18.16,0,0,0,.26,2.66c.18,1.21.17,2.44.31,3.65.24,2.09.66,4.13,1,6.2.17,1,.27,2,.51,3a33.61,33.61,0,0,1,.72,3.31c.34,2.3.59,4.65.73,7a49.85,49.85,0,0,1-.13,6.58c-.07,1,0,2.07-.1,3.11s-.31,2.28-.44,3.42c-.1,1-.32,1.94-.4,2.92a10.56,10.56,0,0,1-.44,3.32c-.39.93-1.32,1.15-2,1.71s-.78,1.24-1.51,1.65a16,16,0,0,1-2.73,1.25,7.43,7.43,0,0,1-1.55.36c-.63.07-1.92.25-1.4-.88.28-.62.88-1,1.12-1.68a8.29,8.29,0,0,0,.17-2.68c0-1-.26-2-.2-3a7.41,7.41,0,0,1,1.25-3.27,22.34,22.34,0,0,0,1.77-2.66,6.94,6.94,0,0,0,.52-2.7,31.2,31.2,0,0,0-1-6.72c-.5-2.35-1.18-4.67-1.6-7-.29-1.58-.36-3.38-1.46-4.65a.25.25,0,0,0-.43.17c0,1.64,0,3.27,0,4.9s.33,3.18.51,4.77a30.3,30.3,0,0,1,.33,4.25,29.52,29.52,0,0,0,.28,4.1A12.15,12.15,0,0,1,72.2,160a8,8,0,0,1-.75,1.95c-.31.58-.75,1.09-1,1.69-1.08,2.38.09,5-.27,7.47-.21,1.44-.66,2.83-.93,4.26s-.38,2.94-.67,4.4c-.59,2.92-1.43,5.65-1.38,8.66,0,1.6.08,3.19,0,4.78s-.21,3-.3,4.56a30.1,30.1,0,0,0,.23,4.55c.12,1.44-.27,2.82-.29,4.26,0,1.59,0,3.19,0,4.78a3.62,3.62,0,0,0,.9,2.67,19.53,19.53,0,0,0,2.77,2.53c1,.79,2.45,1.41,3.27,2.45a13.06,13.06,0,0,1,1.85,4.09c.31.94,1.13,2.62.68,3.58a5.06,5.06,0,0,1-1.22,1.35c-.54.52-1.09,1-1.67,1.51A6.33,6.33,0,0,1,69.47,231c-1.46.12-2.67.3-3.86-.73a11.48,11.48,0,0,1-2.25-2.75c-.78-1.3-1.33-2.71-2.1-4a29.22,29.22,0,0,1-1.93-4.13c-.54-1.35-1.17-2.65-1.64-4a14,14,0,0,1-.63-4.64,37.1,37.1,0,0,0-1.26-8.64,13.92,13.92,0,0,1-.3-4.94,26.91,26.91,0,0,0,0-4.75c-.11-1.52,0-3.06-.21-4.57s-.55-3.09-.68-4.65,0-3-.23-4.54a31,31,0,0,0-.74-4A39,39,0,0,0,52,169.54c-.11-.26-.29-.83-.66-.8-.13,0-.27.11-.25.25.28,2.73-.28,5.36-.38,8.07s0,5.51,0,8.26,0,5.41-.16,8.11c-.09,1.34-.3,2.66-.49,4s-.23,2.78-.31,4.17a34.78,34.78,0,0,0,0,7.7c.35,2.16-1.42,3.38-2.43,5a12.62,12.62,0,0,0-.93,2.56,28.9,28.9,0,0,1-2,3.53,62.31,62.31,0,0,0-3.25,7c-.51,1.28-.91,2.91-1.9,3.9a5.42,5.42,0,0,1-3.6,1.48,4.92,4.92,0,0,1-3.78-1.31c-.45-.49-.62-1.14-1-1.65-.12-.14-.19-.28-.39-.28a.27.27,0,0,0-.22.12.63.63,0,0,0,.17.76.25.25,0,0,0,.25,0,.53.53,0,0,0,.21-.4c.07-.32-.42-.45-.48-.14s.35.07.29,0-.19.3-.19.3.15.27.2.35a7.15,7.15,0,0,0,.76,1.2,4.64,4.64,0,0,0,2.5,1.38,6.2,6.2,0,0,0,5.58-1.38,6.83,6.83,0,0,0,1.45-2.57c.58-1.41,1.1-2.85,1.72-4.25s1.22-2.6,1.9-3.87,1.44-2.28,2-3.47c.52-1,.59-2.17,1.21-3.15.5-.79,1.16-1.46,1.69-2.23a4.16,4.16,0,0,0,.82-2.32c0-.59-.18-1.18-.22-1.77-.05-.76,0-1.53,0-2.3,0-5.78,1.06-11.45,1.13-17.23,0-3.27,0-6.53,0-9.8s.75-6.55.41-9.84l-.25.25c.24,0,1.3,3.79,1.46,4.29a27.63,27.63,0,0,1,1,4.38c.24,1.66.22,3.29.32,5a42.7,42.7,0,0,0,.6,4.38c.26,1.66.18,3.34.3,5a27.88,27.88,0,0,1,0,4.92,13.33,13.33,0,0,0,.15,4.41,42,42,0,0,1,1.41,9.51,13.34,13.34,0,0,0,.54,4.12c.47,1.44,1.12,2.79,1.69,4.18a81.53,81.53,0,0,0,3.8,7.81c.91,1.66,2.46,4.07,4.49,4.41a12.31,12.31,0,0,0,3.42-.18,5.87,5.87,0,0,0,3-1.32,19.43,19.43,0,0,0,2.93-2.73,2.36,2.36,0,0,0,.28-2.33,31.93,31.93,0,0,0-1.2-3.7,7.78,7.78,0,0,0-1.85-3.15c-1-.84-2.12-1.43-3.12-2.22a11.47,11.47,0,0,1-2.89-2.84,4.06,4.06,0,0,1-.32-2.26c0-.84.06-1.68,0-2.52a31.55,31.55,0,0,1,.27-4.45,31.05,31.05,0,0,0-.25-4.61c-.05-1.5.18-3,.27-4.49.19-3.32-.34-6.71.25-10,.27-1.55.72-3.05,1-4.59s.45-2.93.69-4.4.72-2.93,1-4.41a14,14,0,0,0-.08-3.83,6.61,6.61,0,0,1,.58-4.16A12,12,0,0,0,72.72,160c.63-2.67-.14-5.22,0-7.89.1-3.08-.73-6.09-.83-9.15,0-1.7,0-3.39,0-5.09l-.42.18c1.17,1.36,1.12,3.52,1.48,5.2.49,2.27,1.09,4.51,1.56,6.78a24.48,24.48,0,0,1,.79,6.7c-.2,2.42-2.11,4-3,6.12-.78,1.87-.31,3.76-.32,5.74a4.23,4.23,0,0,1-.17,1.77,5.68,5.68,0,0,1-.63.91c-.32.41-.89,1-.7,1.59.4,1.24,3,.47,3.82.2s1.55-.7,2.33-1a4.4,4.4,0,0,0,1-.56,3.3,3.3,0,0,0,.64-.92c.47-.71,1.38-.93,2-1.47a3.46,3.46,0,0,0,.93-2.17c.16-1,.11-2.07.27-3.1s.3-2.26.45-3.4c.29-2.3.36-4.6.52-6.92a40.34,40.34,0,0,0-.17-6.95,55.83,55.83,0,0,0-.88-6.7c-.48-2.2-.92-4.4-1.32-6.62-.43-2.37-.59-4.74-.85-7.12a29.77,29.77,0,0,1-.34-3.26c0-1.22,0-2.45,0-3.67s.27-2.53.3-3.8a5.9,5.9,0,0,0-.2-1.38,10.16,10.16,0,0,1-.15-2.06c0-1.41.06-2.82,0-4.23a7.48,7.48,0,0,1,.09-1.89c.13-.54.38-1,.46-1.58a10.85,10.85,0,0,0-.48-5.62,5.55,5.55,0,0,0-1.69-2.18c-1-.73-2-1.06-2.83-2l0,.39c.61-.36.74-1,1-1.65a8.79,8.79,0,0,0,.34-.9c.09-.3,0-.73.28-.94s.5-.14.69-.34A2.58,2.58,0,0,0,77,89.78,9.17,9.17,0,0,1,78.62,87a3.48,3.48,0,0,0,.53-2.29,26.37,26.37,0,0,1,.45-3.65,13.38,13.38,0,0,0-.91-6,2.41,2.41,0,0,1-.2-1.56c.09-.5.2-1,.27-1.48a4.16,4.16,0,0,0-.33-2.46,15.05,15.05,0,0,0-.75-1.36c-.23-.38-.69-.78-.8-1.22a3.17,3.17,0,0,1,.17-1.21c.09-.43.16-.87.23-1.31.57-4.1-3.4-6.33-6.77-7.34a23,23,0,0,0-6.59-1.36,25.57,25.57,0,0,0-3.26.35,9.52,9.52,0,0,1-3.93-.4c-2-.54-4.37-1.3-6.46-1-.53.08-1,.25-1.56.34s-1,.06-1.5.18a9.79,9.79,0,0,0-2.66,1.39,4.09,4.09,0,0,0-1.5,1.59,2.46,2.46,0,0,1-1,1.35,9.31,9.31,0,0,0-1.42.78,6.29,6.29,0,0,0-1.49,2,6.83,6.83,0,0,0-.88,2.39,5,5,0,0,1-.49,1.88,11.4,11.4,0,0,0-.5,1.13,18.27,18.27,0,0,0-.8,3.36c-.17,1.07-.2,2.14-.29,3.21-.09,1.28-.61,2.52-.82,3.78a8.78,8.78,0,0,0,.07,3.11,2.81,2.81,0,0,1-.33,2.16,10.48,10.48,0,0,0-.68,1.17c-.54,1.25-.43,3.45,1.44,3,.65-.14,1.42-.53,1.9.16a5.19,5.19,0,0,1,.53,1.49,4.3,4.3,0,0,0,1.45,2.4,7.1,7.1,0,0,0,2.66.67,7.6,7.6,0,0,0,1.58,0c.67,0,1.24.29,1.9.32.32,0,.32-.48,0-.5C44.42,92.23,43,92,41.58,92a7.32,7.32,0,0,1-2,0c-.69-.21-1-1-1.3-1.59-.43-.88-.76-1.5-1.76-1.73a4.85,4.85,0,0,0-3.1.21,6.47,6.47,0,0,0-2.53,2,6.78,6.78,0,0,1-1.09,1.46c-.46.35-1,.62-1.45,1a2,2,0,0,1-2.15,0A14.5,14.5,0,0,0,24,92.7,32,32,0,0,0,19.91,92a18.27,18.27,0,0,1-4-.87c-1.29-.43-1.45-2.41-1.68-3.58a78.14,78.14,0,0,1-1.58-8.29A64.73,64.73,0,0,0,11.29,71c-.31-1.43-1-2.84-.8-4.34A10.6,10.6,0,0,1,12,63.08a20.22,20.22,0,0,0,2.48-7.33c.14-1.08.75-5-1.26-5-.56,0-.93.2-1.46-.14a2.16,2.16,0,0,0-1-.46c-.74-.06-1.38.66-1.9,1.08-1.52,1.23-4.12.82-4.88,3a8.83,8.83,0,0,0-.18,3.24c0,.71.19,1.39.25,2.09s0,1.56,0,2.33A12.18,12.18,0,0,1,4,64a11,11,0,0,1-.85,2.11A11.19,11.19,0,0,0,3,69.83a54.32,54.32,0,0,0,1,8.61,30.89,30.89,0,0,0,1.18,4.31,41,41,0,0,1,1,4.25c.27,1.46.64,2.88,1,4.32s.56,2.79,1,4.15A9.52,9.52,0,0,0,9.56,98.4a8,8,0,0,0,2.81,2A33.66,33.66,0,0,0,16.08,102c1.39.51,2.74,1.18,4.16,1.61.63.19,1.28.26,1.92.43a14.57,14.57,0,0,0,1.95.58,12.83,12.83,0,0,0,1.84.22,4.33,4.33,0,0,1,.8,0,1.56,1.56,0,0,1,.92.7c.63.77,1.33.28,2.09,0l-.28-.12a20.25,20.25,0,0,1,1.84,7.28,28.27,28.27,0,0,1-.14,7.52,74.7,74.7,0,0,0-1.13,7.57c-.05,1.16,0,2.33-.08,3.49a20.6,20.6,0,0,1-.87,4,62.73,62.73,0,0,1-2.74,7.25,18.93,18.93,0,0,1-1.45,3.05,13.52,13.52,0,0,0-1.72,2.65c-.58,1.57.67,3.24,2.11,3.81a5.36,5.36,0,0,0,2.18.28,4.56,4.56,0,0,1,1.38,0c1,.3.84,1.46,1,2.28.2,1,.42,2.07.66,3.09a11,11,0,0,0,.47,1.58,7,7,0,0,1,.77,2c.17,2.1-.45,4.34.23,6.38.33,1,.53,2,.88,3,.41,1.14,1.09,2.17,1.49,3.32a13.43,13.43,0,0,1,.66,3.43c.07,1.1-.24,2.53.19,3.56a6.14,6.14,0,0,0,.6.93,2.52,2.52,0,0,1,.37,1.62c0,1.13.61,2.17.57,3.3,0,.54-.21,1.06-.27,1.59s0,.92-.05,1.37a11.23,11.23,0,0,0,.06,2,11.23,11.23,0,0,1,.25,1.91,16.23,16.23,0,0,0,.39,2.94,18.49,18.49,0,0,1,.25,4.07,25.87,25.87,0,0,0,0,3,7.68,7.68,0,0,0,.25,1.51c.16.59.76,1.39.46,2s-1.11,1-1,1.93c.12,1.23,1.08,2.25.1,3.42-1.64,2-3.78,3.47-5.39,5.48a19.58,19.58,0,0,0-1.92,3.08,8.46,8.46,0,0,0-.75,1.58c-.18.6-.26,1.19-.49,1.79a3.81,3.81,0,0,0,0,2.6c.17.49,1.45,3.27,2,3.1A.25.25,0,0,0,30.52,229.76Z" style="fill: #231f20"/>
    </g>
    <g>
      <path d="M30.31,104.92l-.13.16c.28.85.83-.34.95-.52.23-.35.61-.56.86-.88a5.82,5.82,0,0,0,.45-1.06,6.91,6.91,0,0,0,1.21-3.32,10.27,10.27,0,0,0-.36-4c-.14-.32-.27-.67-.42-1a4.6,4.6,0,0,0-.64-.88,2.19,2.19,0,0,0-1.47-1.08l0-.17" style="fill: #edf0f6"/>
      <path d="M30.13,104.75l-.12.16a.24.24,0,0,0-.07.24c.51,1.23,1.19-.27,1.6-.69a4.06,4.06,0,0,0,.77-.83c.19-.33.27-.72.44-1.07a10.74,10.74,0,0,0,1-2.29,11.64,11.64,0,0,0,.13-2.57,6.72,6.72,0,0,0-.4-2.48c-.47-1.19-1.33-2.92-2.76-3.11l.24.18,0-.17c-.07-.31-.55-.18-.49.13l0,.17a.28.28,0,0,0,.24.19c.66.09,1,.68,1.41,1.16a6.17,6.17,0,0,1,1,1.81,10.11,10.11,0,0,1,.26,4c-.11,1.26-.94,2.24-1.36,3.39-.22.61-.7.86-1.06,1.36-.1.14-.47.85-.55.66l-.06.24.13-.16c.19-.25-.16-.61-.36-.35Z" style="fill: #231f20"/>
    </g>
    <g>
      <path d="M29.26,152.32c1,.16,2.92.58,3.3,1.71a19.17,19.17,0,0,0,.87,2.36,23.53,23.53,0,0,0,1.36,2.4c.52.76,1,1.45,2,1.46a6.8,6.8,0,0,0,1.69-.1,11.45,11.45,0,0,1,1.52-.33,21.14,21.14,0,0,1,2.64,0c.45,0,.84.18,1.27.22s1.12-.07,1.67,0a2.38,2.38,0,0,1,1.09.41c.62.4.65.85,1.1,1.37.18.21.45.31.63.51s.18.43.35.61a2.15,2.15,0,0,0,1.38.46,7.09,7.09,0,0,0,2-.17,10.3,10.3,0,0,1,1.32-.27,3.59,3.59,0,0,0,1.76-.3,4.78,4.78,0,0,1,1.31-.52,13.07,13.07,0,0,0,1.37-.48,7.28,7.28,0,0,1,.88-.14,4.7,4.7,0,0,1,1.46-.23c1,.07,1.92.43,2.91.43a8.39,8.39,0,0,0,2.77-.47,5.28,5.28,0,0,0,1.42-.62,4.26,4.26,0,0,1,1.25-.74,3.37,3.37,0,0,0,2.25-1.51,11.79,11.79,0,0,0,.78-2.42c.25-.82.87-1.84.73-2.73v.14" style="fill: #edf0f6"/>
      <path d="M29.2,152.56a7.46,7.46,0,0,1,2,.56,2.35,2.35,0,0,1,.84.58,3.87,3.87,0,0,1,.57,1.37,16.14,16.14,0,0,0,1.28,2.77,8,8,0,0,0,1.46,2.08c1.38,1.29,3.43.2,5,.12a12.91,12.91,0,0,1,3.1.2c1,.2,2-.22,2.93.37a3,3,0,0,1,.86,1,3.37,3.37,0,0,0,.71.7c.31.27.38.67.72.92a2.07,2.07,0,0,0,1,.35,6.9,6.9,0,0,0,2.6-.18,6.93,6.93,0,0,1,1.35-.23,5.07,5.07,0,0,0,1.1-.11,11.66,11.66,0,0,0,1.08-.5c.45-.18.92-.26,1.37-.43a6.17,6.17,0,0,1,1.34-.36,8.72,8.72,0,0,1,1.61-.26c1.06,0,2.05.46,3.12.43a9.35,9.35,0,0,0,2.72-.51,6,6,0,0,0,1.3-.56,6.79,6.79,0,0,1,1.46-.83,3.87,3.87,0,0,0,2-1.22,8.77,8.77,0,0,0,1-2.82,7.11,7.11,0,0,0,.74-2.8c0-.31-.5-.33-.5,0v.14a.25.25,0,0,0,.5,0v-.14H72a5.87,5.87,0,0,1-.67,2.5,11.35,11.35,0,0,1-.9,2.69c-.55.81-1.4,1-2.23,1.31a5.39,5.39,0,0,0-1,.62,5.19,5.19,0,0,1-1.35.63,8.3,8.3,0,0,1-2.92.49c-1,0-1.92-.41-2.91-.43a4.84,4.84,0,0,0-1.19.19,10.59,10.59,0,0,0-1.48.34c-.73.28-1.49.44-2.18.78a8.78,8.78,0,0,1-2.44.46,10.24,10.24,0,0,1-2.81.33,1.35,1.35,0,0,1-1.22-.71,1.9,1.9,0,0,0-.61-.62,5.12,5.12,0,0,1-.78-1.05,2.42,2.42,0,0,0-.82-.67,4.67,4.67,0,0,0-2.32-.27c-.46,0-.88-.16-1.32-.21a14.33,14.33,0,0,0-1.47-.06,9.48,9.48,0,0,0-2.7.29c-.9.22-2.22.43-3-.26A9.23,9.23,0,0,1,34,157a12,12,0,0,1-.79-1.71c-.17-.47-.28-1-.48-1.42-.55-1.22-2.23-1.57-3.42-1.77-.31,0-.45.43-.13.49Z" style="fill: #231f20"/>
    </g>
    <g>
      <path d="M78.54,106.18a29.6,29.6,0,0,1-1.35,2.92,2.3,2.3,0,0,1-1.17.78,4.88,4.88,0,0,0-1.35,1A17.54,17.54,0,0,0,73.1,112c-.2.21-.38.28-.58.46s-.22.38-.27.8-.17.62-.19.94a8.62,8.62,0,0,1-.1,1.13c-.14.67,0,1.34-.12,2-.24,1.35-.61,2.69-.82,4a16.45,16.45,0,0,0-.21,2.72,11.77,11.77,0,0,1,0,2.52,9.68,9.68,0,0,0,.21,4.11,5.3,5.3,0,0,1-.11,2.1c-.14.76-.06,1.51-.23,2.27a10.51,10.51,0,0,0-.24,2.38c0,.64.17,1.22.2,1.86,0,.46.21.89.23,1.35a5.46,5.46,0,0,0,.09,1.07c.15.57.43,1.18.53,1.77" style="fill: #edf0f6"/>
      <path d="M78.32,106.05c-.54,1.15-.85,2.9-2.1,3.47a5.42,5.42,0,0,0-1.3.8c-.5.44-1,.77-1.58,1.17a6.4,6.4,0,0,0-1.13,1c-.25.33-.19.77-.28,1.16-.29,1.38-.15,2.8-.42,4.17s-.66,2.86-.83,4.32,0,2.62-.08,3.94c0,.67-.23,1.31-.23,2a10.65,10.65,0,0,0,.23,2.11,6.79,6.79,0,0,1,.06,2.42c-.13.75-.11,1.52-.23,2.27a17,17,0,0,0-.27,2,17.64,17.64,0,0,0,.17,2.41c0,.37.12.72.18,1.08s0,.83.11,1.24c.1.71.44,1.36.58,2.05.06.32.54.19.48-.13-.12-.61-.39-1.17-.53-1.77s-.14-1.32-.25-2a11.84,11.84,0,0,1-.06-4.44,15,15,0,0,0,.19-1.77c.06-.73.27-1.45.26-2.19a15.52,15.52,0,0,0-.29-1.79,7.8,7.8,0,0,1-.07-2.41,9.43,9.43,0,0,0,.17-1.75c0-.73,0-1.46,0-2.19a27.78,27.78,0,0,1,.71-4.35,29.23,29.23,0,0,0,.48-3.94c0-.58.17-1.13.24-1.7a.78.78,0,0,1,.43-.72c.25-.2.47-.44.73-.63a17.13,17.13,0,0,0,1.47-1.06,9.3,9.3,0,0,1,1.65-1c1.11-.67,1.45-2.4,2-3.5.14-.29-.29-.54-.43-.25Z" style="fill: #231f20"/>
    </g>
    <g>
      <path d="M46.38,92.4c-.68-.19-.81,1-.84,1.46,0,.72-.2,1.34-.2,2.07a10.11,10.11,0,0,0,.31,2.52,6,6,0,0,0,.37,1c.22.5.23,1,.4,1.48a7.49,7.49,0,0,0,.69,1,14.33,14.33,0,0,0,.74,1.26c.62.8.76,1.82,1.35,2.61a4.51,4.51,0,0,1,.57,1.14,11.67,11.67,0,0,0,1,1.41,5.18,5.18,0,0,0,.83,1.31,5.08,5.08,0,0,0,1.3.84,7.57,7.57,0,0,0,1.19.4c.46.15.8.55,1.27.65a4.78,4.78,0,0,0,2.51-.49,7.88,7.88,0,0,0,2.2-1.69,11.87,11.87,0,0,0,1.12-1,12.85,12.85,0,0,0,1.43-1.85,5,5,0,0,0,.66-2.44c0-.9.16-1.67.21-2.56a9,9,0,0,1,.21-1c.08-.47.13-1,.21-1.42s.26-1,.37-1.47.36-.84.48-1.3.07-1,.18-1.46c.17-.68.61-.23,1.12-.19a4.43,4.43,0,0,0,1.61-.43,5.07,5.07,0,0,0,.64-.26c.22-.14.37-.45.61-.55a4.94,4.94,0,0,1,1.84,0c.52.11.73.59,1.19.83s1,.14,1.37.36c.17.1.24.31.4.4s.68.09.63.51" style="fill: #edf0f6"/>
      <path d="M46.45,92.16c-.53-.09-.84.25-1,.73a12,12,0,0,0-.31,2.31,9.08,9.08,0,0,0,.24,3.2c.13.51.36,1,.51,1.47a7,7,0,0,0,.43,1.43c.23.42.56.77.79,1.19s.54.87.8,1.32.4.89.6,1.34.54.86.76,1.32a7.49,7.49,0,0,0,.58,1.17,9.31,9.31,0,0,1,.9,1.26,3.94,3.94,0,0,0,1.86,1.79,7.57,7.57,0,0,0,1.23.46c.47.15.83.49,1.29.66a3.84,3.84,0,0,0,2.51-.31A6.56,6.56,0,0,0,59.82,110,25.91,25.91,0,0,0,62,107.88a6.46,6.46,0,0,0,1.4-2.52,21.15,21.15,0,0,0,.31-3.19c.06-.61.2-1.19.29-1.79a18,18,0,0,1,.31-1.81,16.17,16.17,0,0,0,.8-2.83c0-.27,0-.86.27-.95.11,0,.37.12.49.14a2.58,2.58,0,0,0,1.37-.21c.34-.12.69-.24,1-.38s.6-.6,1-.69a4,4,0,0,1,1.29,0c.52.1.76.54,1.19.79s1.09.14,1.5.46c.13.1.2.26.35.34s.5.11.5.3.51.32.5,0a.6.6,0,0,0-.23-.53c-.1-.06-.21-.08-.31-.13a1.74,1.74,0,0,1-.51-.38,1.8,1.8,0,0,0-.84-.29,1.92,1.92,0,0,1-.78-.24c-.2-.14-.36-.35-.56-.5a3.9,3.9,0,0,0-2.52-.23c-.35.14-.51.5-.85.66a3.52,3.52,0,0,1-2.33.47c-.6-.17-.9.06-1,.67a10.25,10.25,0,0,1-.2,1.46c-.16.48-.37.92-.5,1.42-.27,1-.37,2.06-.62,3.09a15.7,15.7,0,0,0-.31,3.14,5.22,5.22,0,0,1-1.26,3.22c-.29.35-.57.71-.88,1s-.73.61-1.07.93a7.16,7.16,0,0,1-2.5,1.75,4.5,4.5,0,0,1-1.44.33,2.83,2.83,0,0,1-1.42-.55,8,8,0,0,0-1.08-.36,5,5,0,0,1-1.54-.88,4.5,4.5,0,0,1-.81-1.24c-.24-.42-.6-.74-.87-1.15s-.33-.79-.54-1.17a11.48,11.48,0,0,1-.75-1.32,23.3,23.3,0,0,0-1.5-2.78,5.62,5.62,0,0,1-.81-1.38,16.14,16.14,0,0,0-.52-1.67,8.51,8.51,0,0,1-.4-3.78c0-.33.07-2.59.67-2.49.31,0,.45-.43.13-.48Z" style="fill: #231f20"/>
    </g>
    <path d="M37.82,179.5a.25.25,0,0,0,0-.5.25.25,0,0,0,0,.5Z" style="fill: #231f20"/>
    <g>
      <path d="M37.82,179.25c-.32.8-.15,1.07.42,1.62s1,.93,1.57,1.38,1.27,1.57,2.11,1.79c.45.12,1.86-.09,2,.64" style="fill: #edf0f6"/>
      <path d="M37.58,179.18a1.65,1.65,0,0,0-.12,1.07,2.4,2.4,0,0,0,.68.87c.72.68,1.49,1.27,2.16,2a3.05,3.05,0,0,0,1.83,1.2c.37,0,1.42-.09,1.51.42,0,.32.54.18.48-.13-.11-.62-.83-.72-1.34-.75a6.33,6.33,0,0,1-.76-.05,2.22,2.22,0,0,1-1-.66c-.3-.3-.56-.62-.86-.92s-.73-.63-1.09-.95a6.79,6.79,0,0,1-1-.94.94.94,0,0,1,0-1c.11-.3-.37-.43-.49-.13Z" style="fill: #231f20"/>
    </g>
    <g>
      <path d="M38.87,185.3h-.13c.3-.06,1.17.54,1.43.72.68.49.86.69,1.62.33" style="fill: #edf0f6"/>
      <path d="M38.87,185.05h-.13l.06.49c-.07,0,0,0,0,0s0,0,0,0l.15.06a3.55,3.55,0,0,1,.39.2,7.31,7.31,0,0,1,.65.43,3,3,0,0,0,.86.51,1.53,1.53,0,0,0,1-.19c.29-.14,0-.57-.26-.43a.84.84,0,0,1-.75.09,6.19,6.19,0,0,1-.75-.51,8,8,0,0,0-.73-.45,1.3,1.3,0,0,0-.76-.2c-.29,0-.2.48.07.49h.13c.32,0,.32-.49,0-.5Z" style="fill: #231f20"/>
    </g>
    <g>
      <path d="M36.36,170.06c.45.92,1.45.9,2.29.67a4.76,4.76,0,0,1,2.31.38" style="fill: #edf0f6"/>
      <path d="M36.15,170.19a1.81,1.81,0,0,0,1.92.91,5.62,5.62,0,0,1,1.29-.16,10.49,10.49,0,0,1,1.53.41c.31.07.45-.41.13-.49s-.9-.29-1.37-.38a3,3,0,0,0-1.29.07,1.48,1.48,0,0,1-1.78-.61c-.15-.29-.58,0-.43.25Z" style="fill: #231f20"/>
    </g>
    <g>
      <path d="M62.46,188.85c.19-1,2-1.21,2.46-2a4.59,4.59,0,0,0,.56-1.58,4.61,4.61,0,0,1,.74-2.08" style="fill: #edf0f6"/>
      <path d="M62.7,188.92c.11-.49.65-.74,1.06-.95a4.09,4.09,0,0,0,1.26-.82,4.28,4.28,0,0,0,.72-1.86,4.31,4.31,0,0,1,.65-1.9c.22-.24-.14-.59-.35-.35a4,4,0,0,0-.74,1.89,3.89,3.89,0,0,1-.7,1.94c-.7.71-2.13.8-2.38,1.91-.07.32.41.45.48.14Z" style="fill: #231f20"/>
    </g>
    <g>
      <path d="M59.12,189.69c-.3.64-.15.53.42.88a2.45,2.45,0,0,0,1.67.58" style="fill: #edf0f6"/>
      <path d="M58.9,189.56c-.1.23-.27.52-.13.77a1.15,1.15,0,0,0,.51.38c.29.16.56.35.85.49a2,2,0,0,0,1.08.2.27.27,0,0,0,.25-.25c0-.13-.12-.27-.25-.25a1.52,1.52,0,0,1-.82-.13c-.27-.12-.5-.29-.75-.43a3.07,3.07,0,0,0-.31-.17l-.1-.06h0l0,0s0,.06,0,0,0,.06,0,0,0,0,0,0,0,0,0,0,0-.09.05-.13l.07-.16a.25.25,0,0,0-.44-.25Z" style="fill: #231f20"/>
    </g>
    <g>
      <path d="M37.62,212c0,.3.28.44.42.67s.22.53.35.79a4.13,4.13,0,0,0,1.09,1.32c.47.3,1.1.26,1.56.55s.59.87,1.06,1.15c.8.46,2.07-.11,2.87-.31.63-.16.94-.25,1.26-.84a1.15,1.15,0,0,1,.28-.39c.19-.17.55,0,.5-.44" style="fill: #edf0f6"/>
      <path d="M37.37,212a1,1,0,0,0,.26.58,3.61,3.61,0,0,1,.49.88,3.9,3.9,0,0,0,1.09,1.43c.51.39,1.19.31,1.71.65s.64,1,1.28,1.25a2.8,2.8,0,0,0,1.67,0,16.16,16.16,0,0,0,1.68-.49c.52-.2.69-.54,1-1s.74-.17.72-.79c0-.32-.51-.32-.5,0,0,.16-.17.1-.32.18a1,1,0,0,0-.33.36,1.55,1.55,0,0,1-1,.84c-.83.23-2.28,1-3,.26-.34-.31-.49-.77-.9-1s-1-.25-1.44-.48a3,3,0,0,1-1.07-1.19c-.13-.25-.2-.52-.33-.77s-.44-.46-.46-.67-.54-.32-.5,0Z" style="fill: #231f20"/>
    </g>
    <g>
      <path d="M57,214.32c.34-.09,1.07.49,1.42.58a11.19,11.19,0,0,0,1.52.48,6.16,6.16,0,0,0,1.33.18c.56-.06,1-.5,1.58-.62a4.55,4.55,0,0,0,1.41-.45c.65-.38.66-1.09,1.08-1.63a3.9,3.9,0,0,1,.64-.58,4.06,4.06,0,0,0,.46-.47c.29-.27,1.19-.22,1-.83" style="fill: #edf0f6"/>
      <path d="M57.1,214.56c.38-.05.92.45,1.28.58a11.9,11.9,0,0,0,2,.57,2.35,2.35,0,0,0,1.61-.12,8.48,8.48,0,0,1,.93-.41,9.34,9.34,0,0,0,1-.27,1.92,1.92,0,0,0,1.12-1c.13-.25.22-.51.37-.75a3.75,3.75,0,0,1,.78-.76,2.57,2.57,0,0,1,.54-.5c.16-.08.36-.11.53-.19a.65.65,0,0,0,.39-.8c-.07-.32-.55-.19-.48.13s-.69.39-.87.53a5.25,5.25,0,0,0-.4.42c-.21.2-.46.34-.65.55a7.26,7.26,0,0,0-.74,1.3,2.37,2.37,0,0,1-1.68.83c-.53.13-1,.51-1.5.61a4.3,4.3,0,0,1-2-.31,9.18,9.18,0,0,1-1.45-.59,1.63,1.63,0,0,0-1-.31c-.32,0-.19.53.13.48Z" style="fill: #231f20"/>
    </g>
    <g>
      <path d="M47.33,92.42a2.9,2.9,0,0,1-.43-.84c-.11-.25-.18-.55-.31-.84a5.65,5.65,0,0,1-.52-2.24V85c0-.14,0-.28,0-.42s-.11-.4-.13-.62a1.07,1.07,0,0,1-.85.5c-.4-.07-.68-.59-.87-.89a3.25,3.25,0,0,1-.36-.55,3.28,3.28,0,0,1,0-.63,8.05,8.05,0,0,1-.11-1.3A7,7,0,0,1,43.62,79a1.53,1.53,0,0,1,.7-.84c.53-.28.69.09,1.1.38.26-.26.06-1.11.12-1.46.12-.62.24-1.23.39-1.85s.35-1.09.52-1.64a6.9,6.9,0,0,1,.43-.86,9.63,9.63,0,0,1,.55-1.23,7.25,7.25,0,0,1,.63-.83,4.54,4.54,0,0,1,.69-.88c.3-.24.6-.49.91-.7s.71-.32,1-.55a4.28,4.28,0,0,0,.54-.67,6.9,6.9,0,0,1,1-.7,2.54,2.54,0,0,1,1-.49,3.5,3.5,0,0,1,1-.25,8.22,8.22,0,0,1,1.09.26c.29.06.55.07.83.14a9.66,9.66,0,0,0,2.28.17c.61,0,1.18.15,1.78.14a9.36,9.36,0,0,1,2,.28c.16,0,.29,0,.47,0a4.31,4.31,0,0,1,.49.22,1.81,1.81,0,0,1,.84.57c.17.21.39.38.55.61s.38.69.63,1c.42.55.88,1.06,1.29,1.62a16.12,16.12,0,0,1,1,1.76,10.38,10.38,0,0,1,1.07,3.07c.13.65.18,1.32.35,2a1.07,1.07,0,0,1,0,.86,5.17,5.17,0,0,0-.47,2,2.93,2.93,0,0,1-.11,1.1c-.07.18-.39.67-.1.8a3.69,3.69,0,0,0,.71-.48.93.93,0,0,1,.33-.26c.38,0,.49.54.57.77A4.38,4.38,0,0,1,70,84a9.83,9.83,0,0,1,.19,1.34c0,1.66-1,3-1.86,4.29-.27.42-.32.57-.84.56-.36,0-.44-.15-.74-.3-.06-.13-.15-.16-.26-.09a6.41,6.41,0,0,0-.39.52,5.45,5.45,0,0,0-.49.88A15.6,15.6,0,0,1,64.41,93a10.41,10.41,0,0,1-1.17,1.54,5,5,0,0,1-1.24.72,4.43,4.43,0,0,1-1.07.46c-.81.21-1.68.13-2.49.37a22.76,22.76,0,0,1-2.61.53,5.78,5.78,0,0,1-.93,0,6.07,6.07,0,0,0-.94.13,3.28,3.28,0,0,1-3.25-1.17,8.54,8.54,0,0,0-.9-1.09c-.35-.35-.73-.59-1.1-.9s-.32-.48-.54-.74a6,6,0,0,0-.7-.55" style="fill: #edf0f6"/>
      <path d="M47.54,92.29a7.84,7.84,0,0,1-.87-2,6,6,0,0,1-.35-2.14,22.1,22.1,0,0,0-.14-4.23.26.26,0,0,0-.46-.06.6.6,0,0,1-1,0c-.14-.19-.26-.4-.4-.6A4,4,0,0,1,44,81.34c0-.56-.15-1.13-.15-1.69a1.26,1.26,0,0,1,.58-1.19c.39-.21.55,0,.86.28a.27.27,0,0,0,.4,0,1.92,1.92,0,0,0,.14-1.21,8.39,8.39,0,0,1,.39-2.16,10.3,10.3,0,0,1,.75-2.1,11.47,11.47,0,0,1,1-2,8.15,8.15,0,0,1,1.32-1.49,4.69,4.69,0,0,1,.92-.6,2.83,2.83,0,0,0,.78-.48,5.36,5.36,0,0,1,.67-.77c.27-.2.56-.38.84-.56a2.93,2.93,0,0,1,2.17-.49,17.6,17.6,0,0,0,1.89.39c.76.11,1.52,0,2.28.1s1.52.08,2.26.2a7.41,7.41,0,0,1,2,.48,3.51,3.51,0,0,1,1.39,1.44,15.23,15.23,0,0,0,1.28,1.71,12.15,12.15,0,0,1,2.13,4,15.69,15.69,0,0,1,.49,2.36c.07.39.22.79.25,1.18a3.15,3.15,0,0,1-.32,1.18,4.33,4.33,0,0,0-.21,1.06A4.09,4.09,0,0,1,68,82.16c-.12.34-.4.74,0,1a.24.24,0,0,0,.3,0,3.79,3.79,0,0,0,.6-.38c.25-.19.34-.35.55,0a4.07,4.07,0,0,1,.3,1.48,5,5,0,0,1-.66,3.63c-.27.46-.57.9-.86,1.34s-.58.94-1.24.51c-.21-.13-.34-.32-.62-.2s-.68.83-.85,1.15a21.31,21.31,0,0,1-1.89,2.91,5.12,5.12,0,0,1-3,1.86c-.6.12-1.22.11-1.82.22s-1.23.31-1.85.42a11.78,11.78,0,0,1-1.95.23c-.55,0-1.07.17-1.61.18A3.09,3.09,0,0,1,51.56,96a7.49,7.49,0,0,1-1.3-1.45c-.41-.47-.94-.77-1.38-1.2-.22-.22-.33-.51-.53-.74a4.8,4.8,0,0,0-.71-.55c-.25-.2-.6.15-.35.35a3.79,3.79,0,0,1,.78.66,4.07,4.07,0,0,0,.46.63A17.65,17.65,0,0,1,50,95.1a6.81,6.81,0,0,0,1.19,1.32,3.41,3.41,0,0,0,1.56.58,5.44,5.44,0,0,0,1.61-.1c.41-.06.79,0,1.2-.05a9.73,9.73,0,0,0,1.06-.17c.7-.12,1.38-.29,2.07-.45s1.59-.13,2.36-.35a5.56,5.56,0,0,0,2.85-1.83c.41-.54.78-1.1,1.17-1.66s.71-1.25,1.1-1.85c0-.06.29-.52.29-.52s.07.08.09.09c.2,0,.39.25.61.3a1.06,1.06,0,0,0,1-.23,7.32,7.32,0,0,0,.85-1.26,11,11,0,0,0,1-1.78A6.54,6.54,0,0,0,70,83c-.1-.33-.21-.76-.56-.9a.5.5,0,0,0-.5.05c-.32.2-.58.48-.92.67l.3,0c-.11-.08.17-.54.21-.66a4.18,4.18,0,0,0,.08-1.06A17,17,0,0,1,69.18,79a6.36,6.36,0,0,0-.3-1.82,14.5,14.5,0,0,0-.52-2.35,12.73,12.73,0,0,0-2-3.75,20,20,0,0,1-1.47-2,4.06,4.06,0,0,0-1.22-1.38,3.27,3.27,0,0,0-1.39-.49c-.8-.07-1.55-.25-2.36-.29s-1.64-.12-2.47-.15A10.41,10.41,0,0,1,55,66.38a2.49,2.49,0,0,0-1.66,0,6.94,6.94,0,0,0-1.75.91c-.57.36-.85,1-1.44,1.27a5.81,5.81,0,0,0-1.77,1.25,8.77,8.77,0,0,0-1.32,1.87,18.65,18.65,0,0,0-.94,2.15,20.9,20.9,0,0,0-.7,2.61,5.05,5.05,0,0,0-.13,1c0,.32.12.75-.07,1l.39,0c-.28-.22-.56-.55-.94-.56a1.36,1.36,0,0,0-1,.55,2,2,0,0,0-.39,1.37c0,.64.12,1.28.17,1.91a5.32,5.32,0,0,0,.17,1.5,5,5,0,0,0,.76,1.14,1,1,0,0,0,1.75-.2L45.7,84a39.88,39.88,0,0,1,.13,4.77,6.37,6.37,0,0,0,.45,1.83,7.67,7.67,0,0,0,.83,1.9c.19.25.63,0,.43-.25Z" style="fill: #231f20"/>
    </g>
    <g>
      <path d="M62.4,95.21c0,.18-.22.3-.28.48a2.57,2.57,0,0,0-.14.92c0,.58-.13,1.1-.14,1.67" style="fill: #edf0f6"/>
      <path d="M62.15,95.14c0,.11-.11.18-.17.27a1.83,1.83,0,0,0-.14.32,3.05,3.05,0,0,0-.11.85c0,.57-.13,1.13-.14,1.7,0,.32.49.32.5,0,0-.55.14-1.09.14-1.64a2.57,2.57,0,0,1,.1-.78c.06-.22.25-.36.31-.59a.25.25,0,0,0-.49-.13Z" style="fill: #231f20"/>
    </g>
    <g>
      <path d="M48,93a3.91,3.91,0,0,0-.17.84c-.11.43-.18.87-.26,1.32a7.21,7.21,0,0,1-.28,1c-.07.22-.07.43-.12.64s-.19.34-.14.55" style="fill: #edf0f6"/>
      <path d="M47.81,92.85a6.15,6.15,0,0,0-.24,1.05c-.09.39-.15.8-.23,1.2s-.25.75-.32,1.14a2.64,2.64,0,0,1-.11.56.88.88,0,0,0-.11.5c0,.31.54.32.5,0a.88.88,0,0,1,.11-.42,5.12,5.12,0,0,0,.1-.54c.08-.38.24-.73.32-1.11s.12-.73.2-1.08a5,5,0,0,0,.11-.53,1.91,1.91,0,0,1,.1-.52c.13-.29-.3-.55-.43-.25Z" style="fill: #231f20"/>
    </g>
    <g>
      <path d="M45.79,92.69a3.32,3.32,0,0,0,.9-.15c.25-.06.61-.33.92-.26" style="fill: #edf0f6"/>
      <path d="M45.79,92.94a3.38,3.38,0,0,0,1-.17,3.89,3.89,0,0,0,.41-.17l.2-.07h.12s.06,0,0,0a.27.27,0,0,0,.31-.18.24.24,0,0,0-.18-.3.84.84,0,0,0-.52,0l-.25.1-.11,0h0l0,0a3.15,3.15,0,0,1-.44.11,2,2,0,0,1-.49.06.27.27,0,0,0-.25.25.25.25,0,0,0,.25.25Z" style="fill: #231f20"/>
    </g>
    <g>
      <path d="M64.35,93.67a.42.42,0,0,0-.27,0c.16.32.67,1.44,1.22,1.35l0-.12" style="fill: #edf0f6"/>
      <path d="M64.42,93.43a.8.8,0,0,0-.46,0,.27.27,0,0,0-.09.35,5.75,5.75,0,0,0,.34.65,2.26,2.26,0,0,0,.63.71.76.76,0,0,0,.53.1.23.23,0,0,0,.17-.17l0-.13a.26.26,0,0,0-.18-.3.24.24,0,0,0-.3.17l0,.12.18-.17h0s0,0,0,0h-.09s0,0,0,0l-.08,0,0,0s0,0,0,0,0,0,0,0l0,0a1,1,0,0,1-.14-.15l0,0v0s0,0,0,0a.28.28,0,0,1-.06-.09l-.12-.18c-.07-.12-.14-.23-.2-.35l-.14-.3-.09.35s0,0,0,0h.07a.25.25,0,0,0,.31-.17.26.26,0,0,0-.17-.31Z" style="fill: #231f20"/>
    </g>
    <g>
      <path d="M39.23,83.63c-.1-.75.63-1.13,1.05-1.61s.55-1.14,1-1.6" style="fill: #edf0f6"/>
      <path d="M39.48,83.63c-.07-.61.51-.95.89-1.33s.63-1.22,1.13-1.71c.23-.22-.12-.58-.35-.35-.53.51-.69,1.28-1.22,1.79s-1,.88-1,1.6a.27.27,0,0,0,.25.25c.13,0,.27-.12.25-.25Z" style="fill: #231f20"/>
    </g>
    <g>
      <path d="M38.81,76.79c.26,0,.45.17.71.11s.31-.21.44-.39.26-.26.36-.41.18-.63.45-.86a10.6,10.6,0,0,1,1.11-.58,5.25,5.25,0,0,1,1.38-.41l0-.11" style="fill: #edf0f6"/>
      <path d="M38.75,77a2.48,2.48,0,0,0,.76.13.78.78,0,0,0,.5-.29c.14-.18.3-.36.45-.54a2,2,0,0,0,.28-.58c.18-.49.7-.56,1.12-.78a2.39,2.39,0,0,1,.69-.31,7.25,7.25,0,0,0,.78-.17.29.29,0,0,0,.17-.17l0-.12c.06-.31-.42-.45-.48-.13l0,.11.17-.17a6.5,6.5,0,0,0-1.37.39,6.84,6.84,0,0,0-1.25.68,1.42,1.42,0,0,0-.31.53,1.45,1.45,0,0,1-.32.55,3.08,3.08,0,0,1-.37.44c-.19.16-.48,0-.69,0s-.45.43-.13.48Z" style="fill: #231f20"/>
    </g>
    <g>
      <path d="M40.07,69.81A7.39,7.39,0,0,0,42,69.25a4.14,4.14,0,0,1,.43-.13c.22,0,.36.11.55.11a1.51,1.51,0,0,0,.91-.4" style="fill: #edf0f6"/>
      <path d="M40.07,70.06a6.42,6.42,0,0,0,2-.57,1.43,1.43,0,0,1,.45-.12,3.88,3.88,0,0,0,.49.11,1.71,1.71,0,0,0,1-.43c.26-.19,0-.62-.25-.43s-.55.43-.88.34a1.11,1.11,0,0,0-.48-.09,2.44,2.44,0,0,0-.46.14,6.26,6.26,0,0,1-1.82.55c-.32,0-.32.51,0,.5Z" style="fill: #231f20"/>
    </g>
    <g>
      <path d="M43.84,63.81a2.71,2.71,0,0,0,1-.21l.46-.06a3.57,3.57,0,0,1,.6-.16c.27,0,.61.34.84.47a3.65,3.65,0,0,0,1.11.38" style="fill: #edf0f6"/>
      <path d="M43.77,64.05a2.38,2.38,0,0,0,1.08-.19c.19,0,.38,0,.57-.09a4.75,4.75,0,0,1,.46-.14.57.57,0,0,1,.36.16,4.15,4.15,0,0,0,.41.27,3.47,3.47,0,0,0,1.17.41c.31,0,.45-.43.13-.48a3.06,3.06,0,0,1-1.11-.39c-.28-.17-.54-.45-.88-.47a1.17,1.17,0,0,0-.45.09,2.89,2.89,0,0,1-.51.11,2.33,2.33,0,0,0-.52.13,1.3,1.3,0,0,1-.58.11c-.31,0-.45.43-.13.48Z" style="fill: #231f20"/>
    </g>
    <g>
      <path d="M51.37,60a3.21,3.21,0,0,1,.45,1c.28.63.76.57,1.29.88s.42.66.36,1.1c0,.18-.35.73,0,.77" style="fill: #edf0f6"/>
      <path d="M51.2,60.22a1.67,1.67,0,0,1,.28.64,1.8,1.8,0,0,0,.34.66,3.41,3.41,0,0,0,1.09.6.78.78,0,0,1,.27,1c-.11.31-.25.83.22.92.31.06.45-.42.13-.48-.1,0,0,0,0,0s0,0,0-.06,0-.17.08-.25a2,2,0,0,0,.09-.49,1.14,1.14,0,0,0-.57-1.14c-.33-.17-.78-.23-1-.53a2.15,2.15,0,0,1-.26-.63,1.78,1.78,0,0,0-.35-.65c-.21-.24-.57.11-.35.35Z" style="fill: #231f20"/>
    </g>
    <g>
      <path d="M60.72,64.37a2.75,2.75,0,0,1-.27-1.12,7.2,7.2,0,0,0-.28-.9c-.08-.49.19-.6.55-.84s1-.58,1-.91" style="fill: #edf0f6"/>
      <path d="M60.94,64.24a3,3,0,0,1-.21-.64,5.06,5.06,0,0,0-.09-.68c-.1-.3-.41-.74-.08-1s.53-.33.78-.51.6-.45.61-.81a.25.25,0,0,0-.5,0c0,.08-.17.22-.25.29a3.23,3.23,0,0,1-.43.29,2.12,2.12,0,0,0-.78.64c-.22.43.06.85.17,1.26.07.23.05.47.1.7a3.84,3.84,0,0,0,.25.72.25.25,0,0,0,.34.09.27.27,0,0,0,.09-.35Z" style="fill: #231f20"/>
    </g>
    <g>
      <path d="M64.77,64.79a4.09,4.09,0,0,1,2-1.57A11.18,11.18,0,0,1,69.37,62" style="fill: #edf0f6"/>
      <path d="M65,64.91a4.24,4.24,0,0,1,2-1.52,9.92,9.92,0,0,1,2.47-1.15c.31-.06.18-.54-.13-.48A10.83,10.83,0,0,0,66.66,63a4.47,4.47,0,0,0-2.11,1.67c-.16.28.28.53.43.25Z" style="fill: #231f20"/>
    </g>
    <g>
      <path d="M68,69c.7-.71,1.81-2,2.93-1.22a1.21,1.21,0,0,1,.45.55,1.58,1.58,0,0,0,.52.67c.38.3.67.56,1.12.28" style="fill: #edf0f6"/>
      <path d="M68.15,69.15c.62-.62,1.65-1.84,2.63-1.19a1.48,1.48,0,0,1,.43.61,2,2,0,0,0,.44.53c.45.38.9.69,1.48.37a.25.25,0,0,0-.26-.43c-.31.17-.53,0-.78-.22a1.76,1.76,0,0,1-.48-.57,1.59,1.59,0,0,0-1.17-1c-1.09-.18-2,.81-2.64,1.5-.23.23.13.58.35.35Z" style="fill: #231f20"/>
    </g>
    <g>
      <path d="M71.33,73.86a7,7,0,0,0,1.5.74,8.6,8.6,0,0,1,1.14.27,6,6,0,0,0,1,.27c.24,0,1,.22,1,.53" style="fill: #edf0f6"/>
      <path d="M71.2,74.07a9.51,9.51,0,0,0,1.22.65c.47.19,1,.21,1.45.37a9.8,9.8,0,0,0,1.18.32c.1,0,.64.14.63.26,0,.32.49.32.5,0,0-.71-1.25-.77-1.71-.9-.26-.07-.5-.18-.75-.24s-.55-.1-.82-.17a6.54,6.54,0,0,1-1.45-.72.25.25,0,0,0-.25.43Z" style="fill: #231f20"/>
    </g>
    <g>
      <path d="M72.58,79.44a1.07,1.07,0,0,0,.3.83,11.44,11.44,0,0,0,1,1.06c.28.25.63.34.91.62.13.13.24.32.41.4s.29,0,.42.16" style="fill: #edf0f6"/>
      <path d="M72.33,79.44a1.48,1.48,0,0,0,.39,1,12.35,12.35,0,0,0,.93,1,3.52,3.52,0,0,0,.5.36,2,2,0,0,1,.49.33,2.87,2.87,0,0,0,.39.39.59.59,0,0,0,.28.1c.08,0,.11,0,.16.07.22.24.57-.12.36-.36s-.27-.15-.45-.2-.23-.19-.33-.29a5.53,5.53,0,0,0-.93-.65,6.8,6.8,0,0,1-.88-.9,2,2,0,0,1-.32-.4.87.87,0,0,1-.09-.45c0-.32-.49-.32-.5,0Z" style="fill: #231f20"/>
    </g>
    <g>
      <path d="M72.86,86.69a1.9,1.9,0,0,1,.71,1.16c0,.29-.11.66,0,.94s.74.29,1.07.28a1.41,1.41,0,0,1,.86.28" style="fill: #edf0f6"/>
      <path d="M72.68,86.87a1.8,1.8,0,0,1,.62.92c.09.42-.15.87.15,1.26a1.08,1.08,0,0,0,1,.28,1.61,1.61,0,0,1,.49,0,2.38,2.38,0,0,1,.49.22c.28.15.53-.28.25-.43a3.82,3.82,0,0,0-.54-.26,1.71,1.71,0,0,0-.55-.05,2.37,2.37,0,0,1-.46,0c-.12,0-.23,0-.27-.12a1.14,1.14,0,0,1,0-.58,1.69,1.69,0,0,0-.06-.63,2.74,2.74,0,0,0-.71-1c-.23-.23-.59.13-.36.35Z" style="fill: #231f20"/>
    </g>
  </g>
</svg>
