<svg xmlns="http://www.w3.org/2000/svg" width="31.52" height="48.47" viewBox="0 0 31.52 48.47">
  <title>Asset 17Web</title>
  <g id="Layer_2" data-name="Layer 2">
    <g id="Sketch">
      <g>
        <g>
          <path d="M19.83.38A19,19,0,0,0,14,1,13.26,13.26,0,0,0,7.74,4.58,49.38,49.38,0,0,0,4.47,8.39c-1.08,1.48-1,3.29-1.57,5a30.77,30.77,0,0,0-1.62,7.2c-.41,5.07-1.92,10.34.2,15.31,1.25,2.92,1.43,5,3.82,7.28,1.8,1.68,4.36,4.22,6.87,4.78A12,12,0,0,0,19,47c3-1.22,4.48-3.81,7-5.86,2.29-1.89,2.79-4.26,4.14-6.86s1-4.79,1-7.6c0-4.91-1.67-10-3.62-14.52-1-2.19-2.45-4.07-3.42-6.3a16.78,16.78,0,0,0-2-3.87A5.41,5.41,0,0,0,19.83.38" transform="translate(0)" style="fill: #007d00"/>
          <path d="M19.83,0a19.75,19.75,0,0,0-6.49.81,14.38,14.38,0,0,0-5,2.65A29.68,29.68,0,0,0,4.31,8C3,9.66,3,11.86,2.36,13.81A31.8,31.8,0,0,0,.9,20.55c-.2,2.31-.59,4.6-.79,6.91a19.72,19.72,0,0,0,.41,6.76c.29,1.07.76,2.07,1.14,3.11.31.84.59,1.7.94,2.53a12.27,12.27,0,0,0,3.14,4.21,20.47,20.47,0,0,0,4.79,3.65,9,9,0,0,0,5.89.48,12.42,12.42,0,0,0,5.43-2.51c1.48-1.24,2.65-2.78,4.1-4a10.93,10.93,0,0,0,2-2.14A15.77,15.77,0,0,0,29.28,37c.81-1.82,1.85-3.57,2.12-5.57a21.73,21.73,0,0,0,.12-3c0-1.13,0-2.26-.07-3.39a38.8,38.8,0,0,0-3.71-13.23c-.93-2-2.3-3.85-3.24-5.9C23.66,4,23,2,21.27.73A5.55,5.55,0,0,0,19.93,0c-.45-.16-.65.57-.2.73A5.82,5.82,0,0,1,22.88,4c.45.92.8,1.88,1.26,2.8s1,1.77,1.51,2.64a38.89,38.89,0,0,1,4.61,12.23,35.85,35.85,0,0,1,.5,6.46A12.37,12.37,0,0,1,29.85,34a52,52,0,0,1-2.4,4.92c-1,1.59-2.63,2.72-3.92,4.08a15,15,0,0,1-4.06,3.4,12.32,12.32,0,0,1-6.21,1.33A9.71,9.71,0,0,1,8,45.11a19.07,19.07,0,0,1-3.87-3.9,23.27,23.27,0,0,1-2-4.62,22.77,22.77,0,0,1-1-3,15.23,15.23,0,0,1-.38-3.22,42.68,42.68,0,0,1,.52-6.48c.28-2.18.4-4.39.88-6.54s1.18-4,1.6-6.05A6.88,6.88,0,0,1,4.85,8.5C5.43,7.71,6.08,7,6.74,6.23A15.1,15.1,0,0,1,11,2.59,15.83,15.83,0,0,1,16.7.85c1-.09,2.09-.09,3.13-.09a.38.38,0,0,0,0-.75Z" transform="translate(0)" style="fill: #231f20"/>
        </g>
        <path d="M14,7.55a8.12,8.12,0,0,0-.9,2.63,21.06,21.06,0,0,0-.61,3.62c-.28,3.08,0,6.2,0,9.29a.38.38,0,0,0,.75,0c0-3-.24-6,0-8.95a20.71,20.71,0,0,1,.54-3.5,8,8,0,0,1,.9-2.71c.27-.4-.38-.78-.65-.38Z" transform="translate(0)" style="fill: #231f20"/>
        <path d="M18.88,8.94a6.47,6.47,0,0,0-1.11,2.53,12.45,12.45,0,0,0-.46,3.21c0,3.29,0,6.58,0,9.87a.38.38,0,0,0,.75,0V15.42a14.7,14.7,0,0,1,.3-3.24,6.7,6.7,0,0,1,1.05-2.71c.31-.37-.22-.9-.53-.53Z" transform="translate(0)" style="fill: #231f20"/>
        <path d="M8.08,38.63c1.24-2.48,3-4.71,5.79-5.44a10.07,10.07,0,0,1,2.45-.29,10.8,10.8,0,0,1,2.41.13,9.4,9.4,0,0,1,3.46,2.08c.38.29.75-.36.37-.65a9.4,9.4,0,0,0-3.73-2.18,12.3,12.3,0,0,0-5.16.18c-3,.79-4.91,3.14-6.24,5.79-.21.43.43.81.65.38Z" transform="translate(0)" style="fill: #231f20"/>
      </g>
    </g>
  </g>
</svg>
