<svg id="Sketch" xmlns="http://www.w3.org/2000/svg" width="100mm" height="44.79mm" viewBox="0 0 283.46 126.98">
  <title>Plant-left</title>
  <g>
    <g>
      <path d="M9.56,49.58c0-4.25,4.72-5.6,7.78-6.89,1.53-.64,3.1-.88,4.57-1.61,1.06-.52,2.08-1,3.24-1.42,3.31-1.27,7.22-1.41,10.79-1.41,1.44,0,3,.14,4.41,0,2.22-.18,4.11-.75,6.39-.73S51,37,53.32,36.79s4.38,0,6.53,0a68.58,68.58,0,0,1,11,.77,42.76,42.76,0,0,1,5.93,1.55c1.66.53,3.27.74,4.92,1.4a47.55,47.55,0,0,1,5,2.09c1.34.73,2.3,3.13,3.75,3.62L87.33,54.1l-77,2.84Z" style="fill: #007d00"/>
      <path d="M9.93,49.58c0-2.23,1.53-3.71,3.38-4.72a33.39,33.39,0,0,1,6.33-2.55c2.87-.87,5.43-2.48,8.4-3.09a39.19,39.19,0,0,1,9.05-.58,27.3,27.3,0,0,0,4.7-.16,37.46,37.46,0,0,1,4.49-.56,32.85,32.85,0,0,0,4.42-.4,29.24,29.24,0,0,1,4.94-.42c3.17,0,6.37.06,9.53.26a42.72,42.72,0,0,1,9.33,1.49c1.69.49,3.36,1,5.07,1.42A39.93,39.93,0,0,1,84.31,42a18.07,18.07,0,0,1,2.14,1,5,5,0,0,1,1.34,1.32,6.53,6.53,0,0,0,2.5,2.34L90,46.16,87,54l.36-.27L79.64,54l-18.33.68L39,55.51l-19.17.7-6.38.24-2,.07a5.77,5.77,0,0,0-1,0h-.13l.37.38-.8-7.36c0-.47-.8-.48-.75,0l.8,7.36a.38.38,0,0,0,.38.37L18.05,57l18.33-.68,22.29-.82,19.17-.7,6.38-.24c1,0,2,0,3-.11h.13a.4.4,0,0,0,.36-.28l3.07-7.84a.4.4,0,0,0-.27-.47c-1-.39-1.7-1.58-2.37-2.4a7.2,7.2,0,0,0-3-2c-1.35-.57-2.74-1.15-4.14-1.6s-3.13-.8-4.67-1.29a44.52,44.52,0,0,0-9.43-1.88c-3.28-.29-6.56-.25-9.85-.36a29.59,29.59,0,0,0-4.89.17c-1.56.21-3.12.54-4.7.6a36.76,36.76,0,0,0-4.57.4,24.77,24.77,0,0,1-4.86.38,47.4,47.4,0,0,0-9.22.39,20.43,20.43,0,0,0-4.4,1.24c-1.45.58-2.83,1.35-4.32,1.83a38.83,38.83,0,0,0-7.29,2.89c-2,1.15-3.59,2.87-3.62,5.3A.38.38,0,0,0,9.93,49.58Z" style="fill: #231f20"/>
    </g>
    <g>
      <path d="M84,65.17c1.65.08.07,2.7,0,3.58a23.58,23.58,0,0,0,0,2.91c0,4.17-.72,8.12-.71,12.29,0,4.73.5,9.79-.36,14.44-.63,3.48,1.36,5.52.55,8.89-.91-.18-2.71,1.25-3.65,1.11a32.18,32.18,0,0,0-5.89,0c-7.23.26-14.31,2.7-21.53,3.41a129.78,129.78,0,0,1-16,.16c-3.23-.07-6.31-.63-9.5-.74a20.62,20.62,0,0,0-4.58,0c-1,.27-1.16-.15-1.91.27-1.17-2.22-1.59-3.62-2.74-5.88a51.14,51.14,0,0,1-2.84-8.19,150.4,150.4,0,0,1-3.65-15.29c-.36-1.76-.56-3.55-.87-5.31-.22-1.23-.86-2.35-.73-3.63,0,.41,0,.82,0,1.24L10,72.64C5.23,72,6,63.23,6,59.65c0-4,.6-7.25,3.54-10.07a11,11,0,0,1,3.53,0,31.63,31.63,0,0,1,3.7,1.26c2,.6,4.12,1,6.15,1.58s3.67,1.39,5.7,1.44c5.91.16,11.85,0,17.77,0,7.06,0,14.35.52,21.24-.87,3.74-.75,7.69-1.39,11.4-2.29a65.36,65.36,0,0,0,6.34-2.24c1.56-.56,3.39-1.87,5-2.18,1.08.66.53,1.77.64,2.76A20.21,20.21,0,0,0,92,53a13.41,13.41,0,0,1,.51,4.52c0,2.38.28,3.73-1.94,5.21-1.8,1.2-4,1.28-6,1.86-2.55.72-4.83,1.64-7.46,2.14-3.44.66-6.85,1.6-10.35,2-2.79.29-5.56,1-8.33,1.42-1.16.18-2.25.63-3.42.74-1.86.18-3.62-.22-5.49.12a22.09,22.09,0,0,1-3.25.57,19,19,0,0,0-3.45,0,18.3,18.3,0,0,1-4.92.74c-3.45,0-6.45.73-9.87.71a43.15,43.15,0,0,0-5.73.75c-1.46.16-3.08,0-4.56,0a21.5,21.5,0,0,1-5-.73c-1-.19-1.86.14-2.83-.31-.69-.32-.1-.29-.81-.51" style="fill: #007d00"/>
      <path d="M84,65.55c.82.08.1,1.59,0,2a6.84,6.84,0,0,0-.37,3A77.64,77.64,0,0,1,83,80.19c-.24,3.16-.1,6.31,0,9.47,0,1.57,0,3.14,0,4.71s-.37,3.09-.53,4.64c-.28,2.79,1.28,5.38.65,8.17l.36-.27c-1.37-.19-2.46,1.24-3.84,1.07a36.33,36.33,0,0,0-6.17,0A91.16,91.16,0,0,0,60,110.16a73.62,73.62,0,0,1-14,1.57,125.88,125.88,0,0,1-13.87-.46c-2.31-.23-4.62-.4-6.95-.55a11.25,11.25,0,0,0-2.84.06,7.73,7.73,0,0,0-2.21.34l.51.14c-1.09-2.08-2-4.27-3-6.4a53.77,53.77,0,0,1-2.47-7.35,149.88,149.88,0,0,1-3.78-15.76c-.29-1.52-.48-3.06-.73-4.59-.23-1.33-.9-2.64-.8-4H9.17c0,.41,0,.82,0,1.24a.38.38,0,0,0,.74.1l.39-1.75a.37.37,0,0,0-.26-.46C8,72,7.12,70,6.73,68.09a29.49,29.49,0,0,1-.37-6.64c0-2.52,0-5.08.81-7.49a9.72,9.72,0,0,1,2.37-3.83c.47-.45,1.36-.33,2-.31a8.85,8.85,0,0,1,2.29.32c.71.21,1.38.53,2.07.79a25.57,25.57,0,0,0,2.84.82c1.81.43,3.62.84,5.39,1.44a16.67,16.67,0,0,0,5,1.06c2.06,0,4.11.06,6.17,0,3.94,0,7.88-.1,11.82-.09s7.85.17,11.77,0c1.91-.06,3.82-.18,5.72-.42s3.64-.61,5.45-1c3.77-.71,7.69-1.22,11.31-2.51,1.63-.58,3.31-1.18,4.89-1.89.74-.33,1.44-.73,2.17-1.09.39-.19.78-.37,1.18-.52s.71-.35.94.05c.33.56.07,1.34.09,1.95a14,14,0,0,0,.5,2.72c.21.8.5,1.57.69,2.38a12.69,12.69,0,0,1,.26,2.68,13.4,13.4,0,0,1-.15,3.85c-.41,1.41-1.92,2.26-3.21,2.71-1.68.58-3.47.78-5.16,1.3s-3.44,1.14-5.2,1.58-3.73.79-5.58,1.19c-2,.43-4,.83-6,1.06-1.88.21-3.73.56-5.58.92q-1.31.26-2.61.48c-1,.15-1.86.44-2.79.64-1.91.41-3.86,0-5.78.17-.85.1-1.67.34-2.5.5a10.61,10.61,0,0,1-2.87,0,6.62,6.62,0,0,0-2.13.11c-.86.2-1.71.42-2.58.54-1.81.27-3.68.15-5.5.33s-3.62.44-5.44.5c-.91,0-1.81,0-2.72.12s-1.7.28-2.55.43a28.27,28.27,0,0,1-5.52.18,18.61,18.61,0,0,1-2.69-.18c-.8-.14-1.59-.34-2.39-.5s-1.77,0-2.61-.19c-.52-.14-.75-.51-1.25-.68s-.65.58-.2.73c.24.08.17.08.36.26a2.29,2.29,0,0,0,1,.43c.93.2,1.88,0,2.82.25s1.63.36,2.46.48a22.54,22.54,0,0,0,2.72.15c1,0,1.92.11,2.89.09a16.3,16.3,0,0,0,2.61-.3c.92-.16,1.84-.35,2.78-.44s1.91,0,2.87-.1c1.93-.11,3.84-.4,5.76-.56a52.54,52.54,0,0,0,5.47-.39,23.28,23.28,0,0,1,2.61-.55c.86-.06,1.71.13,2.57.14a11.38,11.38,0,0,0,2.66-.38,12.56,12.56,0,0,1,3.05-.33c1,0,2,.1,3,.05a14.49,14.49,0,0,0,2.7-.53c1.94-.51,4-.78,5.93-1.14s4-.54,5.95-.87,4-.8,6-1.23,3.86-.8,5.75-1.4,3.58-1.17,5.43-1.56c2.6-.54,6-1.47,6.42-4.58a24.39,24.39,0,0,0,0-4.44,41.62,41.62,0,0,0-1.19-5.26,10.08,10.08,0,0,1-.17-2.45A2,2,0,0,0,91,46.22c-.57-.57-1.25-.19-1.9.07s-1.47.69-2.19,1.06a48.92,48.92,0,0,1-5.25,2.14A39.85,39.85,0,0,1,75.84,51c-2,.4-3.91.76-5.86,1.13s-4,.81-6.08,1a95.89,95.89,0,0,1-12.22.35c-4.1-.06-8.2-.05-12.3,0-2.1,0-4.2,0-6.3,0a28.44,28.44,0,0,1-6.19-.3c-1.81-.41-3.53-1.14-5.33-1.6a44.3,44.3,0,0,1-5.67-1.52,15.63,15.63,0,0,0-2.49-.87,11,11,0,0,0-2-.19,5,5,0,0,0-2,.15A5,5,0,0,0,8,50.84c-1.82,2.47-2.27,5.52-2.31,8.51,0,2.15-.14,4.31,0,6.45s.47,4.36,1.86,6A3.81,3.81,0,0,0,9.85,73l-.26-.46L9.2,74.29l.73.1c0-.42,0-.83,0-1.24a.38.38,0,0,0-.75,0,10.81,10.81,0,0,0,.65,3.32c.33,1.36.45,2.78.67,4.16.45,2.75,1.07,5.48,1.68,8.2s1.25,5.33,2.05,8c.75,2.48,1.39,5,2.38,7.42.52,1.26,1.17,2.46,1.72,3.71s1.09,2.5,1.72,3.72a.39.39,0,0,0,.52.13,1.6,1.6,0,0,1,.89-.12,5.39,5.39,0,0,0,1.14-.15,10.87,10.87,0,0,1,2.55,0c2,.12,4,.24,6,.44a130.7,130.7,0,0,0,13.85.57,71.07,71.07,0,0,0,13.49-1.25,133.71,133.71,0,0,1,13.45-2.36,44.11,44.11,0,0,1,7-.21,6.13,6.13,0,0,0,1.28.09,4,4,0,0,0,1-.32c.68-.29,1.49-.88,2.25-.77a.38.38,0,0,0,.37-.28,8.93,8.93,0,0,0,0-3.85,18.17,18.17,0,0,1-.62-3.73,16.65,16.65,0,0,1,.28-2.33c.11-.79.2-1.6.25-2.4.11-1.68.12-3.37.09-5-.07-3.41-.22-6.79,0-10.18.13-1.68.3-3.35.42-5s.06-3.36,0-5.06a4.43,4.43,0,0,1,.27-1.7A9.35,9.35,0,0,0,85,66.58c.19-.89,0-1.69-1-1.78-.48,0-.48.71,0,.75Z" style="fill: #231f20"/>
    </g>
    <path d="M22.65,49.58V51.5a.38.38,0,0,0,.75,0c0-2.69.28-5.77,2.72-7.44s4.33,1.38,6.33,2.27a4.43,4.43,0,0,0,3.16.22,21.65,21.65,0,0,0,3-1.81,13.38,13.38,0,0,1,1.61-.68c.64-.25,1.24-.57,1.87-.82a4.06,4.06,0,0,1,2.62,0,3.39,3.39,0,0,0,2.79-.15c.82-.58,1.35-1.58,2.39-1.86a3.7,3.7,0,0,1,1.48,0,14.35,14.35,0,0,1,1.86.26c.94.28,1.61,1,2.58,1.28a6.13,6.13,0,0,0,3.09-.51,2.94,2.94,0,0,1,3.21,1.09,5.77,5.77,0,0,0,2.15,1.93,1.38,1.38,0,0,0,1.64-.6,3.78,3.78,0,0,1,.94-.93,1.82,1.82,0,0,1,1.95.17,12.21,12.21,0,0,0,2.72,1.13c1.38.4,4.45,1,4.37,2.93a.38.38,0,0,0,.28.36c.86.2,1.74,0,2.6.23l-.27-.26c.22.76.73,1.42,1,2.18a.37.37,0,0,0,.72-.2,18.07,18.07,0,0,0-.86-2,.73.73,0,0,0-.67-.55c-.76-.13-1.52,0-2.27-.15l.27.36c.07-1.78-1.84-2.63-3.26-3.13-.84-.3-1.71-.52-2.56-.8-1-.32-1.9-1.17-3-1.28a2.75,2.75,0,0,0-2.33,1.21c-.18.21-.39.6-.7.65s-1-.51-1.3-.79c-.75-.76-1.29-1.71-2.29-2.17a4.45,4.45,0,0,0-3.38.14,3.49,3.49,0,0,1-1.83.24,4.53,4.53,0,0,1-1.44-.72,7.28,7.28,0,0,0-3.25-.86,3.36,3.36,0,0,0-2.88.69c-.76.61-1.28,1.57-2.35,1.52s-2-.58-3.1-.51a12,12,0,0,0-3.32,1.22,12.23,12.23,0,0,0-1.53.67c-.62.34-1.15.81-1.75,1.18a3.77,3.77,0,0,1-3.82.25c-1.22-.61-2.14-1.65-3.34-2.29a3.27,3.27,0,0,0-3.6.18c-2.61,1.86-3,5.09-3,8h.75V49.58a.38.38,0,0,0-.75,0Z" style="fill: #231f20"/>
    <path d="M50.22,48.26c-1.45-1.18-1-3.49-1-5.13,0-1.13.17-2.22.3-3.34.16-1.4.1-2.79.32-4.18.76-4.87,2.06-9.8,5.47-13.51,1-1,2-2,2.94-3a7,7,0,0,1,1.5-1.27,5.61,5.61,0,0,0,1.43-.91c.35-.34-.19-.87-.53-.53a7.07,7.07,0,0,1-1.44.89,6.81,6.81,0,0,0-1.33,1.13c-.94.94-1.89,1.89-2.8,2.86a17.73,17.73,0,0,0-2.3,2.88,23.86,23.86,0,0,0-1.66,3.41,33.43,33.43,0,0,0-2,7.63c-.23,1.39-.24,2.76-.34,4.16-.09,1.23-.3,2.42-.34,3.66-.06,1.88-.48,4.44,1.19,5.8.37.3.9-.23.53-.53Z" style="fill: #231f20"/>
    <g>
      <path d="M61.29,17c-.44.11-1.26-.34-1.75-.43A17.62,17.62,0,0,0,56,16.28a16.14,16.14,0,0,0-2.64.36,6.08,6.08,0,0,0-1.4.16c-.44.16-.8.41-1.25.54-2,.6-3.91,1.38-5.84,2.13a8.54,8.54,0,0,1-2.48.34c-.41.05-.69.28-1.07.35a4.46,4.46,0,0,1-1.9-.43A5.84,5.84,0,0,1,38,19.14c-.59-.4-.58-.77-.87-1.36a7.61,7.61,0,0,1-1-3.06c-.08-2.06,1.49-4.43,3-5.69A5.57,5.57,0,0,1,42,8.1a14.4,14.4,0,0,1,3-.32A9.41,9.41,0,0,1,47.55,8c1,.26,2,.27,3,.61a22.67,22.67,0,0,1,5.33,2.49c.5.36,1.09.5,1.57.87s.8.87,1.22,1.25c.75.69,1.93,1.46,2,2.6l.29.06" style="fill: #007d00"/>
      <path d="M61.19,16.63a2.54,2.54,0,0,1-1.06-.28,5.92,5.92,0,0,0-1.26-.29,20.37,20.37,0,0,0-3-.15c-1,0-1.94.33-2.93.39a3.63,3.63,0,0,0-1.18.17c-.47.18-.9.43-1.39.58-1,.33-2,.68-3,1.06s-2,.86-3,1.13a25.43,25.43,0,0,0-2.62.38,3.45,3.45,0,0,1-2.49-.34A2.94,2.94,0,0,1,38,18.64a4.51,4.51,0,0,1-.57-1.14,6.81,6.81,0,0,1-.9-3A7.28,7.28,0,0,1,39,9.71a4.2,4.2,0,0,1,2.38-1.12,25,25,0,0,1,3-.42,10.56,10.56,0,0,1,3,.21c.94.22,1.93.27,2.86.56a27.09,27.09,0,0,1,3.13,1.23c1,.45,1.86,1.11,2.83,1.6a4.58,4.58,0,0,1,1.33.83c.33.34.62.71,1,1,.68.62,1.67,1.24,1.8,2.23a.41.41,0,0,0,.28.36l.29.07c.46.11.67-.61.2-.73l-.29-.07.27.37a3.31,3.31,0,0,0-1.19-2c-.31-.28-.64-.53-.95-.82s-.68-.79-1.07-1.13a4.58,4.58,0,0,0-1.18-.71c-.53-.25-1-.62-1.5-.91A19,19,0,0,0,52.35,9a14.94,14.94,0,0,0-3.21-1c-1-.16-2.09-.46-3.15-.53a15.93,15.93,0,0,0-3.24.16,13.12,13.12,0,0,0-2.91.62c-1.66.67-3,2.57-3.61,4.16a5.51,5.51,0,0,0-.45,2.8,10.61,10.61,0,0,0,1.06,2.93,2.7,2.7,0,0,0,1.54,1.68,7.23,7.23,0,0,0,2.75.78,5.15,5.15,0,0,0,1.14-.34,12.49,12.49,0,0,1,1.62-.13A13.53,13.53,0,0,0,47.17,19c1.25-.48,2.54-.85,3.8-1.32a5.71,5.71,0,0,1,1.76-.59,12.08,12.08,0,0,0,1.68-.22,13.54,13.54,0,0,1,4-.07,7.45,7.45,0,0,1,1.74.4,2.57,2.57,0,0,0,1.22.19c.48-.07.27-.79-.2-.72Z" style="fill: #231f20"/>
    </g>
    <g>
      <path d="M61.29,16.28c.63-.19,1.13-1.29,1.68-1.77s1-.87,1.58-1.32c1.52-1.31,3.52-2.73,5.62-2.95s4-.68,6,0,4,1.83,4.57,4.07A4.26,4.26,0,0,1,78,19c-1.91.66-3.95.42-5.95.44-1.25,0-2-.53-3.2-.72a9.85,9.85,0,0,1-2.54-1,14.13,14.13,0,0,0-6-1.15" style="fill: #007d00"/>
      <path d="M61.39,16.64a2.59,2.59,0,0,0,1.1-1A8.74,8.74,0,0,1,64,14.12a20.79,20.79,0,0,1,3.87-2.79,13.27,13.27,0,0,1,5-1,8.43,8.43,0,0,1,4.58.87,5.41,5.41,0,0,1,2.81,2.72,3.6,3.6,0,0,1-.85,3.75A5.86,5.86,0,0,1,75,19.11a14.57,14.57,0,0,1-4.8-.37c-.76-.25-1.58-.34-2.32-.63s-1.69-.79-2.57-1.1a15.76,15.76,0,0,0-5.1-.75.38.38,0,0,0,0,.75,14.77,14.77,0,0,1,5.31.88c.79.3,1.54.74,2.34,1s1.67.42,2.49.67a8,8,0,0,0,2.33.27c.93,0,1.85.05,2.78,0a6.41,6.41,0,0,0,4.31-1.54,4.56,4.56,0,0,0,1.4-3.65,5,5,0,0,0-2-3.26,9.24,9.24,0,0,0-4-1.78A18,18,0,0,0,70,9.89a10.48,10.48,0,0,0-4.9,2.39c-.8.63-1.62,1.27-2.35,2-.5.48-.86,1.42-1.52,1.68-.45.17-.25.9.2.72Z" style="fill: #231f20"/>
    </g>
    <path d="M42.07,14.42a3.89,3.89,0,0,1,1.75-.83c.86-.24,1.76,0,2.61-.22.21,0,.38-.19.59-.24a2.54,2.54,0,0,1,.73,0,8.07,8.07,0,0,1,1.39.12c.94.19,1.89.23,2.83.43a19.8,19.8,0,0,1,2.81.86,15.35,15.35,0,0,1,2.53.85,17.57,17.57,0,0,0,1.66,1,1,1,0,0,0,.58.12c.35-.07.46-.46.78-.57s.26-.87-.2-.72a1.22,1.22,0,0,0-.44.22c-.06.05-.2.28-.27.3s-.51-.23-.66-.32a8.22,8.22,0,0,0-2.14-1.11c-1.86-.49-3.6-1.35-5.53-1.54-.94-.1-1.86-.36-2.8-.4a6.08,6.08,0,0,0-1.28,0,11.77,11.77,0,0,1-1.33.34,8.13,8.13,0,0,0-2.46.29,4,4,0,0,0-1.68.89c-.33.35.2.88.53.53Z" style="fill: #231f20"/>
    <path d="M61.56,16.19a1.79,1.79,0,0,1,1.54-.61,9.51,9.51,0,0,0,1.47-.35c.64-.15,1.28-.32,1.92-.46s1.41-.2,2.13-.29c1.35-.17,2.63-.94,4-.5a9.42,9.42,0,0,0,1.8.57,16.53,16.53,0,0,0,2.11,0,.38.38,0,0,0,0-.75,9.82,9.82,0,0,1-2.3,0c-.68-.15-1.29-.52-2-.63-1.42-.23-2.82.56-4.23.66a22,22,0,0,0-4,.82c-1.1.3-2.18.12-3,1.06-.31.36.22.9.54.53Z" style="fill: #231f20"/>
  </g>
</svg>
