<svg xmlns="http://www.w3.org/2000/svg" width="52.21" height="62.77" viewBox="0 0 52.21 62.77">
  <title>Asset 14Web</title>
  <g id="Layer_2" data-name="Layer 2">
    <g id="Sketch">
      <g>
        <g>
          <path d="M2.51,25.23c0-2.53,2.81-3.33,4.63-4.1.91-.38,1.84-.52,2.71-.95.63-.32,1.24-.58,1.93-.85a18.17,18.17,0,0,1,6.41-.84c.86,0,1.77.09,2.63,0,1.31-.11,2.44-.45,3.8-.44s2.54-.33,3.9-.44,2.61,0,3.89,0a40.13,40.13,0,0,1,6.52.46,24.44,24.44,0,0,1,3.53.92c1,.31,1.94.44,2.92.83a27.73,27.73,0,0,1,2.95,1.24c.8.44,1.37,1.87,2.23,2.15l-1.82,4.67L3,29.6Z" transform="translate(0)" style="fill: #007d00"/>
          <path d="M2.89,25.23A3.31,3.31,0,0,1,5.1,22.41a26.41,26.41,0,0,1,3.82-1.47c1.65-.53,3.09-1.43,4.81-1.76a24.5,24.5,0,0,1,5.41-.29c1.94.06,3.79-.4,5.71-.45,1.77,0,3.48-.51,5.27-.48,3.74.07,7.54,0,11.16,1.1,1.92.57,3.84,1.06,5.7,1.82a4.5,4.5,0,0,1,2,1.43,3.56,3.56,0,0,0,1.45,1.3l-.26-.46-1.82,4.67.36-.28-4.56.17-10.89.4-13.23.49L8.61,29l-3.75.14-1.18,0a3.09,3.09,0,0,0-.61,0H3l.37.37-.47-4.37c-.05-.47-.8-.48-.75,0l.47,4.37A.39.39,0,0,0,3,30l4.56-.17,10.89-.4,13.23-.49,11.45-.42,3.75-.14c.59,0,1.2,0,1.79-.07h.08A.39.39,0,0,0,49.1,28l1.82-4.67c.08-.2-.09-.39-.26-.46-.62-.25-1-1-1.42-1.49a4.3,4.3,0,0,0-1.69-1.08c-.79-.34-1.59-.67-2.41-.95s-1.94-.5-2.9-.8a26.32,26.32,0,0,0-5.61-1.12c-2-.18-4-.16-5.94-.22a17.34,17.34,0,0,0-2.88.1c-.91.12-1.82.32-2.74.36-2,.08-3.93.51-5.93.45a25.33,25.33,0,0,0-5.5.3c-1.83.33-3.37,1.3-5.12,1.84A20.3,20.3,0,0,0,4.2,22a3.78,3.78,0,0,0-2.06,3.19A.38.38,0,0,0,2.89,25.23Z" transform="translate(0)" style="fill: #231f20"/>
        </g>
        <g>
          <path d="M46.74,34.5c1,0,0,1.6,0,2.13a14.13,14.13,0,0,0,0,1.72c0,2.48-.43,4.83-.42,7.31,0,2.81.3,5.82-.21,8.58-.38,2.07.81,3.28.33,5.28-.55-.1-1.61.75-2.17.66a19.48,19.48,0,0,0-3.5,0c-4.3.15-8.51,1.61-12.8,2a75.77,75.77,0,0,1-9.53.09c-1.92,0-3.74-.37-5.64-.44a12.37,12.37,0,0,0-2.72,0c-.61.16-.7-.09-1.14.16-.7-1.32-.95-2.15-1.63-3.49a30.44,30.44,0,0,1-1.68-4.87,87.75,87.75,0,0,1-2.18-9.09c-.21-1-.33-2.11-.51-3.15a8.06,8.06,0,0,1-.44-2.16,5.93,5.93,0,0,1,0,.73l.24-1C-.06,38.57.4,33.34.41,31.21c0-2.35.36-4.31,2.1-6a6.43,6.43,0,0,1,2.1,0,17.83,17.83,0,0,1,2.2.75c1.19.35,2.45.57,3.66.94a12.87,12.87,0,0,0,3.39.85c3.51.1,7,0,10.56,0,4.2,0,8.53.31,12.62-.52,2.23-.45,4.58-.82,6.78-1.36a36.68,36.68,0,0,0,3.77-1.33,24.31,24.31,0,0,1,3-1.3c.64.4.32,1.06.38,1.65a12.16,12.16,0,0,0,.55,2.37A8.07,8.07,0,0,1,51.8,30c0,1.41.16,2.22-1.16,3.1a11.82,11.82,0,0,1-3.55,1.1c-1.51.43-2.87,1-4.43,1.27-2,.4-4.07,1-6.15,1.17-1.66.18-3.3.59-4.95.85-.69.1-1.34.37-2,.44-1.11.11-2.16-.13-3.27.07a12.37,12.37,0,0,1-1.93.34,11.74,11.74,0,0,0-2,0,10.93,10.93,0,0,1-2.93.44c-2.05,0-3.83.43-5.86.42a25.42,25.42,0,0,0-3.41.44c-.87.1-1.83,0-2.71,0a12.8,12.8,0,0,1-2.94-.43c-.57-.12-1.11.08-1.68-.18s-.06-.18-.48-.31" transform="translate(0)" style="fill: #007d00"/>
          <path d="M46.74,34.87c.25,0-.33,1.39-.37,1.58a5.64,5.64,0,0,0,0,1.48c0,.53,0,1.07,0,1.61-.11,2.39-.43,4.75-.38,7.15a40.19,40.19,0,0,1-.15,7.11,7.21,7.21,0,0,0,0,2.7,6.74,6.74,0,0,1,.25,2.92l.36-.27c-.84-.08-1.48.69-2.32.64a30.73,30.73,0,0,0-3.59,0,51.76,51.76,0,0,0-8,1.27,44.43,44.43,0,0,1-8.37.94A74.63,74.63,0,0,1,16,61.74c-1.38-.13-2.76-.24-4.14-.32a7.43,7.43,0,0,0-1.7,0,4.8,4.8,0,0,0-1.37.23l.51.13c-.4-.76-.73-1.55-1.08-2.34S7.31,57.69,7,56.76C6.32,54.92,5.79,53,5.3,51.12s-.94-4-1.34-6c-.22-1-.38-2.09-.54-3.14a14.22,14.22,0,0,1-.54-2.78H2.13c0,.24,0,.49,0,.73a.38.38,0,0,0,.74.1l.23-1a.39.39,0,0,0-.27-.47C1.59,38.38,1.16,37.14,1,36A18.28,18.28,0,0,1,.77,32.2a13.67,13.67,0,0,1,.51-4.46c.25-.68.82-1.93,1.54-2.19a3.28,3.28,0,0,1,1.17,0,4.78,4.78,0,0,1,1.34.28,26.17,26.17,0,0,0,3,.93c1.09.26,2.16.55,3.22.91a20.3,20.3,0,0,0,6.51.52c2.37,0,4.73-.06,7.1,0s4.56.1,6.84,0a42.77,42.77,0,0,0,6.57-.83,45.61,45.61,0,0,0,6.65-1.47c1-.34,1.91-.69,2.83-1.08.39-.17.76-.37,1.14-.56.21-.11.42-.22.63-.31a3.38,3.38,0,0,1,.44-.18c.19-.06.19-.1.31,0s0,1,0,1.25a9.59,9.59,0,0,0,.29,1.51,11.27,11.27,0,0,1,.55,3,6.28,6.28,0,0,1-.13,2.29A3.21,3.21,0,0,1,49,33.34c-1,.26-2,.44-3,.76s-2,.67-3.08.9c-2.3.5-4.59,1-6.92,1.29-1.09.14-2.16.36-3.24.57-.54.1-1.09.17-1.64.29a11.32,11.32,0,0,1-1.82.38,29.15,29.15,0,0,0-3.24.09c-.5.1-1,.24-1.49.29A11.94,11.94,0,0,1,23,37.84a22.23,22.23,0,0,0-2.79.46c-1.07.1-2.15.07-3.22.18-2,.22-4.09.25-6.12.6a18.09,18.09,0,0,1-3.37.1,19.59,19.59,0,0,1-2.95-.42c-.44-.08-.88,0-1.31-.08s-.52-.29-.85-.41-.66.56-.2.72a6.67,6.67,0,0,0,.58.35,9.47,9.47,0,0,0,1.68.16,19.29,19.29,0,0,0,2.94.43,18.85,18.85,0,0,0,3.36-.07c.52-.08,1-.19,1.54-.27s1.27-.07,1.91-.1c1.16,0,2.3-.22,3.45-.32s2.16,0,3.22-.21c.48-.08.95-.21,1.42-.31a7.41,7.41,0,0,1,1.76,0c1.15,0,2.24-.43,3.4-.42A12.28,12.28,0,0,0,30.75,38c1.22-.32,2.49-.5,3.73-.73S36.86,37,38,36.76s2.44-.49,3.66-.75a35.26,35.26,0,0,0,3.51-.87c1.1-.35,2.17-.68,3.3-.92,1.56-.33,3.43-1,3.64-2.83a14.33,14.33,0,0,0,0-2.7,25.64,25.64,0,0,0-.72-3.12,8.27,8.27,0,0,1-.08-1.49,1.32,1.32,0,0,0-.36-1c-.58-.56-1.72.22-2.29.51a25.61,25.61,0,0,1-6.47,2.25c-2.4.51-4.85,1.05-7.28,1.34a57.38,57.38,0,0,1-7.42.22c-2.51,0-5,0-7.52,0-1.27,0-2.54,0-3.81,0a13.77,13.77,0,0,1-3.74-.27c-1.13-.32-2.23-.72-3.37-1a28.16,28.16,0,0,1-3.36-1,6.25,6.25,0,0,0-2.57-.4,1.73,1.73,0,0,0-.9.2,4.39,4.39,0,0,0-.93,1.08A9.12,9.12,0,0,0,0,31.21a37.84,37.84,0,0,0,0,3.84,5.88,5.88,0,0,0,1.15,3.48,2.41,2.41,0,0,0,1.43.77l-.27-.46-.23,1,.74.1c0-.24,0-.49,0-.73a.38.38,0,0,0-.75,0A13.13,13.13,0,0,0,2.66,42c.17,1.05.31,2.1.53,3.14.42,2.08.85,4.15,1.38,6.2s1.06,4,1.76,5.84c.31.87.74,1.67,1.12,2.51s.74,1.7,1.16,2.52a.38.38,0,0,0,.52.13,1.37,1.37,0,0,1,.57,0,5.68,5.68,0,0,0,.72-.11,9.27,9.27,0,0,1,1.58,0c1.21.08,2.41.16,3.61.28a77.46,77.46,0,0,0,8.06.31A42.59,42.59,0,0,0,31.56,62a78,78,0,0,1,8.15-1.42,25.17,25.17,0,0,1,4.07-.11,2.47,2.47,0,0,0,1.32-.13,3.17,3.17,0,0,1,1.34-.47.38.38,0,0,0,.36-.28,5.36,5.36,0,0,0,0-2.22A12,12,0,0,1,46.41,55c0-1,.27-1.92.33-2.88s0-2,0-3a58.29,58.29,0,0,1,.06-6.2c.09-1,.19-2,.24-3s-.08-2,0-3,1.19-2.52-.34-2.71c-.48-.06-.47.69,0,.75Z" transform="translate(0)" style="fill: #231f20"/>
        </g>
        <path d="M10.14,25.23v1.14a.38.38,0,0,0,.75,0c0-1.56.16-3.54,1.7-4.39,1.3-.72,2.53,1.11,3.66,1.53a2.73,2.73,0,0,0,1.74.08,10.66,10.66,0,0,0,1.87-1.1c.59-.32,1.27-.54,1.89-.81a2.29,2.29,0,0,1,1.67,0,2.43,2.43,0,0,0,1.53,0c.51-.24.8-.79,1.29-1.08s1.28-.09,1.87,0,1.09.57,1.7.77a2.71,2.71,0,0,0,1.73-.14,1.72,1.72,0,0,1,2,.41c.53.58,1.45,1.88,2.35,1.1.53-.46.76-1.13,1.62-.71a9.25,9.25,0,0,0,1.51.67c.8.24,2.76.57,2.74,1.68a.38.38,0,0,0,.28.36c.51.1,1,0,1.54.13l-.26-.26c.14.45.42.85.56,1.3s.87.26.72-.2-.42-.85-.56-1.3a.38.38,0,0,0-.26-.26c-.51-.12-1,0-1.54-.14l.27.37c0-1.07-1-1.61-1.85-1.94-.51-.2-1-.34-1.56-.5s-1.14-.64-1.77-.78a1.59,1.59,0,0,0-1.47.48c-.14.13-.27.41-.44.51s-.62-.19-.83-.43a4.41,4.41,0,0,0-1.39-1.26,2.85,2.85,0,0,0-2.07.11A1.78,1.78,0,0,1,30,20.6a4.25,4.25,0,0,1-.8-.46,5,5,0,0,0-2-.45,2,2,0,0,0-1.6.4,9.09,9.09,0,0,0-.72.66,1.06,1.06,0,0,1-1.11.2,5.27,5.27,0,0,0-1.52-.22,9.22,9.22,0,0,0-2.06.79,12.69,12.69,0,0,0-1.89,1.09,2.19,2.19,0,0,1-2.48-.16,9.42,9.42,0,0,0-2-1.29,2.11,2.11,0,0,0-2.05.44c-1.46,1.18-1.67,3-1.69,4.77h.75V25.23a.38.38,0,0,0-.75,0Z" transform="translate(0)" style="fill: #231f20"/>
        <path d="M26.79,24.33a2.36,2.36,0,0,1-.58-2c0-.65,0-1.32.09-2a47.43,47.43,0,0,1,.75-5.8,12.81,12.81,0,0,1,2.32-5.07c.58-.7,1.25-1.33,1.89-2a6.3,6.3,0,0,1,1-1,6.15,6.15,0,0,0,1-.65c.35-.33-.18-.86-.53-.53s-.76.43-1.11.7a11.32,11.32,0,0,0-1.11,1.08,24.13,24.13,0,0,0-2,2.17,13.7,13.7,0,0,0-2.33,5.48,27.19,27.19,0,0,0-.49,3.09c0,.54,0,1.08-.08,1.62s-.14.92-.16,1.4c0,1.27-.35,3,.75,3.94.36.31.9-.21.53-.53Z" transform="translate(0)" style="fill: #231f20"/>
        <g>
          <path d="M33.26,5.86c-.26.06-.75-.2-1-.26a10.65,10.65,0,0,0-2.12-.17,10.06,10.06,0,0,0-1.57.22,3.91,3.91,0,0,0-.83.09c-.26.1-.48.25-.74.33-1.18.35-2.33.81-3.47,1.26a4.9,4.9,0,0,1-1.48.2c-.24,0-.41.17-.64.21a2.64,2.64,0,0,1-1.12-.25,3.94,3.94,0,0,1-.84-.36c-.35-.23-.35-.45-.52-.8a4.54,4.54,0,0,1-.59-1.82,4.77,4.77,0,0,1,1.8-3.38A3.34,3.34,0,0,1,21.79.57,8.76,8.76,0,0,1,23.58.38,5.5,5.5,0,0,1,25.1.54c.57.15,1.21.16,1.75.36A13.25,13.25,0,0,1,30,2.38c.29.21.64.29.93.52a10.09,10.09,0,0,1,.72.74c.45.41,1.16.87,1.21,1.54l.17,0" transform="translate(0)" style="fill: #007d00"/>
          <path d="M33.26,5.48a6.7,6.7,0,0,1-1.36-.32,11.87,11.87,0,0,0-1.58-.1,8.49,8.49,0,0,0-1.5.16,5.85,5.85,0,0,0-1.5.28c-1.13.49-2.35.85-3.5,1.3a4.59,4.59,0,0,1-1.51.33c-.59,0-1,.31-1.6.12s-1.1-.28-1.34-.76a6.33,6.33,0,0,1-.66-1.65A3.76,3.76,0,0,1,20,1.75a4.76,4.76,0,0,1,3.18-1,10.85,10.85,0,0,1,3.4.44,14.27,14.27,0,0,1,3.36,1.56,5,5,0,0,1,.92.54c.23.2.4.45.63.66.42.39,1,.71,1.05,1.32a.36.36,0,0,0,.26.26l.17,0c.47.12.67-.61.2-.72l-.17,0,.26.26a2.09,2.09,0,0,0-.74-1.21c-.44-.41-.85-.91-1.32-1.27a6.76,6.76,0,0,0-.79-.43c-.3-.17-.58-.38-.89-.55a13,13,0,0,0-1.79-.8A12,12,0,0,0,24,0,8.93,8.93,0,0,0,20.44.5a4.74,4.74,0,0,0-2.22,2.56,4,4,0,0,0,.35,3.46,1.86,1.86,0,0,0,.8,1A5.23,5.23,0,0,0,21,8.1a8.71,8.71,0,0,0,1.59-.23,6.13,6.13,0,0,0,1.86-.51c.79-.31,1.58-.6,2.39-.87A9.42,9.42,0,0,1,28,6.08C28.31,6,28.67,6,29,5.94a8.88,8.88,0,0,1,2.36-.09,5.21,5.21,0,0,1,1,.2,2.31,2.31,0,0,0,.85.18c.48,0,.48-.79,0-.75Z" transform="translate(0)" style="fill: #231f20"/>
        </g>
        <g>
          <path d="M33.26,5.43c.38-.11.68-.76,1-1s.62-.51.94-.78a6.61,6.61,0,0,1,3.34-1.76,8.11,8.11,0,0,1,3.57,0,3.8,3.8,0,0,1,2.72,2.42,2.54,2.54,0,0,1-1.66,2.8,11,11,0,0,1-3.54.26,10.07,10.07,0,0,1-1.9-.43,5.92,5.92,0,0,1-1.51-.57,8.24,8.24,0,0,0-3.59-.69" transform="translate(0)" style="fill: #007d00"/>
          <path d="M33.45,5.76c.58-.26.9-1,1.38-1.37A13.9,13.9,0,0,1,37,2.75a7.24,7.24,0,0,1,2.86-.69,5.08,5.08,0,0,1,2.8.43A3.29,3.29,0,0,1,44.3,3.9a2,2,0,0,1-.48,2.33A3.81,3.81,0,0,1,41.09,7c-.49,0-1,0-1.46,0a5.39,5.39,0,0,1-1.31-.29,9.94,9.94,0,0,1-1.52-.48,11.6,11.6,0,0,0-1.27-.51,9.5,9.5,0,0,0-2.9-.4.38.38,0,0,0,0,.75,8.59,8.59,0,0,1,3.4.63,18.21,18.21,0,0,0,2.81.95,6.49,6.49,0,0,0,1.46.11,15.28,15.28,0,0,0,1.79,0,3.56,3.56,0,0,0,2.44-1.11A2.81,2.81,0,0,0,44,2.41a5.54,5.54,0,0,0-2.44-1.08,10.19,10.19,0,0,0-3.21.17,6.45,6.45,0,0,0-3,1.46c-.46.37-1,.75-1.38,1.16s-.52.81-.93,1-.06.84.38.65Z" transform="translate(0)" style="fill: #231f20"/>
        </g>
        <path d="M21.94,4.44c.7-.71,1.8-.38,2.63-.62a3.13,3.13,0,0,1,1.55,0c.58.11,1.17.13,1.75.27a13.77,13.77,0,0,1,1.65.53A7.2,7.2,0,0,1,31,5.15a3.48,3.48,0,0,0,.93.54.55.55,0,0,0,.4,0c.15-.06.23-.24.37-.3.45-.17.25-.89-.2-.72-.12,0-.35.29-.44.31a3.05,3.05,0,0,0-.3-.2,4.67,4.67,0,0,0-1.32-.66A21.47,21.47,0,0,0,27,3.17c-.59,0-1.14-.2-1.73-.22s-.94.2-1.45.21a3.5,3.5,0,0,0-2.45.75.38.38,0,0,0,.53.53Z" transform="translate(0)" style="fill: #231f20"/>
        <path d="M33.53,5.49c.26-.3.45-.29.82-.32a6.59,6.59,0,0,0,.88-.2,17.23,17.23,0,0,1,2.36-.45c.79-.09,1.56-.55,2.35-.31a6.42,6.42,0,0,0,1.13.35,10.44,10.44,0,0,0,1.25,0,.38.38,0,0,0,0-.75,5.78,5.78,0,0,1-1.38,0c-.41-.1-.77-.31-1.19-.37a12,12,0,0,0-2.59.4,13.49,13.49,0,0,0-2.43.52c-.67.19-1.23.06-1.73.64-.32.36.21.89.53.53Z" transform="translate(0)" style="fill: #231f20"/>
      </g>
    </g>
  </g>
</svg>
