<svg xmlns="http://www.w3.org/2000/svg" width="79.76" height="68.4" viewBox="0 0 79.76 68.4">
  <title>Asset 7Web</title>
  <g id="Layer_2" data-name="Layer 2">
    <g id="Sketch">
      <g>
        <path d="M3.18,63.88c-1.1.23-1.54-.22-1.82-1.18a14.23,14.23,0,0,1-.63-3.47c.08-2.34,1.28-3.37,3-4.44,0-.85-1.25-2.12-1.6-3a11.36,11.36,0,0,1-.74-4.53c0-2.2.93-6.19,4-5.47-1.2-1-1.28-2.81-1.72-4.23C3.09,35.77,2,34.15,2,32.21a4.79,4.79,0,0,1,2.16-3.9c2.08-1.67,2.68-1,2.65-3.81,0-3-.75-7.14,1.08-9.76,1.37-2,4.94-2.8,7.18-2.88a21.49,21.49,0,0,1,2.27,0c.7.05,1.91.75,2.49.46a15.6,15.6,0,0,1,2.87-5.52c1.93-2.54,5.62-3.66,8.48-4.51a9.83,9.83,0,0,1,9.34,2.07c1.05.93,2.87,2.42,3.33,3.76C44.43,5.68,50,3.73,52,3.06c4.14-1.39,10-4,14.21-1.84,2.91,1.51,5.46,5.1,5.44,8.43,0,1.65.08,4.92-1.5,6,.31.63,1.05.35,1.67.38a4.85,4.85,0,0,1,3.69,1.39c2.45,2.39,4.68,5.7,3.72,9.23A11.11,11.11,0,0,1,76,31.82c-1.54,1.37-3.33,1.62-5.27,2.23a14.46,14.46,0,0,1-3.42.82c-1,.07-2.44-.49-3.31-.31-1.5.3-1.57,2.29-2.73,3.52a19,19,0,0,1-4,3.44c-3.51,2.07-8.12-.23-11.5-1.59,1.48,3.78,2.5,7.76-2.64,8.38-2,.25-5.23.54-7.13-.29-1.28-.57-2.07-2.15-3.53-2.38.07,1.66.64,2.63-.38,4.19a9.8,9.8,0,0,1-4.82,3.65,10.15,10.15,0,0,1-4.3.86c-.89-.05-1.59-.5-2.39-.46-.3,2.1-.74,4.11-2.3,5.68-1,1-2.72,2.52-4.14,2.59,1.21,2.58-1.36,3.36-3.37,3.55s-3.28-.45-4.91.84c-1.42,1.12-2.73,2.29-4.37.8-1.12-1-2.07-3.5.46-3.46" transform="translate(-0.01 -0.01)" style="fill: #007d00"/>
        <path d="M3.08,63.51c-1.07.2-1.28-.57-1.51-1.45a11.31,11.31,0,0,1-.47-2.77A4.18,4.18,0,0,1,2,56.7a5.36,5.36,0,0,1,.91-.87A7.49,7.49,0,0,0,4,55.06c.43-.51-.32-1.53-.6-1.94a8.06,8.06,0,0,1-1.31-2.66,11.21,11.21,0,0,1,0-5.4c.39-1.56,1.34-3.29,3.22-2.89.34.08.66-.35.36-.62-1-.88-1.14-2.19-1.44-3.39a39.28,39.28,0,0,0-1.4-3.8,4.91,4.91,0,0,1-.07-3.87A7,7,0,0,1,5.21,28a4.74,4.74,0,0,0,1.53-1.16,4,4,0,0,0,.4-2.23c0-2.47-.45-5,.11-7.46a5.13,5.13,0,0,1,1.64-2.95A8.53,8.53,0,0,1,12,12.72a14.7,14.7,0,0,1,3.29-.49,11.7,11.7,0,0,1,2.05,0c.58.08,1.1.36,1.67.47.31.06.83.14,1.08-.13s.16-.45.22-.66a8.93,8.93,0,0,1,.3-.87,17.12,17.12,0,0,1,2-3.5,11.83,11.83,0,0,1,6-4,22.85,22.85,0,0,1,3.87-1.13A9.33,9.33,0,0,1,37,2.77a11.07,11.07,0,0,1,3.76,2.34,8.8,8.8,0,0,1,2.7,3.12.38.38,0,0,0,.72,0,4.35,4.35,0,0,1,2-2.18,20.16,20.16,0,0,1,3.21-1.63c2.19-.9,4.47-1.66,6.71-2.4C58.87,1.11,62,.21,64.92,1.1a9.83,9.83,0,0,1,6,6.31,11.55,11.55,0,0,1,.32,4.18c-.07,1.22-.2,2.95-1.28,3.74a.38.38,0,0,0-.13.51c.4.65,1,.6,1.67.57a6,6,0,0,1,2.35.34A6,6,0,0,1,76,18.48a14.5,14.5,0,0,1,1.79,2.34,7.39,7.39,0,0,1,1.09,5.63,10.32,10.32,0,0,1-3.12,5.1c-1.48,1.32-3.48,1.63-5.31,2.2a12.49,12.49,0,0,1-3.11.75,16.56,16.56,0,0,1-2.52-.33c-1.58-.15-2.26.9-2.88,2.18a12.26,12.26,0,0,1-4,4.32,7.23,7.23,0,0,1-6.13,1,38.44,38.44,0,0,1-5.9-2.13.38.38,0,0,0-.47.46c.74,1.88,2.15,5.11.41,6.84-1,1-2.66,1.09-4,1.21a14.28,14.28,0,0,1-5-.18c-1.68-.47-2.5-2.29-4.22-2.62a.38.38,0,0,0-.48.36c.08,1.27.51,2.53-.15,3.72a8,8,0,0,1-3,2.88,13.52,13.52,0,0,1-3.92,1.54,6.13,6.13,0,0,1-2.52.12,9.33,9.33,0,0,0-2-.39.37.37,0,0,0-.36.27A9.73,9.73,0,0,1,18.32,59c-1,1.14-2.57,2.65-4.15,2.79a.38.38,0,0,0-.32.56,1.67,1.67,0,0,1-.35,2.16,4.61,4.61,0,0,1-2,.72c-1.62.29-3.4-.22-4.94.46-1.7.74-3.22,3.19-5,1.16a3.05,3.05,0,0,1-.79-1.57c-.1-.8.53-1,1.22-1a.38.38,0,0,0,0-.75c-1.32,0-2.25.81-1.9,2.18A3.58,3.58,0,0,0,3,68.41c2,.1,3.06-2.15,5-2.32.94-.08,1.88.07,2.83,0A7.86,7.86,0,0,0,13,65.61a2.93,2.93,0,0,0,1.66-1.31A2.69,2.69,0,0,0,14.49,62l-.32.56c1.77-.15,3.38-1.61,4.55-2.86A10.12,10.12,0,0,0,21,54l-.36.28c.82,0,1.57.4,2.39.46a8.44,8.44,0,0,0,2.4-.24,14.06,14.06,0,0,0,4.31-1.79,8.4,8.4,0,0,0,3-3c.68-1.32.28-2.61.2-4L32.4,46a4.67,4.67,0,0,1,2.16,1.43,5.11,5.11,0,0,0,2,1.17,14.47,14.47,0,0,0,5.37.22,7.39,7.39,0,0,0,4.28-1.26,3.74,3.74,0,0,0,1.18-3.05,14.44,14.44,0,0,0-1.21-4.68l-.46.46c3.34,1.36,7.37,3.44,11,1.94a14.59,14.59,0,0,0,4.85-3.88,8.68,8.68,0,0,0,1.22-2.05c.37-.74.78-1.41,1.69-1.4s1.79.36,2.7.35a10.25,10.25,0,0,0,3-.64c1.82-.57,3.84-.9,5.43-2,3.12-2.2,5-6.57,3.69-10.25A13.77,13.77,0,0,0,75.61,17a4.76,4.76,0,0,0-2.32-1.2,11.5,11.5,0,0,0-1.3-.15c-.42,0-1.28.21-1.54-.21l-.13.52a4.53,4.53,0,0,0,1.54-3.17A16.8,16.8,0,0,0,72,8.93a10.75,10.75,0,0,0-5-7.68C64.22-.51,60.83-.11,57.8.72a81.11,81.11,0,0,0-8,2.74,22,22,0,0,0-4,1.94A5.15,5.15,0,0,0,43.45,8h.72a6.69,6.69,0,0,0-1.6-2.27,27.16,27.16,0,0,0-2.34-2.08A10.31,10.31,0,0,0,34.1,1.52,17.17,17.17,0,0,0,28,2.92,13.11,13.11,0,0,0,22.85,6a15.36,15.36,0,0,0-2,2.81,11.49,11.49,0,0,0-1.43,3.41l.26-.26c-.59.23-1.38-.26-2-.4a9.42,9.42,0,0,0-2.6-.08,14.44,14.44,0,0,0-4,.69,7.28,7.28,0,0,0-3.41,2.06,7.41,7.41,0,0,0-1.46,4,30.38,30.38,0,0,0,0,4.77,21.73,21.73,0,0,1,0,2.28,2,2,0,0,1-.33,1.22,3.79,3.79,0,0,1-1,.67,13.27,13.27,0,0,0-1.6,1.19,5.12,5.12,0,0,0-1.91,3.57c-.11,2,1,3.73,1.63,5.56.52,1.59.56,3.4,1.87,4.6l.37-.63c-2.74-.59-4,2.13-4.34,4.4a12.76,12.76,0,0,0,.2,4.61,6.71,6.71,0,0,0,.94,2.32c.38.57,1.08,1.29,1.1,2l.18-.32a7.47,7.47,0,0,0-2.42,2.12,5,5,0,0,0-.74,3.2,12.86,12.86,0,0,0,.71,3.31,1.76,1.76,0,0,0,2.19,1.14c.47-.09.27-.81-.2-.73Z" transform="translate(-0.01 -0.01)" style="fill: #231f20"/>
      </g>
    </g>
  </g>
</svg>
