<svg id="Sketch" xmlns="http://www.w3.org/2000/svg" width="100mm" height="72.66mm" viewBox="0 0 283.46 205.95">
  <title>Verwaltung-2</title>
  <g>
    <g>
      <path d="M6.92,192.12c0-1.46-.24-2.76-.23-4.22,0-1.64-.47-3.14-.47-4.77,0-.41,0-.84,0-1.25s-.2-.77-.25-1.17,0-.92,0-1.37c0-.6-.2-1.14-.25-1.74-.07-.86,0-1.77,0-2.63a5.13,5.13,0,0,0-.22-1.18,11.87,11.87,0,0,1,0-2.23c0-.87-.24-1.61-.23-2.46,0-1,0-2.1,0-3.15S5,163.82,5,162.73s0-2.25,0-3.37c0-2.71,0-5.42,0-8.12,0-1.45.24-2.84.24-4.3s.23-3.08.23-4.65a14.4,14.4,0,0,1,0-2.46,9.09,9.09,0,0,0,.19-1.74c0-1.45,0-2.9,0-4.35,0-2.52-.24-5.18,0-7.69.06-.61.25-1.16.26-1.78,0-.46,0-.93,0-1.4v-6.4a17.84,17.84,0,0,1,0-3.27c.44-2.23-.15-4.56.24-6.78A38.6,38.6,0,0,0,6.45,100c0-2.47,0-4.94,0-7.41,0-1.13.24-2.2.24-3.33V82.65c0-1.34.23-2.61.23-3.94V67.11A18.59,18.59,0,0,1,7.17,65a33.49,33.49,0,0,0,0-3.47V52.1c0-1.94-.15-3.93,0-5.86.05-.61.24-1.17.25-1.79s0-.94,0-1.4c0-1.09-.23-2.1-.23-3.19,0-.35-.12-.9.11-1.17s1-.38,1.29-.56A42,42,0,0,1,12.67,36c1.31-.63,2.55-1.38,3.91-1.91s2.25-1.22,3.43-1.73,2.19-1.08,3.32-1.55a21.6,21.6,0,0,0,2.17-1c.57-.31,1.14-.52,1.71-.81a26.71,26.71,0,0,0,3.29-1.89,14,14,0,0,1,2.55-1.16A29,29,0,0,0,36,24.36a44,44,0,0,1,4.44-2.11c.5-.21,1-.26,1.53-.45.67-.25,1.34-.53,2-.83,2.6-1.15,5.1-2.5,7.75-3.55s5.16-2.07,7.77-3c.69-.26,1.34-.62,2-.87a6.9,6.9,0,0,0,1.17-.45,5.84,5.84,0,0,1,1.17-.72,11.16,11.16,0,0,0,1.58-.7,6.91,6.91,0,0,1,1-.6c.21-.07.45,0,.66-.1s.43-.3.66-.38a6.34,6.34,0,0,1,3.4,0c.82.15,1.66.16,2.47.34s1.35.36,2,.48c1.53.27,3.08.44,4.61.75,1.14.24,2.26.43,3.39.65a22,22,0,0,0,4.29.77c2.8-.05,5.66.84,8.39,1.35,1.4.26,2.85.3,4.24.58a42.17,42.17,0,0,0,4.45.88c1.94.16,3.89.67,5.82.94a13.22,13.22,0,0,0,2.17.24,14.44,14.44,0,0,1,3.29.29c1.1.25,2.23.4,3.36.59a27.24,27.24,0,0,0,2.72.29c1,.07,2,.43,3,.48s1.87.19,2.8.23c.75,0,1.47.21,2.22.24a36.79,36.79,0,0,1,4.45.28,23.14,23.14,0,0,0,3.42.41,18.68,18.68,0,0,1,3.51.71,14.31,14.31,0,0,0,2.65.47,7,7,0,0,1,2.62.75c0,.69-.32,1.33-.33,2,0,.86,0,1.72,0,2.58a16.29,16.29,0,0,0,.36,2.94c.17,1,.21,2,.41,3s.29,2.2.43,3.31.41,2.12.46,3.21a19.7,19.7,0,0,1-.06,3.84c-.32,1.92-.06,3.86-.3,5.8-.23,1.74,0,3.48-.14,5.23-.13,2.18-.22,4.33-.22,6.52,0,4.78-.23,9.52-.23,14.3V87.31c0,5.75.21,11.49.24,17.24,0,6.48-1,12.91-1,19.4,0,2.75.14,5.49.27,8.23s.35,5.53.63,8.25a40.42,40.42,0,0,1,0,4.12v6.09c0,3.47-.26,6.93-.24,10.4,0,4.27.1,8.54-.21,12.79-.05.78.31,2.2-.34,2.76a9.19,9.19,0,0,1-2,1c-1.17.53-2.36,1-3.5,1.6-2.43,1.3-5,2.17-7.48,3.48-3.76,2-7.71,3.61-11.54,5.48-6.44,3.17-12.77,6.52-19.25,9.62-2.86,1.37-6,2.18-8.78,3.63-1.91,1-4,1.65-5.82,2.7a8,8,0,0,1-1.69.93c-1.58.43-1.64-.3-3.26-.38-2.89-.15-13.47-1.68-20.09-2.25-4.65-.4-9.89-1.86-14.5-2.63-7.65-1.28-14.95-1.3-22.5-3.08-3.69-.87-8.15-.63-11.76-1.8-2-.64-2.62-.19-4.56-.89-.83-.3-3.55-.15-3.65-1.08s.4-1.41.48-2.23Z" style="fill: #edf0f6"/>
      <path d="M7.17,192.12a54.7,54.7,0,0,0-.52-7c-.16-1.11-.06-2.2-.18-3.3A17.75,17.75,0,0,1,6.21,180a10.83,10.83,0,0,0-.13-1.8c-.19-1.2,0-2.39-.1-3.58-.06-.5-.24-1-.26-1.48s.07-1.32,0-2c-.07-1.17-.22-2.31-.22-3.49s-.06-2.59-.18-3.89c-.24-2.61-.06-5.31,0-7.93s0-5.23.19-7.86c.07-1.19.08-2.39.16-3.58s0-2.61.09-3.92S6,138.2,6,137s0-2.66,0-4a43.93,43.93,0,0,1,.13-7.78,44.75,44.75,0,0,0,.11-7c0-1.16,0-2.3-.05-3.45s.27-2.5.27-3.77-.13-2.38,0-3.58.33-2.58.34-3.91c0-2.56,0-5.12,0-7.68,0-1.24-.06-2.48,0-3.71s.24-2.7.24-4.07c0-5.15.23-10.27.23-15.43a57.07,57.07,0,0,1,.21-7.4,23.24,23.24,0,0,0,0-3.44c0-1.34,0-2.68,0-4,0-2.64,0-5.28,0-7.92a31.92,31.92,0,0,1,0-3.66,25.35,25.35,0,0,0,.25-3.37c0-.65-.11-1.29-.17-1.94a5.14,5.14,0,0,1-.09-1.56c.19-.63.65-.71,1.16-.95s1-.59,1.54-.86c2.26-1.2,4.59-2.31,6.92-3.37s4.35-2.25,6.61-3.22a47.26,47.26,0,0,0,6.15-3.11,21.42,21.42,0,0,1,3.09-1.58,26.56,26.56,0,0,0,2.95-1.53,30.47,30.47,0,0,1,3.28-1.65c1.18-.52,2.4-.84,3.59-1.32,2.3-.92,4.5-2.08,6.75-3.11,2.49-1.15,5.06-2.11,7.61-3.11,1-.4,2.1-.77,3.13-1.21A17.8,17.8,0,0,0,63.24,13a28.51,28.51,0,0,1,2.81-1.43c.46-.23,1-.3,1.42-.49a4.46,4.46,0,0,1,1.32-.44,5.7,5.7,0,0,1,1,0c2.56.23,5,.93,7.59,1.31s5,.83,7.53,1.42,4.8.46,7.21.94,4.67,1,7.06,1.25c1.27.16,2.49.47,3.73.75s2.58.36,3.88.58a60.73,60.73,0,0,0,7.22,1c2.47.1,4.9.85,7.37,1.08,1.2.12,2.37.38,3.57.52s2.39.19,3.57.3,2.46.23,3.71.27c1.43.05,2.81.29,4.23.48,1.16.16,2.32.14,3.48.41s2.46.68,3.73.85c1,.14,3.09,0,2.94,1.51a32,32,0,0,0-.17,3.67c0,2.58.73,5.18,1,7.74a45.62,45.62,0,0,1,.68,7.27c0,1.15-.26,2.27-.28,3.43,0,1.34,0,2.66-.18,4s0,2.49-.06,3.73c0,1.4-.13,2.8-.18,4.19-.1,2.64-.07,5.27-.12,7.91-.11,5.39-.18,10.78-.18,16.18s0,10.6.13,15.9.11,10.67-.29,16a138.35,138.35,0,0,0-.43,15.9c.11,2.63.24,5.25.46,7.87.1,1.25.25,2.49.34,3.74s0,2.76,0,4.13c0,2.67,0,5.35,0,8s-.22,5.39-.21,8.09,0,5.27,0,7.9c0,1.26-.06,2.51-.13,3.76,0,.52-.09,1-.08,1.56a5.1,5.1,0,0,1,0,1.7c-.33,1-2,1.34-2.87,1.72-1.19.52-2.35,1.07-3.5,1.64-2.25,1.13-4.62,2-6.85,3.15-4.55,2.39-9.3,4.37-13.9,6.66s-9.42,4.8-14.16,7.13c-2.38,1.16-4.76,2.2-7.23,3.13-2.24.84-4.35,1.91-6.55,2.85-1.09.47-2.19.92-3.24,1.49s-2,1.44-3.42,1.08a22.91,22.91,0,0,0-3.59-.56c-3.49-.36-7-.83-10.46-1.25-4.22-.5-8.48-.76-12.66-1.54-4.82-.91-9.56-2-14.44-2.59-5.25-.62-10.54-1-15.73-2a68.19,68.19,0,0,0-6.82-1.1,40.89,40.89,0,0,1-7.12-1.2,13.72,13.72,0,0,0-2.37-.36c-.85-.09-1.61-.42-2.44-.55s-1.43-.11-2.12-.29-.81-.32-.73-1,.35-1,.43-1.6l-.49-.07v1.41a.25.25,0,0,0,.5,0v-1.41c0-.27-.45-.35-.49-.07-.2,1.27-1.17,2.71.56,3.19a18.13,18.13,0,0,0,2.09.3c.83.11,1.61.45,2.45.55a19.31,19.31,0,0,1,3.11.56,21.43,21.43,0,0,0,3.26.67c2.52.34,5.08.41,7.57.91s5.1,1,7.69,1.38,5.38.6,8.07.88c5.3.56,10.44,1.58,15.66,2.62,4.3.86,8.66,1.17,13,1.68,3.76.44,7.52,1,11.29,1.35.53.06,1.06.12,1.59.16a21.45,21.45,0,0,1,2.41.5,3.2,3.2,0,0,0,2-.37c1.24-.64,2.38-1.36,3.67-1.92,2.42-1,4.77-2.24,7.24-3.16s4.6-1.83,6.84-2.92c5-2.43,9.89-5,14.84-7.46s9.74-4.56,14.54-7c2.35-1.18,4.81-2.12,7.16-3.3,1-.53,2.12-1,3.19-1.45.78-.34,2-.62,2.36-1.45a4.41,4.41,0,0,0,.13-2.11c0-1.38.15-2.8.18-4.19.08-2.69.06-5.39,0-8.09,0-5.55.24-11.11.23-16.67,0-1.37.08-2.76,0-4.14s-.26-2.74-.37-4.11c-.23-2.74-.36-5.49-.47-8.24a147.22,147.22,0,0,1,.53-16.67c.39-5.54.28-11.06.17-16.6s-.1-11.12-.1-16.68.19-11.31.23-17,.37-11,.49-16.54c.05-2.42.47-4.73.11-7.16-.39-2.61-.74-5.23-1.11-7.85a32.56,32.56,0,0,1-.43-4.17c0-.61,0-1.23,0-1.84s.28-1.34.33-2a.24.24,0,0,0-.12-.22,8.74,8.74,0,0,0-2.92-.79,25.06,25.06,0,0,1-3.81-.8,22.68,22.68,0,0,0-3.38-.45c-1.31-.14-2.58-.43-3.89-.51s-2.79-.08-4.19-.26c-1.14-.14-2.29-.2-3.44-.3s-2.29-.41-3.46-.51c-1.41-.12-2.8-.33-4.19-.56-1.06-.19-2.1-.45-3.18-.54-1.39-.12-2.74-.11-4.13-.33-1.22-.2-2.42-.46-3.64-.66s-2.6-.29-3.88-.57-2.27-.56-3.43-.72-2.59-.28-3.87-.54a42.6,42.6,0,0,0-7.08-1.21,48.91,48.91,0,0,1-7.56-1.27c-2.46-.47-4.93-.88-7.39-1.39-1.15-.23-2.35-.36-3.52-.52a5.23,5.23,0,0,0-2.77.3c-.44.18-.92.28-1.36.48s-.92.57-1.41.8a11.14,11.14,0,0,0-1.46.64,9.78,9.78,0,0,1-1.77.89c-2.35.86-4.67,1.86-7,2.79s-4.66,1.87-6.94,3c-1.17.56-2.33,1.13-3.52,1.66s-2.44.88-3.67,1.35A57.52,57.52,0,0,0,34,25.2c-1,.51-2.07.82-3,1.34s-2.11,1.32-3.22,1.9c-2.13,1.11-4.33,2-6.49,3.09s-4.51,2.14-6.73,3.27c-1.07.55-2.14,1.09-3.22,1.61s-2.18,1.27-3.32,1.7c-.54.2-1,.32-1.05.94a15.09,15.09,0,0,0,.22,3.28,17.44,17.44,0,0,1-.18,3.54,23.65,23.65,0,0,0-.07,3.67c.06,2.63,0,5.27,0,7.9,0,1.23,0,2.46,0,3.69a37.64,37.64,0,0,1,0,3.83,29.21,29.21,0,0,0-.25,3.1v4.25c0,2.6.14,5.24-.07,7.83s-.16,5.06-.16,7.6c0,1.31-.1,2.58-.2,3.88s0,2.6,0,3.9c0,2.62,0,5.25,0,7.87,0,1.27-.21,2.48-.32,3.74a33.7,33.7,0,0,0,0,3.76c0,1.21-.26,2.39-.27,3.6s.05,2.52.05,3.79a50.89,50.89,0,0,1-.2,7.41,47.06,47.06,0,0,0,0,7.32c0,1.21,0,2.42,0,3.63,0,.6,0,1.21,0,1.82s-.21,1.37-.25,2.06c-.12,2.5-.1,5-.25,7.5s-.19,5.23-.19,7.86-.19,5.32,0,7.93C5,165,5,166.16,5,167.35s.14,2.55.22,3.84a21,21,0,0,0,.11,3c.26,1.25,0,2.53.17,3.79a14.55,14.55,0,0,1,.2,1.73,6.45,6.45,0,0,0,.06,1.39c.24,1.25.14,2.5.32,3.77a61.19,61.19,0,0,1,.56,7.28C6.68,192.44,7.18,192.44,7.17,192.12Z" style="fill: #231f20"/>
    </g>
    <g>
      <path d="M7.58,39.1l0-.23a3.8,3.8,0,0,1,2,.26c.78.21,1.66.56,2.51.78s1.95.5,2.94.73a8.69,8.69,0,0,0,1.13.13c.57,0,1.1.27,1.68.29,1.15,0,2.2.19,3.35.26s2.22.49,3.34.57a16.7,16.7,0,0,1,2.24.57c.8.17,1.71.1,2.51.25.34.07.62.25,1,.3a12.26,12.26,0,0,1,1.57.2,7.38,7.38,0,0,0,1.36.36,12.47,12.47,0,0,1,1.62.06c1.13.23,2.25,0,3.39.24s2.43.34,3.66.51c.53.07,1.07-.05,1.6,0s.88.26,1.34.3c.77.07,1.59-.13,2.36,0a7.36,7.36,0,0,0,1.32.27c.49,0,1,0,1.48,0a4.86,4.86,0,0,1,1.13.14c.66.15,1.3,0,2,.12a7.26,7.26,0,0,0,1.09.31c.47,0,1,0,1.42,0,1,0,2,.46,3.06.57.47,0,1-.06,1.42,0a11.78,11.78,0,0,0,1.42.26,25.92,25.92,0,0,1,3.52.49c2.44.41,5,.42,7.42.93a12.09,12.09,0,0,0,2.82.25c1.35,0,2.65.41,4,.53a7.37,7.37,0,0,1,1.19.24c.55.14,1.09,0,1.63.05,1,.17,1.78.58,2.72,0a20.65,20.65,0,0,1,2.56-1.33c1.26-.54,2.65-.67,3.9-1.17s2.31-1,3.5-1.35a10,10,0,0,1,1.59-.34,14.27,14.27,0,0,0,2.19-.78c3.09-.94,6-2.55,8.94-3.79,4.17-1.73,8.26-3.69,12.67-4.79a79.42,79.42,0,0,0,13.13-4.49,33.44,33.44,0,0,0,3.5-1.73c.55-.32,1.14-.59,1.67-1A14.4,14.4,0,0,1,140.7,27c1.19-.59,2.14-1.48,3.35-2a8.42,8.42,0,0,0,1.1-.62,4.18,4.18,0,0,0,1.37-1,.42.42,0,0,1-.24.47" style="fill: #edf0f6"/>
      <path d="M7.82,39.17c.1-.47,2.91.56,3.22.66,1.15.38,2.33.65,3.5.93a54.48,54.48,0,0,0,7,.83,19.24,19.24,0,0,1,2,.39c.61.12,1.24.14,1.84.3s1,.35,1.55.45a16.42,16.42,0,0,0,1.71.14,14.67,14.67,0,0,1,1.65.38c.56.12,1.13.07,1.68.24a7.09,7.09,0,0,0,1.43.34c.6,0,1.16,0,1.76.09a13.88,13.88,0,0,0,1.82.1,17.23,17.23,0,0,1,2.15.23,21.1,21.1,0,0,0,3.62.39,7.11,7.11,0,0,1,1.84.26,7.61,7.61,0,0,0,1.72,0,6.4,6.4,0,0,1,1.63.22,7.22,7.22,0,0,0,1.61.08,10.89,10.89,0,0,1,1.81.18,17,17,0,0,1,1.89.12,5,5,0,0,0,1.08.27c.66,0,1.3-.05,2,0s1.08.26,1.63.38a7.71,7.71,0,0,0,1.73.12,15.3,15.3,0,0,1,1.65.26c.65.08,1.3.1,1.94.2,1.22.19,2.43.42,3.66.56s2.65.23,4,.41,2.3.45,3.48.5a31.67,31.67,0,0,1,3.77.38c.55.1,1.11.13,1.66.24a6.44,6.44,0,0,0,1.45.22,7.2,7.2,0,0,1,1.78.2,3.24,3.24,0,0,0,1.35.05,5.74,5.74,0,0,0,1.36-.67,16.23,16.23,0,0,1,1.61-.82c1.19-.52,2.48-.69,3.71-1.11s2.37-1,3.6-1.4a31.15,31.15,0,0,0,3-.79c1.11-.49,2.29-.81,3.42-1.27s2.15-.94,3.22-1.43c2.24-1,4.52-2,6.79-3a75.3,75.3,0,0,1,7.1-2.73c2.41-.74,4.87-1.28,7.27-2s4.67-1.62,6.94-2.59a39.09,39.09,0,0,0,6.35-3.23c.93-.61,2-1,2.93-1.56s1.89-1.22,2.89-1.75a6.27,6.27,0,0,0,2.22-1.57l-.47-.13-.17.29c-.25.21.11.56.36.36a.74.74,0,0,0,.31-.65c0-.26-.33-.31-.46-.12a4.16,4.16,0,0,1-1.29.94c-.52.33-1.07.59-1.61.89-1,.54-1.84,1.26-2.84,1.76s-1.9,1-2.84,1.56-2,1.16-3.11,1.66A79.3,79.3,0,0,1,120.36,35a91.33,91.33,0,0,0-13.57,5.12c-2.29,1-4.5,2.16-6.85,3-.54.21-1.11.37-1.65.56s-1,.44-1.46.6-1,.18-1.55.3a15,15,0,0,0-1.83.6,32.51,32.51,0,0,1-3.57,1.32,18.84,18.84,0,0,0-3.19,1c-.5.24-1,.51-1.48.78a2.76,2.76,0,0,1-2.12.46,7.22,7.22,0,0,0-1.45-.25,8.2,8.2,0,0,1-1.78-.17c-1.09-.23-2.24-.38-3.35-.53s-2.36,0-3.53-.24-2.38-.41-3.59-.54-2.7-.23-4-.44c-1.11-.17-2.21-.42-3.33-.51-.64,0-1.24-.19-1.87-.28s-1.13,0-1.7,0a19.6,19.6,0,0,0-3.33-.54,4.53,4.53,0,0,1-1.6-.18A4.87,4.87,0,0,0,52,44.92c-.52,0-1-.14-1.53-.18s-1.21,0-1.82,0-1.08-.23-1.64-.3a13.58,13.58,0,0,0-1.69,0,14.39,14.39,0,0,1-1.74-.31c-.66-.09-1.33,0-2-.07-1.2-.15-2.39-.36-3.6-.5a15.81,15.81,0,0,0-1.69-.07c-.64,0-1.26-.16-1.89-.19a6.66,6.66,0,0,1-1.78-.14,7.35,7.35,0,0,0-1.53-.34,9.14,9.14,0,0,1-1.57-.34,9.57,9.57,0,0,0-1.68-.17c-1.13-.07-2.13-.56-3.24-.69-1.26-.14-2.46-.51-3.73-.6A26.3,26.3,0,0,1,17,40.65c-.53-.11-1.07-.12-1.61-.21s-1.22-.28-1.83-.43c-1.12-.29-2.21-.61-3.31-1a5.15,5.15,0,0,0-2.7-.42.24.24,0,0,0-.17.17l0,.23c-.06.32.42.45.48.14Z" style="fill: #231f20"/>
    </g>
    <g>
      <path d="M86.56,204.87v.75a6.85,6.85,0,0,0-.27-1.73c-.06-.37-.25-.66-.3-1s.05-.91,0-1.36a34.86,34.86,0,0,1-.82-5.06c0-.82-.29-1.46-.28-2.27a6.4,6.4,0,0,0,0-1.31,9.69,9.69,0,0,1-.29-1.09c-.18-1.69-.87-3.35-.84-5,0-1-.29-1.85-.28-2.82a15.14,15.14,0,0,0,0-1.65c-.06-.52-.28-1-.3-1.52,0-.81,0-1.62,0-2.43,0-1.38.29-2.69.28-4.07,0-2.53,0-5.06,0-7.59,0-1.61.28-3.15.28-4.76s0-3.21,0-4.81-.27-3.4-.29-5.11a29.06,29.06,0,0,0-.13-4.85,19,19,0,0,1-.14-3.37c0-.55,0-1.11,0-1.66,0-.88-.24-1.66-.3-2.52-.18-2.47,0-5,0-7.52,0-1.38-.3-2.7-.28-4.08,0-1.53,0-3.07,0-4.6v-3.92a22.32,22.32,0,0,1,.14-4.48,17,17,0,0,0,.14-3.57c0-1.78.17-3.54.26-5.32,0-.66.27-1.3.31-2s0-1.66,0-2.48c0-2.4.26-4.77.29-7.16,0-1.52,0-3,0-4.57,0-1.72.3-3.39.28-5.1s.06-3.29,0-4.94c0-1.25-.31-2.48-.3-3.75,0-.9,0-1.8,0-2.7,0-1.42-.26-2.77-.29-4.18,0-1.73,0-3.47,0-5.21V52a8.22,8.22,0,0,1,.06-2.53c.17,0,.25,0,.22.25" style="fill: #edf0f6"/>
      <path d="M86.31,204.87v.75a.25.25,0,0,0,.5,0c.06-1.06-.53-2-.59-3,0-.54,0-1-.07-1.57s-.26-1.31-.4-2c-.26-1.2-.23-2.39-.44-3.58a6.79,6.79,0,0,1-.15-1.74,3.67,3.67,0,0,0-.11-1.28c-.35-1.14-.51-2.38-.76-3.56s-.24-2.42-.42-3.64,0-2.4-.23-3.56a14.65,14.65,0,0,1-.17-4c.06-1.32.27-2.61.27-3.93s0-2.63,0-3.95,0-2.63,0-3.94.26-2.67.27-4c0-2.61,0-5.21-.17-7.82a34.62,34.62,0,0,1-.1-3.81,30.81,30.81,0,0,0-.24-3.84,34,34,0,0,1-.05-3.64c0-1.24-.25-2.42-.32-3.65-.14-2.65.19-5.32,0-8-.09-1.28-.26-2.53-.25-3.82s0-2.65,0-4,0-2.71,0-4.06a26.22,26.22,0,0,1,0-3.76c.34-2.55.21-5.12.38-7.69,0-.59.06-1.19.11-1.78s.27-1.3.31-2c.09-1.22,0-2.45,0-3.68.08-2.65.28-5.28.27-7.94,0-1.31,0-2.63,0-3.94s.23-2.59.23-3.9,0-2.78,0-4.17S84.09,78,84,76.7s0-2.6,0-3.89-.26-2.69-.28-4c-.08-5.29,0-10.6,0-15.89a12.25,12.25,0,0,1,.05-3.37l-.24.19h0c0,.32.51.33.5,0s-.13-.5-.47-.5a.24.24,0,0,0-.24.18,10.06,10.06,0,0,0-.07,2.9v4c0,2.67,0,5.35,0,8,0,1.33,0,2.66,0,4s.16,2.6.26,3.9,0,2.7,0,4.05.27,2.5.3,3.76a75.17,75.17,0,0,1-.21,8.08c-.21,2.66,0,5.34-.12,8-.06,1.29-.15,2.58-.2,3.87s0,2.58,0,3.86c0,.64-.21,1.26-.29,1.89s-.09,1.22-.13,1.83c-.08,1.28-.17,2.56-.17,3.84a28,28,0,0,1-.23,4.09,24.59,24.59,0,0,0,0,3.54c0,2.67,0,5.35,0,8,0,1.29.11,2.54.23,3.83a36.12,36.12,0,0,1,0,4c0,1.3-.05,2.61,0,3.92s.35,2.44.34,3.67-.07,2.53,0,3.78.29,2.43.27,3.69c-.05,2.63.26,5.23.26,7.86v3.91c0,1.34-.19,2.67-.26,4-.14,2.67,0,5.37,0,8,0,1.27-.18,2.52-.26,3.78a16.32,16.32,0,0,0,0,3.63,8.52,8.52,0,0,1,.26,1.88,11.36,11.36,0,0,0,0,1.75c.16,1.21.17,2.44.39,3.64s.44,2.42.71,3.59a4.8,4.8,0,0,1,.26,1.55,6.38,6.38,0,0,0,.07,1.51c.21,1.16.19,2.33.42,3.5.12.61.26,1.21.39,1.82a12.79,12.79,0,0,1,.18,2.14c0,1,.65,2,.59,3h.5v-.75a.25.25,0,0,0-.5,0Z" style="fill: #231f20"/>
    </g>
    <g>
      <path d="M14.84,52.49l-.22-.16c-.79.27-.34,3.42-.34,4.08s0,1.3,0,1.94a9.59,9.59,0,0,0,.32,1.94,17,17,0,0,0,2.75-.61c1-.19,2.06,0,3-.24a16,16,0,0,0,.33-3.32c0-1.09.36-2.37-.84-2.92a6,6,0,0,0-2.36-.15c-.56,0-1.13,0-1.7,0s-1-.36-1.52-.29" style="fill: #edf0f6"/>
      <path d="M15,52.32l-.22-.17a.28.28,0,0,0-.24-.07c-.48.2-.58.77-.62,1.23a11.33,11.33,0,0,0,0,2.1c.12,1.65-.11,3.34.38,4.94a.27.27,0,0,0,.25.19A12,12,0,0,0,17.16,60c1.08-.26,2.19-.09,3.28-.3a.21.21,0,0,0,.17-.17A25.32,25.32,0,0,0,21,55.83a3.51,3.51,0,0,0-.32-2.33c-.62-.82-1.73-.76-2.65-.71-.62,0-1.25,0-1.88,0s-1.2-.34-1.83-.3c-.32,0-.32.53,0,.5a9.2,9.2,0,0,1,1.46.29,17.22,17.22,0,0,0,1.76,0c.86,0,2.17-.3,2.76.52.43.61.2,1.52.19,2.21a18.91,18.91,0,0,1-.32,3.35l.17-.18c-1,.2-2.12,0-3.17.27a12.43,12.43,0,0,1-2.54.57l.24.18a19.35,19.35,0,0,1-.34-4.5c-.05-.62-.1-1.23-.09-1.85,0-.26,0-1.17.29-1.3l-.24-.07.21.17c.25.2.61-.15.36-.35Z" style="fill: #231f20"/>
    </g>
    <g>
      <path d="M14.56,73.15c-.08,1.37-.57,2.64-.56,4a16.65,16.65,0,0,0,0,3.46,15,15,0,0,1,1.71.61,7.9,7.9,0,0,0,1.61,0c.81,0,2.28.21,2.53-.82s-.3-2.36-.3-3.47c0-.58,0-1.16,0-1.74a13.73,13.73,0,0,0-.33-1.74,4.27,4.27,0,0,0-1.43,0,6.23,6.23,0,0,1-1.17-.26,12.6,12.6,0,0,0-2.38,0" style="fill: #edf0f6"/>
      <path d="M14.31,73.15c-.09,1.33-.54,2.62-.56,4a16,16,0,0,0,0,3.59.26.26,0,0,0,.17.18c.61.1,1.11.48,1.71.61a7.88,7.88,0,0,0,1.75,0c.79,0,1.83.16,2.43-.48.79-.86.17-2.46,0-3.44a17.36,17.36,0,0,1-.05-2.28,13.34,13.34,0,0,0-.33-1.89.23.23,0,0,0-.17-.17,2.63,2.63,0,0,0-1.15-.06A3.55,3.55,0,0,1,17,73a9.69,9.69,0,0,0-2.69-.09.25.25,0,0,0,0,.5,9.18,9.18,0,0,1,2.67.1,3.09,3.09,0,0,0,1,.18,3.49,3.49,0,0,1,1.25,0L19,73.53a16,16,0,0,1,.32,1.68c0,.67,0,1.33,0,2s.18,1.12.27,1.68.25,1.32-.11,1.76-1.56.33-2.21.34a5.2,5.2,0,0,1-1.67,0,12.12,12.12,0,0,0-1.52-.57l.17.18a15,15,0,0,1,0-3.61c0-1.29.47-2.54.56-3.82,0-.33-.48-.32-.5,0Z" style="fill: #231f20"/>
    </g>
    <g>
      <path d="M14.28,101.33V97.42c0-.56-.24-1.84.24-2.2.27-.2.89,0,1.16,0a7,7,0,0,0,1.23.21A20.32,20.32,0,0,1,19,96c.7.17.89,0,.79.83-.06.43-.37.84-.46,1.27-.15.73,0,1.49-.12,2.22A5.41,5.41,0,0,0,19,101.4a8.53,8.53,0,0,1,0,1.24,9.82,9.82,0,0,0-2.77-1,6.88,6.88,0,0,0-1.11,0c-.43,0-.71-.24-1.12-.29" style="fill: #edf0f6"/>
      <path d="M14.53,101.33c0-1.34.05-2.7,0-4a9.71,9.71,0,0,1,0-1.32c0-.16,0-.42.17-.53s.52,0,.71,0c.52.11,1,.22,1.55.28a19.86,19.86,0,0,1,2,.48c.18,0,.38.06.56.11s.14,0,.13.2c0,.61-.42,1.1-.51,1.7a19,19,0,0,1-.14,2.26,5.15,5.15,0,0,0-.17.87c0,.42.05.83,0,1.24l.36-.15a9.47,9.47,0,0,0-2.48-.91,5.43,5.43,0,0,0-1.27-.14,7.17,7.17,0,0,1-1.3-.28c-.32,0-.45.43-.14.48s.74.25,1.13.29a8.52,8.52,0,0,1,1.33.11,9.05,9.05,0,0,1,2.48.88.25.25,0,0,0,.37-.15,6.62,6.62,0,0,0,0-1.09,3.87,3.87,0,0,1,.15-1c.2-.79,0-1.57.16-2.36s1.16-2.2-.08-2.43c-.68-.13-1.33-.35-2-.49s-1.31-.2-2-.35c-.41-.09-1-.19-1.27.17a1.91,1.91,0,0,0-.29,1.3c0,1.63.06,3.27.06,4.9a.25.25,0,0,0,.5,0Z" style="fill: #231f20"/>
    </g>
    <g>
      <path d="M15.12,122v-2.65a16.88,16.88,0,0,1,0-3.18,12.79,12.79,0,0,1,2.48.54c.37.06,1.13-.21,1.43,0s.23.29.25.7c0,1.13-.27,2.12-.3,3.21a11.81,11.81,0,0,0,0,1.19c0,.47.38.85.27,1.29-.84.24-1.4-.29-2.15-.52-.44-.13-1.45-.17-1.73-.55" style="fill: #edf0f6"/>
      <path d="M15.37,122c0-1,0-2,0-3a12.21,12.21,0,0,1,0-2.77l-.24.18c.89,0,1.67.5,2.54.55.33,0,.66-.09,1-.1s.37.23.38.58c0,1-.23,1.92-.29,2.89a9.9,9.9,0,0,0,0,1.44c0,.41.35.82.28,1.23l.18-.18c-.77.19-1.37-.34-2.08-.53-.47-.13-1.23-.08-1.57-.47s-.56.11-.35.35c.42.49,1.22.44,1.79.6.82.22,1.44.76,2.34.54a.24.24,0,0,0,.17-.18c.09-.49-.17-.85-.25-1.32a6.59,6.59,0,0,1,0-1.6,26.26,26.26,0,0,0,.28-3.18c0-.84-1-.65-1.58-.58a3.38,3.38,0,0,1-1.36-.28,4.64,4.64,0,0,0-1.47-.26.25.25,0,0,0-.25.18,12.4,12.4,0,0,0,0,2.79c0,1,0,2.08,0,3.11a.25.25,0,0,0,.5,0Z" style="fill: #231f20"/>
    </g>
    <g>
      <path d="M15.12,143.47l-.25-.05a6.61,6.61,0,0,0,.25-1.34c0-.52,0-1,0-1.54a13.31,13.31,0,0,1,.32-3.39,9.19,9.19,0,0,0,2.81.52s1,.18,1.08.21c.38.22.26.45.25.91,0,.74,0,1.49,0,2.23a7.22,7.22,0,0,1-.06,1.32,4.36,4.36,0,0,1-.32,1.39c-.4,0-.65-.22-1-.28s-.81,0-1.23-.12a7.26,7.26,0,0,0-1.75-.14h.19" style="fill: #edf0f6"/>
      <path d="M15.18,143.23l-.24,0,.17.31a8.53,8.53,0,0,0,.26-1.41c0-.56,0-1.11,0-1.67a13.7,13.7,0,0,1,.31-3.19l-.37.15a7.87,7.87,0,0,0,2.68.51l.73.13c.17,0,.54,0,.62.21a1.24,1.24,0,0,1,0,.47c0,.28,0,.56,0,.84v1.68a8.88,8.88,0,0,1-.09,1.36,2.34,2.34,0,0,1-.22,1l.18-.07a2.86,2.86,0,0,1-.85-.25,6.9,6.9,0,0,0-1-.09c-.34,0-.67-.13-1-.16a10.29,10.29,0,0,0-1.11,0,.25.25,0,0,0,0,.5h.19a.25.25,0,0,0,0-.5h-.19v.5c.32,0,.63,0,.94,0s.66.11,1,.16.57,0,.86.06a4.27,4.27,0,0,1,.79.25.65.65,0,0,0,.59,0,1,1,0,0,0,.21-.46,11.67,11.67,0,0,0,.19-1.16c.18-1.23,0-2.49.06-3.73,0-.37,0-.74-.41-.91a4.05,4.05,0,0,0-.77-.16c-.4-.07-.8-.13-1.21-.17a4.61,4.61,0,0,1-1.88-.38.25.25,0,0,0-.37.15,13.81,13.81,0,0,0-.33,3.07c0,.56,0,1.11,0,1.66a8,8,0,0,1-.24,1.54.25.25,0,0,0,.17.3l.25.05c.32.06.45-.42.13-.48Z" style="fill: #231f20"/>
    </g>
    <g>
      <path d="M15.4,165v-2.51c0-.95.3-1.71.28-2.66,0-.38-.11-.93.15-1.25.4-.48.63,0,1.09.15.91.36,2-.15,2.9.17,0,.41.26.73.33,1.13a10.16,10.16,0,0,1,0,1.91,13.54,13.54,0,0,1-.3,1.59c-.06.43.09.89,0,1.31-.16,1-1.13.72-2,.72s-1.68,0-2.51,0" style="fill: #edf0f6"/>
      <path d="M15.65,165c0-1-.06-1.94,0-2.89a20.61,20.61,0,0,0,.25-2.6c0-.25-.05-1,.38-.85a2.8,2.8,0,0,1,.41.25,2,2,0,0,0,.53.16c.84.15,1.7-.19,2.52.07l-.17-.17c.06.44.31.83.35,1.27a9.08,9.08,0,0,1,0,1.38A7.93,7.93,0,0,1,19.7,163a4.2,4.2,0,0,0-.07,1.37c0,.36,0,.79-.38.93a2.64,2.64,0,0,1-.93,0c-1-.05-1.95,0-2.92,0a.25.25,0,0,0,0,.5c1.08,0,2.17,0,3.25,0,.69,0,1.34-.17,1.47-.94.09-.53-.09-1.06,0-1.6a8.93,8.93,0,0,0,.26-1.46,10.69,10.69,0,0,0,0-1.6c-.05-.49-.3-.92-.37-1.4,0-.09-.1-.15-.17-.18a3.48,3.48,0,0,0-1.4-.09,3,3,0,0,1-1.53-.09c-.3-.14-.55-.43-.91-.35a.94.94,0,0,0-.62.75,8,8,0,0,0,0,1.2,14.29,14.29,0,0,1-.21,1.6,24.53,24.53,0,0,0-.06,3.32.25.25,0,0,0,.5,0Z" style="fill: #231f20"/>
    </g>
    <g>
      <path d="M26.28,165.52c0-.6.28-1.19.28-1.82s0-1.06,0-1.59-.17-1.27.11-1.63a2.12,2.12,0,0,1,1.57-.56,9.46,9.46,0,0,1,2.23.43c1.13.32.81.86.62,1.83A13.25,13.25,0,0,0,31,164.7c0,.51.22,1.81-.24,2.12a8.11,8.11,0,0,0-2.41-.19c-.49,0-1.62.2-2-.21l.18-.07" style="fill: #edf0f6"/>
      <path d="M26.53,165.52c0-.58.24-1.12.28-1.7a16.49,16.49,0,0,0,0-1.86c0-.4-.18-1,.1-1.36a1.77,1.77,0,0,1,1.23-.43,6.82,6.82,0,0,1,1.85.3c.32.08,1,.16,1,.55a2.62,2.62,0,0,1-.16,1,8.38,8.38,0,0,0-.11,1.8c0,.52,0,1,.06,1.56,0,.3.12,1-.16,1.23l.2,0a8.4,8.4,0,0,0-2.6-.19c-.47,0-1.32.22-1.7-.14l-.11.41.19-.06c.29-.12.17-.6-.14-.49l-.18.07a.25.25,0,0,0-.11.42,2.19,2.19,0,0,0,1.68.31,8.91,8.91,0,0,1,2.58.09c.32.07.5.09.68-.22a1.76,1.76,0,0,0,.18-.82c0-.67,0-1.35-.06-2a9.33,9.33,0,0,1,0-1.4c0-.37.15-.72.21-1.08a1,1,0,0,0-.47-1.18,4.62,4.62,0,0,0-1.09-.35,8.67,8.67,0,0,0-1.44-.25,2.55,2.55,0,0,0-1.89.5c-.57.52-.29,1.5-.29,2.18a10,10,0,0,1,0,1.73,7.66,7.66,0,0,0-.24,1.42c0,.32.51.32.5,0Z" style="fill: #231f20"/>
    </g>
    <g>
      <path d="M27.12,144.87v-2.93a11.23,11.23,0,0,1,0-2.9c.94-.26,3.63,0,4.12,1a4.65,4.65,0,0,1-.11,2.22,20.45,20.45,0,0,1-.18,2.06,6.61,6.61,0,0,0-3.56-.08.48.48,0,0,1,0-.45" style="fill: #edf0f6"/>
      <path d="M27.37,144.87c0-1.06,0-2.12,0-3.18a8.27,8.27,0,0,1,0-2.58l-.18.17a4.75,4.75,0,0,1,1.68,0,4.09,4.09,0,0,1,1.84.54c.59.39.41,1.19.3,1.79a8.39,8.39,0,0,0-.16,1.12,8.51,8.51,0,0,1-.13,1.52l.31-.17a6.91,6.91,0,0,0-3.69-.08l.28.12a.3.3,0,0,1,0-.26.25.25,0,0,0-.48-.14.86.86,0,0,0,.05.65.24.24,0,0,0,.28.11,6.45,6.45,0,0,1,3.43.08.25.25,0,0,0,.3-.17,13.53,13.53,0,0,0,.16-1.9c.05-.49.19-1,.23-1.47a1.84,1.84,0,0,0-.22-1.26,2.13,2.13,0,0,0-.85-.6,6.74,6.74,0,0,0-2.51-.43c-.28,0-.81,0-1,.16s-.16.44-.18.62a5.42,5.42,0,0,0,0,.9c0,.68.09,1.34.09,2v2.48a.25.25,0,0,0,.5,0Z" style="fill: #231f20"/>
    </g>
    <g>
      <path d="M26.84,123.1c-.55-1.13-.33-2.89-.29-4.18,0-.55,0-1,.62-1.09a6.21,6.21,0,0,1,1.56.44c.34.14.58.47.89.59s1.08-.17,1.44.09.5,1.71.53,2.26a10.76,10.76,0,0,1,0,2.77c-.36.41-1.81-.43-2.21-.54-.66-.18-2.14-.34-2.57-.9" style="fill: #edf0f6"/>
      <path d="M27.05,123a5.68,5.68,0,0,1-.32-2.49c0-.42,0-.83.06-1.25a2.59,2.59,0,0,1,.08-1c.13-.26.45-.19.67-.13a8.57,8.57,0,0,1,.86.27,3.43,3.43,0,0,1,.8.49,1.27,1.27,0,0,0,1,.24c.28,0,.65-.14.82.16a2.6,2.6,0,0,1,.23.88c.07.49.08,1,.12,1.49a16.51,16.51,0,0,1,.09,1.72,1.77,1.77,0,0,1,0,.32.18.18,0,0,1,0,.1s0,0,0,0c-.18.1-.52,0-.69-.11a16,16,0,0,0-1.68-.61c-.38-.08-.76-.15-1.14-.26a1.84,1.84,0,0,1-.9-.48c-.2-.24-.56.11-.35.36a3.66,3.66,0,0,0,2.05.82,5,5,0,0,1,.84.22c.32.13.63.28.95.4s1.23.39,1.41-.22a5.8,5.8,0,0,0,0-1.86c-.05-.57-.07-1.14-.13-1.7s-.15-1.57-.85-1.75c-.4-.1-.83.14-1.22,0a2.56,2.56,0,0,1-.54-.39,1.83,1.83,0,0,0-.48-.25c-.54-.21-1.28-.57-1.85-.33a.91.91,0,0,0-.52.89c0,.49-.05,1-.07,1.48a6.87,6.87,0,0,0,.37,3.19c.14.3.57,0,.43-.25Z" style="fill: #231f20"/>
    </g>
    <g>
      <path d="M26.84,101.61a22.59,22.59,0,0,1,0-4.43c.6-.25,1.85.36,2.49.53.23.07.65.16.89.21s1-.08,1.22.07c.46.29.14.56.1,1.09a12.21,12.21,0,0,1-.05,1.71c-.17.83-.09,1.65-.24,2.46-.7.29-2-.55-2.71-.74-.52-.14-1.58-.19-1.91-.54a.54.54,0,0,1,.46-.36" style="fill: #edf0f6"/>
      <path d="M27.09,101.61a21.17,21.17,0,0,1,0-4.36l-.18.17a1.68,1.68,0,0,1,1,.07c.36.1.71.24,1.06.36a8.71,8.71,0,0,0,1,.26,3.81,3.81,0,0,0,1,.06c.14,0,.36,0,.46.09s0,.21,0,.33a4.3,4.3,0,0,0-.1,1.29,14.75,14.75,0,0,1-.14,1.62c-.05.56-.05,1.13-.15,1.68l.18-.17a1.63,1.63,0,0,1-1.1-.15c-.39-.14-.76-.33-1.14-.48a5.4,5.4,0,0,0-1-.24,2.23,2.23,0,0,1-1.1-.35l0,.3a.37.37,0,0,1,.31-.24c.32-.06.19-.54-.13-.48a.8.8,0,0,0-.61.47.27.27,0,0,0,0,.3,3.14,3.14,0,0,0,1.7.54,9.46,9.46,0,0,1,1.64.6,3.49,3.49,0,0,0,.89.26,1,1,0,0,0,.74-.12c.12-.11.11-.36.13-.52s0-.46.05-.7c0-.49.08-1,.15-1.46a8.29,8.29,0,0,0,0-1.32,2.37,2.37,0,0,1,.06-.59,2.16,2.16,0,0,0,.1-.44c0-.65-.68-.73-1.17-.71a4.77,4.77,0,0,1-1.75-.33,5.51,5.51,0,0,0-1.82-.48,1.05,1.05,0,0,0-.43.07c-.19.09-.2.27-.23.46a9.32,9.32,0,0,0-.09,1.29c0,1,.1,1.94.11,2.92a.25.25,0,0,0,.5,0Z" style="fill: #231f20"/>
    </g>
    <g>
      <path d="M26.56,81.52c0-1.17-.27-2.17-.28-3.35a4.66,4.66,0,0,1,.22-1.4c.16-.62-.11-1.32.08-1.92.55-.21,1.13.2,1.67.26a9.91,9.91,0,0,0,1.09,0c.75,0,1.95-.33,2.22.57a13.64,13.64,0,0,1,0,3.44c0,.56.28,2.24-.1,2.66a6.8,6.8,0,0,1-2.13-.53c-.73-.2-1.49-.41-2.23-.56" style="fill: #edf0f6"/>
      <path d="M26.81,81.52c0-1.16-.3-2.31-.28-3.48,0-.51.21-1,.26-1.49a8.85,8.85,0,0,1,0-1.63l-.17.17c.57-.17,1.15.25,1.72.28a11.32,11.32,0,0,0,1.54-.05,2,2,0,0,1,1.18.1c.41.26.36,1,.36,1.45,0,1-.16,1.91-.08,2.87a8.45,8.45,0,0,1,.05,1.33,1.21,1.21,0,0,1-.08.46c-.06.08,0,0,0,0a.65.65,0,0,1-.14,0,1.61,1.61,0,0,1-.38-.08c-.48-.12-.94-.31-1.41-.45-.74-.22-1.49-.4-2.24-.56-.31-.07-.44.41-.13.48a23.33,23.33,0,0,1,2.73.72,9.78,9.78,0,0,0,1,.31c.25.06.69.18.91,0,.39-.33.29-1.19.26-1.63a16.86,16.86,0,0,1,0-2,8.93,8.93,0,0,0,0-2.53,1.23,1.23,0,0,0-1.26-1,20.85,20.85,0,0,1-2.37.07c-.38-.07-.73-.26-1.12-.3a1,1,0,0,0-.59,0c-.18.09-.2.26-.23.46-.07.54.09,1.09,0,1.64A6.74,6.74,0,0,0,26,78c0,1.17.25,2.32.28,3.48,0,.32.51.32.5,0Z" style="fill: #231f20"/>
    </g>
    <g>
      <path d="M26.84,60.59c0-1.21,0-2.41,0-3.62,0-.89-.55-2-.31-2.89s1.35-.41,2.06-.26,1.27.22,1.88.4c.92.27.84,1.17.83,2s.11,1.7,0,2.51c-.05.43-.25.78-.31,1.19s.11.79,0,1.18a8.29,8.29,0,0,0-2.06-.33c-.54-.13-1.66,0-2-.48l.19-.22" style="fill: #edf0f6"/>
      <path d="M27.09,60.59c0-.7,0-1.4,0-2.1a15.52,15.52,0,0,0,0-1.93c-.07-.55-.82-2.57.06-2.74A2.69,2.69,0,0,1,28.3,54c.58.15,1.18.22,1.77.36s.89.34,1,.92,0,1,0,1.41a8.31,8.31,0,0,1,0,2.23,7.36,7.36,0,0,0-.25.92,8.68,8.68,0,0,1,0,1.14l.36-.15a7.89,7.89,0,0,0-2.28-.38c-.52-.08-1.37.07-1.73-.39v.35l.19-.21c.22-.24-.14-.6-.35-.36l-.19.22a.25.25,0,0,0,0,.35c.38.49,1.13.46,1.69.5.34,0,.67.1,1,.13a3.93,3.93,0,0,1,1.41.22.25.25,0,0,0,.37-.15,3.22,3.22,0,0,0,0-1A4.9,4.9,0,0,1,31.52,59a8.37,8.37,0,0,0,0-2.18c0-.91.24-2.27-.78-2.76a10,10,0,0,0-2.13-.49,6.79,6.79,0,0,0-1.34-.28c-1.21,0-1.15,1.31-1,2.17.07.35.16.7.22,1.05a8.66,8.66,0,0,1,0,1.25c0,.94,0,1.88,0,2.82a.25.25,0,0,0,.5,0Z" style="fill: #231f20"/>
    </g>
    <g>
      <path d="M44.7,63.66V61.15a13.32,13.32,0,0,1,0-2.82c.24-.94,2.22-.57,3-.39,1,.25,2.16-.09,3.17.16.17.52-.17.88-.26,1.36a11.07,11.07,0,0,0,0,1.82c0,1,.25,2.37-.34,3.29-.48-.52-.55-.8-1.22-.91a11.61,11.61,0,0,0-1.65-.28c-1-.05-1.91.52-2.84.23l.19-.23" style="fill: #edf0f6"/>
      <path d="M45,63.66c0-1.17,0-2.34-.06-3.51a6.35,6.35,0,0,1,0-1.57.6.6,0,0,1,.56-.56,4.73,4.73,0,0,1,2,.13,5.63,5.63,0,0,0,1.48.13,7.84,7.84,0,0,1,1.81.06l-.18-.17c.13.5-.25,1-.29,1.49a15.52,15.52,0,0,0,0,1.67c0,1,.26,2.19-.3,3.11l.39,0a3.27,3.27,0,0,0-.87-.83A6,6,0,0,0,48,63.2a4.36,4.36,0,0,0-1.61,0,3.88,3.88,0,0,1-1.82.15l.11.42.19-.24c.19-.24-.16-.6-.36-.35l-.18.23a.26.26,0,0,0,.11.42c1.06.29,2.08-.32,3.14-.21.3,0,.58.1.87.16a6.52,6.52,0,0,1,.74.16c.37.13.59.5.85.78a.25.25,0,0,0,.39,0c.6-1,.39-2.17.37-3.27a14.78,14.78,0,0,1,0-1.76c.06-.57.43-1,.27-1.62a.26.26,0,0,0-.17-.18c-1-.22-2,0-3-.13a11.49,11.49,0,0,0-1.76-.26,1.79,1.79,0,0,0-1.51.47,1.51,1.51,0,0,0-.25.85,10.3,10.3,0,0,0,0,1.36c.09,1.17.06,2.34.06,3.51a.25.25,0,0,0,.5,0Z" style="fill: #231f20"/>
    </g>
    <g>
      <path d="M46.09,85.15c.11-.4-.26-.82-.28-1.26s0-1,0-1.54a15.15,15.15,0,0,1,0-3.3A11.69,11.69,0,0,1,49,79c.43,0,.87,0,1.3,0,.62,0,.79-.08.87.57a25.88,25.88,0,0,1,0,2.92,11.15,11.15,0,0,1,0,2.77,13.81,13.81,0,0,0-1.43-.13c-.55.06-1,.28-1.59.3a5.57,5.57,0,0,1-1.35-.07c-.16,0-1.09-.39-.91-.21" style="fill: #edf0f6"/>
      <path d="M46.34,85.21c.09-.49-.23-.85-.28-1.32s0-1.09,0-1.64a13.74,13.74,0,0,1,0-3.14l-.18.18a8.94,8.94,0,0,1,2.78,0c.53,0,1.06,0,1.59,0,.21,0,.52-.08.58.13a4.54,4.54,0,0,1,.08,1.47c0,.53-.06,1.06-.06,1.58a11.08,11.08,0,0,1,0,2.76l.24-.18c-.33,0-.65-.09-1-.12a2.78,2.78,0,0,0-1,.08,7.74,7.74,0,0,1-1,.21,6.61,6.61,0,0,1-1.09,0A8.06,8.06,0,0,1,46,84.88a.42.42,0,0,0-.38,0,.27.27,0,0,0,0,.41c.21.24.56-.11.35-.35l0,0,0,.19h0l-.18.17c-.07,0,0,0,0,0a1.8,1.8,0,0,0,.22.06l.39.13a4.2,4.2,0,0,0,1.37.13,8.67,8.67,0,0,0,1.51-.26,7.37,7.37,0,0,1,1.69.08.26.26,0,0,0,.24-.19,12.51,12.51,0,0,0,0-3.06c0-.63.07-1.25.06-1.88A2.77,2.77,0,0,0,51.25,79a.71.71,0,0,0-.68-.29H48.92a10.73,10.73,0,0,0-3.15,0,.23.23,0,0,0-.17.17,12.13,12.13,0,0,0,0,3.07c0,.53,0,1.07,0,1.61a2.17,2.17,0,0,0,.09.67,1.53,1.53,0,0,1,.2.75c-.06.31.43.45.49.13Z" style="fill: #231f20"/>
    </g>
    <g>
      <path d="M45.81,106.08c0-.47,0-.94,0-1.4s.26-.89.29-1.4a14,14,0,0,1,0-2.9c1.32,0,2.58.66,3.89.68.43,0,.93-.18,1.12.25a7.64,7.64,0,0,1,0,2.24,17.8,17.8,0,0,0-.29,2c0,.89-.11,1.14-1.05,1.12-.63,0-1.18-.28-1.81-.3s-1.45,0-2.17,0" style="fill: #edf0f6"/>
      <path d="M46.06,106.08a11.3,11.3,0,0,1,0-1.54,12.07,12.07,0,0,0,.28-1.3,13.68,13.68,0,0,1,0-2.79l-.24.18c1.16,0,2.24.51,3.38.64a3.87,3.87,0,0,0,.76,0c.17,0,.48-.09.61.06s.1.76.09,1-.06.73-.09,1.09-.19,1-.26,1.5a4.33,4.33,0,0,1-.09,1.2c-.11.26-.51.22-.74.22-.63,0-1.23-.28-1.87-.3s-1.4,0-2.11,0c-.32,0-.32.51,0,.5.73,0,1.45,0,2.17,0s1.22.28,1.85.3a1.4,1.4,0,0,0,1-.28,1.37,1.37,0,0,0,.25-1,12.46,12.46,0,0,1,.26-1.82c.06-.42.08-.85.11-1.28a3.69,3.69,0,0,0-.06-1.24.83.83,0,0,0-1-.53c-1.47.11-2.83-.6-4.3-.65a.26.26,0,0,0-.24.19,11.08,11.08,0,0,0,0,2.82,13.31,13.31,0,0,1-.28,1.37,11.73,11.73,0,0,0,0,1.57c0,.32.51.32.5,0Z" style="fill: #231f20"/>
    </g>
    <g>
      <path d="M46.09,127.56c-.72-.59-.14-2,0-2.64.24-1-.25-2.11,0-3.06.61.17,1.15.41,1.78.54a6.43,6.43,0,0,1,1.71.26c.84.48.23,2.24.41,3.08s.68,2-.63,2.33c-.64.15-1.08-.18-1.7-.24s-1,0-1.5,0h.18" style="fill: #edf0f6"/>
      <path d="M46.27,127.39c-.62-.55-.12-1.64,0-2.3.28-1-.23-2.12,0-3.17l-.3.18c.5.15,1,.35,1.5.48a7.2,7.2,0,0,0,1.31.15c.35,0,.72.1.86.46a2.56,2.56,0,0,1,.07,1c0,.36-.07.72-.06,1.09a3.53,3.53,0,0,0,.15.91c.14.58.32,1.32-.4,1.56-.55.19-1-.08-1.58-.17a9.88,9.88,0,0,0-1.72,0,.25.25,0,0,0,0,.5h.18a.25.25,0,0,0,0-.5h-.18v.5a7.46,7.46,0,0,1,1.83,0,2.92,2.92,0,0,0,1.43.17,1.3,1.3,0,0,0,1-1.6c0-.37-.19-.72-.25-1.09a5.73,5.73,0,0,1,0-1.17c.05-.68.12-1.64-.59-2a4.29,4.29,0,0,0-1.56-.24,10.39,10.39,0,0,1-2-.58.27.27,0,0,0-.31.18,4.74,4.74,0,0,0,0,1.8,4,4,0,0,1-.1,1.61c-.23.79-.57,1.9.15,2.54.24.21.59-.14.35-.35Z" style="fill: #231f20"/>
    </g>
    <g>
      <path d="M46.09,148.22a23,23,0,0,1,.22-4.4c.15-.77-.37-1.88.68-1.69.85.15,1.57.71,2.44.79.27,0,.92-.17,1.16,0,.41.24.25.63.25,1.13,0,1.06-.22,2-.28,3.07,0,.35.11.86-.26,1.1s-1,0-1.33,0H46.65" style="fill: #edf0f6"/>
      <path d="M46.34,148.22c0-.82,0-1.64,0-2.45,0-.38,0-.77.08-1.15s.13-.7.15-1.05,0-.44,0-.66-.05-.41.06-.51.54,0,.69.06c.34.11.67.27,1,.41a4.25,4.25,0,0,0,.94.28,2.77,2.77,0,0,0,.76,0c.22,0,.51-.09.59.18a1.15,1.15,0,0,1,0,.37c0,.2,0,.4,0,.59,0,.8-.16,1.59-.24,2.38,0,.3,0,.6,0,.9s-.1.49-.44.49-.55,0-.83-.05H46.65a.25.25,0,0,0,0,.5h1.67c.25,0,.5,0,.75,0a6.05,6.05,0,0,0,1,.05c.68-.07.8-.63.79-1.22,0-.9.19-1.8.25-2.7,0-.36,0-.73.06-1.09a.88.88,0,0,0-.33-.79,1.13,1.13,0,0,0-.81-.1,2.27,2.27,0,0,1-1,0c-.81-.22-2.94-1.55-2.95.15,0,.3,0,.6,0,.9,0,.45-.14.89-.17,1.33-.1,1.08-.07,2.17-.07,3.26a.25.25,0,0,0,.5,0Z" style="fill: #231f20"/>
    </g>
    <g>
      <path d="M46.93,169.15a10.4,10.4,0,0,0-.22-2.8c-.11-.42,0-.83-.08-1.25s-.39-.87-.23-1.49a13.4,13.4,0,0,1,3-.05c.37,0,1.15-.14,1.36.15a3.81,3.81,0,0,1,.05,1.58c-.05.68-.3,1.29-.3,2s.38,1.24.31,1.76-.6.45-1.12.34a3.67,3.67,0,0,0-1.27-.2c-.27,0-.39.25-.68.24a.47.47,0,0,1,.26-.53" style="fill: #edf0f6"/>
      <path d="M47.18,169.15a14.34,14.34,0,0,0-.22-2.86c-.1-.48,0-1-.14-1.44a2.18,2.18,0,0,1-.18-1.18l-.17.18a12.47,12.47,0,0,1,2.93,0,6.55,6.55,0,0,1,1,0c.12,0,.19,0,.23.14a1.3,1.3,0,0,1,0,.48q0,.43-.06.87c0,.5-.19,1-.26,1.49a3.13,3.13,0,0,0,.12,1.36c.06.23.35,1,0,1.08a1.43,1.43,0,0,1-.58-.07l-.75-.19a2.18,2.18,0,0,0-.72,0c-.22,0-.4.22-.62.23l.25.25a.29.29,0,0,1,.13-.32c.27-.18,0-.61-.25-.43a.77.77,0,0,0-.38.75.26.26,0,0,0,.25.25,1.48,1.48,0,0,0,.57-.19,1.37,1.37,0,0,1,.87,0,3.23,3.23,0,0,0,1.3.21c1.11-.17.3-1.73.27-2.35a9.82,9.82,0,0,1,.27-1.78,10.56,10.56,0,0,0,.09-1.12,1.36,1.36,0,0,0-.21-.95,1.4,1.4,0,0,0-1.06-.21,20.15,20.15,0,0,0-3.56.07.26.26,0,0,0-.17.18,2.05,2.05,0,0,0,.1,1.2,2.62,2.62,0,0,1,.16.67c0,.25,0,.49,0,.73,0,.49.19,1,.22,1.43s0,1.05,0,1.58a.25.25,0,0,0,.5,0Z" style="fill: #231f20"/>
    </g>
    <g>
      <path d="M89.91,66.17A7.29,7.29,0,0,1,89.63,63a12.83,12.83,0,0,1,0-3.16A14.37,14.37,0,0,0,92.08,59l.89-.34c.39-.16,1-.69,1.39-.48,0,.56-.28,1.12-.27,1.72s0,1.26,0,1.89a10.41,10.41,0,0,0,.19,3.53c-.35.13-.7-.08-1,0s-.61.42-1,.59a6.23,6.23,0,0,1-2.54.57.34.34,0,0,0,.18-.3" style="fill: #edf0f6"/>
      <path d="M90.12,66a8.08,8.08,0,0,1-.24-3.25,10.57,10.57,0,0,1,0-2.92l-.18.17a19.42,19.42,0,0,0,2.57-.87,9.1,9.1,0,0,0,1-.42c.28-.16.64-.48,1-.35l-.18-.24c0,.59-.25,1.13-.27,1.72s0,1.35,0,2a9.86,9.86,0,0,0,.2,3.47l.18-.31c-.39.1-.77-.09-1.16,0a6.6,6.6,0,0,0-.87.54,5.26,5.26,0,0,1-2.46.57l.12.46a.6.6,0,0,0,.3-.44c0-.32-.44-.46-.48-.14l-.07.15a.26.26,0,0,0,.13.47,6.09,6.09,0,0,0,2.41-.5,6.54,6.54,0,0,0,.91-.56c.4-.23.86,0,1.3-.12a.24.24,0,0,0,.17-.3,10.37,10.37,0,0,1-.18-3.47c0-.63,0-1.26,0-1.89s.3-1.13.27-1.72a.27.27,0,0,0-.18-.24,1.05,1.05,0,0,0-.85.1,11.61,11.61,0,0,1-1.12.55,22.1,22.1,0,0,1-2.87,1,.24.24,0,0,0-.17.17,12,12,0,0,0,0,3.17,8.07,8.07,0,0,0,.31,3.39c.13.3.57,0,.43-.25Z" style="fill: #231f20"/>
    </g>
    <g>
      <path d="M102.47,60.87c-1-.2-.45-1.66-.35-2.24a7.76,7.76,0,0,0,.08-2.45c-.06-.34-.44-.77-.26-1.11s.81-.46,1-.55a17.36,17.36,0,0,0,2.78-1.25c-.6.37-.43,1.18-.54,1.76a8.27,8.27,0,0,0-.22,1.08,14,14,0,0,0,0,2.51c.16,1.15.67,1.53-.82,1.9a14.82,14.82,0,0,1-2.41.65.37.37,0,0,0,.18-.3" style="fill: #edf0f6"/>
      <path d="M102.53,60.63c-.66-.17-.33-1.2-.22-1.66a7.89,7.89,0,0,0,.18-2.47,1.92,1.92,0,0,0-.11-.58,2.13,2.13,0,0,1-.23-.59c0-.33.62-.46.87-.57a17.68,17.68,0,0,0,2.84-1.27l-.25-.44c-.75.52-.54,1.45-.73,2.22a9.58,9.58,0,0,0-.19,3.11,7.73,7.73,0,0,0,.19,1.07c0,.21.1.41-.09.56a4.34,4.34,0,0,1-1.34.46,8.37,8.37,0,0,1-1.72.45l.18.43a.66.66,0,0,0,.24-.42c.06-.31-.42-.45-.48-.13a.24.24,0,0,1-.11.2.25.25,0,0,0,.17.42,7.75,7.75,0,0,0,1.66-.41,12.52,12.52,0,0,0,1.47-.46c.56-.27.62-.71.49-1.27a10,10,0,0,1-.14-2.94c0-.51.2-1,.25-1.49s0-1.07.4-1.36c.26-.18,0-.62-.25-.44a17,17,0,0,1-3.14,1.4c-.34.14-.75.31-.82.71a1.18,1.18,0,0,0,.14.64,2.31,2.31,0,0,1,.21.81,11.44,11.44,0,0,1-.3,2.8c-.11.67-.09,1.5.7,1.7.31.08.44-.41.13-.48Z" style="fill: #231f20"/>
    </g>
    <g>
      <path d="M127,49.7c0-1.39,0-2.79,0-4.18,0-.57-.38-1.53,0-1.9.69-.72,2-.07,2.79-.52a8.49,8.49,0,0,1,0,2.31v2.05c0,.76.15,1.46-.53,2a4.24,4.24,0,0,1-2.44.56.31.31,0,0,0,.18-.3" style="fill: #edf0f6"/>
      <path d="M127.27,49.7V46.87a13,13,0,0,0-.12-2.25c-.05-.26-.14-.64,0-.85a1.24,1.24,0,0,1,.91-.27,3.67,3.67,0,0,0,1.8-.19l-.37-.15a5.5,5.5,0,0,1,0,1.94c0,.82,0,1.64,0,2.46,0,.64.09,1.31-.52,1.73a4.28,4.28,0,0,1-2.21.46l.13.47a.65.65,0,0,0,.3-.45c0-.31-.44-.45-.49-.13l-.06.15c-.19.13-.14.48.12.46a5,5,0,0,0,2.37-.47,1.81,1.81,0,0,0,.87-1.74c0-.93,0-1.87,0-2.8A6.82,6.82,0,0,0,130,43a.25.25,0,0,0-.37-.15c-.61.32-1.39,0-2.05.16a1.09,1.09,0,0,0-1,1.18,8.15,8.15,0,0,0,.15,1,10.75,10.75,0,0,1,0,1.39v3.1a.25.25,0,0,0,.5,0Z" style="fill: #231f20"/>
    </g>
    <g>
      <path d="M139.3,44.12c.1-.43-.21-.77-.29-1.17a9.75,9.75,0,0,1,0-1.62,5.39,5.39,0,0,0-.06-1.39c-.11-.49-.36-.82-.19-1.37.59-.16,1,0,1.53-.3.23-.13.4-.36.66-.5a16.35,16.35,0,0,1,2.15-.6,19.88,19.88,0,0,0-.67,1.92,10.84,10.84,0,0,0-.07,2.35,3.13,3.13,0,0,1,0,1.1c-.12.29-.66.43-1,.59-.57.32-2,1.64-2.65,1.51a.64.64,0,0,1,.54-.52" style="fill: #edf0f6"/>
      <path d="M139.54,44.19a2.79,2.79,0,0,0-.26-1.2,4.89,4.89,0,0,1,0-1.48,6.85,6.85,0,0,0,0-1.5c-.08-.48-.35-.88-.21-1.38l-.18.18c.36-.09.72-.06,1.08-.13a1.92,1.92,0,0,0,.87-.48,6.79,6.79,0,0,1,2.39-.78l-.31-.31a9.62,9.62,0,0,0-.78,2.88c0,.48,0,1,0,1.45s.22.94-.2,1.18c-.26.15-.55.24-.8.4s-.5.37-.75.55c-.41.3-1.06.9-1.61.82l.24.32a.45.45,0,0,1,.37-.35.25.25,0,0,0-.13-.48.92.92,0,0,0-.72.7.25.25,0,0,0,.24.31c.61.09,1.26-.45,1.71-.78.29-.21.57-.44.87-.64s.62-.28.91-.46a.92.92,0,0,0,.42-.89c0-.51-.06-1-.07-1.53a5.33,5.33,0,0,1,.14-1.69c.17-.57.43-1.1.61-1.66a.25.25,0,0,0-.3-.31,10.08,10.08,0,0,0-2.31.68c-.32.2-.52.48-.9.57s-.76.06-1.13.15a.26.26,0,0,0-.18.17,2,2,0,0,0,.1,1.19,4.61,4.61,0,0,1,.14,1.57c0,.48-.08,1,0,1.46a2.31,2.31,0,0,0,.14.62,1.41,1.41,0,0,1,.19.72c0,.31.44.45.48.13Z" style="fill: #231f20"/>
    </g>
    <g>
      <path d="M89.63,87.38l.16,0A2.82,2.82,0,0,1,89.63,86a8.51,8.51,0,0,0-.29-1.52,10.92,10.92,0,0,1,0-3.47,36.57,36.57,0,0,0,4.4-1c.08.45-.21.84-.27,1.3a11.81,11.81,0,0,0,0,1.19c0,.8-.3,1.47-.28,2.29,0,.33.16,1,0,1.29s-.78.33-1.09.45a14.78,14.78,0,0,1-2.51.92" style="fill: #edf0f6"/>
      <path d="M89.7,87.62l.16-.05A.26.26,0,0,0,90,87.2a7.53,7.53,0,0,1-.19-1.78,14.91,14.91,0,0,1-.29-1.51,8.53,8.53,0,0,1,.1-2.85l-.18.17a36.73,36.73,0,0,0,4.41-1l-.32-.24c0,.45-.21.83-.26,1.27a12.16,12.16,0,0,0,0,1.35A15.42,15.42,0,0,0,93,85c0,.26.14.72-.07.93s-.62.2-.89.29a21.46,21.46,0,0,1-2.51.92c-.31.07-.18.55.14.48.93-.21,1.74-.7,2.65-1a2.29,2.29,0,0,0,1-.36,1,1,0,0,0,.27-.82,11.13,11.13,0,0,1,0-1.16c0-.48.17-.95.23-1.44s0-1,0-1.51.34-.92.28-1.43a.25.25,0,0,0-.31-.24,37.19,37.19,0,0,1-4.41,1,.29.29,0,0,0-.18.18A9.1,9.1,0,0,0,89,84c0,.53.21,1,.3,1.55a7.17,7.17,0,0,0,.24,1.9l.15-.37-.17,0a.25.25,0,0,0,.14.48Z" style="fill: #231f20"/>
    </g>
    <g>
      <path d="M101.91,81.52c.12-.44-.21-.48-.3-.83a6.14,6.14,0,0,1,0-1.13c0-.9-.28-1.6-.28-2.51,0-.2-.15-1.17,0-1.34s1.29-.27,1.65-.4c1-.34,1.76-1.13,2.73-1.51a16.32,16.32,0,0,1,0,3c0,.77.62,2,.14,2.63a5.27,5.27,0,0,1-1.25.73c-.5.26-1,.39-1.55.68-.2.12-2.25,1.81-1.8.43" style="fill: #edf0f6"/>
      <path d="M102.15,81.58a.77.77,0,0,0,0-.54c-.07-.15-.21-.25-.25-.41a2,2,0,0,1,0-.74,5.47,5.47,0,0,0,0-.81c-.06-.54-.2-1.07-.24-1.61,0-.36-.05-.74-.07-1.1a.93.93,0,0,1,0-.47c.06-.1.28-.13.4-.15.36-.08.73-.08,1.08-.18,1-.29,1.81-1.13,2.79-1.53l-.31-.18c.25,1.22-.13,2.46.15,3.67.11.46.39,1.21.11,1.66s-.71.48-1,.63c-.53.26-1.1.43-1.62.7a6,6,0,0,0-.58.4,6.75,6.75,0,0,1-.8.51.77.77,0,0,1-.29.1s0,.08,0,0,0-.16.06-.25c.1-.3-.39-.44-.48-.13-.16.52,0,1,.65.8a6.06,6.06,0,0,0,1.43-.88,8.2,8.2,0,0,1,1.35-.61,9.75,9.75,0,0,0,1.12-.56,1.19,1.19,0,0,0,.68-.8,3.16,3.16,0,0,0-.1-1.4,5.92,5.92,0,0,1-.16-1.83,8.69,8.69,0,0,0-.07-2.16.24.24,0,0,0-.3-.17,8.61,8.61,0,0,0-1.48.83,4.4,4.4,0,0,1-1.45.73c-.56.11-1.61,0-1.72.77a5.25,5.25,0,0,0,0,1,15,15,0,0,0,.17,1.5,9.15,9.15,0,0,1,.08,1.81,1.35,1.35,0,0,0,.09.66c.09.19.29.31.24.54s.41.45.48.13Z" style="fill: #231f20"/>
    </g>
    <g>
      <path d="M128.14,69.52c-.83-.19-.55-1.32-.56-2a4.65,4.65,0,0,0-.22-1.17c-.06-.31,0-.62-.09-.92S127,65,127,64.6c.37-.28.77,0,1.18-.09a4.37,4.37,0,0,0,1.11-.36c.48-.19,1.35-.8,1.62-.24s0,2.21,0,2.84a8.81,8.81,0,0,1,0,2.18c-.36.08-.71.12-1.07.22s-.88.46-1.34.6-1.44.25-1.18-.51" style="fill: #edf0f6"/>
      <path d="M128.21,69.28c-.69-.18-.36-1.31-.38-1.82s-.23-1-.26-1.48a2.87,2.87,0,0,0-.11-.77,1.19,1.19,0,0,1-.17-.61l-.13.21a1,1,0,0,1,.68-.06,2.37,2.37,0,0,0,.65,0,6.42,6.42,0,0,0,1.13-.43,2.42,2.42,0,0,1,.92-.36c.27,0,.26.36.27.56a14.91,14.91,0,0,1-.12,2,12.49,12.49,0,0,1,0,2.37l.18-.18a9.63,9.63,0,0,0-1.31.32c-.38.15-.72.39-1.11.51a2,2,0,0,1-.6.08c-.23,0-.34,0-.27-.29s-.39-.44-.48-.13a.65.65,0,0,0,.23.8,1.34,1.34,0,0,0,.86.1,3.11,3.11,0,0,0,1.07-.38,3.54,3.54,0,0,1,.83-.34c.3-.07.61-.11.91-.18a.29.29,0,0,0,.18-.18,6.36,6.36,0,0,0,.05-1.9,10.42,10.42,0,0,1,.07-1.36c.05-.62.34-2.27-.67-2.3a3.12,3.12,0,0,0-1.28.45,5.64,5.64,0,0,1-.86.33,3.5,3.5,0,0,1-1,0c-.23,0-.59.08-.68.32a1,1,0,0,0,.16.78,2.82,2.82,0,0,1,.12.87c0,.33.15.65.21,1,.15.84-.38,2.29.78,2.6a.25.25,0,0,0,.14-.48Z" style="fill: #231f20"/>
    </g>
    <g>
      <path d="M140.42,65.33c-.95.25-1-1.36-1.19-1.95a5.75,5.75,0,0,1-.16-3,2.69,2.69,0,0,0,2.43-.32c.55-.25,1.13-.36,1.66-.59.16.38,0,.58-.09.94a5.54,5.54,0,0,0-.14,1.24,7,7,0,0,0,0,1.12c0,.32.45.89.28,1.17s-.83.2-1.17.23a4,4,0,0,0-1.4.58c-.43.2-.87.38-1.28.56-.17.07-.53.67-.61,0" style="fill: #edf0f6"/>
      <path d="M140.35,65.09c-.68.15-.74-1.26-.85-1.68a5.07,5.07,0,0,1-.19-2.93l-.37.15a2.41,2.41,0,0,0,2.11-.07c.35-.15.69-.31,1-.43s.76-.24,1.13-.39l-.31-.17a.89.89,0,0,1,0,.62,5.25,5.25,0,0,0-.13.69,13.36,13.36,0,0,0-.09,1.42,2.23,2.23,0,0,0,.17,1,1.33,1.33,0,0,1,.17.47c0,.18-.19.2-.34.21a3.81,3.81,0,0,0-1,0,5.1,5.1,0,0,0-1,.47c-.44.22-.9.39-1.36.59a.84.84,0,0,0-.29.2s-.11.08-.11.1,0,.06.11.05a.45.45,0,0,1,0-.16c-.05-.32-.53-.19-.49.13s.15.52.44.5.33-.22.51-.33a3.53,3.53,0,0,1,.56-.25l.65-.28c.33-.15.64-.38,1-.5.54-.19,1.41.16,1.76-.44a.93.93,0,0,0-.06-.83c0-.13-.12-.26-.16-.39a2,2,0,0,1,0-.64,13.14,13.14,0,0,1,.12-1.53,2.35,2.35,0,0,0,.13-1.28c0-.11-.18-.23-.31-.17-.61.26-1.25.41-1.86.68a2.36,2.36,0,0,1-2,.26.24.24,0,0,0-.36.15c-.41,1.08,0,2.3.23,3.38.16.75.35,2.09,1.43,1.84.31-.07.18-.55-.14-.48Z" style="fill: #231f20"/>
    </g>
    <g>
      <path d="M89.91,108.59c-.09-.67-.46-1.29-.58-2a16.31,16.31,0,0,1-.26-2.52c0-.79-.61-1.62,0-2.17a9,9,0,0,1,1.71-.69c.4-.19.76-.53,1.22-.52,1.08,0,.77,1.34.93,2.14a10.83,10.83,0,0,1,.29,2.37c0,1,.14,1.82-.84,2.35-.59.32-1.77,1-2.42.66l.19-.23" style="fill: #edf0f6"/>
      <path d="M90.15,108.52c-.12-.74-.49-1.41-.61-2.15a19.84,19.84,0,0,1-.22-2.31c0-.53-.51-1.39-.12-1.86s1.13-.46,1.61-.66,1.21-.89,1.64-.37c.26.32.19.89.22,1.27,0,.63.22,1.23.29,1.85a13,13,0,0,1,.05,1.87,1.55,1.55,0,0,1-1,1.39c-.53.28-1.3.7-1.91.47l.11.42.18-.23c.2-.25-.15-.61-.35-.36l-.18.23a.26.26,0,0,0,.11.42,2.55,2.55,0,0,0,1.88-.31,2.8,2.8,0,0,0,1.49-1.14,4.28,4.28,0,0,0,.2-2c0-.84-.23-1.63-.32-2.45a5.25,5.25,0,0,0-.22-1.58,1.08,1.08,0,0,0-1.35-.51c-.38.12-.68.39-1,.53s-.7.22-1,.34a1.28,1.28,0,0,0-1,1.36c0,.45.22.87.25,1.33s.05,1,.12,1.55a8.56,8.56,0,0,0,.25,1.43,12.07,12.07,0,0,1,.48,1.55c0,.32.53.19.48-.13Z" style="fill: #231f20"/>
    </g>
    <g>
      <path d="M101.91,102.45v-2.36a11.32,11.32,0,0,1,0-2.91c.57-.18,1.11-.17,1.7-.38a5.32,5.32,0,0,0,1-.33c.42-.26.67-.74,1.15-.92a15.08,15.08,0,0,1,0,2.93c0,.48,0,1,0,1.46s.22.69.09,1c-.45,1-2,.81-2.71,1.38a4.7,4.7,0,0,1-1.3.94c-.3.12-.75.44-1.07.3a.44.44,0,0,1,.25-.52" style="fill: #edf0f6"/>
      <path d="M102.16,102.45c0-.94,0-1.88,0-2.82a7.59,7.59,0,0,1,0-2.38l-.17.17c.77-.22,1.56-.31,2.33-.55s1-.84,1.57-1.11l-.37-.14a14.56,14.56,0,0,1,0,3.3,6,6,0,0,0,.08,1.47c.11.5-.17.77-.61,1a11,11,0,0,0-1.9.68c-.33.23-.59.54-.93.76s-1,.6-1.31.5l.17.17.14-.24c.26-.18,0-.61-.26-.43a.75.75,0,0,0-.36.8.24.24,0,0,0,.17.18,1.78,1.78,0,0,0,1.27-.33,4.84,4.84,0,0,0,1.16-.81c.65-.56,1.54-.53,2.27-.93a1.37,1.37,0,0,0,.72-.83,1.26,1.26,0,0,0,0-.61,4.6,4.6,0,0,1-.07-1.05,17.22,17.22,0,0,0,0-3.73.26.26,0,0,0-.37-.15,2.8,2.8,0,0,0-.81.64,2.33,2.33,0,0,1-1.15.55,12.71,12.71,0,0,1-1.33.3c-.4.08-.64.09-.72.51a8.84,8.84,0,0,0,0,2.24c0,1,0,1.92,0,2.88a.25.25,0,0,0,.5,0Z" style="fill: #231f20"/>
    </g>
    <g>
      <path d="M128.14,91.28c-.61,0-.88,0-1-.62s0-1.3-.13-2-.59-1.72,0-2.13c.27-.18,1.09,0,1.39-.1s.6-.21.88-.29c.84-.24,1.1,0,1.13.91s-.3,1.65-.29,2.53c0,.32.14.84.11,1.1-.06.42-.23.45-.61.7a2.59,2.59,0,0,1-2.24.64l0-.23" style="fill: #edf0f6"/>
      <path d="M128.14,91a1.51,1.51,0,0,1-.56,0c-.19-.09-.24-.32-.28-.51-.13-.64,0-1.3-.12-1.94a6.11,6.11,0,0,1-.25-1.26.55.55,0,0,1,.18-.49c.16-.11.45-.06.63-.06a5.8,5.8,0,0,0,.59,0,4,4,0,0,0,.77-.24c.26-.09.79-.31.94,0a3.08,3.08,0,0,1,0,1.65,5.56,5.56,0,0,0-.14,1.82,1.67,1.67,0,0,1,0,.86c-.09.18-.36.29-.53.39a2.41,2.41,0,0,1-2,.57l.17.18,0-.23c-.06-.32-.54-.19-.48.13l0,.23a.26.26,0,0,0,.17.18,2.58,2.58,0,0,0,2-.42c.48-.29,1.08-.54,1.14-1.17a5.14,5.14,0,0,0-.09-.87,4.25,4.25,0,0,1,.1-1.33,4.59,4.59,0,0,0,.09-2,.84.84,0,0,0-1-.62,4.62,4.62,0,0,0-.9.25,2.07,2.07,0,0,1-.89.13c-.51,0-1.07,0-1.29.55a2.47,2.47,0,0,0,.09,1.54,4.43,4.43,0,0,1,.15,1.15,4,4,0,0,0,.11,1.33,1,1,0,0,0,.43.61,1.7,1.7,0,0,0,.84.11.25.25,0,0,0,0-.5Z" style="fill: #231f20"/>
    </g>
    <g>
      <path d="M137.91,87.94c.05-.41.26-.7.28-1.12s0-.75,0-1.12a12.94,12.94,0,0,0-.14-2.65c-.24-1.09.12-1.49,1.25-1.82a12.63,12.63,0,0,0,2-.54c.3-.14,1-1,1.34-.78.21.74-.21,1.45-.26,2.19,0,.36,0,.73,0,1.1a6.17,6.17,0,0,1,0,2.19,23.71,23.71,0,0,1-3.59.31" style="fill: #edf0f6"/>
      <path d="M138.15,88c0-.27.16-.52.23-.79a3.1,3.1,0,0,0,.07-.81c0-.63,0-1.26,0-1.89a14.46,14.46,0,0,0-.19-1.74.94.94,0,0,1,.29-1c.83-.62,2-.41,2.91-.93a7.73,7.73,0,0,0,.9-.7c.11-.09.09-.1.07,0s0,.34,0,.51-.17.64-.23,1a7.54,7.54,0,0,0,0,1.84,4.31,4.31,0,0,1,0,1.79l.17-.17a22.9,22.9,0,0,1-3.52.3.25.25,0,0,0,0,.5,24.88,24.88,0,0,0,3.66-.32c.09,0,.14-.1.17-.17a4.06,4.06,0,0,0,.09-1.7,7.25,7.25,0,0,1,0-2.08c.12-.52.46-1.35.17-1.87-.2-.36-.68-.11-.92.06a3.91,3.91,0,0,1-1.22.78c-.62.18-1.27.24-1.88.48a1.49,1.49,0,0,0-1,1.83,15.1,15.1,0,0,1,.16,2.52c0,.4,0,.8,0,1.2a9.78,9.78,0,0,1-.28,1.19c-.06.31.42.45.48.13Z" style="fill: #231f20"/>
    </g>
    <g>
      <path d="M89.63,129.8c0-.55-.27-1.11-.28-1.68a9.22,9.22,0,0,0,0-1.39,10.32,10.32,0,0,1-.29-1.25,6.62,6.62,0,0,1,0-1.78,11.74,11.74,0,0,1,2.14,0c.54-.06,1.1-.45,1.63-.26A8.77,8.77,0,0,0,93,127.7c.15.83,0,1.15-.82,1.4s-1.14.82-1.84.86l-.11-.16" style="fill: #edf0f6"/>
      <path d="M89.88,129.8c0-.54-.23-1-.27-1.56s.08-1,0-1.53a11.8,11.8,0,0,1-.3-1.46,5.24,5.24,0,0,1,0-1.48l-.17.17a9.28,9.28,0,0,1,1.9,0c.58,0,1.17-.45,1.74-.28l-.18-.31a9.35,9.35,0,0,0,.08,4.43.76.76,0,0,1-.63,1.09c-.61.22-1.12.79-1.78.85l.22.13-.12-.17c-.18-.26-.61,0-.43.25l.12.17a.22.22,0,0,0,.21.12c.75-.07,1.24-.62,1.91-.87.5-.18,1-.42,1-1a3.05,3.05,0,0,0-.08-.9c-.08-.45-.16-.9-.21-1.36a6.17,6.17,0,0,1,.16-2.6.24.24,0,0,0-.17-.3c-.66-.2-1.22.23-1.87.26a9.94,9.94,0,0,0-2,0,.24.24,0,0,0-.17.17,6.06,6.06,0,0,0,.2,2.9,6,6,0,0,1,0,1.59c0,.57.29,1.1.28,1.68,0,.32.49.32.5,0Z" style="fill: #231f20"/>
    </g>
    <g>
      <path d="M101.91,123.38c0-.41-.27-.69-.29-1.12a5.89,5.89,0,0,0,0-.84c-.11-.67-.73-1.42-.73-2.09,0-1.23,3-1.82,4-2.27.41.3.31.92.34,1.35a13.6,13.6,0,0,0,.21,1.56,6.7,6.7,0,0,1,.08,2.44c-.4,1.41-3.19,2-4.39,1.23.25,0,.5,0,.75,0" style="fill: #edf0f6"/>
      <path d="M102.15,123.31a5.45,5.45,0,0,0-.2-.69,1.72,1.72,0,0,1,0-.78,2.42,2.42,0,0,0-.3-1.26,2.84,2.84,0,0,1-.44-1.3.85.85,0,0,1,.37-.56c1-.8,2.38-.93,3.52-1.45l-.31,0c.37.31.24.88.28,1.31s.14,1,.23,1.58a9.28,9.28,0,0,1,.14,1.49,1.81,1.81,0,0,1-.26,1.09,2.86,2.86,0,0,1-1.81,1,2.83,2.83,0,0,1-2-.25l-.12.46.75,0c.32,0,.32-.51,0-.5l-.75,0a.26.26,0,0,0-.13.47,3.83,3.83,0,0,0,3.72-.18,2.08,2.08,0,0,0,1.08-1.36,7.26,7.26,0,0,0-.14-2.54,11.29,11.29,0,0,1-.19-1.74,1.4,1.4,0,0,0-.4-1.16.27.27,0,0,0-.31,0c-.61.28-1.29.44-1.92.67a4.73,4.73,0,0,0-1.82,1c-.56.55-.39,1.22-.1,1.87a3,3,0,0,1,.45,1.48,2.2,2.2,0,0,0,0,.81c.07.27.19.52.24.79s.53.19.48-.13Z" style="fill: #231f20"/>
    </g>
    <g>
      <path d="M126.47,113.05c-.18.1-.33.17-.5.25a11.34,11.34,0,0,1-.34-2.2c0-.72-.25-1.27-.29-1.95a3.06,3.06,0,0,1,0-1.13c.24-.53,1.13-.58,1.59-.76a23.44,23.44,0,0,0,2.71-1.33c.25-.13.69-.5,1-.4.66.21.12,1.59,0,2a10,10,0,0,0,.1,2.89c.05.62.07.6-.65.73-.46.09-.92.13-1.39.26a1.31,1.31,0,0,0-.85.27,6.2,6.2,0,0,1-.62.53c-.36.16-.75.11-1.11.32" style="fill: #edf0f6"/>
      <path d="M126.34,112.84l-.5.25.37.15c-.06-.39-.16-.77-.23-1.15a10.88,10.88,0,0,1-.11-1.27c-.06-.72-.27-1.41-.31-2.13,0-.34,0-.63.31-.82a3.84,3.84,0,0,1,.85-.27,9.93,9.93,0,0,0,2-.87c.36-.19.72-.37,1.07-.58.18-.1.59-.48.8-.38.36.15,0,1.07,0,1.32a5.45,5.45,0,0,0-.15,1.93c0,.41.1.81.13,1.22a2,2,0,0,1,0,.52c-.05.07-.31.08-.38.09l-.66.11a10.7,10.7,0,0,0-1.28.23,2.58,2.58,0,0,0-.87.59c-.39.31-.89.27-1.33.5s0,.58.25.43.86-.15,1.23-.41c.16-.12.3-.26.46-.39a1.29,1.29,0,0,1,.77-.29c.44-.06.88-.17,1.32-.24a1.81,1.81,0,0,0,.82-.24.55.55,0,0,0,.17-.45,9.69,9.69,0,0,0-.13-1.31,6.3,6.3,0,0,1,.15-2.37c.12-.46.29-1.12,0-1.52s-1.07,0-1.5.23a15.22,15.22,0,0,1-2.72,1.33c-.55.18-1.29.22-1.63.77a1.8,1.8,0,0,0-.13,1,10.82,10.82,0,0,0,.2,1.39c.11.53.09,1.07.16,1.61s.21,1,.3,1.52a.26.26,0,0,0,.37.15l.49-.25c.29-.15,0-.59-.25-.43Z" style="fill: #231f20"/>
    </g>
    <g>
      <path d="M137.63,108a19.11,19.11,0,0,0-.7-4c-.11-.53-.3-.55.18-.94a7.49,7.49,0,0,1,1.5-.62c.95-.41,1.79-1.45,2.82-1.59.37.5.11,2,.11,2.7a13.93,13.93,0,0,1,0,3,17.87,17.87,0,0,1-1.94.34c-.5.06-1-.21-1.38.26" style="fill: #edf0f6"/>
      <path d="M137.88,108a12.54,12.54,0,0,0-.41-2.79c-.11-.46-.2-.94-.32-1.4a1.1,1.1,0,0,1-.1-.34c0-.12.22-.25.32-.31a5.64,5.64,0,0,1,1.06-.4,4.1,4.1,0,0,0,.93-.48,5.78,5.78,0,0,1,2.14-1.21l-.28-.12a1.94,1.94,0,0,1,.15,1.12c0,.4-.05.81-.08,1.22a19.11,19.11,0,0,1,0,3.21l.17-.18a11.34,11.34,0,0,1-1.92.33c-.57,0-1.07-.14-1.51.34-.22.23.13.58.35.35s.5-.21.81-.19a3.69,3.69,0,0,0,.74-.05,11.54,11.54,0,0,0,1.66-.3.26.26,0,0,0,.18-.17,21.7,21.7,0,0,0,.05-3.42c0-.75.29-1.83-.15-2.51a.27.27,0,0,0-.29-.11,6,6,0,0,0-2.25,1.26,4.83,4.83,0,0,1-1.15.54,3.21,3.21,0,0,0-1,.47.77.77,0,0,0-.37.69,10.66,10.66,0,0,0,.3,1.24,14.53,14.53,0,0,1,.52,3.21.25.25,0,0,0,.5,0Z" style="fill: #231f20"/>
    </g>
    <g>
      <path d="M89.91,150.45c-.08-.38-.46-.47-.57-.83s.1-1,0-1.4a7.68,7.68,0,0,1-.29-1.26c0-.48.17-1.21-.17-1.61.4-.71,1-.39,1.68-.47s1.11-.94,1.87-1c.48.46.19,1.25.23,1.82a7.4,7.4,0,0,0,.37,1.38c.24.84.25,1.66.47,2.47a11.2,11.2,0,0,0-1.94.54c-.38.15-1.31.72-1.39.07" style="fill: #edf0f6"/>
      <path d="M90.15,150.38c-.12-.41-.58-.6-.6-1a4.51,4.51,0,0,1,.07-.73,2,2,0,0,0-.08-.73,5.54,5.54,0,0,1-.21-.8,3.32,3.32,0,0,1,0-.63,1.75,1.75,0,0,0-.23-1.23v.26c.38-.61,1.19-.22,1.78-.42s1-.85,1.56-.92l-.17-.07c.29.3.2.75.17,1.14a3.23,3.23,0,0,0,.14,1.27A10.54,10.54,0,0,1,93,148c.09.55.15,1.11.29,1.66l.17-.31a10.94,10.94,0,0,0-2,.57c-.19.08-.37.18-.56.25s-.41.18-.45,0-.55-.18-.48.13c.12.66.81.5,1.26.31a12.89,12.89,0,0,1,2.38-.74.25.25,0,0,0,.17-.3c-.15-.59-.2-1.19-.31-1.79s-.31-1.08-.45-1.63a4.86,4.86,0,0,1,0-1.32,1.3,1.3,0,0,0-.35-1c-.27-.2-.73.06-1,.22a4.25,4.25,0,0,1-.92.65,4,4,0,0,1-1.14,0,1.17,1.17,0,0,0-.93.59.27.27,0,0,0,0,.26c.27.35.16.83.14,1.24a4.82,4.82,0,0,0,.27,1.4c.11.48-.1.95,0,1.43a.89.89,0,0,0,.23.49c.13.16.31.27.37.47a.25.25,0,0,0,.48-.13Z" style="fill: #231f20"/>
    </g>
    <g>
      <path d="M102.19,144.59c-.44-.34-.2-.68-.27-1.12s-.25-.52-.31-.83.13-1,0-1.42c-.06-.29-.29-.52-.31-.83-.06-.78,1.08-.93,1.69-1.18.44-.18,2.07-1.23,2.54-1.07.87.29,0,4.06,0,4.72,0,.23.1.68,0,.9s-1,.49-1.36.62a4,4,0,0,1-2.44.44,1.79,1.79,0,0,1,.48-.51" style="fill: #edf0f6"/>
      <path d="M102.36,144.41c-.32-.27-.13-.64-.2-1A1.69,1.69,0,0,0,102,143a1.43,1.43,0,0,1-.16-.76,3,3,0,0,0,0-1.15c-.1-.31-.43-.66-.19-1s1.08-.47,1.54-.68.93-.51,1.41-.74c.23-.11.8-.48,1-.16a2.56,2.56,0,0,1,.09,1.29c-.06,1-.3,2-.38,2.93,0,.27.08.56,0,.82s-.59.39-.85.47c-.86.27-1.76.82-2.69.57l.15.37a1.73,1.73,0,0,1,.38-.43c.25-.19,0-.62-.25-.43a2.5,2.5,0,0,0-.56.61.26.26,0,0,0,.15.37,4.86,4.86,0,0,0,2.74-.51c.63-.21,1.44-.35,1.43-1.16a5,5,0,0,1,0-.77c0-.24.06-.48.1-.71.1-.64.2-1.28.26-1.92.07-.82.15-2.46-1.14-2.05a12.15,12.15,0,0,0-1.81.89,11.39,11.39,0,0,0-1.72.73.94.94,0,0,0-.4.89,2.59,2.59,0,0,0,.26.67,1.87,1.87,0,0,1,0,.91,2,2,0,0,0,0,.77,5.22,5.22,0,0,1,.28.75c0,.22,0,.43,0,.65a.88.88,0,0,0,.33.55c.24.21.6-.14.35-.35Z" style="fill: #231f20"/>
    </g>
    <g>
      <path d="M127,134.82a2.33,2.33,0,0,1-.55-1.73,3.65,3.65,0,0,0-.28-1.46c-.13-.32-.39-.63-.32-1,.14-.7,1.88-1.16,2.49-1.33s1.84-.75,2.25-.53a18.7,18.7,0,0,0,.46,2.71,4,4,0,0,1,.1,1.84c-.85-.48-1.7.18-2.49.49a11.38,11.38,0,0,0-1.64.58c-.37.22-.64.57-1,.69q.1-.27.18-.54" style="fill: #edf0f6"/>
      <path d="M127.2,134.64c-.67-.58-.4-1.69-.58-2.46a4,4,0,0,0-.25-.76,1.54,1.54,0,0,1-.26-.69c0-.29.39-.47.61-.59a10.69,10.69,0,0,1,1.83-.63c.34-.11.67-.25,1-.36s.69-.27.93-.16l-.12-.22a21.65,21.65,0,0,0,.35,2.26,5.08,5.08,0,0,1,.22,2.22l.37-.14c-1-.5-1.8.1-2.69.46-.46.18-1,.26-1.4.46s-.79.64-1.26.81l.31.3c.06-.17.12-.35.17-.53s-.4-.45-.48-.14a4.88,4.88,0,0,1-.18.54.26.26,0,0,0,.31.31,4.68,4.68,0,0,0,1-.66,5,5,0,0,1,1.35-.5c.81-.26,1.76-1.07,2.62-.62a.26.26,0,0,0,.37-.15,4,4,0,0,0-.07-1.83c-.15-.64-.29-1.28-.39-1.93a4.82,4.82,0,0,0-.11-.93c-.07-.19-.29-.22-.47-.23a3.81,3.81,0,0,0-1.27.31c-.76.27-1.56.45-2.3.77a2.4,2.4,0,0,0-1,.66,1.15,1.15,0,0,0,0,1.29,3.63,3.63,0,0,1,.33,1c0,.32,0,.65.06,1a2.18,2.18,0,0,0,.61,1.52c.24.21.59-.15.35-.36Z" style="fill: #231f20"/>
    </g>
    <g>
      <path d="M138.19,129.24a22,22,0,0,0-.85-3.64c-.13-.65-.05-1.24.62-1.4s1.14.07,1.69,0,.83-.37,1.27-.45c1.2-.22.9,1,.89,1.91a10.37,10.37,0,0,0,.07,2.16c.12.54.4.72-.32.89-.56.13-1.12.05-1.71.21s-2.15,1-2.22.36" style="fill: #edf0f6"/>
      <path d="M138.44,129.24a7.89,7.89,0,0,0-.43-2.15,6,6,0,0,1-.47-2c0-.79.87-.66,1.45-.62a2.51,2.51,0,0,0,1-.11,6.26,6.26,0,0,1,1-.38.51.51,0,0,1,.49.1,1,1,0,0,1,.12.56c0,.54,0,1.09,0,1.63a6,6,0,0,0,.2,2l0,.12s0,0,0,0l-.18.05a7.12,7.12,0,0,1-1.22.14,6,6,0,0,0-1.49.46c-.14.05-1,.38-1,.17s-.54-.18-.48.13c.16,1,2,0,2.44-.15a5.69,5.69,0,0,1,1.24-.16,2.11,2.11,0,0,0,1-.26.49.49,0,0,0,.18-.54,6.18,6.18,0,0,1-.2-1,22.45,22.45,0,0,1,0-2.32c0-.45,0-1.05-.41-1.33-.62-.4-1.33.12-1.92.3-.75.24-1.66-.23-2.33.3s-.37,1.48-.19,2.14a12.39,12.39,0,0,1,.7,2.93c0,.32.51.32.5,0Z" style="fill: #231f20"/>
    </g>
    <g>
      <path d="M90.19,172.21a1.24,1.24,0,0,1-.57-1.11,5.23,5.23,0,0,0-.25-1.25,7.59,7.59,0,0,1,0-2.89c.85-.26,1.67-.48,2.53-.66s1.64-1.09,1.61.38c0,.73,0,1.47,0,2.21,0,.29.14,1.11,0,1.38-.44.66-2,.77-2.71.88l0,.23" style="fill: #edf0f6"/>
      <path d="M90.36,172a1.53,1.53,0,0,1-.41-.47,2.23,2.23,0,0,1-.09-.68c0-.42-.2-.83-.27-1.25a6.21,6.21,0,0,1,0-2.61l-.18.17c.49-.15,1-.29,1.49-.42s.9-.17,1.33-.32c.25-.08.48-.2.72-.29s.22-.13.26,0a5.14,5.14,0,0,1,0,1.3c0,.49,0,1,0,1.49,0,.31.07.62,0,.94s-.23.43-.49.54a7.28,7.28,0,0,1-2.12.44.27.27,0,0,0-.18.18l0,.23c-.06.32.42.45.49.13l0-.23-.17.18a13.07,13.07,0,0,0,1.64-.28,1.9,1.9,0,0,0,1.24-.75,3.17,3.17,0,0,0,.05-1.47c0-.85.06-1.71,0-2.55,0-.37-.18-.76-.62-.74A6.61,6.61,0,0,0,92,166c-.84.22-1.68.39-2.5.64-.16.05-.28.07-.35.22a2.26,2.26,0,0,0-.08.44,7.13,7.13,0,0,0-.07,1,8.87,8.87,0,0,0,.3,2.17c.09.35,0,.72.15,1.07a1.6,1.6,0,0,0,.57.79c.25.21.6-.14.35-.35Z" style="fill: #231f20"/>
    </g>
    <g>
      <path d="M102.75,166.35l-.24,0c-.24-.72.09-1.59-.07-2.33a5.13,5.13,0,0,1-.26-1.11,2.13,2.13,0,0,0-.18-1.22c.49-.16,1,0,1.53-.1s.76-.44,1.17-.59c.68-.24.69.06.84.72a8,8,0,0,1,.28,2,7.06,7.06,0,0,0,0,1.38c.12.64.33.71-.39,1.12-1.11.64-2.42.11-3.46.76a1.39,1.39,0,0,0,.48-.32" style="fill: #edf0f6"/>
      <path d="M102.81,166.11l-.23,0,.17.17c-.23-.79.11-1.62-.09-2.43a4.36,4.36,0,0,1-.23-1.14,2.12,2.12,0,0,0-.22-1.14l-.14.36a11.56,11.56,0,0,1,1.32-.06,3.44,3.44,0,0,0,1.14-.51c.18-.1.54-.32.64-.08a5.56,5.56,0,0,1,.27,1.14,6.73,6.73,0,0,1,.13,1.41,6.45,6.45,0,0,0,0,1.39c0,.15.16.4.08.54s-.26.2-.37.26a2.3,2.3,0,0,1-.68.24c-.94.2-1.91,0-2.78.51a.25.25,0,0,0,.25.43,1.88,1.88,0,0,0,.53-.35c.24-.22-.11-.57-.35-.35a1.48,1.48,0,0,1-.43.27l.25.43c.89-.52,2-.23,3-.53a2.29,2.29,0,0,0,1-.58.75.75,0,0,0,.09-.7,5.87,5.87,0,0,1-.1-1.45,7.29,7.29,0,0,0-.13-1.61,6.8,6.8,0,0,0-.3-1.26.6.6,0,0,0-.59-.4,3.18,3.18,0,0,0-1.29.57c-.58.29-1.22,0-1.82.21a.26.26,0,0,0-.15.37,2.67,2.67,0,0,1,.16,1.19,10,10,0,0,0,.26,1.08c.16.77-.16,1.55.07,2.32a.27.27,0,0,0,.18.18l.23,0c.31.06.45-.42.13-.49Z" style="fill: #231f20"/>
    </g>
    <g>
      <path d="M127.58,154.35c-.66.22-.68-.9-.84-1.38a8.46,8.46,0,0,1-.27-2.13c0-.37-.31-.88,0-1.19.13-.15,1-.15,1.18-.24.67-.28,1.39-.94,2.18-.61a11,11,0,0,1,0,2.5c0,.31,0,.65,0,1s.26.73.28,1.1c.07,1.24-2.62,1.21-3.52,1.29a.29.29,0,0,0,.18-.3" style="fill: #edf0f6"/>
      <path d="M127.52,154.11c-.39.11-.45-.92-.52-1.16a6.26,6.26,0,0,1-.23-1.28,7.74,7.74,0,0,0-.11-1.19,1.66,1.66,0,0,1-.1-.53c0-.15.09-.14.22-.16s.55,0,.81-.12c.72-.19,1.32-.93,2.12-.63l-.17-.17a13.4,13.4,0,0,1,0,3,2.23,2.23,0,0,0,0,.68c.05.24.17.47.22.72a.54.54,0,0,1-.19.56,3,3,0,0,1-1.54.48c-.5.07-1,.08-1.53.12l.13.47a.62.62,0,0,0,.3-.52c.05-.31-.45-.31-.5,0l0,.09c-.19.12-.14.49.12.46a9.27,9.27,0,0,0,2.92-.44,1.28,1.28,0,0,0,.84-.88,2,2,0,0,0-.18-1,4.13,4.13,0,0,1-.07-1.36c0-.44,0-.87.05-1.31,0-.22,0-.44,0-.66a1.55,1.55,0,0,0-.09-.57c-.14-.29-.68-.27-.94-.23a3.84,3.84,0,0,0-1.07.44,2.05,2.05,0,0,1-.82.31,2.41,2.41,0,0,0-.8.15.68.68,0,0,0-.31.68c0,.38.15.72.17,1.1a11.38,11.38,0,0,0,.14,1.42c.07.33.17.66.25,1,.11.52.35,1.2,1,1a.25.25,0,0,0-.13-.49Z" style="fill: #231f20"/>
    </g>
    <g>
      <path d="M139,150.17c-.33-.69-.13-1.2-.26-1.95a5.26,5.26,0,0,1-.27-2.2c.58-.15,1.18,0,1.76-.06a3.42,3.42,0,0,0,1.53-.74,4.82,4.82,0,0,1,0,1.47,8.32,8.32,0,0,1,0,2.23c-.22.67-2.65,1.88-2.78,1" style="fill: #edf0f6"/>
      <path d="M139.24,150a7.74,7.74,0,0,1-.25-1.93,5.35,5.35,0,0,1-.25-2l-.18.18c.62-.15,1.25,0,1.87-.09a3.84,3.84,0,0,0,1.53-.78l-.42-.11a4.29,4.29,0,0,1,0,1.24,9.29,9.29,0,0,0,.05,1.06,4.41,4.41,0,0,1,0,1.09.69.69,0,0,1-.28.45,3.64,3.64,0,0,1-1.25.72,1.84,1.84,0,0,1-.61.12c-.15,0-.18,0-.2-.15-.06-.31-.54-.18-.49.14.16,1,1.61.34,2.1.08a3.12,3.12,0,0,0,1-.78,2.59,2.59,0,0,0,.22-1.67,8,8,0,0,1-.05-1.1,4,4,0,0,0,0-1.33.26.26,0,0,0-.42-.12,2.91,2.91,0,0,1-1.47.69,16.09,16.09,0,0,0-1.7.05.27.27,0,0,0-.18.18,5.49,5.49,0,0,0,.24,2.2,6.58,6.58,0,0,1,.08,1.09,2.48,2.48,0,0,0,.24,1c.13.3.56,0,.43-.25Z" style="fill: #231f20"/>
    </g>
    <path d="M13.44,181.12a.25.25,0,0,0,0-.5.25.25,0,0,0,0,.5Z" style="fill: #231f20"/>
    <g>
      <path d="M13.44,180.87c0-.46.28-.76.31-1.19,0-.6-.36-.63.09-1.06s1.59-.31,2.14-.24a28.24,28.24,0,0,0,2.83.55c.66,0,1.52-.63,2-.05a1.47,1.47,0,0,1,.13,1.16s-.27,1-.25,1c-.35.41-1.88.11-2.41.11a14.59,14.59,0,0,0-4.44.24l.18-.24" style="fill: #edf0f6"/>
      <path d="M13.69,180.87c0-.55.39-1,.28-1.54,0-.11-.11-.27-.09-.38s.37-.3.54-.34a7.52,7.52,0,0,1,3.25.4,3.57,3.57,0,0,0,1.59.11c.43-.1,1.23-.53,1.43.12a2,2,0,0,1-.1,1.07,2.24,2.24,0,0,0-.16.8l.06-.25c-.25.26-.91.14-1.23.12-.47,0-.92-.08-1.39-.09a12.68,12.68,0,0,0-4.12.26l.28.37.19-.25c.19-.26-.24-.51-.43-.25l-.19.25c-.13.17.09.42.28.36a8.5,8.5,0,0,1,2.8-.27c.71,0,1.42,0,2.13.08a3.93,3.93,0,0,0,1.74,0,.61.61,0,0,0,.26-.15c.1-.09.07-.16.1-.28-.05.18,0,.05,0-.05l.1-.37a2.57,2.57,0,0,0,.09-1.55c-.25-.65-.89-.68-1.48-.51a3,3,0,0,1-1,.18,7.56,7.56,0,0,1-1.56-.31,8.64,8.64,0,0,0-2.14-.31c-.56,0-1.42.14-1.59.79-.06.26.1.48.11.74,0,.44-.29.83-.31,1.29s.49.32.5,0Z" style="fill: #231f20"/>
    </g>
    <g>
      <path d="M27.68,181.42a9.24,9.24,0,0,1,0-2.41,5.42,5.42,0,0,0,1.21.47c.4,0,.84,0,1.24,0,.64,0,1.28,0,1.91,0s.62.05.62.72c0,.35.16,1.23,0,1.53-.31.49-1.47.26-1.92.26a8,8,0,0,1-2-.06,5.31,5.31,0,0,0-1.39-.22" style="fill: #edf0f6"/>
      <path d="M27.93,181.42a8.33,8.33,0,0,1,0-2.34l-.31.17a6,6,0,0,0,1.21.47,10.87,10.87,0,0,0,1.51,0c.54,0,1.08,0,1.61,0l.42,0c.08,0,.06,0,0,0a.78.78,0,0,1,0,.09c0,.3,0,.62.05.92s.11.69-.06.89-.62.17-.86.16-.61-.05-.91-.05a7.6,7.6,0,0,1-1.72,0,9,9,0,0,0-1.54-.25.25.25,0,0,0,0,.5,12.28,12.28,0,0,1,1.59.27,10.34,10.34,0,0,0,1.67,0c.65,0,1.48.24,2-.18a1.09,1.09,0,0,0,.32-.94c0-.37-.07-.74-.07-1.12s0-.54-.26-.68a2.75,2.75,0,0,0-1.21-.1q-1,0-2,0a2.19,2.19,0,0,1-.95-.12c-.26-.11-.5-.25-.77-.35a.24.24,0,0,0-.3.17,9,9,0,0,0-.05,2.48.25.25,0,0,0,.5,0Z" style="fill: #231f20"/>
    </g>
    <g>
      <path d="M46.93,185.33c-.13-.31-.9-1.57-.52-1.91s1.57,0,1.93,0c.83,0,1.68-.06,2.5,0a13.07,13.07,0,0,1,1.63.33c.13.53.15,1.32-.38,1.6a5.82,5.82,0,0,1-2.09,0c-1-.07-2.24-.66-3.3-.12l-.05-.17" style="fill: #edf0f6"/>
      <path d="M47.15,185.21a6.54,6.54,0,0,1-.58-1.33c0-.23,0-.29.19-.32a3.92,3.92,0,0,1,.84,0c.67.05,1.32.05,2,0a10.29,10.29,0,0,1,1.36,0c.49.05,1,.22,1.45.31l-.17-.18c.09.42.18,1.17-.33,1.35a4,4,0,0,1-1.58,0c-1.24-.1-2.55-.68-3.75-.11l.37.15,0-.16a.25.25,0,0,0-.48.13l.05.16a.25.25,0,0,0,.37.15,3.78,3.78,0,0,1,2.35,0,10.58,10.58,0,0,0,1.86.2,1.7,1.7,0,0,0,1.49-.42,1.93,1.93,0,0,0,.18-1.61.23.23,0,0,0-.17-.17c-.53-.1-1-.28-1.59-.33a14,14,0,0,0-1.59,0,11.28,11.28,0,0,1-1.3,0c-.32,0-.64-.06-1-.06-.56,0-1.11.13-1,.81a5.55,5.55,0,0,0,.65,1.6c.13.29.56,0,.43-.25Z" style="fill: #231f20"/>
    </g>
    <g>
      <path d="M89.35,188.4a1.63,1.63,0,0,1-.57-.84c0-.11-.22-.61-.24-.72a5.59,5.59,0,0,1,0-2c.74-.28,1.8,0,2.6-.16a11.22,11.22,0,0,0,1.77-.68,5.44,5.44,0,0,1,.06,1.51,9.85,9.85,0,0,0,.25,1.49,18.79,18.79,0,0,0-2.36.64c-.43.14-1.69.27-1.77.74l.25.06" style="fill: #edf0f6"/>
      <path d="M89.53,188.22a2.49,2.49,0,0,1-.74-1.41,4.13,4.13,0,0,1-.09-.93,3.8,3.8,0,0,1,.09-1l-.18.17a8.66,8.66,0,0,1,2.16-.1,7.72,7.72,0,0,0,2.22-.73l-.31-.18a6,6,0,0,1,0,1.53A13.23,13.23,0,0,0,93,187l.18-.24c-.94.17-1.82.54-2.75.74-.49.1-1.42.21-1.55.81a.26.26,0,0,0,.17.31l.25.06a.25.25,0,0,0,.14-.48l-.26-.06.18.31c0-.19.38-.27.53-.31s.57-.14.85-.2.74-.22,1.11-.33a10.73,10.73,0,0,1,1.46-.36.27.27,0,0,0,.19-.25,12.52,12.52,0,0,1-.25-1.49,5.89,5.89,0,0,0-.07-1.57.25.25,0,0,0-.31-.18,7.44,7.44,0,0,1-2,.71c-.64.08-1.28-.06-1.93,0-.28,0-.59.07-.66.39a4.58,4.58,0,0,0-.08.83,4.84,4.84,0,0,0,.18,1.52,2.85,2.85,0,0,0,.79,1.39c.25.2.61-.15.36-.36Z" style="fill: #231f20"/>
    </g>
    <g>
      <path d="M101.91,183.1c-.47-.09-.68-.7-.84-1.09-.08-.21-.41-1.09-.28-1.28s.64-.25.9-.34a11.67,11.67,0,0,1,2.44-.93c.4,0,.79,0,1.2-.05a5.15,5.15,0,0,1,1.23-.24,1.51,1.51,0,0,0-.76,1.35c-.06.74.07,1-.67,1.47a18.88,18.88,0,0,1-2,.83c-.27.11-1.81,1-1.82.28" style="fill: #edf0f6"/>
      <path d="M102,182.86c-.48-.12-.66-.89-.8-1.31,0-.13-.24-.56-.16-.7a1.34,1.34,0,0,1,.37-.12,4,4,0,0,0,.46-.13,13.11,13.11,0,0,1,2.17-.87c.42-.07.86,0,1.29-.06a6.85,6.85,0,0,1,1.26-.25l-.07-.49a1.79,1.79,0,0,0-.95,1.67,2.09,2.09,0,0,1-.09.79,1.74,1.74,0,0,1-.87.6c-.62.29-1.28.49-1.9.79-.1.05-1.07.49-1.08.32s-.52-.32-.5,0c0,.67.76.56,1.21.39s1.15-.52,1.74-.74,1.68-.55,1.91-1.31c.19-.61-.1-1.72.67-2a.25.25,0,0,0-.07-.49c-.53,0-1,.24-1.53.27a7.6,7.6,0,0,0-1.43.12,7.93,7.93,0,0,0-1.34.57,9,9,0,0,1-1.2.42c-.28.09-.54.24-.55.57a2.7,2.7,0,0,0,.23,1c.2.57.44,1.35,1.1,1.51a.25.25,0,0,0,.13-.48Z" style="fill: #231f20"/>
    </g>
    <g>
      <path d="M127.58,171.66a5,5,0,0,1-.85-1.11c-.08-.26,0-.56,0-.85s-.36-.39-.12-.84,1.9-1,2.42-1.25,1.56-1.39,2.08-.81c.37.41.22,1.87.16,2.37-.13.92-.63,1.1-1.47,1.44a16.48,16.48,0,0,1-4.6,1.07,1.5,1.5,0,0,0,.48-.3" style="fill: #edf0f6"/>
      <path d="M127.76,171.48c-.18-.22-.38-.41-.56-.63a1.16,1.16,0,0,1-.23-.36,3,3,0,0,1,0-.6,1,1,0,0,0-.09-.4c0-.09-.13-.19-.15-.29s.15-.34.29-.44c.75-.51,1.7-.62,2.43-1.16a2.78,2.78,0,0,1,1.2-.71c.42,0,.4.67.41,1a6.81,6.81,0,0,1-.09,1.35,1.26,1.26,0,0,1-.85,1,16,16,0,0,1-5,1.24l.07.49a2,2,0,0,0,.59-.37c.24-.21-.12-.56-.36-.35a1.26,1.26,0,0,1-.36.24c-.23.09-.24.52.06.49a16.84,16.84,0,0,0,5.18-1.29,1.72,1.72,0,0,0,1.06-1.08,5.61,5.61,0,0,0,.16-1.68c0-.47,0-1.14-.49-1.4s-1,.07-1.39.34a6.37,6.37,0,0,1-1.27.78,9.37,9.37,0,0,0-1.59.7,1.19,1.19,0,0,0-.54.59c-.14.38.08.54.17.88a5.46,5.46,0,0,1,0,.7,1,1,0,0,0,.19.47,9.16,9.16,0,0,0,.76.89c.2.25.55-.1.35-.35Z" style="fill: #231f20"/>
    </g>
    <g>
      <path d="M138.74,167.19c-.07-.39-.55-.72-.7-1.11s-.26-1.11-.39-1.64c.46-.2,1.09,0,1.59-.09a13,13,0,0,0,1.24-.43,6.22,6.22,0,0,0,1.36-.57c.39-.23.77-.7,1.27-.62.38.49.12,1.81.11,2.44,0,1-.36.8-1.26.93a11.25,11.25,0,0,0-2.11.6c-.28.1-1.37,1-1.38.21" style="fill: #edf0f6"/>
      <path d="M139,167.13c-.12-.47-.55-.73-.72-1.16a12.26,12.26,0,0,1-.38-1.59l-.17.3a6.27,6.27,0,0,1,1.44-.07,8.2,8.2,0,0,0,1.52-.5,5.62,5.62,0,0,0,1.31-.56c.35-.22.67-.62,1.12-.57l-.22-.13a1.54,1.54,0,0,1,.17,1c0,.36-.05.72-.08,1.07s.05.64-.11.81-.4.09-.55.11a9.22,9.22,0,0,0-2.53.64,5.92,5.92,0,0,0-.61.33,2.19,2.19,0,0,1-.38.17s-.08,0-.1,0,0,0,0-.05c0-.32-.53-.32-.5,0a.53.53,0,0,0,.72.52,4.9,4.9,0,0,0,1-.49,8.47,8.47,0,0,1,1.77-.54,8.77,8.77,0,0,0,1.28-.19.84.84,0,0,0,.49-.81c.05-.5.09-1,.11-1.5a1.88,1.88,0,0,0-.26-1.32c-.17-.18-.49-.11-.7,0a3.39,3.39,0,0,0-.7.46,8.46,8.46,0,0,1-2.05.88,2.64,2.64,0,0,1-1.14.23,2.87,2.87,0,0,0-1.13.08.26.26,0,0,0-.17.31,14.15,14.15,0,0,0,.38,1.59c.16.43.6.72.71,1.16a.25.25,0,0,0,.49-.13Z" style="fill: #231f20"/>
    </g>
    <path d="M146.56,157.4a.25.25,0,0,0,0-.5.25.25,0,0,0,0,.5Z" style="fill: #231f20"/>
    <g>
      <path d="M110.84,46.35v-.18a13.21,13.21,0,0,0,.29,1.78,24.41,24.41,0,0,1,0,3.42c0,1,.27,1.84.28,2.79a12.52,12.52,0,0,0,.31,2.1,6.1,6.1,0,0,1,.26,1c0,.46,0,.94,0,1.4,0,1.29,0,2.57,0,3.86,0,.88-.3,1.66-.29,2.54s0,1.85,0,2.78c0,1.87-.56,3.65-.55,5.52v5.5a26.42,26.42,0,0,1-.26,4.63c-.17,1,.12,2,0,3a17.87,17.87,0,0,0-.25,3V102.8a16.35,16.35,0,0,1,0,3,12.18,12.18,0,0,0-.26,2.57,15.87,15.87,0,0,1,0,3.16,23.57,23.57,0,0,0-.26,5.26c0,.9.06,1.81,0,2.71-.05,1.06-.29,2-.29,3.14,0,4.12,0,8.24,0,12.36v11.77c0,2.51,0,5,0,7.52,0,1.24-.3,2.4-.29,3.65s-.29,2.56-.28,3.87,0,2.53,0,3.79a25.3,25.3,0,0,1,0,4,40.56,40.56,0,0,0-.26,6.62c0,.78-.22,5.14,1.33,4.59.3-.11.63-.55.9-.74s.75-.5,1.12-.76a9.41,9.41,0,0,1,2.8-1.61,18.94,18.94,0,0,0,2.57-1.33,5.53,5.53,0,0,0,2.17-1.45c.34-.56,0-1.59,0-2.25,0-1-.3-1.86-.28-2.86s-.24-2.15-.29-3.26c0-.95,0-1.92,0-2.88s-.23-1.73-.29-2.63c-.07-1.21.31-2.25.3-3.42,0-2.23-.11-4.5,0-6.73a10.52,10.52,0,0,1,.27-1.38c.08-.55,0-1.1,0-1.65a16.3,16.3,0,0,1,.36-2.09c.21-1.13.13-2.24.23-3.37s.26-2.28.26-3.47V127.1c0-1.91,0-3.82,0-5.73,0-2.44-.48-4.84-.58-7.26-.15-3.92.39-7.92-.12-11.81-.34-2.59-.19-5.19-.57-7.78a36.1,36.1,0,0,1-.13-5.2V77.71c0-2.85,0-5.7,0-8.54,0-1.06.3-2.06.29-3.12,0-1.36.25-2.66.29-4,.09-3.19.27-6.36.27-9.56V42.6c0-.45-.23-2,.15-2.22,0,.13-.11.26-.15.39" style="fill: #edf0f6"/>
      <path d="M111.09,46.35v-.18h-.5c0,1.1.37,2.12.34,3.24a19.73,19.73,0,0,0,0,3.17c.16,1.1.19,2.2.41,3.3a11.28,11.28,0,0,1,.35,1.61c0,.57,0,1.15,0,1.72,0,1.22.09,2.48,0,3.7,0,.55-.19,1.08-.24,1.63s0,1.28,0,1.91a27.39,27.39,0,0,1-.25,4,22.46,22.46,0,0,0-.31,3.37c0,2.47.07,5,0,7.42,0,1.19-.32,2.36-.27,3.56a25.71,25.71,0,0,1-.21,3.39c-.19,2.49,0,5,0,7.54s-.07,5,0,7.49c0,.54.06,1.09.05,1.63a16.51,16.51,0,0,1-.23,1.84,16,16,0,0,0-.06,2.94,23.41,23.41,0,0,1-.29,3.34c-.1,1.18-.05,2.38,0,3.57a31.46,31.46,0,0,1-.06,3.76,33.29,33.29,0,0,0-.22,3.6q0,3.77,0,7.55v15.2c0,2.55.06,5.11,0,7.66,0,2.38-.49,4.75-.56,7.13s.15,4.81.06,7.2c0,1.16-.28,2.31-.33,3.47s0,2.48,0,3.72a27.25,27.25,0,0,0,.1,3.26c.09.69.28,2,1.22,2a1.16,1.16,0,0,0,.62-.22c.43-.3.78-.69,1.23-1a20.73,20.73,0,0,1,2.58-1.68c.45-.21,1-.34,1.4-.56s.91-.5,1.36-.75a17.62,17.62,0,0,0,2.32-1.3,1.86,1.86,0,0,0,.67-1.88c-.11-1-.19-2-.33-3s-.17-2.29-.29-3.43,0-2.42-.05-3.64-.34-2.16-.29-3.26.31-2.19.29-3.32,0-2.52,0-3.78a19.07,19.07,0,0,1,.27-3.62,6.17,6.17,0,0,0,0-1.36,8.26,8.26,0,0,1,.25-2,21.87,21.87,0,0,0,.31-3.43c.06-1.2.25-2.38.28-3.58s0-2.47,0-3.71v-7.66c0-2.45.07-4.92,0-7.37s-.55-4.91-.59-7.39.15-4.93.12-7.4-.39-4.9-.49-7.36-.49-5-.45-7.45c.07-5,0-10,0-15,0-1.29,0-2.57,0-3.86a34.77,34.77,0,0,1,.07-3.68c.25-2.41.47-4.85.55-7.28q.24-7.53.24-15.05c0-1.17,0-2.34,0-3.5,0-.47-.3-1.65.08-2l-.42-.24a2.74,2.74,0,0,0-.15.4c-.11.3.37.43.48.13l.15-.4c.11-.24-.25-.39-.41-.24-.39.35-.31,1.07-.28,1.54,0,.9,0,1.79,0,2.7v7.5c0,4.89-.26,9.77-.58,14.64-.08,1.19-.27,2.35-.27,3.55s0,2.48,0,3.72c0,2.48,0,5,0,7.45v7.46c0,1.24-.05,2.48,0,3.71s.23,2.43.33,3.66.11,2.32.17,3.49.21,2.4.32,3.61a62.79,62.79,0,0,1,0,7.26,51.48,51.48,0,0,0,.33,7.24,66.3,66.3,0,0,1,.23,7.32c0,2.49,0,5,0,7.48s.1,4.88,0,7.3c-.07,1.19-.24,2.37-.28,3.57a28.62,28.62,0,0,1-.46,3.69,6.92,6.92,0,0,0-.07,1.44,7.61,7.61,0,0,1-.22,1.78,17.15,17.15,0,0,0-.11,3.36c0,1.22,0,2.43,0,3.65s-.29,2.19-.29,3.3.3,2.17.29,3.27a29.17,29.17,0,0,0,.06,3.5c.24,2.08.35,4.16.6,6.23a1.49,1.49,0,0,1-.37,1.47,5.42,5.42,0,0,1-1.3.8c-.87.43-1.7,1-2.6,1.38a12.88,12.88,0,0,0-2.66,1.37l-1.24.85c-.4.27-.71.59-1.08.87-1.13.85-1.21-1.88-1.23-2.48-.06-1.45,0-2.91,0-4.36a27.82,27.82,0,0,1,.24-3.76,18,18,0,0,0,.08-3.2,49.49,49.49,0,0,1,.15-7.1c.13-1.17.12-2.34.25-3.51a31.56,31.56,0,0,0,.15-3.64c0-5,0-10.06,0-15.1v-7.46c0-2.47-.08-5,0-7.41,0-1.19.29-2.35.3-3.55s0-2.42,0-3.63a19.76,19.76,0,0,1,.29-3.69,15,15,0,0,0,0-2.92,23.37,23.37,0,0,1,.31-3.13,32.52,32.52,0,0,0,0-3.42V94.56a53.36,53.36,0,0,1,.17-7.48,9.68,9.68,0,0,0,.14-1.32c0-.67-.1-1.32,0-2,.11-1.12.26-2.22.28-3.35,0-2.4,0-4.8,0-7.2a32.05,32.05,0,0,1,.41-3.53,27.94,27.94,0,0,0,.15-3.66,12.29,12.29,0,0,1,.08-1.92,10.8,10.8,0,0,0,.2-1.59c0-1.24,0-2.48,0-3.72a13.19,13.19,0,0,0,0-1.54,8.38,8.38,0,0,0-.32-1.29c-.22-1.08-.25-2.18-.41-3.27a20.55,20.55,0,0,1,0-3.42c0-1.07-.31-2.05-.35-3.11a.25.25,0,0,0-.5,0v.18a.25.25,0,0,0,.5,0Z" style="fill: #231f20"/>
    </g>
    <g>
      <path d="M112.23,74.54c.13-.52.42-.43.83-.55a7.86,7.86,0,0,0,1.46-.78c.64-.32,1.26-.7,1.91-1a8.54,8.54,0,0,1,1.35-.68c-.07.28-.25.33-.52.52" style="fill: #edf0f6"/>
      <path d="M112.47,74.61c.07-.24.15-.27.38-.32a3.34,3.34,0,0,0,.68-.21c.51-.24,1-.57,1.48-.84l1.62-.87a5.29,5.29,0,0,1,1.21-.61l-.3-.31c-.06.18-.26.26-.41.36s0,.62.25.44.54-.33.64-.67a.26.26,0,0,0-.31-.31,5.52,5.52,0,0,0-1.31.65l-1.82,1a8.39,8.39,0,0,1-1.62.86,2.46,2.46,0,0,0-.59.16.86.86,0,0,0-.38.55.25.25,0,0,0,.48.14Z" style="fill: #231f20"/>
    </g>
    <g>
      <path d="M112.23,78.17l0,.16a13.92,13.92,0,0,1,2.52-1.2,31.69,31.69,0,0,0,3.89-2.49c.12.25,0,.42-.25.46" style="fill: #edf0f6"/>
      <path d="M112,78.1l0,.16c0,.19.17.43.37.29A28.09,28.09,0,0,1,115.51,77c1.13-.63,2.16-1.44,3.23-2.16l-.34-.09c0,.11,0,.08-.09.1-.32.06-.19.54.13.48a.54.54,0,0,0,.39-.83.25.25,0,0,0-.34-.09c-1.08.72-2.1,1.53-3.23,2.16a28.94,28.94,0,0,0-3.17,1.53l.36.29,0-.16c0-.32-.43-.46-.48-.14Z" style="fill: #231f20"/>
    </g>
    <g>
      <path d="M110.28,96.31c.9-.83,2.28-1,3.27-1.67a43.35,43.35,0,0,1,4.17-2.54l-.18,0" style="fill: #edf0f6"/>
      <path d="M110.46,96.48c1-.85,2.33-1,3.39-1.74a43.82,43.82,0,0,1,4-2.42c.21-.11.12-.5-.13-.47l-.18,0c-.32,0-.32.54,0,.5l.18,0-.13-.47a48,48,0,0,0-4.11,2.51c-1.06.7-2.4.88-3.38,1.74-.24.22.12.57.36.35Z" style="fill: #231f20"/>
    </g>
    <g>
      <path d="M111.12,99.66a4.94,4.94,0,0,0,2.06-.72c.69-.44,1.35-.83,2.07-1.24,1.1-.65,2.17-1.39,3.31-2l-.19,0" style="fill: #edf0f6"/>
      <path d="M111.12,99.91c1.2,0,2.35-.88,3.33-1.46,1.41-.83,2.78-1.75,4.23-2.51.21-.11.13-.49-.12-.46l-.19,0c-.31,0-.32.54,0,.5l.19,0-.13-.47c-1.37.72-2.66,1.59-4,2.37-.58.34-1.13.73-1.73,1a3.62,3.62,0,0,1-1.59.5c-.32,0-.32.49,0,.5Z" style="fill: #231f20"/>
    </g>
    <g>
      <path d="M110.84,117c1.5-.76,3-1.56,4.53-2.3.75-.37,2.09-1.72,2.9-1.63a.67.67,0,0,1-.46.3" style="fill: #edf0f6"/>
      <path d="M111,117.18c1.53-.78,3.09-1.52,4.6-2.34a11.25,11.25,0,0,0,1.28-.89,2.57,2.57,0,0,1,1.43-.67l-.22-.37a.45.45,0,0,1-.3.18.25.25,0,0,0,.13.48,1,1,0,0,0,.6-.41c.13-.17,0-.37-.21-.38a2.38,2.38,0,0,0-1.39.54c-.49.32-.94.72-1.45,1-.7.42-1.47.74-2.2,1.11l-2.52,1.29c-.29.15,0,.58.25.44Z" style="fill: #231f20"/>
    </g>
    <g>
      <path d="M111.68,120.31a5.08,5.08,0,0,0,1.95-1,11.3,11.3,0,0,1,1.81-.9c1.28-.6,2.41-1.37,3.69-2a.89.89,0,0,0-.76.3" style="fill: #edf0f6"/>
      <path d="M111.74,120.55a4.3,4.3,0,0,0,1.72-.86,10.56,10.56,0,0,1,1.81-1c1.38-.6,2.63-1.46,4-2.11a.25.25,0,0,0-.12-.47,1.19,1.19,0,0,0-.93.37c-.23.23.12.59.35.36a.71.71,0,0,1,.58-.23l-.13-.46c-1.31.63-2.53,1.46-3.86,2.06a10,10,0,0,0-1.73.88,4.69,4.69,0,0,1-1.8,1c-.32.05-.18.53.13.48Z" style="fill: #231f20"/>
    </g>
    <g>
      <path d="M111.12,137.89a6.78,6.78,0,0,0,1.11-.85,3.61,3.61,0,0,1,1.06-.47c.75-.32,1.33-.95,2.06-1.33,1.74-.92,3.94-1.26,5.23-2.82l-.25.17" style="fill: #edf0f6"/>
      <path d="M111.24,138.11a9.09,9.09,0,0,0,1.05-.8,6.3,6.3,0,0,1,1.26-.59c.88-.43,1.58-1.13,2.48-1.54,1.65-.73,3.51-1.16,4.73-2.58.17-.21-.06-.57-.31-.4l-.25.17c-.27.18,0,.61.25.43l.25-.17-.3-.39c-1.21,1.43-3.11,1.81-4.75,2.57-.88.41-1.57,1.15-2.46,1.53a5.23,5.23,0,0,0-1.08.48,12.7,12.7,0,0,1-1.12.85.25.25,0,0,0,.25.44Z" style="fill: #231f20"/>
    </g>
    <g>
      <path d="M110.84,141.52c1.56-.9,3.24-1.79,4.89-2.53.59-.26,1.13-.53,1.69-.82a2.9,2.9,0,0,0,1-.56c.21-.22.19-.5.53-.56" style="fill: #edf0f6"/>
      <path d="M111,141.73c1.46-.84,3-1.63,4.48-2.34.71-.32,1.41-.66,2.11-1a5,5,0,0,0,.89-.47c.19-.16.33-.57.56-.63a.25.25,0,0,0-.14-.48.77.77,0,0,0-.5.4,1.61,1.61,0,0,1-.83.64c-.74.33-1.46.71-2.2,1.05-1.58.72-3.11,1.54-4.62,2.4a.25.25,0,0,0,.25.43Z" style="fill: #231f20"/>
    </g>
    <g>
      <path d="M109.72,159.94a16.49,16.49,0,0,0,2.93-1.26,18,18,0,0,1,2.59-1.48,18.43,18.43,0,0,0,1.74-.68c.42-.22,1.55-.61,1.65-1l-.26-.06" style="fill: #edf0f6"/>
      <path d="M109.79,160.18a21.44,21.44,0,0,0,2.58-1.05c.9-.48,1.71-1.13,2.64-1.56s1.64-.64,2.45-1c.48-.21,1.2-.43,1.41-1a.25.25,0,0,0-.17-.31l-.26-.06c-.31-.08-.45.41-.13.48l.26.06-.18-.3c-.08.21-.5.36-.69.45l-.78.35c-.8.37-1.66.6-2.44,1s-1.51.95-2.29,1.38a18.38,18.38,0,0,1-2.53,1c-.3.12-.17.6.13.49Z" style="fill: #231f20"/>
    </g>
    <g>
      <path d="M110.28,163.28c.82-.48,1.72-.77,2.58-1.17s1.43-.82,2.22-1.13a8.06,8.06,0,0,0,2.18-1c.46-.37.81-.94,1.39-1.13" style="fill: #edf0f6"/>
      <path d="M110.41,163.5a21.67,21.67,0,0,1,2.24-1c.76-.33,1.46-.79,2.22-1.13a17.79,17.79,0,0,0,2.16-.93c.61-.37,1-1.09,1.69-1.35.3-.11.17-.6-.13-.48-.67.25-1,.84-1.58,1.24a10.74,10.74,0,0,1-2.26,1c-.77.33-1.46.8-2.22,1.13a25.57,25.57,0,0,0-2.38,1.09.25.25,0,0,0,.26.43Z" style="fill: #231f20"/>
    </g>
    <g>
      <path d="M119.49,174.73c-.37.45-1.17.34-1.67.21a20.83,20.83,0,0,0-2.26-.23c-1.12-.14-2.31-.39-3.42-.6-.47-.1-1.93-.34-1.86-1.06" style="fill: #edf0f6"/>
      <path d="M119.31,174.55c-.53.55-1.56.09-2.21,0-1-.1-1.95-.16-2.93-.33-.77-.14-1.54-.28-2.31-.44-.37-.08-1.34-.24-1.33-.75,0-.32-.49-.32-.5,0,0,.63.63.92,1.15,1.09a22.11,22.11,0,0,0,2.69.55c.56.1,1.12.2,1.69.27s1.17.06,1.74.14c.79.11,1.73.47,2.37-.2a.25.25,0,0,0-.36-.35Z" style="fill: #231f20"/>
    </g>
    <g>
      <path d="M111.4,44.68l-.26.16a3.34,3.34,0,0,1,1.23-.58,8.66,8.66,0,0,0,2.15-1,18.53,18.53,0,0,1,3-1.18c.4-.16.72-.4,1.1-.58A9.28,9.28,0,0,0,120,41a.48.48,0,0,0-.26-.51" style="fill: #edf0f6"/>
      <path d="M111.27,44.46l-.25.17.3.39a2.29,2.29,0,0,1,1-.49,12.34,12.34,0,0,0,1.32-.5c.46-.21.88-.49,1.33-.72a9.7,9.7,0,0,1,1.58-.6,9.42,9.42,0,0,0,1.37-.52,10.39,10.39,0,0,1,1.4-.64c.28-.08.84-.2.93-.52a.74.74,0,0,0-.39-.75c-.26-.18-.51.25-.25.43a.24.24,0,0,1,.14.29l.13-.22a6.66,6.66,0,0,1-1.15.44c-.4.15-.74.39-1.13.57-.81.39-1.71.56-2.53.92s-1.53.87-2.37,1.17a4.09,4.09,0,0,0-1.76.79c-.19.2,0,.55.3.39l.25-.16c.27-.18,0-.61-.25-.44Z" style="fill: #231f20"/>
    </g>
    <g>
      <path d="M111.4,152.4l0-.23c1-.32,2.09.31,3,.52s2.11.45,3.19.7a.46.46,0,0,0-.41-.15" style="fill: #edf0f6"/>
      <path d="M111.64,152.47l0-.23-.17.17c.95-.28,1.9.27,2.81.5,1.09.27,2.19.47,3.28.72a.26.26,0,0,0,.25-.42.82.82,0,0,0-.59-.22.25.25,0,0,0,0,.5.23.23,0,0,1,.23.08l.24-.42c-1.14-.27-2.33-.45-3.46-.77a5.19,5.19,0,0,0-2.89-.45.26.26,0,0,0-.18.17l0,.23c-.07.32.41.45.48.14Z" style="fill: #231f20"/>
    </g>
    <g>
      <path d="M111.4,130.91h-.19a7.33,7.33,0,0,1,1.86.5,10.3,10.3,0,0,0,1.81.34c1.38.07,2.57-.28,4-.28h-.19" style="fill: #edf0f6"/>
      <path d="M111.4,130.66h-.19v.5a5.81,5.81,0,0,1,1.69.46,9,9,0,0,0,1.91.38c1.35.09,2.68-.27,4-.28a.25.25,0,0,0,0-.5h-.19a.25.25,0,0,0,0,.5h.19v-.5c-1.35,0-2.68.37-4,.28a8.32,8.32,0,0,1-2-.42,4.85,4.85,0,0,0-1.62-.42.25.25,0,0,0,0,.5h.19c.32,0,.32-.49,0-.5Z" style="fill: #231f20"/>
    </g>
    <g>
      <path d="M112,109.7c1.11,0,2.25-.06,3.35,0a3.91,3.91,0,0,1,.83.22,6.18,6.18,0,0,0,1.14.06c.54,0,1,.37,1.57.28h-.19" style="fill: #edf0f6"/>
      <path d="M112,110c.63,0,1.26,0,1.88,0a5.85,5.85,0,0,1,1.87.12,2.74,2.74,0,0,0,.75.18,8.81,8.81,0,0,1,.89,0,5.15,5.15,0,0,0,1.5.27c.31,0,.33-.5,0-.5h-.19a.25.25,0,0,0,0,.5h.19V110a5.61,5.61,0,0,1-1.46-.27c-.29,0-.58,0-.87,0a4.44,4.44,0,0,1-.87-.22,7.21,7.21,0,0,0-1.74-.08c-.65,0-1.3,0-2,0a.25.25,0,0,0,0,.5Z" style="fill: #231f20"/>
    </g>
    <g>
      <path d="M112,89.61c.09-.65.53,0,.83,0s.55,0,.85,0,.48.18.72.25a12.16,12.16,0,0,0,1.78.27c.36.06.69.23,1.06.27s.76-.11,1.15,0l0,.23" style="fill: #edf0f6"/>
      <path d="M112.2,89.68c0-.11-.09-.16,0-.07l.21.14a1.12,1.12,0,0,0,.54.15,2.4,2.4,0,0,1,.88.12,5.11,5.11,0,0,0,.87.25,17.19,17.19,0,0,1,1.75.27,3.17,3.17,0,0,0,.81.18,3.5,3.5,0,0,1,1,0l-.17-.18,0,.23c.05.32.53.19.48-.13l0-.23c0-.09-.1-.15-.17-.18a3.7,3.7,0,0,0-1,0A5,5,0,0,1,116.3,90a15,15,0,0,1-2.09-.36,2.58,2.58,0,0,0-.91-.22,1.34,1.34,0,0,1-.49,0,1.38,1.38,0,0,1-.24-.14c-.39-.25-.76-.19-.86.31,0,.32.43.45.49.14Z" style="fill: #231f20"/>
    </g>
    <g>
      <path d="M112,68.12a5.78,5.78,0,0,1,2.45.63,7.31,7.31,0,0,0,2.86.21" style="fill: #edf0f6"/>
      <path d="M112,68.37a4.55,4.55,0,0,1,1.42.24c.43.14.84.37,1.27.49a9.57,9.57,0,0,0,2.62.11.25.25,0,0,0,0-.5,7.78,7.78,0,0,1-2.64-.14c-.44-.16-.85-.36-1.29-.5a5,5,0,0,0-1.38-.2.25.25,0,0,0,0,.5Z" style="fill: #231f20"/>
    </g>
  </g>
</svg>
