<svg id="Sketch" xmlns="http://www.w3.org/2000/svg" width="100mm" height="100mm" viewBox="0 0 283.46 283.46">
  <title>Artboard 19</title>
  <g>
    <g>
      <path d="M71.92,225.88c0-1.46-.24-2.76-.23-4.23,0-1.63-.47-3.14-.47-4.76,0-.41,0-.84,0-1.25s-.21-.77-.26-1.18,0-.92,0-1.36c0-.61-.2-1.14-.25-1.74-.07-.86,0-1.77,0-2.63a5.21,5.21,0,0,0-.22-1.19,11.85,11.85,0,0,1,0-2.23c0-.86-.24-1.6-.23-2.46,0-1,0-2.09,0-3.14s-.24-2.13-.24-3.23,0-2.25,0-3.37c0-2.7,0-5.41,0-8.12,0-1.45.24-2.83.24-4.29s.23-3.09.23-4.66a14.31,14.31,0,0,1,0-2.45,9.27,9.27,0,0,0,.19-1.74c0-1.45,0-2.91,0-4.36,0-2.52-.24-5.17,0-7.68.06-.61.25-1.16.26-1.78,0-.47,0-.93,0-1.4v-6.4A18,18,0,0,1,71,147c.44-2.22-.15-4.55.24-6.77a38.6,38.6,0,0,0,.18-6.46c0-2.47,0-4.94,0-7.41,0-1.13.24-2.2.24-3.33V116.4c0-1.33.23-2.6.23-3.94v-11.6a18.41,18.41,0,0,1,.25-2.14,33.48,33.48,0,0,0,0-3.47v-9.4c0-1.93-.15-3.92,0-5.85,0-.62.24-1.18.25-1.8,0-.46,0-.93,0-1.4,0-1.08-.23-2.09-.23-3.18,0-.36-.12-.9.11-1.17s1-.38,1.29-.56a42,42,0,0,1,4.11-2.12c1.31-.63,2.55-1.38,3.91-1.91s2.25-1.22,3.43-1.74S87.2,65,88.33,64.58a21.68,21.68,0,0,0,2.17-1c.57-.31,1.14-.51,1.71-.8a26.71,26.71,0,0,0,3.29-1.89,12.78,12.78,0,0,1,2.55-1.16A31.22,31.22,0,0,0,101,58.12,42,42,0,0,1,105.4,56c.5-.22,1-.26,1.53-.45.67-.25,1.34-.54,2-.83,2.6-1.15,5.1-2.5,7.75-3.55s5.16-2.08,7.77-3c.69-.26,1.34-.61,2-.86a6.94,6.94,0,0,0,1.17-.46,6.93,6.93,0,0,1,1.17-.72,9.27,9.27,0,0,0,1.58-.7,6.84,6.84,0,0,1,1.05-.59c.21-.07.45,0,.66-.1s.43-.31.66-.38a6.33,6.33,0,0,1,3.4,0c.82.16,1.66.16,2.47.34s1.35.36,2,.48c1.53.27,3.08.45,4.61.76,1.14.23,2.26.42,3.39.65a22,22,0,0,0,4.29.77c2.8-.05,5.66.83,8.39,1.34,1.4.26,2.85.31,4.24.58a42.17,42.17,0,0,0,4.45.88c1.94.17,3.89.67,5.82,1a13.21,13.21,0,0,0,2.17.23,14.45,14.45,0,0,1,3.29.3c1.1.24,2.23.4,3.36.59.89.14,1.81.23,2.72.29s2,.42,3,.47,1.87.2,2.8.24c.75,0,1.47.21,2.22.24a34.86,34.86,0,0,1,4.45.27,21.89,21.89,0,0,0,3.42.42,17.92,17.92,0,0,1,3.51.71,13.63,13.63,0,0,0,2.65.46,7.16,7.16,0,0,1,2.62.75c0,.7-.32,1.33-.33,2s0,1.71,0,2.57a16.07,16.07,0,0,0,.36,2.94c.17,1,.21,2,.41,3s.29,2.21.43,3.31.41,2.13.46,3.21a19.69,19.69,0,0,1-.06,3.84c-.32,1.93-.06,3.87-.3,5.81-.23,1.73,0,3.48-.14,5.22-.13,2.19-.22,4.33-.22,6.53,0,4.77-.23,9.52-.23,14.3v12.27c0,5.75.21,11.48.24,17.23,0,6.48-1,12.91-1,19.41,0,2.74.14,5.48.27,8.23s.35,5.52.63,8.24a40.65,40.65,0,0,1,0,4.13v6.08c0,3.48-.26,6.93-.24,10.41,0,4.26.1,8.53-.21,12.78-.05.79.31,2.2-.34,2.76a8.78,8.78,0,0,1-2,1c-1.17.54-2.36,1-3.5,1.61-2.43,1.29-5,2.16-7.48,3.48-3.76,2-7.71,3.6-11.54,5.48-6.44,3.16-12.77,6.52-19.25,9.62-2.86,1.36-6,2.17-8.78,3.62-1.91,1-4,1.65-5.82,2.7a8,8,0,0,1-1.69.93c-1.58.43-1.64-.29-3.26-.38-2.89-.15-13.47-1.67-20.09-2.25-4.65-.4-9.89-1.85-14.5-2.62-7.65-1.28-15-1.3-22.5-3.08-3.69-.87-8.15-.63-11.76-1.81-2-.63-2.62-.18-4.56-.88-.83-.3-3.55-.15-3.65-1.08s.4-1.41.48-2.23Z" style="fill: #edf0f6"/>
      <path d="M72.17,225.88a54.57,54.57,0,0,0-.52-7c-.16-1.11-.06-2.2-.18-3.3a17.53,17.53,0,0,1-.26-1.79,10.71,10.71,0,0,0-.13-1.79c-.19-1.21,0-2.39-.1-3.59-.06-.5-.24-1-.26-1.48s.07-1.31,0-2c-.07-1.17-.22-2.31-.22-3.49s-.06-2.59-.18-3.9c-.24-2.61-.06-5.31,0-7.93s0-5.22.19-7.85c.07-1.19.08-2.39.16-3.59s0-2.61.09-3.91S71,172,71,170.76s0-2.66,0-4a43.93,43.93,0,0,1,.13-7.78,44.9,44.9,0,0,0,.11-7c0-1.15,0-2.3,0-3.45s.27-2.49.27-3.76-.13-2.39,0-3.58.33-2.59.34-3.91c0-2.56,0-5.13,0-7.69,0-1.23-.06-2.47,0-3.71s.24-2.69.24-4.06c0-5.15.23-10.28.23-15.43A57.27,57.27,0,0,1,72.38,99a23.23,23.23,0,0,0,0-3.44c0-1.33,0-2.67,0-4,0-2.64,0-5.28,0-7.92a31.92,31.92,0,0,1,0-3.66,25.37,25.37,0,0,0,.25-3.38c0-.65-.11-1.29-.17-1.93a5.16,5.16,0,0,1-.09-1.56c.19-.64.65-.72,1.16-.95s1-.59,1.54-.87C77.34,70.12,79.67,69,82,68s4.35-2.25,6.61-3.22a48.55,48.55,0,0,0,6.15-3.11A20.51,20.51,0,0,1,97.85,60a23.55,23.55,0,0,0,3-1.53,32.43,32.43,0,0,1,3.28-1.65c1.18-.52,2.4-.83,3.59-1.31,2.3-.93,4.5-2.09,6.75-3.12,2.49-1.14,5.06-2.11,7.61-3.1,1-.41,2.11-.77,3.13-1.21a18.59,18.59,0,0,0,3.08-1.39,26.48,26.48,0,0,1,2.81-1.43,12.55,12.55,0,0,1,1.42-.49,4.19,4.19,0,0,1,1.32-.44,5.69,5.69,0,0,1,1,0c2.56.23,5,.93,7.59,1.32s5.05.82,7.53,1.42,4.8.46,7.21.93,4.67,1,7.07,1.26c1.26.15,2.48.47,3.72.74s2.58.37,3.88.58a58.74,58.74,0,0,0,7.22,1c2.47.11,4.9.86,7.37,1.09,1.2.11,2.37.38,3.57.52s2.39.18,3.57.3,2.46.22,3.71.26a40.28,40.28,0,0,1,4.23.49,31.72,31.72,0,0,1,3.48.41c1.23.29,2.46.68,3.73.85,1,.14,3.09,0,2.94,1.51a31.81,31.81,0,0,0-.17,3.66c0,2.59.73,5.18,1,7.75a45.51,45.51,0,0,1,.68,7.27c0,1.15-.26,2.27-.28,3.42,0,1.35,0,2.67-.18,4s0,2.49-.06,3.73c0,1.4-.13,2.79-.18,4.19-.1,2.63-.07,5.27-.12,7.9-.11,5.4-.18,10.79-.18,16.18s0,10.6.13,15.9.11,10.68-.29,16a138.29,138.29,0,0,0-.43,15.9c.11,2.62.24,5.25.46,7.87.1,1.24.25,2.49.34,3.74s0,2.75,0,4.13c0,2.67,0,5.34,0,8s-.22,5.39-.21,8.09,0,5.26,0,7.9c0,1.25-.06,2.5-.13,3.76,0,.52-.09,1-.08,1.56a5.1,5.1,0,0,1,0,1.7c-.33,1-2,1.34-2.87,1.71-1.19.53-2.35,1.07-3.5,1.65-2.25,1.12-4.62,2-6.85,3.15-4.55,2.39-9.3,4.36-13.9,6.66s-9.42,4.8-14.16,7.12c-2.38,1.17-4.76,2.21-7.23,3.14-2.24.84-4.35,1.9-6.55,2.85-1.09.47-2.19.92-3.24,1.49s-2,1.44-3.42,1.08a21.8,21.8,0,0,0-3.59-.56c-3.49-.37-7-.84-10.46-1.25-4.22-.51-8.48-.77-12.66-1.55-4.82-.9-9.56-2-14.44-2.59-5.25-.61-10.54-1-15.73-2a65.43,65.43,0,0,0-6.82-1.1,40.91,40.91,0,0,1-7.12-1.21A14.59,14.59,0,0,0,77,228c-.85-.09-1.61-.42-2.44-.55a19,19,0,0,1-2.12-.29c-.59-.15-.81-.31-.73-1s.35-1.06.43-1.61l-.49-.06v1.41a.25.25,0,0,0,.5,0v-1.41c0-.28-.45-.36-.49-.07-.2,1.27-1.17,2.7.56,3.18a14.61,14.61,0,0,0,2.09.3c.83.11,1.61.45,2.45.56a18.28,18.28,0,0,1,3.11.56,22.71,22.71,0,0,0,3.26.67c2.52.34,5.08.4,7.57.9s5.1,1.05,7.69,1.39,5.38.6,8.07.88c5.3.55,10.44,1.58,15.66,2.62,4.3.85,8.66,1.17,13,1.68,3.76.44,7.52,1,11.29,1.35q.8.09,1.59.15a21.48,21.48,0,0,1,2.41.51,3.28,3.28,0,0,0,2-.38c1.24-.64,2.38-1.36,3.67-1.92,2.42-1,4.77-2.23,7.24-3.16s4.6-1.82,6.84-2.91c5-2.43,9.89-5,14.84-7.46s9.74-4.57,14.54-7c2.35-1.19,4.81-2.13,7.16-3.31,1-.52,2.12-1,3.19-1.44.78-.34,2-.62,2.36-1.46a4.38,4.38,0,0,0,.13-2.1c0-1.39.15-2.8.18-4.19.08-2.7.06-5.4,0-8.09,0-5.56.24-11.11.23-16.67,0-1.38.08-2.77,0-4.14s-.26-2.74-.37-4.11c-.23-2.75-.36-5.5-.47-8.25a147.12,147.12,0,0,1,.53-16.66c.39-5.54.28-11.06.17-16.61s-.1-11.11-.1-16.67.19-11.31.23-17,.37-11,.49-16.55c.05-2.42.47-4.72.11-7.15-.39-2.62-.74-5.24-1.11-7.86a32.23,32.23,0,0,1-.43-4.16c0-.61,0-1.23,0-1.84s.28-1.35.33-2a.24.24,0,0,0-.12-.21,9,9,0,0,0-2.92-.8,23.91,23.91,0,0,1-3.81-.8,24,24,0,0,0-3.38-.44c-1.31-.14-2.58-.44-3.89-.52s-2.79-.08-4.19-.25c-1.14-.14-2.29-.21-3.44-.3s-2.29-.42-3.46-.52c-1.41-.11-2.8-.32-4.19-.56-1.06-.18-2.1-.44-3.18-.53-1.39-.12-2.74-.12-4.13-.34-1.22-.19-2.42-.45-3.64-.65s-2.6-.3-3.88-.58-2.27-.55-3.43-.71-2.59-.28-3.87-.54a42.62,42.62,0,0,0-7.08-1.22,48.89,48.89,0,0,1-7.56-1.26c-2.46-.48-4.93-.89-7.39-1.39-1.15-.24-2.35-.36-3.52-.52a5.14,5.14,0,0,0-2.77.3c-.44.18-.92.28-1.36.48s-.92.57-1.41.79a12.66,12.66,0,0,0-1.46.64,9.21,9.21,0,0,1-1.77.9c-2.35.85-4.67,1.86-7,2.78s-4.66,1.88-6.94,3c-1.17.56-2.33,1.13-3.52,1.66s-2.44.87-3.67,1.34A61.29,61.29,0,0,0,99,59c-1,.52-2.07.82-3,1.34s-2.11,1.33-3.22,1.91c-2.13,1.1-4.33,2-6.49,3.09s-4.51,2.13-6.73,3.27c-1.07.55-2.14,1.08-3.22,1.61s-2.18,1.27-3.32,1.7c-.54.2-1,.31-1,.94a15.09,15.09,0,0,0,.22,3.28,17.48,17.48,0,0,1-.18,3.54,23.53,23.53,0,0,0-.07,3.66c.06,2.64,0,5.27,0,7.91,0,1.23,0,2.46,0,3.68a37.84,37.84,0,0,1,0,3.84,29.21,29.21,0,0,0-.25,3.1v4.24c0,2.6.14,5.25-.07,7.84s-.16,5.06-.16,7.6c0,1.31-.1,2.57-.2,3.88s0,2.6,0,3.89c0,2.63.05,5.25,0,7.88,0,1.27-.21,2.48-.32,3.73a33.69,33.69,0,0,0,0,3.76c0,1.22-.26,2.4-.27,3.61s0,2.52,0,3.78a50.85,50.85,0,0,1-.2,7.41,47.2,47.2,0,0,0,0,7.33c0,1.21,0,2.42,0,3.63,0,.6,0,1.21,0,1.81s-.21,1.37-.25,2.07c-.12,2.49-.1,5-.25,7.5s-.19,5.22-.19,7.85-.19,5.32,0,7.93c.11,1.19.17,2.35.18,3.55s.14,2.55.22,3.84a21,21,0,0,0,.11,3c.26,1.25,0,2.52.17,3.79a14.09,14.09,0,0,1,.2,1.73,6.36,6.36,0,0,0,.06,1.38c.24,1.25.14,2.51.32,3.78a60.87,60.87,0,0,1,.56,7.28C71.68,226.2,72.18,226.2,72.17,225.88Z" style="fill: #231f20"/>
    </g>
    <g>
      <path d="M72.58,72.85l0-.23a3.9,3.9,0,0,1,2,.26c.78.22,1.66.57,2.51.78s2,.51,2.94.73a7.25,7.25,0,0,0,1.13.13c.57,0,1.1.27,1.68.3,1.15.05,2.2.19,3.35.25s2.22.5,3.34.58a14.14,14.14,0,0,1,2.24.57c.8.17,1.71.1,2.51.25.34.06.62.24,1,.3a14.29,14.29,0,0,1,1.57.19,6.7,6.7,0,0,0,1.36.37,14.54,14.54,0,0,1,1.62,0c1.13.24,2.25.05,3.39.24s2.43.34,3.66.51c.53.08,1.07,0,1.6,0s.88.26,1.34.31a23.22,23.22,0,0,1,2.36,0,7.34,7.34,0,0,0,1.32.26c.49,0,1,0,1.48,0a5.44,5.44,0,0,1,1.13.13c.66.16,1.3,0,2,.13a6.23,6.23,0,0,0,1.09.3c.47,0,.95,0,1.42,0,1.05,0,2,.46,3.06.58.47.05,1-.06,1.42,0a14.13,14.13,0,0,0,1.42.26,25.92,25.92,0,0,1,3.52.49c2.44.41,5,.42,7.42.93a13.27,13.27,0,0,0,2.82.25,37.54,37.54,0,0,1,4,.53,6.43,6.43,0,0,1,1.19.24c.55.13,1.09,0,1.63,0,1,.17,1.78.57,2.72,0a22.16,22.16,0,0,1,2.56-1.34c1.26-.53,2.65-.67,3.9-1.17s2.31-1,3.5-1.34a8.21,8.21,0,0,1,1.59-.34,14.31,14.31,0,0,0,2.19-.79c3.09-.93,6-2.55,8.94-3.78,4.17-1.74,8.26-3.7,12.67-4.79A79.42,79.42,0,0,0,198.3,64.6a35.53,35.53,0,0,0,3.5-1.73c.55-.33,1.14-.6,1.67-1a14.35,14.35,0,0,1,2.23-1.17c1.19-.6,2.14-1.48,3.35-2a7.4,7.4,0,0,0,1.1-.62,4,4,0,0,0,1.37-1,.42.42,0,0,1-.24.47" style="fill: #edf0f6"/>
      <path d="M72.82,72.92c.1-.47,2.91.57,3.22.67,1.15.37,2.33.65,3.5.93a52.74,52.74,0,0,0,7,.82c.67.07,1.32.26,2,.39s1.24.14,1.84.31,1,.35,1.55.44,1.14.1,1.71.15a14.67,14.67,0,0,1,1.65.38c.56.11,1.13.07,1.68.23a6.47,6.47,0,0,0,1.43.34c.6,0,1.16,0,1.76.1a13.87,13.87,0,0,0,1.82.09,17.24,17.24,0,0,1,2.15.24,21.08,21.08,0,0,0,3.62.38,8.09,8.09,0,0,1,1.84.26,7.61,7.61,0,0,0,1.72,0,6.41,6.41,0,0,1,1.63.23,7.93,7.93,0,0,0,1.62.08,10.86,10.86,0,0,1,1.8.17,14.88,14.88,0,0,1,1.89.13,5,5,0,0,0,1.08.27,16,16,0,0,1,2,0c.55.09,1.08.26,1.63.38a8.34,8.34,0,0,0,1.73.11,13.19,13.19,0,0,1,1.65.27c.65.07,1.3.09,1.94.19,1.22.2,2.43.43,3.66.56s2.65.24,4,.42c1.16.16,2.3.45,3.48.5a29.72,29.72,0,0,1,3.77.38c.55.09,1.11.13,1.66.24a5.91,5.91,0,0,0,1.45.21,8.3,8.3,0,0,1,1.78.2,2.94,2.94,0,0,0,1.35,0,5.07,5.07,0,0,0,1.36-.67c.52-.29,1.06-.57,1.61-.81,1.19-.53,2.48-.69,3.71-1.12s2.37-1,3.6-1.39c1-.33,2-.37,3-.79S164.9,77.5,166,77s2.15-.93,3.22-1.43c2.24-1,4.52-2,6.79-3a75.23,75.23,0,0,1,7.1-2.72c2.41-.75,4.87-1.29,7.27-2.06s4.67-1.61,6.94-2.58a40.75,40.75,0,0,0,6.35-3.23c.93-.62,2-1,2.93-1.57s1.89-1.21,2.89-1.74a6.3,6.3,0,0,0,2.22-1.58l-.47-.12-.17.29c-.25.2.11.56.36.35a.71.71,0,0,0,.31-.64.25.25,0,0,0-.46-.13,4.19,4.19,0,0,1-1.29,1c-.52.32-1.07.58-1.61.88-1,.54-1.84,1.26-2.84,1.77s-1.9,1-2.84,1.56-2,1.15-3.11,1.65a78.57,78.57,0,0,1-14.26,5.07,89.17,89.17,0,0,0-13.57,5.12c-2.29,1-4.5,2.15-6.85,3-.54.2-1.11.36-1.65.56s-1,.44-1.46.6-1,.18-1.55.3a13.49,13.49,0,0,0-1.83.6,34.7,34.7,0,0,1-3.57,1.32,17.2,17.2,0,0,0-3.19,1c-.5.24-1,.5-1.48.78a2.71,2.71,0,0,1-2.12.45,8,8,0,0,0-1.45-.24,8.21,8.21,0,0,1-1.78-.18c-1.09-.22-2.24-.37-3.35-.52s-2.36,0-3.53-.24-2.38-.42-3.59-.54-2.7-.23-4-.44c-1.11-.17-2.21-.43-3.33-.51-.64-.05-1.24-.2-1.87-.29s-1.13,0-1.7,0a20.63,20.63,0,0,0-3.33-.53,4.53,4.53,0,0,1-1.6-.18,4.59,4.59,0,0,0-1.52-.17c-.52,0-1-.14-1.53-.19s-1.21,0-1.82,0-1.08-.23-1.64-.29a15.84,15.84,0,0,0-1.69,0,12.67,12.67,0,0,1-1.74-.31c-.66-.09-1.33,0-2-.06-1.2-.15-2.39-.36-3.6-.5a15.81,15.81,0,0,0-1.69-.07c-.64,0-1.26-.16-1.89-.19a7.6,7.6,0,0,1-1.78-.14,8.07,8.07,0,0,0-1.53-.35,8.28,8.28,0,0,1-1.57-.34,8.69,8.69,0,0,0-1.68-.16c-1.13-.08-2.13-.57-3.24-.69s-2.46-.52-3.73-.6A27.74,27.74,0,0,1,82,74.41c-.53-.12-1.07-.13-1.61-.21s-1.22-.28-1.83-.44c-1.12-.28-2.21-.6-3.31-1a5.16,5.16,0,0,0-2.7-.43.26.26,0,0,0-.17.18l0,.23c-.06.31.42.45.48.13Z" style="fill: #231f20"/>
    </g>
    <g>
      <path d="M151.56,238.62v.75a6.56,6.56,0,0,0-.27-1.73c-.06-.37-.25-.66-.3-1s0-.91,0-1.36a35.08,35.08,0,0,1-.82-5.06c0-.82-.29-1.46-.28-2.28a6.3,6.3,0,0,0,0-1.3,10.29,10.29,0,0,1-.29-1.09c-.18-1.7-.87-3.36-.84-5,0-1-.29-1.84-.28-2.81a15.15,15.15,0,0,0,0-1.65c-.06-.52-.28-1-.3-1.52,0-.81,0-1.63,0-2.44,0-1.38.29-2.68.28-4.06,0-2.53,0-5.06,0-7.59,0-1.61.28-3.15.28-4.76s0-3.21,0-4.81-.27-3.4-.29-5.11a29,29,0,0,0-.13-4.85,19,19,0,0,1-.14-3.38c0-.55,0-1.1,0-1.65,0-.89-.24-1.66-.3-2.52-.18-2.47,0-5.05,0-7.52,0-1.38-.3-2.71-.28-4.09,0-1.53,0-3.06,0-4.59V153.2a22.2,22.2,0,0,1,.14-4.47,17,17,0,0,0,.14-3.57c0-1.79.17-3.54.26-5.32,0-.67.27-1.3.31-2,.05-.82,0-1.66,0-2.48,0-2.41.26-4.78.29-7.17,0-1.52,0-3,0-4.56,0-1.72.3-3.39.28-5.1s.06-3.3,0-4.94c0-1.26-.31-2.48-.3-3.75,0-.9,0-1.8,0-2.7,0-1.43-.26-2.78-.29-4.18,0-1.73,0-3.48,0-5.21v-12a8.28,8.28,0,0,1,.06-2.54c.17,0,.25,0,.22.26" style="fill: #edf0f6"/>
      <path d="M151.31,238.62v.75a.25.25,0,0,0,.5,0c.06-1.06-.53-2-.59-3,0-.54,0-1-.07-1.58s-.26-1.31-.4-2c-.26-1.19-.23-2.39-.44-3.57a6.91,6.91,0,0,1-.15-1.75,3.63,3.63,0,0,0-.11-1.27c-.35-1.14-.51-2.39-.76-3.56s-.24-2.43-.42-3.64,0-2.4-.23-3.57a14.63,14.63,0,0,1-.17-4c.06-1.31.27-2.6.27-3.92s0-2.64,0-4,0-2.63,0-3.94.26-2.67.27-4c0-2.62,0-5.22-.17-7.82a34.81,34.81,0,0,1-.1-3.82,30.53,30.53,0,0,0-.24-3.83,34,34,0,0,1,0-3.64c0-1.24-.25-2.42-.32-3.66-.14-2.65.19-5.31,0-7.95-.09-1.28-.26-2.53-.25-3.82s0-2.66,0-4,0-2.71,0-4.07a26.06,26.06,0,0,1,0-3.75c.34-2.56.21-5.12.38-7.7,0-.59.06-1.18.11-1.77s.27-1.31.31-2c.09-1.22,0-2.46,0-3.68.08-2.65.28-5.29.27-7.94,0-1.32-.05-2.64,0-4s.23-2.59.23-3.89,0-2.78,0-4.17-.23-2.52-.3-3.79,0-2.59,0-3.89-.26-2.68-.28-4c-.08-5.3,0-10.6,0-15.9a12.18,12.18,0,0,1,0-3.36l-.24.18h0c0,.32.51.32.5,0s-.13-.5-.47-.51a.26.26,0,0,0-.24.19,10,10,0,0,0-.07,2.9v4c0,2.67,0,5.34,0,8,0,1.32,0,2.65,0,4s.15,2.59.25,3.89,0,2.7,0,4.05.27,2.51.3,3.76a75,75,0,0,1-.21,8.08c-.21,2.67,0,5.35-.12,8-.06,1.3-.15,2.59-.2,3.88s0,2.57,0,3.85c0,.65-.21,1.26-.29,1.9s-.09,1.22-.13,1.83c-.08,1.28-.17,2.56-.17,3.84a27.84,27.84,0,0,1-.23,4.08,24.61,24.61,0,0,0,0,3.54c0,2.68,0,5.35,0,8,0,1.3.11,2.55.23,3.84a36,36,0,0,1,0,4c0,1.31-.05,2.62,0,3.92s.34,2.44.33,3.68-.07,2.53,0,3.78.29,2.43.27,3.68c0,2.64.26,5.24.26,7.87v3.9c0,1.35-.19,2.68-.26,4-.14,2.66,0,5.37,0,8,0,1.27-.18,2.51-.26,3.78a16.23,16.23,0,0,0,0,3.62,8.61,8.61,0,0,1,.26,1.89,11.21,11.21,0,0,0,0,1.74c.16,1.21.17,2.45.39,3.64s.44,2.42.71,3.6a4.8,4.8,0,0,1,.26,1.55,6.29,6.29,0,0,0,.07,1.5c.21,1.16.19,2.34.42,3.5.12.61.26,1.22.39,1.83a12.79,12.79,0,0,1,.18,2.14c0,1,.65,2,.59,3h.5v-.75a.25.25,0,0,0-.5,0Z" style="fill: #231f20"/>
    </g>
    <g>
      <path d="M79.84,86.25l-.22-.17c-.79.27-.34,3.42-.34,4.09s0,1.3,0,1.94A9.49,9.49,0,0,0,79.59,94a15.93,15.93,0,0,0,2.75-.6c1-.19,2.06,0,3-.24a16.12,16.12,0,0,0,.33-3.32c0-1.09.36-2.38-.84-2.92a6,6,0,0,0-2.36-.15c-.56,0-1.13,0-1.7,0s-1-.36-1.52-.29" style="fill: #edf0f6"/>
      <path d="M80,86.07l-.22-.17a.27.27,0,0,0-.24-.06c-.48.2-.58.76-.62,1.22a11.44,11.44,0,0,0,0,2.11c.12,1.65-.11,3.34.38,4.94a.27.27,0,0,0,.25.18,11.47,11.47,0,0,0,2.57-.56c1.08-.25,2.19-.09,3.28-.29a.24.24,0,0,0,.17-.18A25.05,25.05,0,0,0,86,89.59a3.51,3.51,0,0,0-.32-2.33c-.62-.82-1.73-.76-2.65-.72-.62,0-1.25,0-1.88,0s-1.2-.35-1.83-.3c-.32,0-.32.52,0,.5a8.18,8.18,0,0,1,1.46.28,14.76,14.76,0,0,0,1.76,0c.86,0,2.17-.3,2.76.52.43.6.2,1.52.19,2.2a18.82,18.82,0,0,1-.32,3.35L85.3,93c-1,.19-2.12,0-3.17.27a12.41,12.41,0,0,1-2.54.56l.24.19a19.48,19.48,0,0,1-.34-4.51c0-.61-.1-1.23-.09-1.84,0-.26,0-1.18.29-1.31l-.24-.06.21.17c.25.19.61-.16.36-.36Z" style="fill: #231f20"/>
    </g>
    <g>
      <path d="M79.56,106.9c-.08,1.38-.57,2.64-.56,4a16.55,16.55,0,0,0,0,3.45,17.23,17.23,0,0,1,1.71.62,8.71,8.71,0,0,0,1.61,0c.81,0,2.28.22,2.53-.81s-.3-2.36-.3-3.48c0-.58,0-1.15,0-1.73a13.89,13.89,0,0,0-.33-1.75,4,4,0,0,0-1.43,0,6.24,6.24,0,0,1-1.17-.27,13.5,13.5,0,0,0-2.38,0" style="fill: #edf0f6"/>
      <path d="M79.31,106.9c-.09,1.34-.54,2.63-.56,4a16,16,0,0,0,0,3.59.23.23,0,0,0,.17.17c.61.11,1.11.49,1.71.62a8.53,8.53,0,0,0,1.75,0c.79,0,1.83.17,2.43-.48.79-.85.17-2.46,0-3.43a17.36,17.36,0,0,1,0-2.28,13.34,13.34,0,0,0-.33-1.89c0-.09-.1-.15-.17-.18a3,3,0,0,0-1.15-.06,3.55,3.55,0,0,1-1.21-.18,9.69,9.69,0,0,0-2.69-.09.25.25,0,0,0,0,.5,8.85,8.85,0,0,1,2.67.11,3.75,3.75,0,0,0,1,.18,3.49,3.49,0,0,1,1.25,0l-.17-.17a16,16,0,0,1,.32,1.68c0,.66,0,1.33,0,2s.18,1.13.27,1.69.25,1.32-.11,1.75-1.56.33-2.21.35a5.2,5.2,0,0,1-1.67,0,13.85,13.85,0,0,0-1.52-.56l.17.18a15,15,0,0,1,0-3.61c0-1.3.47-2.54.56-3.83,0-.32-.48-.32-.5,0Z" style="fill: #231f20"/>
    </g>
    <g>
      <path d="M79.28,135.09v-3.91c0-.57-.24-1.85.24-2.2.27-.2.89,0,1.16,0a8.1,8.1,0,0,0,1.23.21,18.07,18.07,0,0,1,2.12.5c.7.16.89,0,.79.82-.06.43-.37.84-.46,1.27-.15.74,0,1.49-.12,2.22a5.51,5.51,0,0,0-.22,1.13,8.4,8.4,0,0,1,0,1.23,10.12,10.12,0,0,0-2.77-1,5.91,5.91,0,0,0-1.11-.06c-.43,0-.71-.23-1.12-.28" style="fill: #edf0f6"/>
      <path d="M79.53,135.09c0-1.35,0-2.7,0-4a9.71,9.71,0,0,1,0-1.32.94.94,0,0,1,.17-.54c.17-.13.52,0,.71,0,.52.11,1,.21,1.55.28a19.8,19.8,0,0,1,2,.47c.18.05.38.06.56.11s.14,0,.13.21c0,.6-.42,1.1-.51,1.69a18.91,18.91,0,0,1-.14,2.26,5.46,5.46,0,0,0-.17.88c0,.41,0,.83,0,1.24l.36-.15a9.12,9.12,0,0,0-2.48-.91,5.43,5.43,0,0,0-1.27-.14,8.13,8.13,0,0,1-1.3-.28c-.32-.06-.45.42-.14.48s.74.25,1.13.29a9.92,9.92,0,0,1,1.33.1,9.08,9.08,0,0,1,2.48.89.26.26,0,0,0,.37-.15,6.74,6.74,0,0,0,0-1.1,3.86,3.86,0,0,1,.15-1c.2-.79,0-1.58.16-2.36s1.16-2.21-.08-2.44c-.68-.12-1.33-.34-2-.48s-1.31-.21-2-.35c-.41-.1-1-.19-1.27.17a1.91,1.91,0,0,0-.29,1.3c0,1.63.06,3.26.06,4.9a.25.25,0,0,0,.5,0Z" style="fill: #231f20"/>
    </g>
    <g>
      <path d="M80.12,155.74v-2.65a16.87,16.87,0,0,1,0-3.18,11.47,11.47,0,0,1,2.48.54c.37.06,1.13-.22,1.43,0s.23.29.25.7c0,1.12-.27,2.12-.3,3.21a11.81,11.81,0,0,0,0,1.19c0,.46.38.85.27,1.29-.84.24-1.4-.29-2.15-.52-.44-.14-1.45-.17-1.73-.55" style="fill: #edf0f6"/>
      <path d="M80.37,155.74c0-1,0-2,0-3a12.91,12.91,0,0,1,0-2.78l-.24.19c.89,0,1.67.5,2.54.55.33,0,.66-.1,1-.11s.37.23.38.58c0,1-.23,1.93-.29,2.9a9.89,9.89,0,0,0,0,1.44c0,.4.35.82.28,1.22l.18-.17c-.77.19-1.37-.35-2.08-.54-.47-.12-1.23-.07-1.57-.47-.21-.24-.56.11-.35.36.42.49,1.22.44,1.79.59.82.23,1.44.77,2.34.54a.23.23,0,0,0,.17-.17c.09-.5-.17-.85-.25-1.32a6.67,6.67,0,0,1,0-1.61,25.91,25.91,0,0,0,.28-3.18c0-.84-1-.64-1.58-.58a3.37,3.37,0,0,1-1.36-.27,4.38,4.38,0,0,0-1.47-.26.25.25,0,0,0-.25.18,12.39,12.39,0,0,0,0,2.79c0,1,0,2.07,0,3.11a.25.25,0,0,0,.5,0Z" style="fill: #231f20"/>
    </g>
    <g>
      <path d="M80.12,177.23l-.25,0a6.7,6.7,0,0,0,.25-1.35c0-.51,0-1,0-1.53a13.31,13.31,0,0,1,.32-3.39,9.19,9.19,0,0,0,2.81.52s1,.18,1.08.2c.38.22.26.46.25.92,0,.74,0,1.48,0,2.23a7.15,7.15,0,0,1-.06,1.31,4.29,4.29,0,0,1-.32,1.39c-.4.05-.65-.21-1-.27s-.81,0-1.23-.12a7.26,7.26,0,0,0-1.75-.14h.19" style="fill: #edf0f6"/>
      <path d="M80.18,177l-.24-.05.17.31a8.65,8.65,0,0,0,.26-1.42c0-.55,0-1.11,0-1.66a13.79,13.79,0,0,1,.31-3.2l-.37.15a7.88,7.88,0,0,0,2.68.52l.73.12c.17,0,.54,0,.62.22a1.24,1.24,0,0,1,0,.47c0,.28,0,.56,0,.84V175a8.8,8.8,0,0,1-.09,1.36,2.35,2.35,0,0,1-.22,1l.18-.08c-.32,0-.55-.17-.85-.24a6.9,6.9,0,0,0-1-.09c-.34,0-.67-.13-1-.17s-.74,0-1.11,0a.25.25,0,0,0,0,.5h.19a.25.25,0,0,0,0-.5h-.19v.5c.32,0,.63,0,.94,0s.66.11,1,.15.57,0,.86.07a4.27,4.27,0,0,1,.79.25.68.68,0,0,0,.59,0,.93.93,0,0,0,.21-.46,11.22,11.22,0,0,0,.19-1.16c.18-1.22,0-2.49.06-3.72,0-.37,0-.75-.41-.92a3.39,3.39,0,0,0-.77-.15,12.15,12.15,0,0,0-1.21-.17,4.62,4.62,0,0,1-1.88-.39.26.26,0,0,0-.37.15,13.84,13.84,0,0,0-.33,3.08c0,.55,0,1.1,0,1.66a8,8,0,0,1-.24,1.53.26.26,0,0,0,.17.31l.25.05c.32.06.45-.42.13-.48Z" style="fill: #231f20"/>
    </g>
    <g>
      <path d="M80.4,198.71V196.2c0-.94.3-1.7.28-2.66,0-.38-.11-.93.15-1.24.4-.48.63,0,1.09.15.91.36,2-.16,2.9.17a11.28,11.28,0,0,0,.34,1.13,11.08,11.08,0,0,1,0,1.91,13.94,13.94,0,0,1-.3,1.59c-.06.42.09.88,0,1.3-.16,1-1.13.73-2,.72H80.4" style="fill: #edf0f6"/>
      <path d="M80.65,198.71c0-1-.06-1.93,0-2.88a20.61,20.61,0,0,0,.25-2.6c0-.26,0-1,.38-.86a2.8,2.8,0,0,1,.41.25,1.73,1.73,0,0,0,.53.17c.84.14,1.7-.2,2.52.07l-.17-.18c.06.45.31.83.35,1.28a9.1,9.1,0,0,1,0,1.38,8.07,8.07,0,0,1-.21,1.38,4.14,4.14,0,0,0-.07,1.36c0,.36,0,.8-.38.93a2.42,2.42,0,0,1-.93,0c-1-.06-1.95,0-2.92,0a.25.25,0,0,0,0,.5c1.08,0,2.17,0,3.25,0,.69,0,1.34-.17,1.47-.94.09-.54-.09-1.06,0-1.6a9.12,9.12,0,0,0,.26-1.46,10.71,10.71,0,0,0,0-1.6c-.05-.5-.3-.92-.37-1.41a.24.24,0,0,0-.17-.17,3.48,3.48,0,0,0-1.4-.09,3,3,0,0,1-1.53-.1c-.3-.14-.55-.42-.91-.34a.93.93,0,0,0-.62.74,8.15,8.15,0,0,0,0,1.21,14.6,14.6,0,0,1-.21,1.6,24.36,24.36,0,0,0-.06,3.31.25.25,0,0,0,.5,0Z" style="fill: #231f20"/>
    </g>
    <g>
      <path d="M91.28,199.27c0-.6.28-1.18.28-1.81s0-1.07,0-1.6-.17-1.26.11-1.62a2.08,2.08,0,0,1,1.57-.56,9.44,9.44,0,0,1,2.23.42c1.13.32.81.86.62,1.83a13.36,13.36,0,0,0-.07,2.53c0,.5.22,1.81-.24,2.12a8.11,8.11,0,0,0-2.41-.19c-.49,0-1.62.2-2-.21l.18-.07" style="fill: #edf0f6"/>
      <path d="M91.53,199.27c0-.58.24-1.12.28-1.69a16.67,16.67,0,0,0,0-1.87c0-.39-.18-1,.1-1.36a1.71,1.71,0,0,1,1.23-.42,6.82,6.82,0,0,1,1.85.3c.32.08,1,.15,1,.55a2.66,2.66,0,0,1-.16,1,8.25,8.25,0,0,0-.11,1.79c0,.53,0,1.05.06,1.57,0,.29.12,1-.16,1.22l.2,0a8.4,8.4,0,0,0-2.6-.2c-.47,0-1.32.23-1.7-.14l-.11.42.19-.07c.29-.11.17-.59-.14-.48l-.18.07a.25.25,0,0,0-.11.42,2.23,2.23,0,0,0,1.68.31,9.28,9.28,0,0,1,2.58.08c.32.08.5.1.68-.21a1.79,1.79,0,0,0,.18-.82c0-.67,0-1.35-.06-2a9.37,9.37,0,0,1,0-1.4c0-.36.15-.71.21-1.07a1,1,0,0,0-.47-1.18,4.62,4.62,0,0,0-1.09-.35,8.69,8.69,0,0,0-1.44-.26,2.55,2.55,0,0,0-1.89.5c-.57.53-.29,1.5-.29,2.19a10,10,0,0,1,0,1.73,7.42,7.42,0,0,0-.24,1.41c0,.32.51.33.5,0Z" style="fill: #231f20"/>
    </g>
    <g>
      <path d="M92.12,178.62v-2.93a11.15,11.15,0,0,1,0-2.89c.94-.26,3.63,0,4.12.95a4.65,4.65,0,0,1-.11,2.22A20.65,20.65,0,0,1,96,178a6.61,6.61,0,0,0-3.56-.08.48.48,0,0,1,0-.45" style="fill: #edf0f6"/>
      <path d="M92.37,178.62c0-1.05,0-2.12,0-3.17a8.33,8.33,0,0,1,0-2.59l-.18.18a4.75,4.75,0,0,1,1.68,0,4.24,4.24,0,0,1,1.84.55c.59.39.41,1.19.3,1.79a8.39,8.39,0,0,0-.16,1.12,8.59,8.59,0,0,1-.13,1.52l.31-.18a6.91,6.91,0,0,0-3.69-.07l.28.11a.3.3,0,0,1,0-.26.25.25,0,0,0-.48-.13.86.86,0,0,0,0,.65.25.25,0,0,0,.28.11,6.35,6.35,0,0,1,3.43.08.26.26,0,0,0,.3-.18,13.26,13.26,0,0,0,.16-1.89c.05-.5.19-1,.23-1.47a1.86,1.86,0,0,0-.22-1.27,2,2,0,0,0-.85-.59,6.36,6.36,0,0,0-2.51-.43,2,2,0,0,0-1,.15c-.15.13-.16.45-.18.63a5.42,5.42,0,0,0,0,.9c0,.67.09,1.34.09,2v2.48a.25.25,0,0,0,.5,0Z" style="fill: #231f20"/>
    </g>
    <g>
      <path d="M91.84,156.85c-.55-1.12-.33-2.88-.29-4.17,0-.56,0-1,.62-1.1a6.24,6.24,0,0,1,1.56.45c.34.14.58.47.89.59s1.08-.18,1.44.09.5,1.7.53,2.26a10.69,10.69,0,0,1,0,2.76c-.36.42-1.81-.42-2.21-.53-.66-.19-2.14-.35-2.57-.9" style="fill: #edf0f6"/>
      <path d="M92.05,156.73a5.72,5.72,0,0,1-.32-2.5c0-.41,0-.83.06-1.24a2.56,2.56,0,0,1,.08-1c.13-.27.45-.2.67-.14s.58.18.86.28a2.87,2.87,0,0,1,.8.49,1.31,1.31,0,0,0,1,.24c.28,0,.65-.14.82.15a2.66,2.66,0,0,1,.23.88c.07.5.08,1,.12,1.5a16.32,16.32,0,0,1,.09,1.71,1.67,1.67,0,0,1,0,.32.18.18,0,0,1,0,.1s0,0,0,0c-.18.11-.52,0-.69-.1a12.48,12.48,0,0,0-1.68-.61c-.38-.08-.76-.16-1.14-.27a1.75,1.75,0,0,1-.89-.47c-.21-.25-.57.11-.36.35a3.59,3.59,0,0,0,2,.82,5,5,0,0,1,.84.22c.32.14.63.29,1,.4s1.23.4,1.41-.22a5.8,5.8,0,0,0,0-1.86c0-.56-.07-1.13-.13-1.7s-.15-1.57-.85-1.75c-.4-.1-.83.14-1.22,0a2.2,2.2,0,0,1-.54-.38,2.23,2.23,0,0,0-.48-.26c-.54-.2-1.28-.56-1.85-.33a.92.92,0,0,0-.52.89c0,.5,0,1-.07,1.49a6.91,6.91,0,0,0,.37,3.19c.14.29.57,0,.43-.25Z" style="fill: #231f20"/>
    </g>
    <g>
      <path d="M91.84,135.37a22.58,22.58,0,0,1,0-4.43c.6-.26,1.85.35,2.49.53l.89.21c.29.06,1-.08,1.22.07.46.29.14.56.1,1.09a12.26,12.26,0,0,1,0,1.71c-.17.83-.09,1.64-.24,2.45-.7.29-2-.55-2.71-.73-.52-.14-1.58-.2-1.91-.55a.53.53,0,0,1,.46-.35" style="fill: #edf0f6"/>
      <path d="M92.09,135.37a21.27,21.27,0,0,1,0-4.37l-.18.18a1.61,1.61,0,0,1,1,.07c.36.1.71.24,1.06.36s.65.18,1,.26a4.76,4.76,0,0,0,1,.06c.14,0,.36,0,.46.09s0,.21,0,.33a4.24,4.24,0,0,0-.1,1.28,14.72,14.72,0,0,1-.14,1.63c-.05.56-.05,1.12-.15,1.68l.18-.18a1.68,1.68,0,0,1-1.1-.14c-.39-.15-.76-.33-1.14-.48a5.43,5.43,0,0,0-1-.25,2.22,2.22,0,0,1-1.1-.34l0,.3a.35.35,0,0,1,.31-.24c.32-.06.19-.54-.13-.48a.8.8,0,0,0-.61.47.27.27,0,0,0,0,.3,3.23,3.23,0,0,0,1.7.54,8.06,8.06,0,0,1,1.64.6,3.93,3.93,0,0,0,.89.25c.21,0,.57.06.74-.11s.11-.37.13-.52,0-.47,0-.7c0-.5.08-1,.15-1.46a8.32,8.32,0,0,0,0-1.32,2.32,2.32,0,0,1,.06-.59,2.33,2.33,0,0,0,.1-.44c0-.65-.68-.74-1.17-.72a4.57,4.57,0,0,1-1.75-.33,5.75,5.75,0,0,0-1.82-.47,1.05,1.05,0,0,0-.43.07c-.19.08-.2.26-.23.46a9.07,9.07,0,0,0-.09,1.28c0,1,.1,1.95.11,2.93a.25.25,0,0,0,.5,0Z" style="fill: #231f20"/>
    </g>
    <g>
      <path d="M91.56,115.27c0-1.16-.27-2.17-.28-3.35a4.59,4.59,0,0,1,.22-1.39c.16-.62-.11-1.32.08-1.93.55-.2,1.13.2,1.67.27a7.93,7.93,0,0,0,1.09,0c.75,0,2-.33,2.22.57a13.72,13.72,0,0,1,0,3.45c0,.55.28,2.23-.1,2.65a6.8,6.8,0,0,1-2.13-.53c-.73-.2-1.49-.4-2.23-.55" style="fill: #edf0f6"/>
      <path d="M91.81,115.27c0-1.16-.3-2.31-.28-3.47,0-.52.21-1,.26-1.49a10,10,0,0,1,0-1.64l-.17.18c.57-.18,1.15.24,1.72.28a11.33,11.33,0,0,0,1.54-.06,1.89,1.89,0,0,1,1.18.11c.41.26.36,1,.36,1.45,0,1-.16,1.91-.08,2.87a8.33,8.33,0,0,1,0,1.32,1.22,1.22,0,0,1-.08.47c-.06.08,0,0,0,0a.34.34,0,0,1-.14,0,2.32,2.32,0,0,1-.38-.07c-.48-.12-.94-.32-1.41-.46-.74-.21-1.49-.4-2.24-.56-.31-.06-.44.42-.13.49a21.51,21.51,0,0,1,2.73.72,9.75,9.75,0,0,0,1,.3c.25.06.69.19.91,0,.39-.32.29-1.19.26-1.62a17.07,17.07,0,0,1,0-2,8.86,8.86,0,0,0,0-2.52,1.22,1.22,0,0,0-1.26-1,23.44,23.44,0,0,1-2.37.06c-.38-.06-.73-.25-1.12-.3a1.18,1.18,0,0,0-.59,0c-.18.1-.2.26-.23.46-.07.55.09,1.1,0,1.64A6.71,6.71,0,0,0,91,111.8c0,1.16.25,2.31.28,3.47,0,.32.51.33.5,0Z" style="fill: #231f20"/>
    </g>
    <g>
      <path d="M91.84,94.34c0-1.2,0-2.41,0-3.61,0-.89-.55-2-.31-2.89s1.35-.42,2.06-.26,1.27.22,1.88.39c.92.28.84,1.17.83,2s.11,1.71,0,2.52c0,.42-.25.78-.31,1.19s.11.78,0,1.17a8.78,8.78,0,0,0-2.06-.33c-.54-.13-1.66,0-2-.48l.19-.22" style="fill: #edf0f6"/>
      <path d="M92.09,94.34c0-.7,0-1.39,0-2.09a15.52,15.52,0,0,0,0-1.93c-.07-.55-.82-2.57.06-2.75a3,3,0,0,1,1.18.19c.58.16,1.18.23,1.77.37s.89.33,1,.92,0,.94,0,1.41a8.32,8.32,0,0,1,0,2.23,7.7,7.7,0,0,0-.25.91,8.62,8.62,0,0,1,0,1.14l.36-.14a7.58,7.58,0,0,0-2.28-.39c-.52-.08-1.37.07-1.73-.39v.36l.19-.22c.22-.24-.14-.59-.35-.35l-.19.21a.26.26,0,0,0,0,.36c.38.48,1.13.46,1.69.49.34,0,.67.11,1,.14a3.72,3.72,0,0,1,1.41.22.26.26,0,0,0,.37-.15,3.22,3.22,0,0,0,0-1,5.11,5.11,0,0,1,.27-1.14,8.29,8.29,0,0,0,0-2.17c0-.92.24-2.27-.78-2.76a9.43,9.43,0,0,0-2.13-.49,6.79,6.79,0,0,0-1.34-.28c-1.21,0-1.15,1.31-1,2.17.07.35.16.7.22,1a8.56,8.56,0,0,1,0,1.24c0,.94,0,1.88,0,2.82a.25.25,0,0,0,.5,0Z" style="fill: #231f20"/>
    </g>
    <g>
      <path d="M109.7,97.41V94.9a13.23,13.23,0,0,1,0-2.81c.24-.94,2.22-.58,3-.4,1,.25,2.16-.08,3.17.17.17.51-.17.88-.26,1.36a10.94,10.94,0,0,0,0,1.81c0,1,.25,2.37-.34,3.29-.48-.52-.55-.79-1.22-.91a13.22,13.22,0,0,0-1.65-.28c-.95,0-1.91.52-2.84.24l.19-.24" style="fill: #edf0f6"/>
      <path d="M110,97.41c0-1.17,0-2.34-.06-3.5a6.43,6.43,0,0,1,0-1.58c.05-.34.22-.48.56-.56a4.73,4.73,0,0,1,2,.13,5.63,5.63,0,0,0,1.48.14,7.32,7.32,0,0,1,1.81.06l-.18-.17c.13.49-.25,1-.29,1.49a15.33,15.33,0,0,0,0,1.66c0,1,.26,2.19-.3,3.12l.39-.06a3.27,3.27,0,0,0-.87-.83A6,6,0,0,0,113,97a4.36,4.36,0,0,0-1.61,0,3.88,3.88,0,0,1-1.82.14l.11.42.19-.23c.19-.25-.16-.61-.36-.35l-.18.23a.26.26,0,0,0,.11.42c1.06.29,2.08-.33,3.14-.21a8.34,8.34,0,0,1,.87.16,6.47,6.47,0,0,1,.74.15c.37.13.59.51.85.79a.25.25,0,0,0,.39,0c.6-1,.39-2.18.37-3.27a14.78,14.78,0,0,1,0-1.76c.06-.58.43-1,.27-1.63a.24.24,0,0,0-.17-.17c-1-.22-2,0-3-.13a11.51,11.51,0,0,0-1.76-.27,1.86,1.86,0,0,0-1.51.47,1.6,1.6,0,0,0-.25.86,10.3,10.3,0,0,0,0,1.36c.09,1.16.06,2.33.06,3.5a.25.25,0,0,0,.5,0Z" style="fill: #231f20"/>
    </g>
    <g>
      <path d="M111.09,118.9c.11-.39-.26-.82-.28-1.25s0-1,0-1.54a15.25,15.25,0,0,1,0-3.31,12.12,12.12,0,0,1,3.13,0c.43,0,.87,0,1.3,0,.63,0,.79-.09.87.57a25.89,25.89,0,0,1,0,2.92,11.06,11.06,0,0,1,0,2.76,13.79,13.79,0,0,0-1.43-.12c-.55.06-1,.28-1.59.3a5.57,5.57,0,0,1-1.35-.07c-.16,0-1.09-.4-.91-.22" style="fill: #edf0f6"/>
      <path d="M111.34,119c.09-.49-.23-.85-.28-1.32s0-1.1,0-1.64a13.74,13.74,0,0,1,0-3.14l-.18.17a8.94,8.94,0,0,1,2.78,0c.53,0,1.06,0,1.59,0,.21,0,.52-.08.58.13a4.46,4.46,0,0,1,.08,1.46c0,.53-.06,1.06-.06,1.59a11.08,11.08,0,0,1,0,2.76l.24-.19a8.19,8.19,0,0,1-1-.12,3.06,3.06,0,0,0-1,.08,6.32,6.32,0,0,1-1,.21,5.67,5.67,0,0,1-1.09,0,9.9,9.9,0,0,1-1.07-.28.42.42,0,0,0-.38,0,.28.28,0,0,0,0,.42c.21.24.56-.12.35-.36l0,0,0,.19h0l-.18.18c-.07,0,0,0,0,0a.94.94,0,0,0,.22.07l.39.13a4.5,4.5,0,0,0,1.37.13,8.7,8.7,0,0,0,1.51-.27,7.37,7.37,0,0,1,1.69.08.25.25,0,0,0,.24-.18,12.53,12.53,0,0,0,0-3.06c0-.63.07-1.26.06-1.89a2.73,2.73,0,0,0-.18-1.33.69.69,0,0,0-.68-.29c-.55,0-1.1,0-1.65,0a11.08,11.08,0,0,0-3.15,0,.24.24,0,0,0-.17.18,12.05,12.05,0,0,0,0,3.06c0,.54,0,1.08,0,1.61a2.13,2.13,0,0,0,.09.67c.08.24.25.5.2.75s.43.45.49.14Z" style="fill: #231f20"/>
    </g>
    <g>
      <path d="M110.81,139.83c0-.46,0-.93,0-1.39s.26-.9.29-1.4a14,14,0,0,1,0-2.9c1.32,0,2.58.65,3.89.67.43,0,.93-.18,1.12.26a7.58,7.58,0,0,1,0,2.23,18.51,18.51,0,0,0-.29,2c0,.89-.11,1.15-1,1.12-.63,0-1.18-.27-1.81-.3s-1.45,0-2.17,0" style="fill: #edf0f6"/>
      <path d="M111.06,139.83a11.32,11.32,0,0,1,0-1.54,11.11,11.11,0,0,0,.28-1.3,13.69,13.69,0,0,1,0-2.79l-.24.19c1.16,0,2.24.5,3.38.64a3.86,3.86,0,0,0,.76,0c.17,0,.48-.09.61.07s.1.76.09,1-.06.72-.09,1.09-.19,1-.26,1.5a4.36,4.36,0,0,1-.09,1.2c-.11.26-.51.22-.74.21-.63,0-1.23-.27-1.87-.3s-1.4,0-2.11,0a.25.25,0,0,0,0,.5c.73,0,1.45,0,2.17,0s1.22.29,1.85.3a1.35,1.35,0,0,0,1-.27,1.37,1.37,0,0,0,.25-1,12.27,12.27,0,0,1,.26-1.82c.06-.43.08-.86.11-1.28a3.69,3.69,0,0,0-.06-1.24c-.14-.46-.54-.56-1-.53-1.47.1-2.83-.6-4.3-.65a.25.25,0,0,0-.24.18,11.09,11.09,0,0,0,0,2.82,12.31,12.31,0,0,1-.28,1.37,11.75,11.75,0,0,0,0,1.57c0,.32.51.32.5,0Z" style="fill: #231f20"/>
    </g>
    <g>
      <path d="M111.09,161.32c-.72-.6-.14-2,0-2.64.24-1-.25-2.11,0-3.07.61.18,1.15.42,1.78.55s1.26,0,1.71.26c.84.48.23,2.23.41,3.07s.68,2-.63,2.34c-.64.14-1.08-.18-1.7-.25s-1,0-1.5,0h.18" style="fill: #edf0f6"/>
      <path d="M111.27,161.14c-.62-.55-.12-1.63,0-2.29.28-1-.23-2.13,0-3.17l-.3.17c.5.15,1,.35,1.5.49a8.21,8.21,0,0,0,1.31.15c.35,0,.72.09.86.45a2.59,2.59,0,0,1,.07,1c0,.36-.07.72-.06,1.08a3.61,3.61,0,0,0,.15.92c.14.58.32,1.31-.4,1.56-.55.19-1-.08-1.58-.18a9.88,9.88,0,0,0-1.72,0,.25.25,0,0,0,0,.5h.18a.25.25,0,0,0,0-.5h-.18v.5a7,7,0,0,1,1.83.05,3,3,0,0,0,1.43.17,1.31,1.31,0,0,0,1-1.6c0-.37-.19-.73-.25-1.1a5.63,5.63,0,0,1,0-1.16c0-.68.12-1.64-.59-2a3.9,3.9,0,0,0-1.56-.24,12.12,12.12,0,0,1-2-.58.26.26,0,0,0-.31.17,4.79,4.79,0,0,0,0,1.81,4,4,0,0,1-.1,1.61c-.23.79-.57,1.9.15,2.54.24.21.59-.14.35-.36Z" style="fill: #231f20"/>
    </g>
    <g>
      <path d="M111.09,182a23,23,0,0,1,.22-4.4c.15-.76-.37-1.87.68-1.69.85.15,1.57.71,2.44.79.27,0,.92-.16,1.16,0,.41.24.25.62.25,1.12,0,1.06-.22,2-.28,3.07,0,.35.11.86-.26,1.1s-1,0-1.33,0h-2.32" style="fill: #edf0f6"/>
      <path d="M111.34,182c0-.81,0-1.63,0-2.45,0-.38,0-.76.08-1.14s.13-.7.15-1.06,0-.43,0-.65,0-.41.06-.52.54,0,.69.07c.34.11.67.26,1,.4a3.4,3.4,0,0,0,.94.28,2.77,2.77,0,0,0,.76,0c.22,0,.51-.09.59.18a1.15,1.15,0,0,1,0,.37c0,.2,0,.39,0,.59,0,.8-.16,1.58-.24,2.38,0,.3,0,.59,0,.89s-.1.49-.43.5a7.91,7.91,0,0,1-.84-.06h-2.39a.25.25,0,0,0,0,.5h1.67c.25,0,.5,0,.75,0a7.55,7.55,0,0,0,1,0c.68-.06.8-.63.79-1.22,0-.9.19-1.8.25-2.7,0-.36,0-.73.06-1.09a.85.85,0,0,0-.33-.78,1.13,1.13,0,0,0-.81-.11,2.12,2.12,0,0,1-1,0c-.81-.23-2.94-1.55-3,.15,0,.3,0,.6,0,.9s-.14.88-.17,1.33c-.1,1.08-.07,2.17-.07,3.25a.25.25,0,0,0,.5,0Z" style="fill: #231f20"/>
    </g>
    <g>
      <path d="M111.93,202.9a10.33,10.33,0,0,0-.22-2.79c-.11-.42,0-.84-.08-1.26s-.39-.86-.23-1.49a13.41,13.41,0,0,1,3,0c.37,0,1.15-.15,1.36.15a3.8,3.8,0,0,1,0,1.58c0,.67-.3,1.28-.3,2s.38,1.23.31,1.76-.6.44-1.12.34a3.65,3.65,0,0,0-1.26-.2c-.28,0-.4.24-.69.23a.48.48,0,0,1,.26-.53" style="fill: #edf0f6"/>
      <path d="M112.18,202.9A14.45,14.45,0,0,0,112,200c-.1-.47,0-1-.14-1.43a2.2,2.2,0,0,1-.18-1.18l-.17.17a13,13,0,0,1,2.93,0,6.55,6.55,0,0,1,1,0c.12,0,.19,0,.23.14a1.36,1.36,0,0,1,0,.49c0,.29,0,.58-.06.86,0,.51-.19,1-.26,1.5a3.13,3.13,0,0,0,.12,1.36c.06.23.35,1,0,1.08a1.28,1.28,0,0,1-.58-.08c-.25,0-.5-.13-.75-.18a1.75,1.75,0,0,0-.72,0c-.22,0-.4.22-.62.22l.25.25a.28.28,0,0,1,.13-.31c.27-.18,0-.62-.25-.43a.75.75,0,0,0-.38.74c0,.13.1.26.25.25a1.31,1.31,0,0,0,.57-.18,1.3,1.3,0,0,1,.87,0,3.62,3.62,0,0,0,1.3.21c1.11-.17.3-1.73.27-2.36a9.58,9.58,0,0,1,.27-1.77,10.56,10.56,0,0,0,.09-1.12,1.38,1.38,0,0,0-.21-1,1.4,1.4,0,0,0-1.06-.21,21.15,21.15,0,0,0-3.56.08.24.24,0,0,0-.17.18,2.05,2.05,0,0,0,.1,1.2,2.52,2.52,0,0,1,.16.67c0,.24,0,.49,0,.73,0,.48.19.94.22,1.43s0,1,0,1.57a.25.25,0,0,0,.5,0Z" style="fill: #231f20"/>
    </g>
    <g>
      <path d="M154.91,99.92a7.25,7.25,0,0,1-.28-3.2,12.92,12.92,0,0,1,0-3.17,14.33,14.33,0,0,0,2.42-.81l.89-.34c.39-.16,1-.69,1.39-.48,0,.56-.28,1.12-.27,1.71s0,1.27,0,1.9a10.42,10.42,0,0,0,.19,3.53c-.35.13-.7-.08-1,0s-.61.41-1,.58a6.07,6.07,0,0,1-2.54.57.33.33,0,0,0,.18-.3" style="fill: #edf0f6"/>
      <path d="M155.12,99.8a8.12,8.12,0,0,1-.24-3.26,10.58,10.58,0,0,1,0-2.92l-.18.18a18.12,18.12,0,0,0,2.57-.88,9,9,0,0,0,1-.41c.28-.16.64-.48,1-.35l-.18-.24c0,.58-.25,1.13-.27,1.71s0,1.35,0,2a9.79,9.79,0,0,0,.2,3.46l.18-.3c-.39.1-.77-.09-1.16,0a7.94,7.94,0,0,0-.87.55,5.13,5.13,0,0,1-2.46.56l.12.47a.62.62,0,0,0,.3-.45c0-.31-.44-.45-.48-.13l-.07.15a.25.25,0,0,0,.13.46,6.07,6.07,0,0,0,2.41-.49,7.65,7.65,0,0,0,.91-.56c.4-.24.86,0,1.3-.12a.25.25,0,0,0,.17-.31,10.29,10.29,0,0,1-.18-3.46c0-.63,0-1.27,0-1.9s.3-1.12.27-1.71a.29.29,0,0,0-.18-.25,1.1,1.1,0,0,0-.85.11c-.38.18-.72.4-1.12.55a22.05,22.05,0,0,1-2.87,1,.26.26,0,0,0-.17.18,12,12,0,0,0,0,3.17,8.07,8.07,0,0,0,.31,3.39c.13.29.57,0,.43-.25Z" style="fill: #231f20"/>
    </g>
    <g>
      <path d="M167.47,94.62c-1-.19-.45-1.66-.35-2.23a7.77,7.77,0,0,0,.08-2.45c-.06-.34-.44-.77-.26-1.12s.81-.45,1-.55A17.32,17.32,0,0,0,170.73,87c-.6.36-.43,1.17-.54,1.75a8.62,8.62,0,0,0-.22,1.08,14.13,14.13,0,0,0,0,2.52c.16,1.14.67,1.53-.82,1.9a16.11,16.11,0,0,1-2.4.65.39.39,0,0,0,.17-.31" style="fill: #edf0f6"/>
      <path d="M167.53,94.38c-.66-.17-.33-1.19-.22-1.65a7.91,7.91,0,0,0,.18-2.47,1.86,1.86,0,0,0-.11-.58,2.26,2.26,0,0,1-.23-.59c0-.33.62-.47.87-.58a16.08,16.08,0,0,0,2.84-1.27l-.25-.43c-.75.51-.54,1.45-.73,2.22a9.55,9.55,0,0,0-.19,3.11,7.59,7.59,0,0,0,.19,1.06c0,.22.1.42-.09.57a4.08,4.08,0,0,1-1.34.45,8.47,8.47,0,0,1-1.71.46l.17.43a.72.72,0,0,0,.24-.42c.06-.32-.42-.45-.48-.13a.23.23,0,0,1-.11.19.25.25,0,0,0,.18.43,7.81,7.81,0,0,0,1.65-.41,12.57,12.57,0,0,0,1.47-.47c.56-.26.62-.7.49-1.26a10,10,0,0,1-.14-2.94c0-.52.2-1,.25-1.5s0-1.06.4-1.36c.26-.18,0-.61-.25-.43a17.64,17.64,0,0,1-3.14,1.39c-.34.15-.75.31-.82.72a1.18,1.18,0,0,0,.14.64,2.26,2.26,0,0,1,.21.81,11.44,11.44,0,0,1-.3,2.8c-.11.67-.09,1.49.7,1.69a.25.25,0,0,0,.13-.48Z" style="fill: #231f20"/>
    </g>
    <g>
      <path d="M192,83.46c0-1.4,0-2.79,0-4.19,0-.57-.38-1.52,0-1.89.69-.73,2-.07,2.79-.53a8.56,8.56,0,0,1,0,2.32v2c0,.76.15,1.47-.53,2a4.24,4.24,0,0,1-2.44.57.31.31,0,0,0,.18-.3" style="fill: #edf0f6"/>
      <path d="M192.27,83.46V80.62a13.06,13.06,0,0,0-.12-2.25c-.05-.25-.14-.63,0-.85a1.23,1.23,0,0,1,.91-.26,3.79,3.79,0,0,0,1.8-.19l-.37-.15a5.49,5.49,0,0,1,0,1.94c0,.81,0,1.64,0,2.45,0,.65.09,1.32-.51,1.74a4.34,4.34,0,0,1-2.22.46L192,84a.67.67,0,0,0,.3-.45c0-.32-.44-.45-.49-.14l-.06.15c-.19.13-.14.49.12.47a5,5,0,0,0,2.37-.47,1.84,1.84,0,0,0,.87-1.75c0-.93,0-1.86,0-2.79a6.82,6.82,0,0,0,0-2.21.25.25,0,0,0-.37-.15c-.61.32-1.39,0-2.05.16a1.09,1.09,0,0,0-1,1.18,8.46,8.46,0,0,0,.15,1,10.59,10.59,0,0,1,0,1.38v3.11a.25.25,0,0,0,.5,0Z" style="fill: #231f20"/>
    </g>
    <g>
      <path d="M204.3,77.88c.1-.43-.21-.77-.29-1.17a9.74,9.74,0,0,1,0-1.62,5.44,5.44,0,0,0-.06-1.4c-.11-.49-.36-.81-.19-1.37.59-.15,1,0,1.53-.3.23-.12.4-.36.66-.49a16.35,16.35,0,0,1,2.15-.6,19,19,0,0,0-.67,1.92,10.74,10.74,0,0,0-.07,2.34,3.12,3.12,0,0,1,0,1.1c-.12.3-.66.43-1,.6-.57.32-2,1.64-2.65,1.51a.64.64,0,0,1,.54-.52" style="fill: #edf0f6"/>
      <path d="M204.54,77.94a2.75,2.75,0,0,0-.26-1.19,4.9,4.9,0,0,1,0-1.48,6.92,6.92,0,0,0,0-1.51c-.08-.47-.35-.87-.21-1.37l-.18.17c.36-.08.72,0,1.08-.13a1.9,1.9,0,0,0,.87-.47c.66-.56,1.61-.53,2.39-.79l-.31-.31a9.76,9.76,0,0,0-.78,2.89c0,.48,0,1,0,1.44s.22,1-.2,1.19c-.26.15-.55.23-.8.4s-.5.36-.75.54c-.41.31-1.06.9-1.61.83l.24.32a.44.44,0,0,1,.37-.35.25.25,0,0,0-.13-.48.93.93,0,0,0-.72.69.25.25,0,0,0,.24.32c.61.08,1.26-.46,1.71-.78.29-.22.57-.44.87-.64s.62-.28.91-.46a.93.93,0,0,0,.42-.9c0-.51-.06-1-.07-1.52a5.39,5.39,0,0,1,.14-1.7c.17-.56.43-1.1.61-1.65a.25.25,0,0,0-.3-.31,9.6,9.6,0,0,0-2.31.68c-.32.2-.52.47-.9.57s-.76,0-1.13.14a.29.29,0,0,0-.18.18,1.92,1.92,0,0,0,.1,1.18,4.64,4.64,0,0,1,.14,1.58c0,.48-.08,1,0,1.45a2.15,2.15,0,0,0,.14.62,1.41,1.41,0,0,1,.19.72c0,.32.44.45.48.13Z" style="fill: #231f20"/>
    </g>
    <g>
      <path d="M154.63,121.13l.16,0a2.82,2.82,0,0,1-.16-1.35,8.62,8.62,0,0,0-.29-1.53,10.85,10.85,0,0,1,0-3.46,38.58,38.58,0,0,0,4.4-1c.08.44-.21.84-.27,1.3a11.86,11.86,0,0,0,0,1.19c0,.79-.3,1.47-.28,2.28,0,.33.16,1,0,1.3s-.78.33-1.09.45a15.65,15.65,0,0,1-2.51.91" style="fill: #edf0f6"/>
      <path d="M154.7,121.37l.16,0A.26.26,0,0,0,155,121a7.53,7.53,0,0,1-.19-1.78c-.09-.51-.25-1-.29-1.51a8.52,8.52,0,0,1,.1-2.85l-.18.17a38.74,38.74,0,0,0,4.41-1l-.32-.24c.05.44-.21.83-.26,1.26a12.34,12.34,0,0,0,0,1.36,15.3,15.3,0,0,0-.26,2.43c0,.26.14.73-.07.93s-.62.2-.89.3a19.75,19.75,0,0,1-2.51.91c-.31.07-.18.55.14.48.93-.2,1.74-.7,2.65-1a2.42,2.42,0,0,0,1-.35,1,1,0,0,0,.27-.82,11.25,11.25,0,0,1,0-1.16c0-.49.17-1,.23-1.44s0-1,0-1.52.34-.91.28-1.42a.24.24,0,0,0-.31-.24,41.57,41.57,0,0,1-4.41,1.05.28.28,0,0,0-.18.17,9.1,9.1,0,0,0-.1,3.08c.05.54.21,1,.3,1.55a7.17,7.17,0,0,0,.24,1.9l.15-.37-.17,0a.25.25,0,0,0,.14.48Z" style="fill: #231f20"/>
    </g>
    <g>
      <path d="M166.91,115.27c.12-.43-.21-.47-.3-.82a6.11,6.11,0,0,1,0-1.13c0-.9-.28-1.61-.28-2.51,0-.2-.15-1.17,0-1.35s1.29-.27,1.65-.39c1-.34,1.76-1.14,2.73-1.52a16.43,16.43,0,0,1,0,3c0,.76.62,1.94.14,2.63a6.23,6.23,0,0,1-1.24.73c-.51.26-1.06.38-1.56.67-.2.13-2.25,1.81-1.8.43" style="fill: #edf0f6"/>
      <path d="M167.15,115.34a.77.77,0,0,0,0-.54c-.07-.15-.21-.25-.25-.42a2,2,0,0,1,0-.73,5.48,5.48,0,0,0,0-.81c-.06-.54-.2-1.07-.24-1.62,0-.36-.05-.73-.07-1.09,0-.13-.05-.37,0-.47s.28-.13.4-.16c.36-.07.73-.07,1.08-.17,1-.29,1.81-1.13,2.79-1.54l-.31-.17c.25,1.21-.13,2.45.15,3.66.11.47.39,1.22.11,1.67s-.71.47-1,.63c-.53.26-1.1.42-1.62.7a4.6,4.6,0,0,0-.58.4,5.61,5.61,0,0,1-.8.5c-.07,0-.21.12-.29.1s.05.09.05,0a1.83,1.83,0,0,1,.06-.25c.1-.31-.39-.44-.48-.13-.16.52,0,1,.65.8a6.1,6.1,0,0,0,1.43-.89,7.41,7.41,0,0,1,1.35-.6c.38-.17.76-.36,1.12-.56a1.21,1.21,0,0,0,.68-.8,3.16,3.16,0,0,0-.1-1.4,6,6,0,0,1-.16-1.83,8.66,8.66,0,0,0-.07-2.16.25.25,0,0,0-.3-.18,9.34,9.34,0,0,0-1.48.83,4.24,4.24,0,0,1-1.45.74c-.56.11-1.61,0-1.72.77a5.27,5.27,0,0,0,0,1,14.76,14.76,0,0,0,.17,1.49,9.25,9.25,0,0,1,.08,1.82,1.31,1.31,0,0,0,.09.65c.09.2.29.32.24.55s.41.44.48.13Z" style="fill: #231f20"/>
    </g>
    <g>
      <path d="M193.14,103.27c-.83-.18-.55-1.32-.56-2a4.73,4.73,0,0,0-.22-1.18c-.06-.31,0-.61-.09-.92s-.3-.49-.23-.87c.37-.27.77,0,1.18-.08a4.39,4.39,0,0,0,1.11-.37c.48-.19,1.35-.8,1.62-.23s0,2.21,0,2.83a8.8,8.8,0,0,1,0,2.18c-.36.09-.71.12-1.07.23s-.88.46-1.34.59-1.44.26-1.18-.51" style="fill: #edf0f6"/>
      <path d="M193.21,103c-.69-.18-.36-1.31-.38-1.81s-.23-1-.26-1.49a2.79,2.79,0,0,0-.11-.76,1.23,1.23,0,0,1-.17-.62l-.13.22a.94.94,0,0,1,.68-.07,1.78,1.78,0,0,0,.65,0,5.16,5.16,0,0,0,1.13-.43,2.8,2.8,0,0,1,.92-.36c.27,0,.26.36.27.56a15.06,15.06,0,0,1-.12,2,12.4,12.4,0,0,1,0,2.36l.18-.17a8.32,8.32,0,0,0-1.31.31c-.38.15-.72.4-1.11.51a1.75,1.75,0,0,1-.6.09c-.23,0-.34,0-.27-.29s-.39-.44-.48-.13a.64.64,0,0,0,.23.79,1.27,1.27,0,0,0,.86.1,3.22,3.22,0,0,0,1.08-.37,3.3,3.3,0,0,1,.82-.34l.91-.19a.28.28,0,0,0,.18-.17,6.37,6.37,0,0,0,.05-1.9,10.33,10.33,0,0,1,.07-1.36c.05-.62.34-2.27-.67-2.31a3.13,3.13,0,0,0-1.28.46,6.92,6.92,0,0,1-.86.33,3.94,3.94,0,0,1-1,0c-.23,0-.59.07-.68.32a1,1,0,0,0,.16.77,2.88,2.88,0,0,1,.12.88c0,.33.15.64.21,1,.15.85-.38,2.3.78,2.6a.25.25,0,0,0,.14-.48Z" style="fill: #231f20"/>
    </g>
    <g>
      <path d="M205.42,99.09c-.95.25-1-1.37-1.19-2a5.76,5.76,0,0,1-.16-3,2.69,2.69,0,0,0,2.43-.32c.55-.25,1.13-.36,1.66-.6.16.39,0,.59-.09.94a5.7,5.7,0,0,0-.14,1.25,7,7,0,0,0,0,1.12c0,.32.45.89.28,1.17s-.83.19-1.17.23a4,4,0,0,0-1.4.58l-1.28.55c-.17.07-.53.68-.6,0" style="fill: #edf0f6"/>
      <path d="M205.35,98.85c-.68.15-.74-1.26-.85-1.68a5.1,5.1,0,0,1-.19-2.94l-.37.15a2.44,2.44,0,0,0,2.11-.06c.35-.15.69-.32,1-.44s.76-.23,1.13-.38l-.31-.18a.91.91,0,0,1,0,.63,5.1,5.1,0,0,0-.13.68,13.53,13.53,0,0,0-.09,1.42,2.2,2.2,0,0,0,.17,1,1.45,1.45,0,0,1,.17.48c0,.18-.19.2-.34.2a4.29,4.29,0,0,0-1,.06,5.06,5.06,0,0,0-1,.46c-.44.23-.9.4-1.36.6a.84.84,0,0,0-.29.2s-.11.07-.11.1,0,0,.11,0a.51.51,0,0,1,0-.17c-.05-.32-.53-.18-.49.13s.15.53.44.5.33-.21.51-.33a3.5,3.5,0,0,1,.56-.24l.65-.28c.33-.15.64-.38,1-.5.54-.2,1.41.16,1.76-.45a.94.94,0,0,0-.06-.83c0-.13-.12-.25-.16-.39a1.9,1.9,0,0,1,0-.63,12.8,12.8,0,0,1,.12-1.53,2.36,2.36,0,0,0,.13-1.28.26.26,0,0,0-.31-.18c-.61.26-1.25.41-1.86.68a2.32,2.32,0,0,1-2,.26.25.25,0,0,0-.36.15c-.41,1.09,0,2.31.23,3.39.16.75.35,2.08,1.43,1.84.31-.07.18-.56-.14-.48Z" style="fill: #231f20"/>
    </g>
    <g>
      <path d="M154.91,142.34c-.09-.66-.46-1.29-.58-1.94a16.31,16.31,0,0,1-.26-2.53c0-.79-.61-1.61,0-2.17a9,9,0,0,1,1.71-.68,2.75,2.75,0,0,1,1.22-.52c1.08,0,.77,1.34.93,2.13a10.83,10.83,0,0,1,.29,2.37c0,1,.14,1.82-.84,2.36-.59.32-1.77.95-2.42.66l.19-.24" style="fill: #edf0f6"/>
      <path d="M155.15,142.28c-.12-.74-.48-1.41-.61-2.15a22.55,22.55,0,0,1-.22-2.31c0-.54-.51-1.39-.12-1.86s1.13-.46,1.61-.66,1.21-.9,1.64-.37c.26.32.19.88.22,1.27,0,.62.22,1.23.29,1.85a12.94,12.94,0,0,1,0,1.87,1.55,1.55,0,0,1-1,1.39c-.53.27-1.3.7-1.91.46l.11.42.18-.23c.2-.25-.15-.6-.35-.35l-.18.23a.26.26,0,0,0,.11.42,2.56,2.56,0,0,0,1.88-.32,2.78,2.78,0,0,0,1.49-1.13,4.29,4.29,0,0,0,.2-1.95c0-.84-.23-1.63-.32-2.46a5.14,5.14,0,0,0-.22-1.57,1.07,1.07,0,0,0-1.35-.51,9.08,9.08,0,0,0-1,.53c-.34.14-.7.21-1,.34a1.27,1.27,0,0,0-1,1.35c0,.45.22.88.25,1.33s.05,1,.12,1.56a8.62,8.62,0,0,0,.25,1.42,12.73,12.73,0,0,1,.48,1.56c.05.32.53.18.48-.13Z" style="fill: #231f20"/>
    </g>
    <g>
      <path d="M166.91,136.2v-2.36a11.24,11.24,0,0,1,0-2.9c.57-.18,1.11-.17,1.7-.38a5.32,5.32,0,0,0,1-.33c.42-.26.67-.74,1.15-.93a15.19,15.19,0,0,1,0,2.94c0,.48,0,1,0,1.46s.22.68.09,1c-.45,1-2,.81-2.71,1.38a4.67,4.67,0,0,1-1.3.93c-.3.13-.75.45-1.07.3a.45.45,0,0,1,.25-.52" style="fill: #edf0f6"/>
      <path d="M167.16,136.2c0-.93,0-1.88,0-2.82a7.6,7.6,0,0,1,0-2.38l-.17.18c.77-.22,1.56-.32,2.33-.56s1-.83,1.57-1.1l-.36-.15a15.26,15.26,0,0,1,0,3.31,6.05,6.05,0,0,0,.08,1.47c.11.5-.17.77-.61,1a9.54,9.54,0,0,0-1.9.68c-.33.22-.59.54-.93.75s-1,.61-1.31.5l.17.18.14-.24c.26-.18,0-.62-.26-.43a.74.74,0,0,0-.36.8.28.28,0,0,0,.17.18,1.83,1.83,0,0,0,1.27-.33,5.49,5.49,0,0,0,1.16-.81c.65-.56,1.54-.53,2.27-.93a1.4,1.4,0,0,0,.72-.83,1.3,1.3,0,0,0,0-.62,4.51,4.51,0,0,1-.07-1,17.22,17.22,0,0,0,0-3.73.25.25,0,0,0-.37-.15,2.77,2.77,0,0,0-.81.63,2.43,2.43,0,0,1-1.15.56c-.45.13-.88.21-1.33.3s-.64.09-.72.5a8.84,8.84,0,0,0,0,2.24c.05,1,0,1.93,0,2.88a.25.25,0,0,0,.5,0Z" style="fill: #231f20"/>
    </g>
    <g>
      <path d="M193.14,125c-.61,0-.88,0-1-.62s0-1.3-.13-2-.59-1.72,0-2.13c.27-.18,1.09,0,1.39-.11s.6-.21.88-.29c.84-.23,1.1,0,1.13.92s-.3,1.65-.29,2.53c0,.31.14.83.11,1.1-.06.42-.23.45-.61.69a2.6,2.6,0,0,1-2.24.65l0-.23" style="fill: #edf0f6"/>
      <path d="M193.14,124.79a1.52,1.52,0,0,1-.56,0c-.19-.08-.24-.32-.28-.5-.13-.64,0-1.3-.12-2a5.86,5.86,0,0,1-.25-1.26.56.56,0,0,1,.18-.49,1.22,1.22,0,0,1,.63,0,3.9,3.9,0,0,0,.59,0,3.44,3.44,0,0,0,.77-.24c.26-.09.79-.31.94,0a3.08,3.08,0,0,1,0,1.65,5.53,5.53,0,0,0-.14,1.81,1.72,1.72,0,0,1,0,.87c-.09.18-.36.29-.53.39a2.44,2.44,0,0,1-2,.57l.17.17-.05-.23c-.06-.31-.54-.18-.48.14l.05.23a.24.24,0,0,0,.17.17,2.57,2.57,0,0,0,2-.41c.48-.29,1.08-.54,1.14-1.17a5.25,5.25,0,0,0-.09-.88,4.19,4.19,0,0,1,.1-1.32,4.59,4.59,0,0,0,.09-2.05.83.83,0,0,0-1-.62,3.54,3.54,0,0,0-.9.25,2.24,2.24,0,0,1-.89.13c-.51,0-1.07,0-1.29.54a2.47,2.47,0,0,0,.09,1.54,4.48,4.48,0,0,1,.15,1.15,4,4,0,0,0,.11,1.33,1,1,0,0,0,.43.61,1.71,1.71,0,0,0,.84.12.25.25,0,0,0,0-.5Z" style="fill: #231f20"/>
    </g>
    <g>
      <path d="M202.91,121.69c.05-.4.26-.69.28-1.11s0-.75,0-1.12a12.9,12.9,0,0,0-.14-2.65c-.24-1.09.12-1.5,1.25-1.82a12.63,12.63,0,0,0,2-.54c.3-.14,1-1,1.34-.79.21.74-.21,1.46-.26,2.19,0,.36,0,.74,0,1.1a6.22,6.22,0,0,1,0,2.2,23.69,23.69,0,0,1-3.58.31" style="fill: #edf0f6"/>
      <path d="M203.15,121.76c0-.28.16-.52.23-.79a3.17,3.17,0,0,0,.07-.81c0-.63,0-1.26,0-1.9a14.3,14.3,0,0,0-.19-1.73.93.93,0,0,1,.29-1c.83-.62,2-.42,2.91-.94a6,6,0,0,0,.9-.7c.11-.08.09-.09.07,0s0,.35,0,.52c-.06.32-.17.63-.23,1a7.55,7.55,0,0,0,0,1.84,4.36,4.36,0,0,1,0,1.8l.17-.18a22.89,22.89,0,0,1-3.51.31.25.25,0,0,0,0,.5,24.87,24.87,0,0,0,3.65-.32.26.26,0,0,0,.17-.18,4,4,0,0,0,.09-1.69,7.24,7.24,0,0,1,0-2.08c.12-.52.46-1.35.17-1.87-.2-.36-.68-.11-.92.06a3.88,3.88,0,0,1-1.22.77c-.62.19-1.27.25-1.88.48a1.49,1.49,0,0,0-1,1.83,15.24,15.24,0,0,1,.16,2.52c0,.4,0,.81,0,1.21a9.78,9.78,0,0,1-.28,1.19c-.06.31.42.45.48.13Z" style="fill: #231f20"/>
    </g>
    <g>
      <path d="M154.63,163.55c0-.55-.27-1.1-.28-1.67a9.36,9.36,0,0,0,0-1.4,10.16,10.16,0,0,1-.29-1.24,6.61,6.61,0,0,1,0-1.78,11.74,11.74,0,0,1,2.14,0c.54-.07,1.1-.46,1.63-.27a8.81,8.81,0,0,0,.09,4.3c.15.82-.05,1.15-.82,1.4s-1.14.81-1.84.86l-.11-.17" style="fill: #edf0f6"/>
      <path d="M154.88,163.55c0-.54-.23-1-.27-1.56s.08-1,0-1.52a12.61,12.61,0,0,1-.3-1.46,5.31,5.31,0,0,1,0-1.49l-.17.18a8.62,8.62,0,0,1,1.9,0c.58,0,1.17-.45,1.74-.29l-.18-.3a9.19,9.19,0,0,0,.09,4.42,1.21,1.21,0,0,1,0,.73,1.11,1.11,0,0,1-.6.37c-.61.22-1.12.78-1.78.85l.22.12-.12-.16c-.18-.27-.61,0-.43.25l.12.17a.24.24,0,0,0,.21.12c.75-.08,1.24-.62,1.91-.87.5-.19.95-.43,1-1a3.12,3.12,0,0,0-.08-.91c-.08-.45-.16-.9-.21-1.35a6.16,6.16,0,0,1,.16-2.6.25.25,0,0,0-.17-.31c-.66-.19-1.22.23-1.87.27a9.94,9.94,0,0,0-2,0,.28.28,0,0,0-.17.18,6,6,0,0,0,.2,2.89,6.13,6.13,0,0,1,0,1.6c0,.57.29,1.1.28,1.67,0,.32.49.32.5,0Z" style="fill: #231f20"/>
    </g>
    <g>
      <path d="M166.91,157.13c0-.4-.27-.69-.29-1.11a5.89,5.89,0,0,0,0-.84c-.11-.67-.73-1.42-.73-2.09,0-1.24,3-1.83,4-2.28.41.3.31.93.34,1.36a13.9,13.9,0,0,0,.21,1.56,6.7,6.7,0,0,1,.08,2.44c-.4,1.4-3.19,2-4.39,1.23.25,0,.5,0,.75,0" style="fill: #edf0f6"/>
      <path d="M167.15,157.07a5.15,5.15,0,0,0-.2-.7,1.67,1.67,0,0,1,0-.77,2.46,2.46,0,0,0-.3-1.27,2.76,2.76,0,0,1-.44-1.29.83.83,0,0,1,.37-.56c1-.8,2.38-.94,3.52-1.45l-.31,0c.37.3.24.88.28,1.3s.14,1.06.23,1.59a9.26,9.26,0,0,1,.14,1.48,1.84,1.84,0,0,1-.26,1.1,3.4,3.4,0,0,1-3.85.72l-.12.47h.75a.25.25,0,0,0,0-.5h-.75a.25.25,0,0,0-.13.46,3.8,3.8,0,0,0,3.72-.17,2.11,2.11,0,0,0,1.08-1.36,7.24,7.24,0,0,0-.14-2.54,11.42,11.42,0,0,1-.19-1.75,1.39,1.39,0,0,0-.4-1.15.27.27,0,0,0-.31,0c-.61.28-1.29.43-1.92.66a4.87,4.87,0,0,0-1.82,1c-.56.56-.39,1.22-.1,1.88a3,3,0,0,1,.45,1.48,2.21,2.21,0,0,0,0,.81c.07.26.19.51.24.79s.53.18.48-.13Z" style="fill: #231f20"/>
    </g>
    <g>
      <path d="M191.47,146.81l-.5.25a11.56,11.56,0,0,1-.34-2.21c0-.72-.25-1.26-.29-1.95a3,3,0,0,1,0-1.12c.24-.53,1.13-.58,1.59-.76a23.44,23.44,0,0,0,2.71-1.33c.25-.14.69-.51,1-.41.66.22.12,1.59,0,2a10,10,0,0,0,.1,2.9c.05.62.07.59-.65.73a13.39,13.39,0,0,0-1.38.26,1.32,1.32,0,0,0-.86.27,6.1,6.1,0,0,1-.62.52c-.36.17-.75.12-1.11.33" style="fill: #edf0f6"/>
      <path d="M191.34,146.59l-.5.25.37.15c-.06-.38-.16-.76-.23-1.15a10.7,10.7,0,0,1-.11-1.27c-.06-.71-.27-1.4-.31-2.13,0-.33,0-.62.31-.81a3,3,0,0,1,.85-.27,10,10,0,0,0,2-.88c.36-.18.72-.37,1.07-.57.18-.11.59-.48.8-.39.36.16,0,1.07,0,1.33a5.4,5.4,0,0,0-.15,1.92c0,.41.1.82.13,1.22a2.07,2.07,0,0,1,0,.53c-.05.06-.31.07-.38.09l-.66.11a7.8,7.8,0,0,0-1.28.23,2.58,2.58,0,0,0-.87.59c-.39.31-.89.27-1.33.49-.29.15,0,.58.25.44s.86-.15,1.23-.41c.16-.12.3-.26.46-.39a1.23,1.23,0,0,1,.78-.29c.43-.06.87-.17,1.31-.25a1.8,1.8,0,0,0,.82-.23.55.55,0,0,0,.17-.45,9.83,9.83,0,0,0-.13-1.32,6.31,6.31,0,0,1,.15-2.37c.12-.45.29-1.11,0-1.51s-1.07,0-1.5.22a14.58,14.58,0,0,1-2.72,1.33c-.55.19-1.29.23-1.63.78a1.8,1.8,0,0,0-.13,1,10.67,10.67,0,0,0,.2,1.38c.11.54.09,1.08.16,1.61s.21,1,.3,1.53a.26.26,0,0,0,.37.15l.49-.26c.29-.15,0-.58-.25-.43Z" style="fill: #231f20"/>
    </g>
    <g>
      <path d="M202.63,141.78a19.11,19.11,0,0,0-.7-4c-.11-.52-.3-.54.18-.94a7.47,7.47,0,0,1,1.5-.61c.95-.42,1.79-1.45,2.82-1.6.37.51.11,2,.11,2.7a14,14,0,0,1,0,3,15.71,15.71,0,0,1-1.94.33c-.5.07-1-.2-1.38.27" style="fill: #edf0f6"/>
      <path d="M202.88,141.78a12.53,12.53,0,0,0-.41-2.78c-.11-.47-.2-.94-.32-1.4a1.08,1.08,0,0,1-.1-.35c0-.12.22-.24.32-.3a5.67,5.67,0,0,1,1.06-.41,4.1,4.1,0,0,0,.93-.48,5.93,5.93,0,0,1,2.14-1.21l-.28-.11a1.91,1.91,0,0,1,.15,1.11c0,.41-.05.82-.08,1.22a19.11,19.11,0,0,1,0,3.21l.17-.17a11.34,11.34,0,0,1-1.92.33c-.57,0-1.07-.15-1.51.33-.22.24.13.59.35.35s.5-.21.81-.19a3.68,3.68,0,0,0,.74,0,15.16,15.16,0,0,0,1.66-.3.25.25,0,0,0,.18-.18,21.56,21.56,0,0,0,.05-3.41c0-.75.29-1.84-.15-2.51a.28.28,0,0,0-.29-.12,6.12,6.12,0,0,0-2.25,1.26,4.48,4.48,0,0,1-1.15.54,3.23,3.23,0,0,0-1,.48.75.75,0,0,0-.37.68,11.34,11.34,0,0,0,.3,1.25,14.54,14.54,0,0,1,.52,3.2.25.25,0,0,0,.5,0Z" style="fill: #231f20"/>
    </g>
    <g>
      <path d="M154.91,184.2c-.08-.37-.46-.46-.57-.82s.1-1,0-1.41a7.33,7.33,0,0,1-.29-1.25c0-.49.17-1.22-.17-1.61.4-.71,1-.39,1.68-.47s1.11-.94,1.87-1c.48.45.19,1.25.23,1.82a7.62,7.62,0,0,0,.37,1.38c.24.83.25,1.66.47,2.47a12.12,12.12,0,0,0-1.94.53c-.38.15-1.31.73-1.39.07" style="fill: #edf0f6"/>
      <path d="M155.15,184.14c-.12-.42-.58-.61-.6-1a4.39,4.39,0,0,1,.07-.72,2,2,0,0,0-.08-.73,5.67,5.67,0,0,1-.21-.81,3.32,3.32,0,0,1,0-.63,1.73,1.73,0,0,0-.23-1.22v.25c.38-.61,1.19-.21,1.78-.41s1-.86,1.56-.92l-.17-.08c.29.31.2.76.17,1.14a3.23,3.23,0,0,0,.14,1.27,11.31,11.31,0,0,1,.4,1.49c.09.56.15,1.12.29,1.66l.18-.3a10.8,10.8,0,0,0-2,.56c-.19.08-.37.18-.56.25s-.41.19-.45,0-.55-.18-.48.13c.12.66.81.5,1.26.3a12.14,12.14,0,0,1,2.38-.73.26.26,0,0,0,.17-.31c-.15-.59-.2-1.19-.31-1.78s-.31-1.08-.45-1.63a4.93,4.93,0,0,1,0-1.33,1.27,1.27,0,0,0-.35-1c-.27-.21-.73.06-1,.22a4.62,4.62,0,0,1-.92.65,4.34,4.34,0,0,1-1.14,0,1.17,1.17,0,0,0-.93.59.25.25,0,0,0,0,.25c.27.35.16.83.14,1.24a4.76,4.76,0,0,0,.27,1.4c.11.48-.1,1,0,1.44a.93.93,0,0,0,.23.49c.13.15.31.26.37.47a.25.25,0,0,0,.48-.13Z" style="fill: #231f20"/>
    </g>
    <g>
      <path d="M167.19,178.34c-.44-.34-.2-.68-.27-1.11s-.25-.53-.31-.83c-.08-.45.13-1,0-1.42-.06-.29-.29-.53-.31-.83-.06-.79,1.08-.93,1.69-1.18.44-.18,2.07-1.24,2.54-1.08.87.29,0,4.07,0,4.72,0,.23.1.69,0,.91s-1,.48-1.36.61a4,4,0,0,1-2.44.45,1.83,1.83,0,0,1,.48-.52" style="fill: #edf0f6"/>
      <path d="M167.36,178.17c-.32-.28-.13-.64-.2-1a1.69,1.69,0,0,0-.15-.43,1.45,1.45,0,0,1-.16-.77,2.92,2.92,0,0,0,0-1.14c-.1-.32-.43-.66-.19-1s1.08-.46,1.54-.67.93-.52,1.41-.75c.23-.11.8-.47,1-.15a2.66,2.66,0,0,1,.08,1.29c-.06,1-.3,1.94-.38,2.92,0,.27.08.56,0,.82s-.59.4-.85.48c-.86.27-1.76.81-2.69.57l.15.37a1.57,1.57,0,0,1,.38-.43c.25-.19,0-.63-.25-.43a2.29,2.29,0,0,0-.56.6.25.25,0,0,0,.15.37,4.77,4.77,0,0,0,2.74-.5c.63-.21,1.44-.35,1.43-1.16a5.08,5.08,0,0,1,0-.78c0-.24.06-.47.1-.7.1-.64.2-1.28.26-1.92.07-.83.15-2.47-1.14-2a10.48,10.48,0,0,0-1.81.89,12.46,12.46,0,0,0-1.72.72,1,1,0,0,0-.4.9,2.9,2.9,0,0,0,.26.67,1.86,1.86,0,0,1,0,.91,2,2,0,0,0,0,.76,5.34,5.34,0,0,1,.28.76c0,.21,0,.43,0,.65a.88.88,0,0,0,.33.55c.24.21.6-.14.35-.35Z" style="fill: #231f20"/>
    </g>
    <g>
      <path d="M192,168.58a2.36,2.36,0,0,1-.55-1.74,3.64,3.64,0,0,0-.28-1.45c-.13-.32-.39-.63-.31-1,.13-.7,1.87-1.16,2.48-1.32s1.84-.76,2.25-.53a20.44,20.44,0,0,0,.46,2.71,4,4,0,0,1,.1,1.84c-.85-.48-1.7.17-2.49.48a10.33,10.33,0,0,0-1.64.59c-.37.21-.64.57-1,.68a4.72,4.72,0,0,0,.18-.53" style="fill: #edf0f6"/>
      <path d="M192.2,168.4c-.67-.58-.4-1.69-.58-2.46a4.32,4.32,0,0,0-.25-.77,1.46,1.46,0,0,1-.26-.69c0-.29.39-.47.61-.59a11.63,11.63,0,0,1,1.83-.63c.34-.1.67-.24,1-.35s.69-.28.93-.17l-.12-.21a22.07,22.07,0,0,0,.35,2.26,5.08,5.08,0,0,1,.22,2.22l.37-.15c-1-.49-1.8.11-2.69.46-.46.19-1,.26-1.4.46s-.79.64-1.26.81l.31.31c.06-.18.12-.36.17-.54a.25.25,0,0,0-.48-.13q-.07.27-.18.54a.25.25,0,0,0,.31.3,5,5,0,0,0,1-.65,5,5,0,0,1,1.35-.51c.81-.25,1.76-1.06,2.62-.62a.25.25,0,0,0,.37-.15,4,4,0,0,0-.07-1.82c-.15-.65-.29-1.28-.39-1.93a4.73,4.73,0,0,0-.11-.93c-.07-.19-.29-.23-.47-.23a3.8,3.8,0,0,0-1.27.3c-.76.27-1.56.46-2.3.77a2.61,2.61,0,0,0-1,.66,1.15,1.15,0,0,0,0,1.29,3.59,3.59,0,0,1,.33,1c0,.32,0,.64.06,1a2.18,2.18,0,0,0,.61,1.52c.24.21.59-.14.35-.35Z" style="fill: #231f20"/>
    </g>
    <g>
      <path d="M203.19,163a22.13,22.13,0,0,0-.85-3.63c-.13-.66-.05-1.25.62-1.41s1.14.08,1.69,0,.83-.38,1.27-.46c1.2-.21.9,1,.89,1.92a10.39,10.39,0,0,0,.07,2.16c.12.54.4.71-.32.88-.56.13-1.12.06-1.71.22s-2.15,1-2.22.35" style="fill: #edf0f6"/>
      <path d="M203.44,163a7.82,7.82,0,0,0-.43-2.14,6,6,0,0,1-.47-2c0-.79.87-.66,1.45-.63a2.4,2.4,0,0,0,1-.11,5.83,5.83,0,0,1,1-.38.51.51,0,0,1,.49.11,1,1,0,0,1,.12.55c0,.54,0,1.09,0,1.64a6,6,0,0,0,.2,2l0,.12s0,0,0,0l-.18.06a8.29,8.29,0,0,1-1.22.14,5.57,5.57,0,0,0-1.49.45c-.14.06-1,.38-1,.18s-.54-.18-.48.13c.16,1,2,0,2.44-.15a4.69,4.69,0,0,1,1.24-.16,2.11,2.11,0,0,0,1-.26.49.49,0,0,0,.18-.54,6.18,6.18,0,0,1-.2-1,22.45,22.45,0,0,1,0-2.32c0-.45,0-1.06-.41-1.33-.62-.4-1.33.11-1.92.3-.75.23-1.66-.24-2.33.3s-.37,1.47-.19,2.13a12.51,12.51,0,0,1,.7,2.93.25.25,0,0,0,.5,0Z" style="fill: #231f20"/>
    </g>
    <g>
      <path d="M155.19,206a1.26,1.26,0,0,1-.57-1.12,5.33,5.33,0,0,0-.25-1.25,7.54,7.54,0,0,1,0-2.88,23,23,0,0,1,2.53-.66c1-.2,1.64-1.09,1.61.37,0,.74,0,1.48,0,2.21,0,.3.14,1.12,0,1.39-.44.66-2,.77-2.71.87l0,.23" style="fill: #edf0f6"/>
      <path d="M155.36,205.79a1.33,1.33,0,0,1-.41-.47,2.17,2.17,0,0,1-.09-.67c0-.43-.19-.83-.27-1.25a6.25,6.25,0,0,1,0-2.62l-.18.18c.49-.15,1-.3,1.49-.42s.9-.18,1.33-.32c.25-.08.48-.2.72-.3s.22-.12.26,0a5.14,5.14,0,0,1,0,1.3c0,.49,0,1,0,1.48a7.5,7.5,0,0,1,.05.94c0,.3-.23.43-.49.55a7.62,7.62,0,0,1-2.12.44.26.26,0,0,0-.18.17l-.05.24c-.06.31.42.45.49.13l0-.23-.17.17a15.15,15.15,0,0,0,1.64-.27,1.94,1.94,0,0,0,1.24-.75,3.21,3.21,0,0,0,0-1.48c0-.84.06-1.7,0-2.54,0-.37-.18-.77-.62-.74a7.45,7.45,0,0,0-1.17.42c-.84.23-1.68.39-2.5.64-.16.05-.28.07-.35.23a2.14,2.14,0,0,0-.08.44,7,7,0,0,0-.07,1,8.88,8.88,0,0,0,.3,2.18c.09.35.05.72.15,1.06a1.63,1.63,0,0,0,.57.8c.25.2.6-.15.35-.36Z" style="fill: #231f20"/>
    </g>
    <g>
      <path d="M167.75,200.11l-.24-.05c-.24-.71.09-1.58-.07-2.32a5.22,5.22,0,0,1-.26-1.12,2.1,2.1,0,0,0-.18-1.21c.49-.16,1,0,1.53-.1s.76-.44,1.17-.59c.68-.24.69.06.84.71a8,8,0,0,1,.28,2,7.16,7.16,0,0,0,0,1.39c.12.63.33.71-.39,1.12-1.11.63-2.42.1-3.46.75a1.37,1.37,0,0,0,.48-.31" style="fill: #edf0f6"/>
      <path d="M167.81,199.87l-.23-.05.17.18c-.23-.79.11-1.63-.09-2.43a4.51,4.51,0,0,1-.23-1.15,2.16,2.16,0,0,0-.22-1.14l-.14.37a9.65,9.65,0,0,1,1.32-.06,3.27,3.27,0,0,0,1.14-.52c.18-.1.54-.32.64-.08a5.56,5.56,0,0,1,.27,1.14,6.76,6.76,0,0,1,.13,1.42,6.37,6.37,0,0,0,0,1.38c0,.15.16.41.08.55s-.26.19-.37.25a2.31,2.31,0,0,1-.68.25c-.94.19-1.91,0-2.78.51-.28.16,0,.56.25.43a2.12,2.12,0,0,0,.53-.35c.24-.22-.11-.57-.35-.36a1.52,1.52,0,0,1-.43.28l.25.43c.89-.53,2-.23,2.95-.53a2.25,2.25,0,0,0,1-.59.73.73,0,0,0,.09-.69,5.87,5.87,0,0,1-.1-1.45,7.2,7.2,0,0,0-.13-1.61,6.8,6.8,0,0,0-.3-1.26.6.6,0,0,0-.59-.4,3.16,3.16,0,0,0-1.29.56c-.58.3-1.21.05-1.82.22a.25.25,0,0,0-.15.36,2.73,2.73,0,0,1,.16,1.2,9.28,9.28,0,0,0,.26,1.07c.16.78-.16,1.56.07,2.33a.24.24,0,0,0,.18.17l.23,0c.31.07.45-.42.13-.48Z" style="fill: #231f20"/>
    </g>
    <g>
      <path d="M192.58,188.11c-.66.22-.68-.91-.83-1.38a8.15,8.15,0,0,1-.28-2.13c0-.38-.31-.89-.05-1.19s1-.16,1.18-.25c.67-.27,1.39-.94,2.18-.6a10.9,10.9,0,0,1,0,2.49c0,.32,0,.66,0,1s.26.73.28,1.09c.07,1.25-2.62,1.22-3.52,1.3a.34.34,0,0,0,.19-.3" style="fill: #edf0f6"/>
      <path d="M192.52,187.87c-.39.11-.45-.92-.52-1.16a6.23,6.23,0,0,1-.23-1.29,6.84,6.84,0,0,0-.11-1.19,1.61,1.61,0,0,1-.1-.53c0-.14.09-.13.22-.16s.55,0,.81-.11c.72-.2,1.32-.94,2.12-.63l-.17-.18a13.41,13.41,0,0,1,0,3,2.21,2.21,0,0,0,0,.68c.05.25.17.48.22.73a.55.55,0,0,1-.19.56,2.94,2.94,0,0,1-1.53.48c-.51.06-1,.07-1.54.12l.13.47a.66.66,0,0,0,.31-.52c0-.32-.46-.31-.5,0l-.06.08c-.19.13-.14.49.12.47a9.57,9.57,0,0,0,2.92-.44,1.3,1.3,0,0,0,.84-.88,1.91,1.91,0,0,0-.18-1,4.14,4.14,0,0,1-.07-1.36c0-.44,0-.88.05-1.31,0-.22,0-.44,0-.66a1.6,1.6,0,0,0-.09-.58c-.14-.28-.68-.26-.94-.22a3.56,3.56,0,0,0-1.07.44,2.21,2.21,0,0,1-.82.31,2.41,2.41,0,0,0-.8.15.66.66,0,0,0-.31.68c0,.37.15.72.17,1.1a11,11,0,0,0,.14,1.41c.07.34.17.67.25,1,.11.53.35,1.21,1,1a.25.25,0,0,0-.13-.48Z" style="fill: #231f20"/>
    </g>
    <g>
      <path d="M204,183.92c-.33-.69-.13-1.2-.26-1.95a5.21,5.21,0,0,1-.27-2.19c.58-.15,1.18,0,1.76-.06a3.42,3.42,0,0,0,1.53-.74,4.81,4.81,0,0,1,0,1.47,8.32,8.32,0,0,1,0,2.23c-.22.67-2.65,1.88-2.78,1" style="fill: #edf0f6"/>
      <path d="M204.24,183.8a7.88,7.88,0,0,1-.25-1.94,5.3,5.3,0,0,1-.25-2l-.18.17c.62-.14,1.25,0,1.87-.09a3.6,3.6,0,0,0,1.53-.78l-.42-.11a4.37,4.37,0,0,1,0,1.25,9.51,9.51,0,0,0,.05,1.06,4.42,4.42,0,0,1,0,1.09.74.74,0,0,1-.28.45,3.62,3.62,0,0,1-1.25.71,1.44,1.44,0,0,1-.61.12c-.15,0-.18,0-.2-.14-.06-.32-.54-.18-.49.13.16,1,1.61.34,2.1.09a3.15,3.15,0,0,0,1-.79,2.56,2.56,0,0,0,.22-1.66,8.1,8.1,0,0,1-.05-1.1,4,4,0,0,0,0-1.34.26.26,0,0,0-.42-.11,3,3,0,0,1-1.47.68,13.8,13.8,0,0,0-1.7.06.26.26,0,0,0-.18.17,5.47,5.47,0,0,0,.24,2.2,6.79,6.79,0,0,1,.08,1.1,2.51,2.51,0,0,0,.24,1c.13.29.56,0,.43-.25Z" style="fill: #231f20"/>
    </g>
    <path d="M78.44,214.87a.25.25,0,0,0,0-.5.25.25,0,0,0,0,.5Z" style="fill: #231f20"/>
    <g>
      <path d="M78.44,214.62c0-.46.28-.75.31-1.18,0-.6-.36-.63.09-1.07s1.59-.3,2.14-.24a25.68,25.68,0,0,0,2.83.55c.66,0,1.52-.63,2,0a1.45,1.45,0,0,1,.13,1.15s-.27,1-.25,1c-.35.41-1.88.1-2.41.1a14.28,14.28,0,0,0-4.44.25l.18-.25" style="fill: #edf0f6"/>
      <path d="M78.69,214.62c0-.54.39-1,.28-1.53,0-.11-.11-.27-.09-.38s.37-.31.54-.35a7.52,7.52,0,0,1,3.25.41,3.57,3.57,0,0,0,1.59.1c.43-.09,1.23-.52,1.43.12a2,2,0,0,1-.1,1.08,2.18,2.18,0,0,0-.16.79l.06-.24c-.25.26-.91.14-1.23.11-.47,0-.92-.07-1.39-.08a12.68,12.68,0,0,0-4.12.26l.28.36.19-.24c.19-.26-.24-.51-.43-.26l-.19.25c-.13.18.09.43.28.37a8.51,8.51,0,0,1,2.8-.28c.71,0,1.42,0,2.13.08a3.93,3.93,0,0,0,1.74,0,.61.61,0,0,0,.26-.15c.1-.1.07-.16.1-.28,0,.17,0,.05,0,0s.07-.25.1-.37a2.57,2.57,0,0,0,.09-1.55c-.25-.66-.89-.68-1.48-.52a3.28,3.28,0,0,1-1,.19,8,8,0,0,1-1.55-.31,8.34,8.34,0,0,0-2.15-.31c-.56,0-1.42.13-1.59.79-.06.26.1.48.11.73,0,.45-.29.84-.31,1.29s.49.32.5,0Z" style="fill: #231f20"/>
    </g>
    <g>
      <path d="M92.68,215.18a9.23,9.23,0,0,1,0-2.41,5.42,5.42,0,0,0,1.21.47c.4,0,.84,0,1.24,0,.64,0,1.28,0,1.91,0s.62.06.62.73c0,.34.17,1.23,0,1.53-.31.48-1.47.26-1.92.26a8,8,0,0,1-2-.06,4.93,4.93,0,0,0-1.39-.22" style="fill: #edf0f6"/>
      <path d="M92.93,215.18a8.41,8.41,0,0,1,0-2.35l-.31.18a6,6,0,0,0,1.21.47,10.87,10.87,0,0,0,1.51,0c.54,0,1.08,0,1.61,0l.42,0c.08,0,.06,0,0,0a.78.78,0,0,1,0,.09c0,.3,0,.61,0,.92s.11.69-.06.89-.62.17-.86.16-.61,0-.91,0a8.23,8.23,0,0,1-1.72,0,7.38,7.38,0,0,0-1.54-.25.25.25,0,0,0,0,.5A12.25,12.25,0,0,1,94,216a10.33,10.33,0,0,0,1.67,0c.65,0,1.48.24,2-.19a1.06,1.06,0,0,0,.32-.93c0-.38-.07-.75-.07-1.12s0-.55-.26-.68a2.75,2.75,0,0,0-1.21-.11c-.66,0-1.32,0-2,0a2.05,2.05,0,0,1-1-.13c-.26-.11-.5-.25-.77-.34a.24.24,0,0,0-.3.17,9,9,0,0,0,0,2.48.25.25,0,0,0,.5,0Z" style="fill: #231f20"/>
    </g>
    <g>
      <path d="M111.93,219.09c-.13-.32-.9-1.57-.52-1.91s1.57-.05,1.93-.05c.83,0,1.68,0,2.5,0a15.14,15.14,0,0,1,1.63.32c.13.53.15,1.32-.38,1.6a5.4,5.4,0,0,1-2.09,0c-1-.07-2.24-.66-3.3-.12l0-.16" style="fill: #edf0f6"/>
      <path d="M112.15,219a6.71,6.71,0,0,1-.58-1.32c0-.23,0-.29.19-.33a4.69,4.69,0,0,1,.84,0c.67,0,1.32,0,2,0a10.29,10.29,0,0,1,1.36,0c.49.05,1,.21,1.45.3l-.17-.17c.09.41.18,1.16-.33,1.34a4,4,0,0,1-1.58,0c-1.24-.11-2.55-.68-3.75-.12l.37.15,0-.16a.25.25,0,0,0-.48.13l0,.17a.26.26,0,0,0,.37.15,3.64,3.64,0,0,1,2.35,0,11.63,11.63,0,0,0,1.86.2,1.7,1.7,0,0,0,1.49-.42,1.93,1.93,0,0,0,.18-1.61.26.26,0,0,0-.17-.18c-.53-.1-1.05-.27-1.59-.32a12,12,0,0,0-1.59,0c-.43,0-.86,0-1.3,0s-.64-.06-1-.07c-.56,0-1.11.14-1,.82a5.5,5.5,0,0,0,.65,1.59c.13.3.56,0,.43-.25Z" style="fill: #231f20"/>
    </g>
    <g>
      <path d="M154.35,222.16a1.65,1.65,0,0,1-.57-.85c0-.1-.22-.6-.24-.71a5.82,5.82,0,0,1,0-2c.74-.29,1.8,0,2.6-.17a12.28,12.28,0,0,0,1.77-.67,5.42,5.42,0,0,1,.06,1.51,10.07,10.07,0,0,0,.25,1.49,17.23,17.23,0,0,0-2.36.64c-.43.13-1.69.26-1.77.73l.25.07" style="fill: #edf0f6"/>
      <path d="M154.53,222a2.52,2.52,0,0,1-.74-1.41,4.19,4.19,0,0,1-.09-.93,3.88,3.88,0,0,1,.09-1l-.18.18a7.8,7.8,0,0,1,2.16-.1A7.45,7.45,0,0,0,158,218l-.31-.17a5.94,5.94,0,0,1,0,1.52,13.89,13.89,0,0,0,.25,1.41l.18-.24c-.94.17-1.82.53-2.75.73-.49.11-1.42.22-1.55.82a.26.26,0,0,0,.17.31l.25.06c.32.07.45-.41.14-.48l-.26-.07.18.31c0-.18.38-.26.53-.3s.57-.14.85-.21.74-.22,1.11-.33a14.81,14.81,0,0,1,1.46-.36.26.26,0,0,0,.19-.24,12.52,12.52,0,0,1-.25-1.49,6,6,0,0,0-.07-1.58.26.26,0,0,0-.31-.17,8.21,8.21,0,0,1-2,.71c-.64.08-1.28-.06-1.93,0-.28,0-.59.07-.66.38a4.78,4.78,0,0,0-.08.84,4.91,4.91,0,0,0,.18,1.52,2.78,2.78,0,0,0,.79,1.38c.25.2.61-.15.36-.35Z" style="fill: #231f20"/>
    </g>
    <g>
      <path d="M166.91,216.85c-.47-.08-.68-.7-.84-1.08-.08-.21-.41-1.1-.28-1.28s.64-.25.9-.34a11.14,11.14,0,0,1,2.44-.93c.4,0,.79,0,1.2-.06a4.69,4.69,0,0,1,1.23-.23c-.52.18-.72.84-.76,1.35-.06.74.07,1-.67,1.47a16.88,16.88,0,0,1-2,.82c-.27.12-1.81,1-1.82.28" style="fill: #edf0f6"/>
      <path d="M167,216.61c-.48-.12-.66-.89-.8-1.3,0-.14-.24-.56-.16-.7s.29-.1.37-.12l.46-.13a12.29,12.29,0,0,1,2.17-.87c.42-.08.86,0,1.29-.07a7.78,7.78,0,0,1,1.26-.24l-.07-.49a1.78,1.78,0,0,0-1,1.67,2,2,0,0,1-.09.78,1.75,1.75,0,0,1-.87.61c-.62.28-1.28.48-1.9.79-.1.05-1.07.48-1.08.31s-.52-.32-.5,0c0,.68.76.56,1.21.39s1.15-.51,1.74-.74,1.68-.54,1.91-1.3-.1-1.72.67-2a.25.25,0,0,0-.07-.49c-.53,0-1,.24-1.53.27a6.24,6.24,0,0,0-1.43.12,7.93,7.93,0,0,0-1.34.57,10.68,10.68,0,0,1-1.2.42c-.28.09-.54.24-.55.56a2.6,2.6,0,0,0,.23,1c.2.57.44,1.35,1.1,1.52.31.07.45-.41.13-.49Z" style="fill: #231f20"/>
    </g>
    <g>
      <path d="M192.58,205.41a4.7,4.7,0,0,1-.85-1.1c-.08-.26,0-.57,0-.85s-.36-.4-.12-.84,1.9-1,2.42-1.25,1.56-1.39,2.08-.81c.37.41.22,1.86.16,2.36-.13.93-.63,1.11-1.47,1.44a16.15,16.15,0,0,1-4.59,1.07,1.25,1.25,0,0,0,.47-.3" style="fill: #edf0f6"/>
      <path d="M192.76,205.24c-.18-.22-.38-.42-.56-.64a1,1,0,0,1-.23-.36,2.9,2.9,0,0,1,0-.59.93.93,0,0,0-.09-.4c0-.09-.13-.2-.15-.29s.15-.35.29-.44c.75-.51,1.7-.62,2.43-1.16a2.78,2.78,0,0,1,1.2-.71c.42,0,.4.67.41.95a6.71,6.71,0,0,1-.09,1.34,1.26,1.26,0,0,1-.85,1,15.72,15.72,0,0,1-5,1.23l.06.49a2,2,0,0,0,.59-.36c.24-.22-.12-.57-.36-.35a1.05,1.05,0,0,1-.36.23c-.23.1-.24.52.07.49a16.84,16.84,0,0,0,5.17-1.28,1.74,1.74,0,0,0,1.06-1.09,5.58,5.58,0,0,0,.16-1.68c0-.46,0-1.13-.49-1.39s-1,.07-1.39.33a6.37,6.37,0,0,1-1.27.78,10.23,10.23,0,0,0-1.59.7,1.23,1.23,0,0,0-.54.59c-.14.38.08.55.17.89a5.25,5.25,0,0,1,0,.69,1.06,1.06,0,0,0,.19.48,9.16,9.16,0,0,0,.76.89c.2.25.55-.11.35-.35Z" style="fill: #231f20"/>
    </g>
    <g>
      <path d="M203.75,201c-.08-.4-.56-.72-.71-1.12s-.26-1.11-.39-1.63c.46-.2,1.09,0,1.59-.1a12.9,12.9,0,0,0,1.24-.42,6.75,6.75,0,0,0,1.36-.57c.39-.24.77-.7,1.27-.63.38.49.12,1.82.11,2.45,0,1-.36.79-1.26.92a13,13,0,0,0-2.11.6c-.28.1-1.37,1-1.38.22" style="fill: #edf0f6"/>
      <path d="M204,200.88c-.12-.46-.55-.72-.72-1.15a12.41,12.41,0,0,1-.38-1.6l-.17.31a5.76,5.76,0,0,1,1.44-.07,8.55,8.55,0,0,0,1.53-.5,6.22,6.22,0,0,0,1.3-.56c.35-.22.67-.62,1.12-.58l-.22-.12a1.54,1.54,0,0,1,.17,1c0,.36-.05.71-.08,1.07,0,.21.05.63-.11.8s-.4.1-.55.11a9.24,9.24,0,0,0-2.53.65,4.47,4.47,0,0,0-.61.33,2.17,2.17,0,0,1-.38.16.16.16,0,0,1-.1,0s0,0,0-.05c0-.32-.52-.32-.5,0a.52.52,0,0,0,.72.51,5.47,5.47,0,0,0,1-.48,8.47,8.47,0,0,1,1.77-.54A8.77,8.77,0,0,0,208,200a.84.84,0,0,0,.49-.82c.05-.49.09-1,.11-1.5a1.89,1.89,0,0,0-.26-1.32c-.17-.18-.49-.1-.7,0a2.74,2.74,0,0,0-.7.46,8.87,8.87,0,0,1-2.05.88,3,3,0,0,1-1.14.23,2.7,2.7,0,0,0-1.13.08.26.26,0,0,0-.17.31,14.69,14.69,0,0,0,.38,1.59c.16.43.6.72.71,1.15a.25.25,0,0,0,.49-.13Z" style="fill: #231f20"/>
    </g>
    <path d="M211.56,191.15a.25.25,0,0,0,0-.5.25.25,0,0,0,0,.5Z" style="fill: #231f20"/>
    <g>
      <path d="M175.84,80.11v-.18a13.06,13.06,0,0,0,.29,1.77,24.55,24.55,0,0,1,0,3.43c0,1,.27,1.84.28,2.79a12.52,12.52,0,0,0,.31,2.1,6.1,6.1,0,0,1,.26,1c0,.46,0,.93,0,1.39,0,1.29,0,2.58,0,3.87,0,.88-.3,1.65-.29,2.54s0,1.85,0,2.77c0,1.88-.56,3.66-.55,5.52v5.5a26.54,26.54,0,0,1-.26,4.64c-.17,1,.12,2-.05,3a18.08,18.08,0,0,0-.25,3v13.26a16.36,16.36,0,0,1,0,3,12.18,12.18,0,0,0-.26,2.57,15.88,15.88,0,0,1,0,3.16,23.45,23.45,0,0,0-.26,5.25c0,.9.06,1.82,0,2.71,0,1.06-.29,2.06-.29,3.14,0,4.12,0,8.24,0,12.36V180.5c0,2.5,0,5,0,7.52,0,1.23-.3,2.4-.29,3.64s-.29,2.57-.28,3.87,0,2.53,0,3.8a25.3,25.3,0,0,1,0,4,40.44,40.44,0,0,0-.26,6.61c0,.79-.22,5.15,1.33,4.59.3-.11.63-.54.9-.74s.75-.49,1.12-.76a9.64,9.64,0,0,1,2.8-1.61,18.88,18.88,0,0,0,2.57-1.32,5.45,5.45,0,0,0,2.17-1.46c.34-.55,0-1.58,0-2.25,0-1-.3-1.85-.28-2.85s-.24-2.16-.29-3.26,0-1.93,0-2.88-.23-1.73-.29-2.63c-.07-1.22.31-2.26.3-3.42,0-2.23-.11-4.51,0-6.74a10.7,10.7,0,0,1,.27-1.37c.08-.55,0-1.11,0-1.66a16.45,16.45,0,0,1,.36-2.08c.21-1.14.13-2.24.23-3.38s.26-2.27.26-3.47V160.85c0-1.91,0-3.81,0-5.72,0-2.44-.48-4.84-.58-7.27-.15-3.91.39-7.92-.12-11.81-.34-2.58-.19-5.19-.57-7.78a36.06,36.06,0,0,1-.13-5.2V111.46c0-2.84,0-5.69,0-8.53,0-1.07.3-2.06.29-3.12,0-1.37.25-2.66.29-4,.09-3.19.27-6.36.27-9.55V76.35c0-.44-.23-2,.15-2.22,0,.13-.11.26-.15.4" style="fill: #edf0f6"/>
      <path d="M176.09,80.11v-.18h-.5c0,1.09.37,2.12.34,3.23a19.86,19.86,0,0,0,0,3.18c.16,1.1.19,2.2.41,3.29a11.42,11.42,0,0,1,.35,1.62c0,.57,0,1.15,0,1.72,0,1.22.09,2.48,0,3.7-.05.54-.19,1.08-.24,1.63s0,1.27,0,1.9a27.62,27.62,0,0,1-.25,4,22.33,22.33,0,0,0-.31,3.36c0,2.47.07,5,0,7.43-.05,1.19-.32,2.36-.27,3.55a25.61,25.61,0,0,1-.21,3.39c-.19,2.5-.05,5-.05,7.55s-.07,5,0,7.48c0,.55.06,1.09.05,1.64a16.05,16.05,0,0,1-.23,1.83,16.14,16.14,0,0,0-.06,3,23.27,23.27,0,0,1-.29,3.33c-.1,1.19,0,2.39,0,3.58a31.46,31.46,0,0,1-.06,3.76,33.1,33.1,0,0,0-.22,3.59q0,3.78,0,7.55v15.21c0,2.55.06,5.11,0,7.66,0,2.38-.49,4.75-.56,7.12s.15,4.81.06,7.2c0,1.16-.28,2.31-.33,3.48s0,2.47,0,3.71a27.48,27.48,0,0,0,.1,3.27c.09.69.28,2,1.22,2a1.09,1.09,0,0,0,.62-.22c.43-.3.78-.69,1.23-1a19.66,19.66,0,0,1,2.58-1.68c.45-.22,1-.35,1.4-.56s.91-.5,1.36-.76a17.62,17.62,0,0,0,2.32-1.3,1.85,1.85,0,0,0,.67-1.87c-.11-1-.19-2-.33-3s-.17-2.3-.29-3.44,0-2.42,0-3.63-.34-2.17-.29-3.27.31-2.19.29-3.32-.05-2.52-.05-3.78a19,19,0,0,1,.27-3.61,6.2,6.2,0,0,0,0-1.36,8.26,8.26,0,0,1,.25-2,22,22,0,0,0,.31-3.44c.06-1.19.25-2.38.28-3.58s0-2.47,0-3.7v-7.66c0-2.46.07-4.92,0-7.37s-.55-4.91-.59-7.39.15-4.94.12-7.4-.39-4.9-.49-7.36-.49-4.95-.45-7.45c.07-5,0-10,0-15,0-1.28,0-2.57,0-3.85a34.72,34.72,0,0,1,.07-3.68c.25-2.42.47-4.85.55-7.28.16-5,.24-10,.24-15.06,0-1.16,0-2.33,0-3.49,0-.47-.3-1.65.08-2l-.42-.24a3.12,3.12,0,0,0-.15.39c-.11.31.37.44.48.14l.15-.4c.11-.25-.25-.4-.41-.24-.39.35-.31,1.07-.28,1.54,0,.9.05,1.79.05,2.69V85.7c0,4.88-.26,9.76-.58,14.63-.08,1.2-.27,2.35-.27,3.56s0,2.48,0,3.72q0,3.72,0,7.45v7.46c0,1.24-.05,2.47,0,3.71s.23,2.43.33,3.65.11,2.33.17,3.49.21,2.41.32,3.61a62.8,62.8,0,0,1,0,7.26,51.69,51.69,0,0,0,.33,7.25,66.22,66.22,0,0,1,.23,7.32q0,3.74,0,7.47c0,2.43.1,4.89,0,7.31-.07,1.19-.24,2.37-.28,3.56a28.55,28.55,0,0,1-.46,3.7,6.86,6.86,0,0,0-.07,1.43,7.69,7.69,0,0,1-.22,1.79,17.15,17.15,0,0,0-.11,3.36c0,1.21,0,2.43.05,3.64s-.29,2.2-.29,3.31.3,2.17.29,3.27a29.21,29.21,0,0,0,.06,3.5c.24,2.07.35,4.15.6,6.23a1.5,1.5,0,0,1-.37,1.47,5.38,5.38,0,0,1-1.3.79c-.87.44-1.7,1-2.6,1.38a12.88,12.88,0,0,0-2.66,1.37c-.41.29-.82.58-1.24.86s-.71.59-1.08.87c-1.13.84-1.21-1.88-1.23-2.48-.06-1.45,0-2.92,0-4.37a27.67,27.67,0,0,1,.24-3.75,18.11,18.11,0,0,0,.08-3.21,49.35,49.35,0,0,1,.15-7.09c.13-1.17.12-2.34.25-3.51a29.55,29.55,0,0,0,.15-3.64c0-5,0-10.07,0-15.1v-7.46c0-2.47-.08-4.95,0-7.42,0-1.18.29-2.35.3-3.54s0-2.42-.05-3.63a19.93,19.93,0,0,1,.29-3.7,14.89,14.89,0,0,0,0-2.91,23.68,23.68,0,0,1,.31-3.14,32.35,32.35,0,0,0,0-3.41v-7.44a53.32,53.32,0,0,1,.17-7.48,9.83,9.83,0,0,0,.14-1.33c0-.66-.1-1.32,0-2,.11-1.12.26-2.22.28-3.35,0-2.4,0-4.8,0-7.2a32.52,32.52,0,0,1,.41-3.54,27.78,27.78,0,0,0,.15-3.65,12.42,12.42,0,0,1,.08-1.93,10.5,10.5,0,0,0,.2-1.58c0-1.24,0-2.49,0-3.73a13,13,0,0,0,0-1.53,9.32,9.32,0,0,0-.31-1.29c-.23-1.09-.26-2.18-.42-3.27a21.71,21.71,0,0,1,0-3.42c0-1.08-.31-2.06-.35-3.11a.25.25,0,0,0-.5,0v.18a.25.25,0,0,0,.5,0Z" style="fill: #231f20"/>
    </g>
    <g>
      <path d="M177.23,108.3c.13-.53.42-.44.83-.55a7.86,7.86,0,0,0,1.46-.78c.64-.32,1.26-.7,1.91-1a7.77,7.77,0,0,1,1.35-.68c-.07.28-.25.32-.52.51" style="fill: #edf0f6"/>
      <path d="M177.47,108.36c.07-.23.15-.27.38-.31a3.34,3.34,0,0,0,.68-.21c.51-.24,1-.58,1.48-.84l1.62-.88a5.29,5.29,0,0,1,1.21-.61l-.3-.31c-.06.19-.26.27-.41.37s0,.61.25.43.54-.32.64-.66a.26.26,0,0,0-.31-.31,5.52,5.52,0,0,0-1.31.65l-1.82,1a7.83,7.83,0,0,1-1.62.85,2.46,2.46,0,0,0-.59.16.86.86,0,0,0-.38.56.25.25,0,0,0,.48.13Z" style="fill: #231f20"/>
    </g>
    <g>
      <path d="M177.23,111.92l0,.17a14.65,14.65,0,0,1,2.52-1.21,30.54,30.54,0,0,0,3.89-2.49c.12.26,0,.42-.25.46" style="fill: #edf0f6"/>
      <path d="M177,111.86l0,.16c0,.19.17.43.37.28a28.09,28.09,0,0,1,3.17-1.54c1.13-.63,2.16-1.43,3.23-2.15l-.34-.09c0,.11,0,.07-.09.09-.32.07-.19.55.13.49a.54.54,0,0,0,.39-.83.25.25,0,0,0-.34-.09c-1.08.71-2.1,1.52-3.23,2.15a27.29,27.29,0,0,0-3.17,1.54l.36.28,0-.16c.05-.31-.43-.45-.48-.13Z" style="fill: #231f20"/>
    </g>
    <g>
      <path d="M175.28,130.06c.9-.83,2.28-1,3.27-1.67a43.25,43.25,0,0,1,4.17-2.53l-.18,0" style="fill: #edf0f6"/>
      <path d="M175.46,130.24c1-.85,2.33-1,3.39-1.74a41.77,41.77,0,0,1,4-2.43c.21-.11.12-.49-.13-.46l-.18,0c-.32,0-.32.54,0,.5l.18,0-.13-.47a47.89,47.89,0,0,0-4.11,2.5c-1.06.71-2.4.88-3.38,1.75-.24.21.12.56.36.35Z" style="fill: #231f20"/>
    </g>
    <g>
      <path d="M176.12,133.41a4.8,4.8,0,0,0,2.06-.72c.69-.44,1.35-.82,2.07-1.24,1.1-.64,2.17-1.38,3.31-2l-.19,0" style="fill: #edf0f6"/>
      <path d="M176.12,133.66c1.2,0,2.35-.87,3.33-1.45,1.41-.84,2.78-1.75,4.23-2.51.21-.11.13-.5-.12-.47l-.19,0c-.31,0-.32.53,0,.5l.19,0-.13-.46c-1.37.71-2.66,1.58-4,2.36-.58.34-1.13.74-1.73,1a3.48,3.48,0,0,1-1.59.49c-.32,0-.32.49,0,.5Z" style="fill: #231f20"/>
    </g>
    <g>
      <path d="M175.84,150.72c1.5-.77,3-1.57,4.53-2.31.75-.36,2.09-1.71,2.9-1.62a.7.7,0,0,1-.46.3" style="fill: #edf0f6"/>
      <path d="M176,150.93c1.53-.78,3.09-1.52,4.6-2.33a11.33,11.33,0,0,0,1.28-.9,2.49,2.49,0,0,1,1.43-.66l-.22-.38a.51.51,0,0,1-.3.19c-.31.07-.18.56.13.48a1,1,0,0,0,.6-.42c.13-.16,0-.36-.21-.37a2.37,2.37,0,0,0-1.39.53c-.49.33-.94.72-1.45,1-.7.41-1.47.74-2.2,1.11l-2.52,1.29c-.29.14,0,.58.25.43Z" style="fill: #231f20"/>
    </g>
    <g>
      <path d="M176.68,154.06a5.06,5.06,0,0,0,1.95-1,11.3,11.3,0,0,1,1.81-.9c1.28-.61,2.41-1.37,3.69-2a.86.86,0,0,0-.76.3" style="fill: #edf0f6"/>
      <path d="M176.74,154.3a4.3,4.3,0,0,0,1.72-.86,9.86,9.86,0,0,1,1.81-1c1.38-.61,2.63-1.46,4-2.12.24-.11.11-.45-.12-.46a1.15,1.15,0,0,0-.93.37.25.25,0,0,0,.35.35.7.7,0,0,1,.58-.22l-.13-.47c-1.31.64-2.53,1.46-3.86,2.06a10.1,10.1,0,0,0-1.73.89,4.67,4.67,0,0,1-1.8.95c-.32.06-.18.54.13.48Z" style="fill: #231f20"/>
    </g>
    <g>
      <path d="M176.12,171.65a7.44,7.44,0,0,0,1.11-.86,3.87,3.87,0,0,1,1.06-.46c.75-.32,1.33-1,2.06-1.34,1.74-.91,3.94-1.25,5.23-2.82l-.25.17" style="fill: #edf0f6"/>
      <path d="M176.24,171.86a9,9,0,0,0,1-.79,5.79,5.79,0,0,1,1.26-.59c.88-.43,1.58-1.14,2.48-1.54,1.65-.74,3.51-1.16,4.73-2.59.17-.2-.06-.56-.31-.39l-.25.17c-.27.17,0,.61.25.43l.25-.17-.3-.39c-1.21,1.42-3.11,1.81-4.75,2.56-.88.41-1.57,1.15-2.46,1.53a5.26,5.26,0,0,0-1.08.49c-.39.28-.71.61-1.12.85a.25.25,0,0,0,.25.43Z" style="fill: #231f20"/>
    </g>
    <g>
      <path d="M175.84,175.27a52.48,52.48,0,0,1,4.89-2.52c.59-.27,1.13-.53,1.69-.82a3.29,3.29,0,0,0,1-.56c.21-.23.19-.51.53-.56" style="fill: #edf0f6"/>
      <path d="M176,175.49c1.46-.84,2.95-1.64,4.48-2.34.71-.33,1.41-.66,2.11-1a4,4,0,0,0,.89-.47c.19-.15.33-.56.56-.62a.25.25,0,0,0-.14-.48.77.77,0,0,0-.5.4,1.59,1.59,0,0,1-.83.63c-.74.34-1.46.72-2.2,1.06a51.88,51.88,0,0,0-4.62,2.4.25.25,0,0,0,.25.43Z" style="fill: #231f20"/>
    </g>
    <g>
      <path d="M174.72,193.69a16.45,16.45,0,0,0,2.93-1.25,17.11,17.11,0,0,1,2.59-1.48c.59-.24,1.17-.4,1.74-.69s1.55-.6,1.65-1l-.26-.06" style="fill: #edf0f6"/>
      <path d="M174.79,193.93a21.39,21.39,0,0,0,2.58-1c.9-.48,1.71-1.13,2.64-1.56s1.64-.65,2.45-1c.48-.22,1.2-.44,1.41-1a.25.25,0,0,0-.17-.31l-.26-.06a.25.25,0,0,0-.13.48l.26.06-.18-.31c-.08.22-.5.36-.69.45s-.52.23-.78.36c-.8.37-1.66.6-2.44,1s-1.51,1-2.29,1.39a21.29,21.29,0,0,1-2.53,1c-.3.11-.17.6.13.48Z" style="fill: #231f20"/>
    </g>
    <g>
      <path d="M175.28,197a27.26,27.26,0,0,1,2.58-1.18c.76-.35,1.43-.82,2.22-1.12a8.37,8.37,0,0,0,2.18-1c.46-.37.81-.94,1.39-1.13" style="fill: #edf0f6"/>
      <path d="M175.41,197.26a19.76,19.76,0,0,1,2.24-1c.76-.33,1.46-.79,2.22-1.13a19.52,19.52,0,0,0,2.16-.93c.61-.38,1-1.1,1.69-1.35.3-.12.17-.6-.13-.49-.67.26-1,.84-1.58,1.25a10.74,10.74,0,0,1-2.26,1c-.76.33-1.46.79-2.22,1.13a25.49,25.49,0,0,0-2.38,1.08.26.26,0,0,0,.26.44Z" style="fill: #231f20"/>
    </g>
    <g>
      <path d="M184.49,208.48c-.37.45-1.17.34-1.67.22a18.6,18.6,0,0,0-2.26-.24c-1.12-.14-2.31-.38-3.41-.6-.48-.09-1.94-.34-1.87-1.05" style="fill: #edf0f6"/>
      <path d="M184.31,208.31c-.53.55-1.56.09-2.21,0-1-.1-1.95-.16-2.93-.33-.77-.14-1.54-.28-2.31-.45-.37-.08-1.34-.23-1.33-.74,0-.32-.49-.32-.5,0,0,.63.63.92,1.15,1.08a20.38,20.38,0,0,0,2.69.56c.56.1,1.12.19,1.69.26s1.17.06,1.74.15c.79.11,1.73.47,2.37-.2.22-.23-.13-.59-.36-.35Z" style="fill: #231f20"/>
    </g>
    <g>
      <path d="M176.4,78.44l-.26.16a3.19,3.19,0,0,1,1.23-.58,9.45,9.45,0,0,0,2.15-1,17.71,17.71,0,0,1,3-1.19c.4-.16.72-.39,1.1-.57a8.34,8.34,0,0,0,1.39-.54.48.48,0,0,0-.26-.5" style="fill: #edf0f6"/>
      <path d="M176.27,78.22l-.25.16.3.39a2.52,2.52,0,0,1,1-.49,10.47,10.47,0,0,0,1.32-.49c.46-.21.88-.49,1.33-.72a10.76,10.76,0,0,1,1.58-.61A9.38,9.38,0,0,0,183,76a8.39,8.39,0,0,1,1.4-.64c.28-.09.84-.2.93-.52a.75.75,0,0,0-.39-.76c-.26-.18-.51.25-.25.44a.23.23,0,0,1,.14.28l.13-.21a5.9,5.9,0,0,1-1.15.43c-.4.15-.74.4-1.13.58-.81.38-1.71.56-2.53.92s-1.53.86-2.37,1.16a4.34,4.34,0,0,0-1.76.79c-.19.2.05.55.3.39l.25-.16c.27-.17,0-.6-.25-.43Z" style="fill: #231f20"/>
    </g>
    <g>
      <path d="M176.4,186.16l0-.23c1-.32,2.09.3,3,.51s2.11.45,3.19.71a.47.47,0,0,0-.41-.16" style="fill: #edf0f6"/>
      <path d="M176.64,186.22l0-.23-.17.18c1-.28,1.91.27,2.81.49,1.09.27,2.19.47,3.28.73a.26.26,0,0,0,.25-.42.83.83,0,0,0-.59-.23c-.32,0-.33.51,0,.5a.25.25,0,0,1,.23.08l.24-.41c-1.14-.27-2.33-.46-3.46-.78a5.19,5.19,0,0,0-2.89-.45.27.27,0,0,0-.18.18l0,.23c-.07.31.41.45.48.13Z" style="fill: #231f20"/>
    </g>
    <g>
      <path d="M176.4,164.67h-.19a7.36,7.36,0,0,1,1.86.51,10.3,10.3,0,0,0,1.81.34c1.38.06,2.57-.28,4-.28h-.19" style="fill: #edf0f6"/>
      <path d="M176.4,164.42h-.19v.5a5.82,5.82,0,0,1,1.69.47,9,9,0,0,0,1.91.37c1.35.09,2.68-.26,4-.27a.25.25,0,0,0,0-.5h-.19a.25.25,0,0,0,0,.5h.19V165c-1.35,0-2.68.36-4,.27a7.85,7.85,0,0,1-2-.42,4.85,4.85,0,0,0-1.62-.42.25.25,0,0,0,0,.5h.19c.32,0,.32-.49,0-.5Z" style="fill: #231f20"/>
    </g>
    <g>
      <path d="M177,143.46c1.11,0,2.25-.07,3.35,0a3.41,3.41,0,0,1,.83.23,7.2,7.2,0,0,0,1.14,0c.54.05,1,.38,1.57.29h-.19" style="fill: #edf0f6"/>
      <path d="M177,143.71c.63,0,1.26,0,1.88,0a5.57,5.57,0,0,1,1.87.12,2.73,2.73,0,0,0,.75.17c.29,0,.6,0,.89,0a5.16,5.16,0,0,0,1.5.28c.31,0,.33-.51,0-.5h-.19a.25.25,0,0,0,0,.5h.19v-.5a5.63,5.63,0,0,1-1.46-.28,8.42,8.42,0,0,0-.87,0,5.28,5.28,0,0,1-.87-.22,6.74,6.74,0,0,0-1.74-.08l-2,0a.25.25,0,0,0,0,.5Z" style="fill: #231f20"/>
    </g>
    <g>
      <path d="M177,123.37c.09-.65.53-.06.83,0s.55,0,.85.05.48.18.72.25a12.16,12.16,0,0,0,1.78.27c.36,0,.69.23,1.06.27s.76-.11,1.15,0l0,.23" style="fill: #edf0f6"/>
      <path d="M177.2,123.43c0-.11-.09-.16,0-.07l.21.14a1.13,1.13,0,0,0,.54.16,2.63,2.63,0,0,1,.88.11,5.42,5.42,0,0,0,.87.26,13,13,0,0,1,1.75.27,3.17,3.17,0,0,0,.81.18,3.5,3.5,0,0,1,1,0l-.17-.17,0,.23c.05.32.53.18.48-.13l0-.24a.24.24,0,0,0-.17-.17,3.37,3.37,0,0,0-1,0,6.53,6.53,0,0,1-1.06-.25,15,15,0,0,1-2.09-.36,2.58,2.58,0,0,0-.91-.22,1.6,1.6,0,0,1-.49,0,1,1,0,0,1-.24-.15c-.39-.25-.76-.18-.86.32-.05.31.43.45.49.13Z" style="fill: #231f20"/>
    </g>
    <g>
      <path d="M177,101.88a5.92,5.92,0,0,1,2.45.62,7.3,7.3,0,0,0,2.86.22" style="fill: #edf0f6"/>
      <path d="M177,102.13a4.28,4.28,0,0,1,1.42.24c.43.14.84.36,1.27.49a9.57,9.57,0,0,0,2.62.11c.32,0,.32-.51,0-.5a7.53,7.53,0,0,1-2.64-.15c-.44-.15-.85-.36-1.29-.49a4.61,4.61,0,0,0-1.38-.2.25.25,0,0,0,0,.5Z" style="fill: #231f20"/>
    </g>
  </g>
</svg>
